M48
; DRILL file {KiCad (6.0.5)} date Tue Nov 22 19:08:05 2022
; FORMAT={-:-/ absolute / metric / decimal}
; #@! TF.CreationDate,2022-11-22T19:08:05-05:00
; #@! TF.GenerationSoftware,Kicad,Pcbnew,(6.0.5)
; #@! TF.FileFunction,Plated,1,2,PTH
FMAT,2
METRIC
; #@! TA.AperFunction,Plated,PTH,ViaDrill
T1C0.400
; #@! TA.AperFunction,Plated,PTH,ComponentDrill
T2C0.750
; #@! TA.AperFunction,Plated,PTH,ComponentDrill
T3C0.800
; #@! TA.AperFunction,Plated,PTH,ComponentDrill
T4C0.900
; #@! TA.AperFunction,Plated,PTH,ComponentDrill
T5C1.000
; #@! TA.AperFunction,Plated,PTH,ComponentDrill
T6C1.100
; #@! TA.AperFunction,Plated,PTH,ComponentDrill
T7C1.300
; #@! TA.AperFunction,Plated,PTH,ComponentDrill
T8C1.700
; #@! TA.AperFunction,Plated,PTH,ComponentDrill
T9C1.850
; #@! TA.AperFunction,Plated,PTH,ComponentDrill
T10C2.000
; #@! TA.AperFunction,Plated,PTH,ComponentDrill
T11C2.600
%
G90
G05
T1
X162.56Y-127.0
X162.56Y-139.7
X175.26Y-163.83
X190.5Y-137.16
X190.5Y-152.4
X193.04Y-175.26
X195.58Y-152.4
X199.39Y-200.66
X210.82Y-128.27
X210.82Y-146.05
X214.63Y-121.92
X215.9Y-176.53
X215.9Y-198.12
X217.17Y-114.3
X217.17Y-140.97
X218.44Y-144.78
X220.98Y-120.65
X220.98Y-198.12
X222.25Y-142.24
X223.52Y-109.22
X228.6Y-123.19
X229.87Y-116.84
X232.41Y-132.08
X233.68Y-113.03
X234.95Y-109.22
X236.22Y-180.34
X238.76Y-115.57
X238.76Y-182.88
X238.76Y-182.88
X246.38Y-96.52
X246.38Y-151.13
X247.65Y-111.76
X248.92Y-97.79
X250.19Y-143.51
X251.46Y-133.35
X252.73Y-135.89
X254.0Y-119.38
X255.27Y-124.46
X257.81Y-132.08
X260.35Y-149.86
X261.62Y-113.03
X269.869Y-107.95
X271.78Y-124.46
X273.05Y-115.57
X273.05Y-128.27
X280.67Y-109.22
X280.67Y-146.05
X285.75Y-163.83
X288.29Y-107.95
X288.29Y-111.76
X289.56Y-110.49
X294.64Y-101.6
X294.64Y-121.92
X309.88Y-160.02
T2
X114.3Y-163.1
X114.3Y-165.1
X137.16Y-185.42
X137.16Y-186.69
X137.16Y-187.96
T3
X125.73Y-142.24
X129.54Y-191.77
X129.54Y-204.47
X134.62Y-168.91
X134.62Y-181.61
X135.89Y-198.12
X138.43Y-142.24
X142.24Y-177.8
X144.78Y-177.8
X147.32Y-177.8
X148.59Y-198.12
X149.89Y-124.0
X149.89Y-134.16
X153.39Y-124.0
X154.89Y-134.16
X154.94Y-168.91
X154.94Y-181.61
X157.48Y-189.23
X157.48Y-201.93
X160.02Y-106.3
X160.02Y-111.3
X163.84Y-175.255
X163.84Y-177.795
X163.84Y-180.335
X163.84Y-182.875
X163.84Y-185.415
X163.84Y-187.955
X163.84Y-190.495
X165.1Y-170.18
X170.1Y-170.18
X171.46Y-175.255
X171.46Y-177.795
X171.46Y-180.335
X171.46Y-182.875
X171.46Y-185.415
X171.46Y-187.955
X171.46Y-190.495
X174.0Y-134.615
X174.0Y-137.155
X174.0Y-139.695
X174.0Y-142.235
X174.0Y-144.775
X174.0Y-147.315
X174.0Y-149.855
X175.3Y-129.54
X180.3Y-129.54
X181.62Y-134.615
X181.62Y-137.155
X181.62Y-139.695
X181.62Y-142.235
X181.62Y-144.775
X181.62Y-147.315
X181.62Y-149.855
X182.88Y-190.5
X182.88Y-195.5
X189.24Y-189.22
X189.24Y-196.84
X191.78Y-189.22
X191.78Y-196.84
X194.32Y-189.22
X194.32Y-196.84
X196.86Y-121.915
X196.86Y-124.455
X196.86Y-126.995
X196.86Y-129.535
X196.86Y-132.075
X196.86Y-134.615
X196.86Y-137.155
X196.86Y-160.015
X196.86Y-162.555
X196.86Y-165.095
X196.86Y-167.635
X196.86Y-170.175
X196.86Y-172.715
X196.86Y-175.255
X196.86Y-189.22
X196.86Y-196.84
X198.12Y-116.84
X198.12Y-154.94
X199.4Y-189.22
X199.4Y-196.84
X201.94Y-189.22
X201.94Y-196.84
X203.12Y-116.84
X203.12Y-154.94
X204.48Y-121.915
X204.48Y-124.455
X204.48Y-126.995
X204.48Y-129.535
X204.48Y-132.075
X204.48Y-134.615
X204.48Y-137.155
X204.48Y-160.015
X204.48Y-162.555
X204.48Y-165.095
X204.48Y-167.635
X204.48Y-170.175
X204.48Y-172.715
X204.48Y-175.255
X204.48Y-189.22
X204.48Y-196.84
X217.18Y-121.915
X217.18Y-124.455
X217.18Y-126.995
X217.18Y-129.535
X217.18Y-132.075
X217.18Y-134.615
X217.18Y-137.155
X218.44Y-116.84
X218.44Y-190.58
X218.44Y-195.58
X222.26Y-158.765
X222.26Y-161.305
X222.26Y-163.845
X222.26Y-166.385
X222.26Y-168.925
X222.26Y-171.465
X222.26Y-174.005
X222.26Y-176.545
X223.44Y-116.84
X223.515Y-189.22
X223.515Y-196.84
X223.52Y-152.4
X224.8Y-121.915
X224.8Y-124.455
X224.8Y-126.995
X224.8Y-129.535
X224.8Y-132.075
X224.8Y-134.615
X224.8Y-137.155
X226.055Y-189.22
X226.055Y-196.84
X228.52Y-152.4
X228.595Y-189.22
X228.595Y-196.84
X229.88Y-158.765
X229.88Y-161.305
X229.88Y-163.845
X229.88Y-166.385
X229.88Y-168.925
X229.88Y-171.465
X229.88Y-174.005
X229.88Y-176.545
X231.135Y-189.22
X231.135Y-196.84
X233.675Y-189.22
X233.675Y-196.84
X236.215Y-189.22
X236.215Y-196.84
X238.755Y-189.22
X238.755Y-196.84
X240.04Y-121.92
X240.04Y-124.46
X240.04Y-127.0
X240.04Y-129.54
X240.04Y-132.08
X240.04Y-134.62
X240.04Y-137.16
X241.3Y-116.84
X246.3Y-116.84
X247.66Y-121.92
X247.66Y-124.46
X247.66Y-127.0
X247.66Y-129.54
X247.66Y-132.08
X247.66Y-134.62
X247.66Y-137.16
X250.2Y-154.935
X250.2Y-157.475
X250.2Y-160.015
X250.2Y-162.555
X250.2Y-165.095
X250.2Y-167.635
X250.2Y-170.175
X251.46Y-185.46
X251.46Y-190.46
X251.54Y-149.86
X256.535Y-184.14
X256.535Y-191.76
X256.54Y-149.86
X257.82Y-154.935
X257.82Y-157.475
X257.82Y-160.015
X257.82Y-162.555
X257.82Y-165.095
X257.82Y-167.635
X257.82Y-170.175
X259.075Y-184.14
X259.075Y-191.76
X260.36Y-121.915
X260.36Y-124.455
X260.36Y-126.995
X260.36Y-129.535
X260.36Y-132.075
X260.36Y-134.615
X260.36Y-137.155
X261.615Y-184.14
X261.615Y-191.76
X261.62Y-116.84
X264.155Y-184.14
X264.155Y-191.76
X266.62Y-116.84
X266.695Y-184.14
X266.695Y-191.76
X267.98Y-121.915
X267.98Y-124.455
X267.98Y-126.995
X267.98Y-129.535
X267.98Y-132.075
X267.98Y-134.615
X267.98Y-137.155
X269.235Y-184.14
X269.235Y-191.76
X269.24Y-160.02
X269.24Y-165.02
X271.775Y-184.14
X271.775Y-191.76
X274.315Y-158.74
X274.315Y-166.36
X275.59Y-152.4
X276.855Y-158.74
X276.855Y-166.36
X279.395Y-158.74
X279.395Y-166.36
X280.68Y-123.205
X280.68Y-125.745
X280.68Y-128.285
X280.68Y-130.825
X280.68Y-133.365
X280.68Y-135.905
X280.68Y-138.445
X280.68Y-140.985
X281.935Y-158.74
X281.935Y-166.36
X281.94Y-116.84
X284.475Y-158.74
X284.475Y-166.36
X286.94Y-116.84
X287.015Y-158.74
X287.015Y-166.36
X288.29Y-152.4
X288.3Y-123.205
X288.3Y-125.745
X288.3Y-128.285
X288.3Y-130.825
X288.3Y-133.365
X288.3Y-135.905
X288.3Y-138.445
X288.3Y-140.985
X289.555Y-158.74
X289.555Y-166.36
X292.1Y-177.8
X295.6Y-177.8
X297.18Y-138.43
X297.18Y-151.13
X299.72Y-101.6
X299.72Y-114.3
X299.725Y-120.66
X299.725Y-128.28
X302.265Y-120.66
X302.265Y-128.28
X303.53Y-172.72
X304.805Y-120.66
X304.805Y-128.28
X306.08Y-147.315
X306.08Y-149.855
X306.08Y-152.395
X306.08Y-154.935
X306.08Y-157.475
X306.08Y-160.015
X306.08Y-162.555
X306.08Y-186.7
X306.08Y-189.24
X306.08Y-191.78
X306.08Y-194.32
X307.34Y-101.6
X307.345Y-120.66
X307.345Y-128.28
X307.42Y-142.24
X309.885Y-120.66
X309.885Y-128.28
X309.92Y-111.76
X312.24Y-101.6
X312.42Y-111.76
X312.42Y-142.24
X312.425Y-120.66
X312.425Y-128.28
X313.69Y-200.66
X313.7Y-147.315
X313.7Y-149.855
X313.7Y-152.395
X313.7Y-154.935
X313.7Y-157.475
X313.7Y-160.015
X313.7Y-162.555
X313.7Y-186.7
X313.7Y-189.24
X313.7Y-191.78
X313.7Y-194.32
X314.965Y-120.66
X314.965Y-128.28
X316.23Y-172.72
X320.04Y-102.87
X320.04Y-115.57
X322.58Y-122.0
X322.58Y-127.0
X322.58Y-147.32
X322.58Y-193.04
X326.38Y-147.32
X326.39Y-200.66
X327.58Y-193.04
T4
X114.3Y-147.32
X116.84Y-147.32
T5
X127.0Y-180.34
X127.0Y-182.88
X127.0Y-185.42
X128.28Y-160.02
X132.08Y-160.02
X147.32Y-185.42
X147.32Y-187.96
X224.79Y-102.352
X224.79Y-104.892
X227.33Y-102.352
X227.33Y-104.892
X229.87Y-102.352
X229.87Y-104.892
X232.41Y-102.352
X232.41Y-104.892
X234.95Y-102.352
X234.95Y-104.892
X237.49Y-102.352
X237.49Y-104.892
X240.03Y-102.352
X240.03Y-104.892
X242.57Y-102.352
X242.57Y-104.892
X245.11Y-102.352
X245.11Y-104.892
X247.65Y-102.352
X247.65Y-104.892
X250.19Y-102.352
X250.19Y-104.892
X252.73Y-102.352
X252.73Y-104.892
X255.27Y-102.352
X255.27Y-104.892
X257.81Y-102.352
X257.81Y-104.892
X260.35Y-102.352
X260.35Y-104.892
X262.89Y-102.352
X262.89Y-104.892
X265.43Y-102.352
X265.43Y-104.892
X267.97Y-102.352
X267.97Y-104.892
X270.51Y-102.352
X270.51Y-104.892
X273.05Y-102.352
X273.05Y-104.892
X321.32Y-180.34
X325.12Y-180.34
T6
X127.03Y-129.08
X137.19Y-129.08
X179.395Y-110.49
X179.395Y-113.03
X179.395Y-115.57
T7
X284.56Y-193.055
X284.56Y-198.055
X294.56Y-195.555
T8
X115.2Y-182.42
X168.91Y-95.25
X172.87Y-95.25
X176.83Y-95.25
X180.79Y-95.25
T9
X106.145Y-126.54
X106.145Y-131.62
X118.845Y-124.38
X118.845Y-129.08
X118.845Y-133.78
T10
X137.19Y-103.383
X137.19Y-113.383
T11
X110.7Y-182.42
X115.2Y-177.42
X115.2Y-187.42
T5
G00X109.25Y-106.802
M15
G01X109.25Y-108.802
M16
G05
G00X111.25Y-112.502
M15
G01X113.25Y-112.502
M16
G05
G00X115.25Y-106.802
M15
G01X115.25Y-108.802
M16
G05
T0
M30
