%TF.GenerationSoftware,KiCad,Pcbnew,(6.0.5)*%
%TF.CreationDate,2022-11-22T19:08:20-05:00*%
%TF.ProjectId,full video board,66756c6c-2076-4696-9465-6f20626f6172,rev?*%
%TF.SameCoordinates,Original*%
%TF.FileFunction,Soldermask,Top*%
%TF.FilePolarity,Negative*%
%FSLAX46Y46*%
G04 Gerber Fmt 4.6, Leading zero omitted, Abs format (unit mm)*
G04 Created by KiCad (PCBNEW (6.0.5)) date 2022-11-22 19:08:20*
%MOMM*%
%LPD*%
G01*
G04 APERTURE LIST*
G04 Aperture macros list*
%AMRoundRect*
0 Rectangle with rounded corners*
0 $1 Rounding radius*
0 $2 $3 $4 $5 $6 $7 $8 $9 X,Y pos of 4 corners*
0 Add a 4 corners polygon primitive as box body*
4,1,4,$2,$3,$4,$5,$6,$7,$8,$9,$2,$3,0*
0 Add four circle primitives for the rounded corners*
1,1,$1+$1,$2,$3*
1,1,$1+$1,$4,$5*
1,1,$1+$1,$6,$7*
1,1,$1+$1,$8,$9*
0 Add four rect primitives between the rounded corners*
20,1,$1+$1,$2,$3,$4,$5,0*
20,1,$1+$1,$4,$5,$6,$7,0*
20,1,$1+$1,$6,$7,$8,$9,0*
20,1,$1+$1,$8,$9,$2,$3,0*%
G04 Aperture macros list end*
%ADD10C,2.700000*%
%ADD11RoundRect,0.250001X-1.099999X-1.099999X1.099999X-1.099999X1.099999X1.099999X-1.099999X1.099999X0*%
%ADD12R,1.700000X1.700000*%
%ADD13O,1.700000X1.700000*%
%ADD14RoundRect,0.250000X0.600000X-0.600000X0.600000X0.600000X-0.600000X0.600000X-0.600000X-0.600000X0*%
%ADD15C,1.700000*%
%ADD16C,1.500000*%
%ADD17R,2.000000X1.905000*%
%ADD18O,2.000000X1.905000*%
%ADD19R,1.600000X1.600000*%
%ADD20O,1.600000X1.600000*%
%ADD21R,2.775000X2.775000*%
%ADD22C,2.775000*%
%ADD23C,1.440000*%
%ADD24C,2.340000*%
%ADD25C,1.600000*%
%ADD26R,1.500000X1.050000*%
%ADD27O,1.500000X1.050000*%
%ADD28RoundRect,0.250000X0.625000X-0.350000X0.625000X0.350000X-0.625000X0.350000X-0.625000X-0.350000X0*%
%ADD29O,1.750000X1.200000*%
%ADD30R,3.500000X3.500000*%
%ADD31RoundRect,0.750000X-0.750000X-1.000000X0.750000X-1.000000X0.750000X1.000000X-0.750000X1.000000X0*%
%ADD32RoundRect,0.875000X-0.875000X-0.875000X0.875000X-0.875000X0.875000X0.875000X-0.875000X0.875000X0*%
%ADD33C,2.550000*%
%ADD34C,3.616000*%
%ADD35R,1.800000X1.800000*%
%ADD36C,1.800000*%
%ADD37R,2.200000X2.200000*%
%ADD38O,2.200000X2.200000*%
%ADD39R,2.000000X2.000000*%
%ADD40C,2.000000*%
%ADD41R,4.000000X4.000000*%
%ADD42C,4.000000*%
G04 APERTURE END LIST*
D10*
%TO.C,*%
X106680000Y-88900000D03*
%TD*%
%TO.C,*%
X106680000Y-204470000D03*
%TD*%
%TO.C,*%
X336550000Y-204470000D03*
%TD*%
%TO.C,*%
X336550000Y-88900000D03*
%TD*%
D11*
%TO.C,J4*%
X168910000Y-95250000D03*
D10*
X172870000Y-95250000D03*
X176830000Y-95250000D03*
X180790000Y-95250000D03*
%TD*%
D12*
%TO.C,JP2*%
X127000000Y-185420000D03*
D13*
X127000000Y-182880000D03*
X127000000Y-180340000D03*
%TD*%
D14*
%TO.C,J2*%
X224790000Y-104892500D03*
D15*
X224790000Y-102352500D03*
X227330000Y-104892500D03*
X227330000Y-102352500D03*
X229870000Y-104892500D03*
X229870000Y-102352500D03*
X232410000Y-104892500D03*
X232410000Y-102352500D03*
X234950000Y-104892500D03*
X234950000Y-102352500D03*
X237490000Y-104892500D03*
X237490000Y-102352500D03*
X240030000Y-104892500D03*
X240030000Y-102352500D03*
X242570000Y-104892500D03*
X242570000Y-102352500D03*
X245110000Y-104892500D03*
X245110000Y-102352500D03*
X247650000Y-104892500D03*
X247650000Y-102352500D03*
X250190000Y-104892500D03*
X250190000Y-102352500D03*
X252730000Y-104892500D03*
X252730000Y-102352500D03*
X255270000Y-104892500D03*
X255270000Y-102352500D03*
X257810000Y-104892500D03*
X257810000Y-102352500D03*
X260350000Y-104892500D03*
X260350000Y-102352500D03*
X262890000Y-104892500D03*
X262890000Y-102352500D03*
X265430000Y-104892500D03*
X265430000Y-102352500D03*
X267970000Y-104892500D03*
X267970000Y-102352500D03*
X270510000Y-104892500D03*
X270510000Y-102352500D03*
X273050000Y-104892500D03*
X273050000Y-102352500D03*
%TD*%
D16*
%TO.C,Y1*%
X307340000Y-101600000D03*
X312240000Y-101600000D03*
%TD*%
D17*
%TO.C,U19*%
X179395000Y-110490000D03*
D18*
X179395000Y-113030000D03*
X179395000Y-115570000D03*
%TD*%
D19*
%TO.C,U18*%
X306080000Y-186700000D03*
D20*
X306080000Y-189240000D03*
X306080000Y-191780000D03*
X306080000Y-194320000D03*
X313700000Y-194320000D03*
X313700000Y-191780000D03*
X313700000Y-189240000D03*
X313700000Y-186700000D03*
%TD*%
D19*
%TO.C,U16*%
X163840000Y-175255000D03*
D20*
X163840000Y-177795000D03*
X163840000Y-180335000D03*
X163840000Y-182875000D03*
X163840000Y-185415000D03*
X163840000Y-187955000D03*
X163840000Y-190495000D03*
X171460000Y-190495000D03*
X171460000Y-187955000D03*
X171460000Y-185415000D03*
X171460000Y-182875000D03*
X171460000Y-180335000D03*
X171460000Y-177795000D03*
X171460000Y-175255000D03*
%TD*%
D19*
%TO.C,U15*%
X256535000Y-191760000D03*
D20*
X259075000Y-191760000D03*
X261615000Y-191760000D03*
X264155000Y-191760000D03*
X266695000Y-191760000D03*
X269235000Y-191760000D03*
X271775000Y-191760000D03*
X271775000Y-184140000D03*
X269235000Y-184140000D03*
X266695000Y-184140000D03*
X264155000Y-184140000D03*
X261615000Y-184140000D03*
X259075000Y-184140000D03*
X256535000Y-184140000D03*
%TD*%
D19*
%TO.C,U14*%
X189240000Y-196840000D03*
D20*
X191780000Y-196840000D03*
X194320000Y-196840000D03*
X196860000Y-196840000D03*
X199400000Y-196840000D03*
X201940000Y-196840000D03*
X204480000Y-196840000D03*
X204480000Y-189220000D03*
X201940000Y-189220000D03*
X199400000Y-189220000D03*
X196860000Y-189220000D03*
X194320000Y-189220000D03*
X191780000Y-189220000D03*
X189240000Y-189220000D03*
%TD*%
D19*
%TO.C,U13*%
X223515000Y-196840000D03*
D20*
X226055000Y-196840000D03*
X228595000Y-196840000D03*
X231135000Y-196840000D03*
X233675000Y-196840000D03*
X236215000Y-196840000D03*
X238755000Y-196840000D03*
X238755000Y-189220000D03*
X236215000Y-189220000D03*
X233675000Y-189220000D03*
X231135000Y-189220000D03*
X228595000Y-189220000D03*
X226055000Y-189220000D03*
X223515000Y-189220000D03*
%TD*%
D19*
%TO.C,U12*%
X217180000Y-121915000D03*
D20*
X217180000Y-124455000D03*
X217180000Y-126995000D03*
X217180000Y-129535000D03*
X217180000Y-132075000D03*
X217180000Y-134615000D03*
X217180000Y-137155000D03*
X224800000Y-137155000D03*
X224800000Y-134615000D03*
X224800000Y-132075000D03*
X224800000Y-129535000D03*
X224800000Y-126995000D03*
X224800000Y-124455000D03*
X224800000Y-121915000D03*
%TD*%
D19*
%TO.C,U11*%
X196860000Y-121915000D03*
D20*
X196860000Y-124455000D03*
X196860000Y-126995000D03*
X196860000Y-129535000D03*
X196860000Y-132075000D03*
X196860000Y-134615000D03*
X196860000Y-137155000D03*
X204480000Y-137155000D03*
X204480000Y-134615000D03*
X204480000Y-132075000D03*
X204480000Y-129535000D03*
X204480000Y-126995000D03*
X204480000Y-124455000D03*
X204480000Y-121915000D03*
%TD*%
D19*
%TO.C,U10*%
X222260000Y-158765000D03*
D20*
X222260000Y-161305000D03*
X222260000Y-163845000D03*
X222260000Y-166385000D03*
X222260000Y-168925000D03*
X222260000Y-171465000D03*
X222260000Y-174005000D03*
X222260000Y-176545000D03*
X229880000Y-176545000D03*
X229880000Y-174005000D03*
X229880000Y-171465000D03*
X229880000Y-168925000D03*
X229880000Y-166385000D03*
X229880000Y-163845000D03*
X229880000Y-161305000D03*
X229880000Y-158765000D03*
%TD*%
D19*
%TO.C,U9*%
X196860000Y-160015000D03*
D20*
X196860000Y-162555000D03*
X196860000Y-165095000D03*
X196860000Y-167635000D03*
X196860000Y-170175000D03*
X196860000Y-172715000D03*
X196860000Y-175255000D03*
X204480000Y-175255000D03*
X204480000Y-172715000D03*
X204480000Y-170175000D03*
X204480000Y-167635000D03*
X204480000Y-165095000D03*
X204480000Y-162555000D03*
X204480000Y-160015000D03*
%TD*%
D19*
%TO.C,U8*%
X174000000Y-134615000D03*
D20*
X174000000Y-137155000D03*
X174000000Y-139695000D03*
X174000000Y-142235000D03*
X174000000Y-144775000D03*
X174000000Y-147315000D03*
X174000000Y-149855000D03*
X181620000Y-149855000D03*
X181620000Y-147315000D03*
X181620000Y-144775000D03*
X181620000Y-142235000D03*
X181620000Y-139695000D03*
X181620000Y-137155000D03*
X181620000Y-134615000D03*
%TD*%
D19*
%TO.C,U7*%
X306080000Y-147315000D03*
D20*
X306080000Y-149855000D03*
X306080000Y-152395000D03*
X306080000Y-154935000D03*
X306080000Y-157475000D03*
X306080000Y-160015000D03*
X306080000Y-162555000D03*
X313700000Y-162555000D03*
X313700000Y-160015000D03*
X313700000Y-157475000D03*
X313700000Y-154935000D03*
X313700000Y-152395000D03*
X313700000Y-149855000D03*
X313700000Y-147315000D03*
%TD*%
D19*
%TO.C,U6*%
X250200000Y-154935000D03*
D20*
X250200000Y-157475000D03*
X250200000Y-160015000D03*
X250200000Y-162555000D03*
X250200000Y-165095000D03*
X250200000Y-167635000D03*
X250200000Y-170175000D03*
X257820000Y-170175000D03*
X257820000Y-167635000D03*
X257820000Y-165095000D03*
X257820000Y-162555000D03*
X257820000Y-160015000D03*
X257820000Y-157475000D03*
X257820000Y-154935000D03*
%TD*%
D19*
%TO.C,U5*%
X274315000Y-166360000D03*
D20*
X276855000Y-166360000D03*
X279395000Y-166360000D03*
X281935000Y-166360000D03*
X284475000Y-166360000D03*
X287015000Y-166360000D03*
X289555000Y-166360000D03*
X289555000Y-158740000D03*
X287015000Y-158740000D03*
X284475000Y-158740000D03*
X281935000Y-158740000D03*
X279395000Y-158740000D03*
X276855000Y-158740000D03*
X274315000Y-158740000D03*
%TD*%
D19*
%TO.C,U4*%
X260360000Y-121915000D03*
D20*
X260360000Y-124455000D03*
X260360000Y-126995000D03*
X260360000Y-129535000D03*
X260360000Y-132075000D03*
X260360000Y-134615000D03*
X260360000Y-137155000D03*
X267980000Y-137155000D03*
X267980000Y-134615000D03*
X267980000Y-132075000D03*
X267980000Y-129535000D03*
X267980000Y-126995000D03*
X267980000Y-124455000D03*
X267980000Y-121915000D03*
%TD*%
D19*
%TO.C,U3*%
X240040000Y-121920000D03*
D20*
X240040000Y-124460000D03*
X240040000Y-127000000D03*
X240040000Y-129540000D03*
X240040000Y-132080000D03*
X240040000Y-134620000D03*
X240040000Y-137160000D03*
X247660000Y-137160000D03*
X247660000Y-134620000D03*
X247660000Y-132080000D03*
X247660000Y-129540000D03*
X247660000Y-127000000D03*
X247660000Y-124460000D03*
X247660000Y-121920000D03*
%TD*%
D19*
%TO.C,U2*%
X280680000Y-123205000D03*
D20*
X280680000Y-125745000D03*
X280680000Y-128285000D03*
X280680000Y-130825000D03*
X280680000Y-133365000D03*
X280680000Y-135905000D03*
X280680000Y-138445000D03*
X280680000Y-140985000D03*
X288300000Y-140985000D03*
X288300000Y-138445000D03*
X288300000Y-135905000D03*
X288300000Y-133365000D03*
X288300000Y-130825000D03*
X288300000Y-128285000D03*
X288300000Y-125745000D03*
X288300000Y-123205000D03*
%TD*%
D19*
%TO.C,U1*%
X314965000Y-120660000D03*
D20*
X312425000Y-120660000D03*
X309885000Y-120660000D03*
X307345000Y-120660000D03*
X304805000Y-120660000D03*
X302265000Y-120660000D03*
X299725000Y-120660000D03*
X299725000Y-128280000D03*
X302265000Y-128280000D03*
X304805000Y-128280000D03*
X307345000Y-128280000D03*
X309885000Y-128280000D03*
X312425000Y-128280000D03*
X314965000Y-128280000D03*
%TD*%
D21*
%TO.C,S1*%
X118845000Y-133780000D03*
D22*
X118845000Y-129080000D03*
X118845000Y-124380000D03*
X106145000Y-126540000D03*
X106145000Y-131620000D03*
%TD*%
D23*
%TO.C,RV2*%
X147320000Y-177800000D03*
X144780000Y-177800000D03*
X142240000Y-177800000D03*
%TD*%
D24*
%TO.C,RV1*%
X284560000Y-198055000D03*
X294560000Y-195555000D03*
X284560000Y-193055000D03*
%TD*%
D25*
%TO.C,R12*%
X138430000Y-142240000D03*
D20*
X125730000Y-142240000D03*
%TD*%
D25*
%TO.C,R11*%
X313690000Y-200660000D03*
D20*
X326390000Y-200660000D03*
%TD*%
D25*
%TO.C,R10*%
X157480000Y-201930000D03*
D20*
X157480000Y-189230000D03*
%TD*%
D25*
%TO.C,R9*%
X154940000Y-181610000D03*
D20*
X154940000Y-168910000D03*
%TD*%
%TO.C,R8*%
X129540000Y-191770000D03*
D25*
X129540000Y-204470000D03*
%TD*%
%TO.C,R7*%
X148590000Y-198120000D03*
D20*
X135890000Y-198120000D03*
%TD*%
D25*
%TO.C,R6*%
X134620000Y-181610000D03*
D20*
X134620000Y-168910000D03*
%TD*%
D25*
%TO.C,R5*%
X275590000Y-152400000D03*
D20*
X288290000Y-152400000D03*
%TD*%
D25*
%TO.C,R4*%
X297180000Y-151130000D03*
D20*
X297180000Y-138430000D03*
%TD*%
D25*
%TO.C,R3*%
X303530000Y-172720000D03*
D20*
X316230000Y-172720000D03*
%TD*%
D25*
%TO.C,R2*%
X320040000Y-115570000D03*
D20*
X320040000Y-102870000D03*
%TD*%
D25*
%TO.C,R1*%
X299720000Y-101600000D03*
D20*
X299720000Y-114300000D03*
%TD*%
D26*
%TO.C,Q1*%
X137160000Y-187960000D03*
D27*
X137160000Y-186690000D03*
X137160000Y-185420000D03*
%TD*%
D12*
%TO.C,JP1*%
X147320000Y-185420000D03*
D13*
X147320000Y-187960000D03*
%TD*%
D28*
%TO.C,J5*%
X114300000Y-165100000D03*
D29*
X114300000Y-163100000D03*
%TD*%
D30*
%TO.C,J3*%
X115250000Y-107802500D03*
D31*
X109250000Y-107802500D03*
D32*
X112250000Y-112502500D03*
%TD*%
D33*
%TO.C,J1*%
X115200000Y-182420000D03*
D34*
X115200000Y-177420000D03*
X115200000Y-187420000D03*
X110700000Y-182420000D03*
%TD*%
D35*
%TO.C,D2*%
X114300000Y-147320000D03*
D36*
X116840000Y-147320000D03*
%TD*%
D37*
%TO.C,D1*%
X137190000Y-129080000D03*
D38*
X127030000Y-129080000D03*
%TD*%
D25*
%TO.C,C26*%
X149890000Y-134160000D03*
X154890000Y-134160000D03*
%TD*%
D19*
%TO.C,C25*%
X149890000Y-124000000D03*
D25*
X153390000Y-124000000D03*
%TD*%
D39*
%TO.C,C24*%
X132080000Y-160020000D03*
D40*
X128280000Y-160020000D03*
%TD*%
D25*
%TO.C,C23*%
X322580000Y-193040000D03*
X327580000Y-193040000D03*
%TD*%
D19*
%TO.C,C22*%
X292100000Y-177800000D03*
D25*
X295600000Y-177800000D03*
%TD*%
D39*
%TO.C,C21*%
X325120000Y-180340000D03*
D40*
X321320000Y-180340000D03*
%TD*%
D25*
%TO.C,C20*%
X160020000Y-111300000D03*
X160020000Y-106300000D03*
%TD*%
D41*
%TO.C,C19*%
X137190000Y-113382858D03*
D42*
X137190000Y-103382858D03*
%TD*%
D25*
%TO.C,C18*%
X218440000Y-195580000D03*
X218440000Y-190580000D03*
%TD*%
D19*
%TO.C,C17*%
X322580000Y-147320000D03*
D25*
X326380000Y-147320000D03*
%TD*%
%TO.C,C16*%
X251460000Y-190460000D03*
X251460000Y-185460000D03*
%TD*%
%TO.C,C15*%
X218440000Y-116840000D03*
X223440000Y-116840000D03*
%TD*%
%TO.C,C14*%
X198120000Y-116840000D03*
X203120000Y-116840000D03*
%TD*%
%TO.C,C13*%
X312420000Y-142240000D03*
X307420000Y-142240000D03*
%TD*%
%TO.C,C12*%
X223520000Y-152400000D03*
X228520000Y-152400000D03*
%TD*%
%TO.C,C11*%
X269240000Y-160020000D03*
X269240000Y-165020000D03*
%TD*%
%TO.C,C10*%
X182880000Y-190500000D03*
X182880000Y-195500000D03*
%TD*%
%TO.C,C9*%
X165100000Y-170180000D03*
X170100000Y-170180000D03*
%TD*%
%TO.C,C8*%
X256540000Y-149860000D03*
X251540000Y-149860000D03*
%TD*%
%TO.C,C7*%
X180300000Y-129540000D03*
X175300000Y-129540000D03*
%TD*%
%TO.C,C6*%
X198120000Y-154940000D03*
X203120000Y-154940000D03*
%TD*%
%TO.C,C5*%
X241300000Y-116840000D03*
X246300000Y-116840000D03*
%TD*%
%TO.C,C4*%
X261620000Y-116840000D03*
X266620000Y-116840000D03*
%TD*%
%TO.C,C3*%
X281940000Y-116840000D03*
X286940000Y-116840000D03*
%TD*%
%TO.C,C2*%
X322580000Y-127000000D03*
X322580000Y-122000000D03*
%TD*%
%TO.C,C1*%
X309920000Y-111760000D03*
X312420000Y-111760000D03*
%TD*%
M02*
