%FSLAX45Y45*%
G04 Gerber Fmt 4.5, Leading zero omitted, Abs format (unit mm)*
G04 Created by KiCad (PCBNEW (6.0.5)) date 2022-11-22 19:08:03*
%MOMM*%
%LPD*%
G01*
G04 APERTURE LIST*
%TA.AperFunction,Profile*%
%ADD10C,0.100000*%
%TD*%
%ADD11C,0.200000*%
%ADD12C,0.040000*%
%ADD13C,0.075000*%
%ADD14C,0.080000*%
%ADD15C,0.090000*%
%ADD16C,0.100000*%
%ADD17C,0.110000*%
%ADD18C,0.130000*%
%ADD19C,0.170000*%
%ADD20C,0.185000*%
%ADD21C,0.260000*%
G04 APERTURE END LIST*
D10*
X10287000Y-8509000D02*
X34036000Y-8509000D01*
X34036000Y-8509000D02*
X34036000Y-20828000D01*
X34036000Y-20828000D02*
X10287000Y-20828000D01*
X10287000Y-20828000D02*
X10287000Y-8509000D01*
D11*
D12*
X16236000Y-12680000D02*
X16276000Y-12720000D01*
X16276000Y-12680000D02*
X16236000Y-12720000D01*
X16236000Y-13950000D02*
X16276000Y-13990000D01*
X16276000Y-13950000D02*
X16236000Y-13990000D01*
X17506000Y-16363000D02*
X17546000Y-16403000D01*
X17546000Y-16363000D02*
X17506000Y-16403000D01*
X19030000Y-13696000D02*
X19070000Y-13736000D01*
X19070000Y-13696000D02*
X19030000Y-13736000D01*
X19030000Y-15220000D02*
X19070000Y-15260000D01*
X19070000Y-15220000D02*
X19030000Y-15260000D01*
X19284000Y-17506000D02*
X19324000Y-17546000D01*
X19324000Y-17506000D02*
X19284000Y-17546000D01*
X19538000Y-15220000D02*
X19578000Y-15260000D01*
X19578000Y-15220000D02*
X19538000Y-15260000D01*
X19919000Y-20046000D02*
X19959000Y-20086000D01*
X19959000Y-20046000D02*
X19919000Y-20086000D01*
X21062000Y-12807000D02*
X21102000Y-12847000D01*
X21102000Y-12807000D02*
X21062000Y-12847000D01*
X21062000Y-14585000D02*
X21102000Y-14625000D01*
X21102000Y-14585000D02*
X21062000Y-14625000D01*
X21443000Y-12172000D02*
X21483000Y-12212000D01*
X21483000Y-12172000D02*
X21443000Y-12212000D01*
X21570000Y-17633000D02*
X21610000Y-17673000D01*
X21610000Y-17633000D02*
X21570000Y-17673000D01*
X21570000Y-19792000D02*
X21610000Y-19832000D01*
X21610000Y-19792000D02*
X21570000Y-19832000D01*
X21697000Y-11410000D02*
X21737000Y-11450000D01*
X21737000Y-11410000D02*
X21697000Y-11450000D01*
X21697000Y-14077000D02*
X21737000Y-14117000D01*
X21737000Y-14077000D02*
X21697000Y-14117000D01*
X21824000Y-14458000D02*
X21864000Y-14498000D01*
X21864000Y-14458000D02*
X21824000Y-14498000D01*
X22078000Y-12045000D02*
X22118000Y-12085000D01*
X22118000Y-12045000D02*
X22078000Y-12085000D01*
X22078000Y-19792000D02*
X22118000Y-19832000D01*
X22118000Y-19792000D02*
X22078000Y-19832000D01*
X22205000Y-14204000D02*
X22245000Y-14244000D01*
X22245000Y-14204000D02*
X22205000Y-14244000D01*
X22332000Y-10902000D02*
X22372000Y-10942000D01*
X22372000Y-10902000D02*
X22332000Y-10942000D01*
X22840000Y-12299000D02*
X22880000Y-12339000D01*
X22880000Y-12299000D02*
X22840000Y-12339000D01*
X22967000Y-11664000D02*
X23007000Y-11704000D01*
X23007000Y-11664000D02*
X22967000Y-11704000D01*
X23221000Y-13188000D02*
X23261000Y-13228000D01*
X23261000Y-13188000D02*
X23221000Y-13228000D01*
X23348000Y-11283000D02*
X23388000Y-11323000D01*
X23388000Y-11283000D02*
X23348000Y-11323000D01*
X23475000Y-10902000D02*
X23515000Y-10942000D01*
X23515000Y-10902000D02*
X23475000Y-10942000D01*
X23602000Y-18014000D02*
X23642000Y-18054000D01*
X23642000Y-18014000D02*
X23602000Y-18054000D01*
X23856000Y-11537000D02*
X23896000Y-11577000D01*
X23896000Y-11537000D02*
X23856000Y-11577000D01*
X23856000Y-18268000D02*
X23896000Y-18308000D01*
X23896000Y-18268000D02*
X23856000Y-18308000D01*
X23856000Y-18268000D02*
X23896000Y-18308000D01*
X23896000Y-18268000D02*
X23856000Y-18308000D01*
X24618000Y-9632000D02*
X24658000Y-9672000D01*
X24658000Y-9632000D02*
X24618000Y-9672000D01*
X24618000Y-15093000D02*
X24658000Y-15133000D01*
X24658000Y-15093000D02*
X24618000Y-15133000D01*
X24745000Y-11156000D02*
X24785000Y-11196000D01*
X24785000Y-11156000D02*
X24745000Y-11196000D01*
X24872000Y-9759000D02*
X24912000Y-9799000D01*
X24912000Y-9759000D02*
X24872000Y-9799000D01*
X24999000Y-14331000D02*
X25039000Y-14371000D01*
X25039000Y-14331000D02*
X24999000Y-14371000D01*
X25126000Y-13315000D02*
X25166000Y-13355000D01*
X25166000Y-13315000D02*
X25126000Y-13355000D01*
X25253000Y-13569000D02*
X25293000Y-13609000D01*
X25293000Y-13569000D02*
X25253000Y-13609000D01*
X25380000Y-11918000D02*
X25420000Y-11958000D01*
X25420000Y-11918000D02*
X25380000Y-11958000D01*
X25507000Y-12426000D02*
X25547000Y-12466000D01*
X25547000Y-12426000D02*
X25507000Y-12466000D01*
X25761000Y-13188000D02*
X25801000Y-13228000D01*
X25801000Y-13188000D02*
X25761000Y-13228000D01*
X26015000Y-14966000D02*
X26055000Y-15006000D01*
X26055000Y-14966000D02*
X26015000Y-15006000D01*
X26142000Y-11283000D02*
X26182000Y-11323000D01*
X26182000Y-11283000D02*
X26142000Y-11323000D01*
X26966901Y-10775000D02*
X27006901Y-10815000D01*
X27006901Y-10775000D02*
X26966901Y-10815000D01*
X27158000Y-12426000D02*
X27198000Y-12466000D01*
X27198000Y-12426000D02*
X27158000Y-12466000D01*
X27285000Y-11537000D02*
X27325000Y-11577000D01*
X27325000Y-11537000D02*
X27285000Y-11577000D01*
X27285000Y-12807000D02*
X27325000Y-12847000D01*
X27325000Y-12807000D02*
X27285000Y-12847000D01*
X28047000Y-10902000D02*
X28087000Y-10942000D01*
X28087000Y-10902000D02*
X28047000Y-10942000D01*
X28047000Y-14585000D02*
X28087000Y-14625000D01*
X28087000Y-14585000D02*
X28047000Y-14625000D01*
X28555000Y-16363000D02*
X28595000Y-16403000D01*
X28595000Y-16363000D02*
X28555000Y-16403000D01*
X28809000Y-10775000D02*
X28849000Y-10815000D01*
X28849000Y-10775000D02*
X28809000Y-10815000D01*
X28809000Y-11156000D02*
X28849000Y-11196000D01*
X28849000Y-11156000D02*
X28809000Y-11196000D01*
X28936000Y-11029000D02*
X28976000Y-11069000D01*
X28976000Y-11029000D02*
X28936000Y-11069000D01*
X29444000Y-10140000D02*
X29484000Y-10180000D01*
X29484000Y-10140000D02*
X29444000Y-10180000D01*
X29444000Y-12172000D02*
X29484000Y-12212000D01*
X29484000Y-12172000D02*
X29444000Y-12212000D01*
X30968000Y-15982000D02*
X31008000Y-16022000D01*
X31008000Y-15982000D02*
X30968000Y-16022000D01*
D13*
X11467500Y-16310000D02*
G75*
G03*
X11467500Y-16310000I-37500J0D01*
G01*
X11467500Y-16510000D02*
G75*
G03*
X11467500Y-16510000I-37500J0D01*
G01*
X13753500Y-18542000D02*
G75*
G03*
X13753500Y-18542000I-37500J0D01*
G01*
X13753500Y-18669000D02*
G75*
G03*
X13753500Y-18669000I-37500J0D01*
G01*
X13753500Y-18796000D02*
G75*
G03*
X13753500Y-18796000I-37500J0D01*
G01*
D14*
X12573000Y-14184000D02*
X12573000Y-14264000D01*
X12533000Y-14224000D02*
X12613000Y-14224000D01*
X12954000Y-19137000D02*
X12954000Y-19217000D01*
X12914000Y-19177000D02*
X12994000Y-19177000D01*
X12954000Y-20407000D02*
X12954000Y-20487000D01*
X12914000Y-20447000D02*
X12994000Y-20447000D01*
X13462000Y-16851000D02*
X13462000Y-16931000D01*
X13422000Y-16891000D02*
X13502000Y-16891000D01*
X13462000Y-18121000D02*
X13462000Y-18201000D01*
X13422000Y-18161000D02*
X13502000Y-18161000D01*
X13589000Y-19772000D02*
X13589000Y-19852000D01*
X13549000Y-19812000D02*
X13629000Y-19812000D01*
X13843000Y-14184000D02*
X13843000Y-14264000D01*
X13803000Y-14224000D02*
X13883000Y-14224000D01*
X14224000Y-17740000D02*
X14224000Y-17820000D01*
X14184000Y-17780000D02*
X14264000Y-17780000D01*
X14478000Y-17740000D02*
X14478000Y-17820000D01*
X14438000Y-17780000D02*
X14518000Y-17780000D01*
X14732000Y-17740000D02*
X14732000Y-17820000D01*
X14692000Y-17780000D02*
X14772000Y-17780000D01*
X14859000Y-19772000D02*
X14859000Y-19852000D01*
X14819000Y-19812000D02*
X14899000Y-19812000D01*
X14989000Y-12360000D02*
X14989000Y-12440000D01*
X14949000Y-12400000D02*
X15029000Y-12400000D01*
X14989000Y-13376000D02*
X14989000Y-13456000D01*
X14949000Y-13416000D02*
X15029000Y-13416000D01*
X15339000Y-12360000D02*
X15339000Y-12440000D01*
X15299000Y-12400000D02*
X15379000Y-12400000D01*
X15489000Y-13376000D02*
X15489000Y-13456000D01*
X15449000Y-13416000D02*
X15529000Y-13416000D01*
X15494000Y-16851000D02*
X15494000Y-16931000D01*
X15454000Y-16891000D02*
X15534000Y-16891000D01*
X15494000Y-18121000D02*
X15494000Y-18201000D01*
X15454000Y-18161000D02*
X15534000Y-18161000D01*
X15748000Y-18883000D02*
X15748000Y-18963000D01*
X15708000Y-18923000D02*
X15788000Y-18923000D01*
X15748000Y-20153000D02*
X15748000Y-20233000D01*
X15708000Y-20193000D02*
X15788000Y-20193000D01*
X16002000Y-10590000D02*
X16002000Y-10670000D01*
X15962000Y-10630000D02*
X16042000Y-10630000D01*
X16002000Y-11090000D02*
X16002000Y-11170000D01*
X15962000Y-11130000D02*
X16042000Y-11130000D01*
X16384000Y-17485500D02*
X16384000Y-17565500D01*
X16344000Y-17525500D02*
X16424000Y-17525500D01*
X16384000Y-17739500D02*
X16384000Y-17819500D01*
X16344000Y-17779500D02*
X16424000Y-17779500D01*
X16384000Y-17993500D02*
X16384000Y-18073500D01*
X16344000Y-18033500D02*
X16424000Y-18033500D01*
X16384000Y-18247500D02*
X16384000Y-18327500D01*
X16344000Y-18287500D02*
X16424000Y-18287500D01*
X16384000Y-18501500D02*
X16384000Y-18581500D01*
X16344000Y-18541500D02*
X16424000Y-18541500D01*
X16384000Y-18755500D02*
X16384000Y-18835500D01*
X16344000Y-18795500D02*
X16424000Y-18795500D01*
X16384000Y-19009500D02*
X16384000Y-19089500D01*
X16344000Y-19049500D02*
X16424000Y-19049500D01*
X16510000Y-16978000D02*
X16510000Y-17058000D01*
X16470000Y-17018000D02*
X16550000Y-17018000D01*
X17010000Y-16978000D02*
X17010000Y-17058000D01*
X16970000Y-17018000D02*
X17050000Y-17018000D01*
X17146000Y-17485500D02*
X17146000Y-17565500D01*
X17106000Y-17525500D02*
X17186000Y-17525500D01*
X17146000Y-17739500D02*
X17146000Y-17819500D01*
X17106000Y-17779500D02*
X17186000Y-17779500D01*
X17146000Y-17993500D02*
X17146000Y-18073500D01*
X17106000Y-18033500D02*
X17186000Y-18033500D01*
X17146000Y-18247500D02*
X17146000Y-18327500D01*
X17106000Y-18287500D02*
X17186000Y-18287500D01*
X17146000Y-18501500D02*
X17146000Y-18581500D01*
X17106000Y-18541500D02*
X17186000Y-18541500D01*
X17146000Y-18755500D02*
X17146000Y-18835500D01*
X17106000Y-18795500D02*
X17186000Y-18795500D01*
X17146000Y-19009500D02*
X17146000Y-19089500D01*
X17106000Y-19049500D02*
X17186000Y-19049500D01*
X17400000Y-13421500D02*
X17400000Y-13501500D01*
X17360000Y-13461500D02*
X17440000Y-13461500D01*
X17400000Y-13675500D02*
X17400000Y-13755500D01*
X17360000Y-13715500D02*
X17440000Y-13715500D01*
X17400000Y-13929500D02*
X17400000Y-14009500D01*
X17360000Y-13969500D02*
X17440000Y-13969500D01*
X17400000Y-14183500D02*
X17400000Y-14263500D01*
X17360000Y-14223500D02*
X17440000Y-14223500D01*
X17400000Y-14437500D02*
X17400000Y-14517500D01*
X17360000Y-14477500D02*
X17440000Y-14477500D01*
X17400000Y-14691500D02*
X17400000Y-14771500D01*
X17360000Y-14731500D02*
X17440000Y-14731500D01*
X17400000Y-14945500D02*
X17400000Y-15025500D01*
X17360000Y-14985500D02*
X17440000Y-14985500D01*
X17530000Y-12914000D02*
X17530000Y-12994000D01*
X17490000Y-12954000D02*
X17570000Y-12954000D01*
X18030000Y-12914000D02*
X18030000Y-12994000D01*
X17990000Y-12954000D02*
X18070000Y-12954000D01*
X18162000Y-13421500D02*
X18162000Y-13501500D01*
X18122000Y-13461500D02*
X18202000Y-13461500D01*
X18162000Y-13675500D02*
X18162000Y-13755500D01*
X18122000Y-13715500D02*
X18202000Y-13715500D01*
X18162000Y-13929500D02*
X18162000Y-14009500D01*
X18122000Y-13969500D02*
X18202000Y-13969500D01*
X18162000Y-14183500D02*
X18162000Y-14263500D01*
X18122000Y-14223500D02*
X18202000Y-14223500D01*
X18162000Y-14437500D02*
X18162000Y-14517500D01*
X18122000Y-14477500D02*
X18202000Y-14477500D01*
X18162000Y-14691500D02*
X18162000Y-14771500D01*
X18122000Y-14731500D02*
X18202000Y-14731500D01*
X18162000Y-14945500D02*
X18162000Y-15025500D01*
X18122000Y-14985500D02*
X18202000Y-14985500D01*
X18288000Y-19010000D02*
X18288000Y-19090000D01*
X18248000Y-19050000D02*
X18328000Y-19050000D01*
X18288000Y-19510000D02*
X18288000Y-19590000D01*
X18248000Y-19550000D02*
X18328000Y-19550000D01*
X18924000Y-18882000D02*
X18924000Y-18962000D01*
X18884000Y-18922000D02*
X18964000Y-18922000D01*
X18924000Y-19644000D02*
X18924000Y-19724000D01*
X18884000Y-19684000D02*
X18964000Y-19684000D01*
X19178000Y-18882000D02*
X19178000Y-18962000D01*
X19138000Y-18922000D02*
X19218000Y-18922000D01*
X19178000Y-19644000D02*
X19178000Y-19724000D01*
X19138000Y-19684000D02*
X19218000Y-19684000D01*
X19432000Y-18882000D02*
X19432000Y-18962000D01*
X19392000Y-18922000D02*
X19472000Y-18922000D01*
X19432000Y-19644000D02*
X19432000Y-19724000D01*
X19392000Y-19684000D02*
X19472000Y-19684000D01*
X19686000Y-12151500D02*
X19686000Y-12231500D01*
X19646000Y-12191500D02*
X19726000Y-12191500D01*
X19686000Y-12405500D02*
X19686000Y-12485500D01*
X19646000Y-12445500D02*
X19726000Y-12445500D01*
X19686000Y-12659500D02*
X19686000Y-12739500D01*
X19646000Y-12699500D02*
X19726000Y-12699500D01*
X19686000Y-12913500D02*
X19686000Y-12993500D01*
X19646000Y-12953500D02*
X19726000Y-12953500D01*
X19686000Y-13167500D02*
X19686000Y-13247500D01*
X19646000Y-13207500D02*
X19726000Y-13207500D01*
X19686000Y-13421500D02*
X19686000Y-13501500D01*
X19646000Y-13461500D02*
X19726000Y-13461500D01*
X19686000Y-13675500D02*
X19686000Y-13755500D01*
X19646000Y-13715500D02*
X19726000Y-13715500D01*
X19686000Y-15961500D02*
X19686000Y-16041500D01*
X19646000Y-16001500D02*
X19726000Y-16001500D01*
X19686000Y-16215500D02*
X19686000Y-16295500D01*
X19646000Y-16255500D02*
X19726000Y-16255500D01*
X19686000Y-16469500D02*
X19686000Y-16549500D01*
X19646000Y-16509500D02*
X19726000Y-16509500D01*
X19686000Y-16723500D02*
X19686000Y-16803500D01*
X19646000Y-16763500D02*
X19726000Y-16763500D01*
X19686000Y-16977500D02*
X19686000Y-17057500D01*
X19646000Y-17017500D02*
X19726000Y-17017500D01*
X19686000Y-17231500D02*
X19686000Y-17311500D01*
X19646000Y-17271500D02*
X19726000Y-17271500D01*
X19686000Y-17485500D02*
X19686000Y-17565500D01*
X19646000Y-17525500D02*
X19726000Y-17525500D01*
X19686000Y-18882000D02*
X19686000Y-18962000D01*
X19646000Y-18922000D02*
X19726000Y-18922000D01*
X19686000Y-19644000D02*
X19686000Y-19724000D01*
X19646000Y-19684000D02*
X19726000Y-19684000D01*
X19812000Y-11644000D02*
X19812000Y-11724000D01*
X19772000Y-11684000D02*
X19852000Y-11684000D01*
X19812000Y-15454000D02*
X19812000Y-15534000D01*
X19772000Y-15494000D02*
X19852000Y-15494000D01*
X19940000Y-18882000D02*
X19940000Y-18962000D01*
X19900000Y-18922000D02*
X19980000Y-18922000D01*
X19940000Y-19644000D02*
X19940000Y-19724000D01*
X19900000Y-19684000D02*
X19980000Y-19684000D01*
X20194000Y-18882000D02*
X20194000Y-18962000D01*
X20154000Y-18922000D02*
X20234000Y-18922000D01*
X20194000Y-19644000D02*
X20194000Y-19724000D01*
X20154000Y-19684000D02*
X20234000Y-19684000D01*
X20312000Y-11644000D02*
X20312000Y-11724000D01*
X20272000Y-11684000D02*
X20352000Y-11684000D01*
X20312000Y-15454000D02*
X20312000Y-15534000D01*
X20272000Y-15494000D02*
X20352000Y-15494000D01*
X20448000Y-12151500D02*
X20448000Y-12231500D01*
X20408000Y-12191500D02*
X20488000Y-12191500D01*
X20448000Y-12405500D02*
X20448000Y-12485500D01*
X20408000Y-12445500D02*
X20488000Y-12445500D01*
X20448000Y-12659500D02*
X20448000Y-12739500D01*
X20408000Y-12699500D02*
X20488000Y-12699500D01*
X20448000Y-12913500D02*
X20448000Y-12993500D01*
X20408000Y-12953500D02*
X20488000Y-12953500D01*
X20448000Y-13167500D02*
X20448000Y-13247500D01*
X20408000Y-13207500D02*
X20488000Y-13207500D01*
X20448000Y-13421500D02*
X20448000Y-13501500D01*
X20408000Y-13461500D02*
X20488000Y-13461500D01*
X20448000Y-13675500D02*
X20448000Y-13755500D01*
X20408000Y-13715500D02*
X20488000Y-13715500D01*
X20448000Y-15961500D02*
X20448000Y-16041500D01*
X20408000Y-16001500D02*
X20488000Y-16001500D01*
X20448000Y-16215500D02*
X20448000Y-16295500D01*
X20408000Y-16255500D02*
X20488000Y-16255500D01*
X20448000Y-16469500D02*
X20448000Y-16549500D01*
X20408000Y-16509500D02*
X20488000Y-16509500D01*
X20448000Y-16723500D02*
X20448000Y-16803500D01*
X20408000Y-16763500D02*
X20488000Y-16763500D01*
X20448000Y-16977500D02*
X20448000Y-17057500D01*
X20408000Y-17017500D02*
X20488000Y-17017500D01*
X20448000Y-17231500D02*
X20448000Y-17311500D01*
X20408000Y-17271500D02*
X20488000Y-17271500D01*
X20448000Y-17485500D02*
X20448000Y-17565500D01*
X20408000Y-17525500D02*
X20488000Y-17525500D01*
X20448000Y-18882000D02*
X20448000Y-18962000D01*
X20408000Y-18922000D02*
X20488000Y-18922000D01*
X20448000Y-19644000D02*
X20448000Y-19724000D01*
X20408000Y-19684000D02*
X20488000Y-19684000D01*
X21718000Y-12151500D02*
X21718000Y-12231500D01*
X21678000Y-12191500D02*
X21758000Y-12191500D01*
X21718000Y-12405500D02*
X21718000Y-12485500D01*
X21678000Y-12445500D02*
X21758000Y-12445500D01*
X21718000Y-12659500D02*
X21718000Y-12739500D01*
X21678000Y-12699500D02*
X21758000Y-12699500D01*
X21718000Y-12913500D02*
X21718000Y-12993500D01*
X21678000Y-12953500D02*
X21758000Y-12953500D01*
X21718000Y-13167500D02*
X21718000Y-13247500D01*
X21678000Y-13207500D02*
X21758000Y-13207500D01*
X21718000Y-13421500D02*
X21718000Y-13501500D01*
X21678000Y-13461500D02*
X21758000Y-13461500D01*
X21718000Y-13675500D02*
X21718000Y-13755500D01*
X21678000Y-13715500D02*
X21758000Y-13715500D01*
X21844000Y-11644000D02*
X21844000Y-11724000D01*
X21804000Y-11684000D02*
X21884000Y-11684000D01*
X21844000Y-19018000D02*
X21844000Y-19098000D01*
X21804000Y-19058000D02*
X21884000Y-19058000D01*
X21844000Y-19518000D02*
X21844000Y-19598000D01*
X21804000Y-19558000D02*
X21884000Y-19558000D01*
X22226000Y-15836500D02*
X22226000Y-15916500D01*
X22186000Y-15876500D02*
X22266000Y-15876500D01*
X22226000Y-16090500D02*
X22226000Y-16170500D01*
X22186000Y-16130500D02*
X22266000Y-16130500D01*
X22226000Y-16344500D02*
X22226000Y-16424500D01*
X22186000Y-16384500D02*
X22266000Y-16384500D01*
X22226000Y-16598500D02*
X22226000Y-16678500D01*
X22186000Y-16638500D02*
X22266000Y-16638500D01*
X22226000Y-16852500D02*
X22226000Y-16932500D01*
X22186000Y-16892500D02*
X22266000Y-16892500D01*
X22226000Y-17106500D02*
X22226000Y-17186500D01*
X22186000Y-17146500D02*
X22266000Y-17146500D01*
X22226000Y-17360500D02*
X22226000Y-17440500D01*
X22186000Y-17400500D02*
X22266000Y-17400500D01*
X22226000Y-17614500D02*
X22226000Y-17694500D01*
X22186000Y-17654500D02*
X22266000Y-17654500D01*
X22344000Y-11644000D02*
X22344000Y-11724000D01*
X22304000Y-11684000D02*
X22384000Y-11684000D01*
X22351500Y-18882000D02*
X22351500Y-18962000D01*
X22311500Y-18922000D02*
X22391500Y-18922000D01*
X22351500Y-19644000D02*
X22351500Y-19724000D01*
X22311500Y-19684000D02*
X22391500Y-19684000D01*
X22352000Y-15200000D02*
X22352000Y-15280000D01*
X22312000Y-15240000D02*
X22392000Y-15240000D01*
X22480000Y-12151500D02*
X22480000Y-12231500D01*
X22440000Y-12191500D02*
X22520000Y-12191500D01*
X22480000Y-12405500D02*
X22480000Y-12485500D01*
X22440000Y-12445500D02*
X22520000Y-12445500D01*
X22480000Y-12659500D02*
X22480000Y-12739500D01*
X22440000Y-12699500D02*
X22520000Y-12699500D01*
X22480000Y-12913500D02*
X22480000Y-12993500D01*
X22440000Y-12953500D02*
X22520000Y-12953500D01*
X22480000Y-13167500D02*
X22480000Y-13247500D01*
X22440000Y-13207500D02*
X22520000Y-13207500D01*
X22480000Y-13421500D02*
X22480000Y-13501500D01*
X22440000Y-13461500D02*
X22520000Y-13461500D01*
X22480000Y-13675500D02*
X22480000Y-13755500D01*
X22440000Y-13715500D02*
X22520000Y-13715500D01*
X22605500Y-18882000D02*
X22605500Y-18962000D01*
X22565500Y-18922000D02*
X22645500Y-18922000D01*
X22605500Y-19644000D02*
X22605500Y-19724000D01*
X22565500Y-19684000D02*
X22645500Y-19684000D01*
X22852000Y-15200000D02*
X22852000Y-15280000D01*
X22812000Y-15240000D02*
X22892000Y-15240000D01*
X22859500Y-18882000D02*
X22859500Y-18962000D01*
X22819500Y-18922000D02*
X22899500Y-18922000D01*
X22859500Y-19644000D02*
X22859500Y-19724000D01*
X22819500Y-19684000D02*
X22899500Y-19684000D01*
X22988000Y-15836500D02*
X22988000Y-15916500D01*
X22948000Y-15876500D02*
X23028000Y-15876500D01*
X22988000Y-16090500D02*
X22988000Y-16170500D01*
X22948000Y-16130500D02*
X23028000Y-16130500D01*
X22988000Y-16344500D02*
X22988000Y-16424500D01*
X22948000Y-16384500D02*
X23028000Y-16384500D01*
X22988000Y-16598500D02*
X22988000Y-16678500D01*
X22948000Y-16638500D02*
X23028000Y-16638500D01*
X22988000Y-16852500D02*
X22988000Y-16932500D01*
X22948000Y-16892500D02*
X23028000Y-16892500D01*
X22988000Y-17106500D02*
X22988000Y-17186500D01*
X22948000Y-17146500D02*
X23028000Y-17146500D01*
X22988000Y-17360500D02*
X22988000Y-17440500D01*
X22948000Y-17400500D02*
X23028000Y-17400500D01*
X22988000Y-17614500D02*
X22988000Y-17694500D01*
X22948000Y-17654500D02*
X23028000Y-17654500D01*
X23113500Y-18882000D02*
X23113500Y-18962000D01*
X23073500Y-18922000D02*
X23153500Y-18922000D01*
X23113500Y-19644000D02*
X23113500Y-19724000D01*
X23073500Y-19684000D02*
X23153500Y-19684000D01*
X23367500Y-18882000D02*
X23367500Y-18962000D01*
X23327500Y-18922000D02*
X23407500Y-18922000D01*
X23367500Y-19644000D02*
X23367500Y-19724000D01*
X23327500Y-19684000D02*
X23407500Y-19684000D01*
X23621500Y-18882000D02*
X23621500Y-18962000D01*
X23581500Y-18922000D02*
X23661500Y-18922000D01*
X23621500Y-19644000D02*
X23621500Y-19724000D01*
X23581500Y-19684000D02*
X23661500Y-19684000D01*
X23875500Y-18882000D02*
X23875500Y-18962000D01*
X23835500Y-18922000D02*
X23915500Y-18922000D01*
X23875500Y-19644000D02*
X23875500Y-19724000D01*
X23835500Y-19684000D02*
X23915500Y-19684000D01*
X24004000Y-12152000D02*
X24004000Y-12232000D01*
X23964000Y-12192000D02*
X24044000Y-12192000D01*
X24004000Y-12406000D02*
X24004000Y-12486000D01*
X23964000Y-12446000D02*
X24044000Y-12446000D01*
X24004000Y-12660000D02*
X24004000Y-12740000D01*
X23964000Y-12700000D02*
X24044000Y-12700000D01*
X24004000Y-12914000D02*
X24004000Y-12994000D01*
X23964000Y-12954000D02*
X24044000Y-12954000D01*
X24004000Y-13168000D02*
X24004000Y-13248000D01*
X23964000Y-13208000D02*
X24044000Y-13208000D01*
X24004000Y-13422000D02*
X24004000Y-13502000D01*
X23964000Y-13462000D02*
X24044000Y-13462000D01*
X24004000Y-13676000D02*
X24004000Y-13756000D01*
X23964000Y-13716000D02*
X24044000Y-13716000D01*
X24130000Y-11644000D02*
X24130000Y-11724000D01*
X24090000Y-11684000D02*
X24170000Y-11684000D01*
X24630000Y-11644000D02*
X24630000Y-11724000D01*
X24590000Y-11684000D02*
X24670000Y-11684000D01*
X24766000Y-12152000D02*
X24766000Y-12232000D01*
X24726000Y-12192000D02*
X24806000Y-12192000D01*
X24766000Y-12406000D02*
X24766000Y-12486000D01*
X24726000Y-12446000D02*
X24806000Y-12446000D01*
X24766000Y-12660000D02*
X24766000Y-12740000D01*
X24726000Y-12700000D02*
X24806000Y-12700000D01*
X24766000Y-12914000D02*
X24766000Y-12994000D01*
X24726000Y-12954000D02*
X24806000Y-12954000D01*
X24766000Y-13168000D02*
X24766000Y-13248000D01*
X24726000Y-13208000D02*
X24806000Y-13208000D01*
X24766000Y-13422000D02*
X24766000Y-13502000D01*
X24726000Y-13462000D02*
X24806000Y-13462000D01*
X24766000Y-13676000D02*
X24766000Y-13756000D01*
X24726000Y-13716000D02*
X24806000Y-13716000D01*
X25020000Y-15453500D02*
X25020000Y-15533500D01*
X24980000Y-15493500D02*
X25060000Y-15493500D01*
X25020000Y-15707500D02*
X25020000Y-15787500D01*
X24980000Y-15747500D02*
X25060000Y-15747500D01*
X25020000Y-15961500D02*
X25020000Y-16041500D01*
X24980000Y-16001500D02*
X25060000Y-16001500D01*
X25020000Y-16215500D02*
X25020000Y-16295500D01*
X24980000Y-16255500D02*
X25060000Y-16255500D01*
X25020000Y-16469500D02*
X25020000Y-16549500D01*
X24980000Y-16509500D02*
X25060000Y-16509500D01*
X25020000Y-16723500D02*
X25020000Y-16803500D01*
X24980000Y-16763500D02*
X25060000Y-16763500D01*
X25020000Y-16977500D02*
X25020000Y-17057500D01*
X24980000Y-17017500D02*
X25060000Y-17017500D01*
X25146000Y-18506000D02*
X25146000Y-18586000D01*
X25106000Y-18546000D02*
X25186000Y-18546000D01*
X25146000Y-19006000D02*
X25146000Y-19086000D01*
X25106000Y-19046000D02*
X25186000Y-19046000D01*
X25154000Y-14946000D02*
X25154000Y-15026000D01*
X25114000Y-14986000D02*
X25194000Y-14986000D01*
X25653500Y-18374000D02*
X25653500Y-18454000D01*
X25613500Y-18414000D02*
X25693500Y-18414000D01*
X25653500Y-19136000D02*
X25653500Y-19216000D01*
X25613500Y-19176000D02*
X25693500Y-19176000D01*
X25654000Y-14946000D02*
X25654000Y-15026000D01*
X25614000Y-14986000D02*
X25694000Y-14986000D01*
X25782000Y-15453500D02*
X25782000Y-15533500D01*
X25742000Y-15493500D02*
X25822000Y-15493500D01*
X25782000Y-15707500D02*
X25782000Y-15787500D01*
X25742000Y-15747500D02*
X25822000Y-15747500D01*
X25782000Y-15961500D02*
X25782000Y-16041500D01*
X25742000Y-16001500D02*
X25822000Y-16001500D01*
X25782000Y-16215500D02*
X25782000Y-16295500D01*
X25742000Y-16255500D02*
X25822000Y-16255500D01*
X25782000Y-16469500D02*
X25782000Y-16549500D01*
X25742000Y-16509500D02*
X25822000Y-16509500D01*
X25782000Y-16723500D02*
X25782000Y-16803500D01*
X25742000Y-16763500D02*
X25822000Y-16763500D01*
X25782000Y-16977500D02*
X25782000Y-17057500D01*
X25742000Y-17017500D02*
X25822000Y-17017500D01*
X25907500Y-18374000D02*
X25907500Y-18454000D01*
X25867500Y-18414000D02*
X25947500Y-18414000D01*
X25907500Y-19136000D02*
X25907500Y-19216000D01*
X25867500Y-19176000D02*
X25947500Y-19176000D01*
X26036000Y-12151500D02*
X26036000Y-12231500D01*
X25996000Y-12191500D02*
X26076000Y-12191500D01*
X26036000Y-12405500D02*
X26036000Y-12485500D01*
X25996000Y-12445500D02*
X26076000Y-12445500D01*
X26036000Y-12659500D02*
X26036000Y-12739500D01*
X25996000Y-12699500D02*
X26076000Y-12699500D01*
X26036000Y-12913500D02*
X26036000Y-12993500D01*
X25996000Y-12953500D02*
X26076000Y-12953500D01*
X26036000Y-13167500D02*
X26036000Y-13247500D01*
X25996000Y-13207500D02*
X26076000Y-13207500D01*
X26036000Y-13421500D02*
X26036000Y-13501500D01*
X25996000Y-13461500D02*
X26076000Y-13461500D01*
X26036000Y-13675500D02*
X26036000Y-13755500D01*
X25996000Y-13715500D02*
X26076000Y-13715500D01*
X26161500Y-18374000D02*
X26161500Y-18454000D01*
X26121500Y-18414000D02*
X26201500Y-18414000D01*
X26161500Y-19136000D02*
X26161500Y-19216000D01*
X26121500Y-19176000D02*
X26201500Y-19176000D01*
X26162000Y-11644000D02*
X26162000Y-11724000D01*
X26122000Y-11684000D02*
X26202000Y-11684000D01*
X26415500Y-18374000D02*
X26415500Y-18454000D01*
X26375500Y-18414000D02*
X26455500Y-18414000D01*
X26415500Y-19136000D02*
X26415500Y-19216000D01*
X26375500Y-19176000D02*
X26455500Y-19176000D01*
X26662000Y-11644000D02*
X26662000Y-11724000D01*
X26622000Y-11684000D02*
X26702000Y-11684000D01*
X26669500Y-18374000D02*
X26669500Y-18454000D01*
X26629500Y-18414000D02*
X26709500Y-18414000D01*
X26669500Y-19136000D02*
X26669500Y-19216000D01*
X26629500Y-19176000D02*
X26709500Y-19176000D01*
X26798000Y-12151500D02*
X26798000Y-12231500D01*
X26758000Y-12191500D02*
X26838000Y-12191500D01*
X26798000Y-12405500D02*
X26798000Y-12485500D01*
X26758000Y-12445500D02*
X26838000Y-12445500D01*
X26798000Y-12659500D02*
X26798000Y-12739500D01*
X26758000Y-12699500D02*
X26838000Y-12699500D01*
X26798000Y-12913500D02*
X26798000Y-12993500D01*
X26758000Y-12953500D02*
X26838000Y-12953500D01*
X26798000Y-13167500D02*
X26798000Y-13247500D01*
X26758000Y-13207500D02*
X26838000Y-13207500D01*
X26798000Y-13421500D02*
X26798000Y-13501500D01*
X26758000Y-13461500D02*
X26838000Y-13461500D01*
X26798000Y-13675500D02*
X26798000Y-13755500D01*
X26758000Y-13715500D02*
X26838000Y-13715500D01*
X26923500Y-18374000D02*
X26923500Y-18454000D01*
X26883500Y-18414000D02*
X26963500Y-18414000D01*
X26923500Y-19136000D02*
X26923500Y-19216000D01*
X26883500Y-19176000D02*
X26963500Y-19176000D01*
X26924000Y-15962000D02*
X26924000Y-16042000D01*
X26884000Y-16002000D02*
X26964000Y-16002000D01*
X26924000Y-16462000D02*
X26924000Y-16542000D01*
X26884000Y-16502000D02*
X26964000Y-16502000D01*
X27177500Y-18374000D02*
X27177500Y-18454000D01*
X27137500Y-18414000D02*
X27217500Y-18414000D01*
X27177500Y-19136000D02*
X27177500Y-19216000D01*
X27137500Y-19176000D02*
X27217500Y-19176000D01*
X27431500Y-15834000D02*
X27431500Y-15914000D01*
X27391500Y-15874000D02*
X27471500Y-15874000D01*
X27431500Y-16596000D02*
X27431500Y-16676000D01*
X27391500Y-16636000D02*
X27471500Y-16636000D01*
X27559000Y-15200000D02*
X27559000Y-15280000D01*
X27519000Y-15240000D02*
X27599000Y-15240000D01*
X27685500Y-15834000D02*
X27685500Y-15914000D01*
X27645500Y-15874000D02*
X27725500Y-15874000D01*
X27685500Y-16596000D02*
X27685500Y-16676000D01*
X27645500Y-16636000D02*
X27725500Y-16636000D01*
X27939500Y-15834000D02*
X27939500Y-15914000D01*
X27899500Y-15874000D02*
X27979500Y-15874000D01*
X27939500Y-16596000D02*
X27939500Y-16676000D01*
X27899500Y-16636000D02*
X27979500Y-16636000D01*
X28068000Y-12280500D02*
X28068000Y-12360500D01*
X28028000Y-12320500D02*
X28108000Y-12320500D01*
X28068000Y-12534500D02*
X28068000Y-12614500D01*
X28028000Y-12574500D02*
X28108000Y-12574500D01*
X28068000Y-12788500D02*
X28068000Y-12868500D01*
X28028000Y-12828500D02*
X28108000Y-12828500D01*
X28068000Y-13042500D02*
X28068000Y-13122500D01*
X28028000Y-13082500D02*
X28108000Y-13082500D01*
X28068000Y-13296500D02*
X28068000Y-13376500D01*
X28028000Y-13336500D02*
X28108000Y-13336500D01*
X28068000Y-13550500D02*
X28068000Y-13630500D01*
X28028000Y-13590500D02*
X28108000Y-13590500D01*
X28068000Y-13804500D02*
X28068000Y-13884500D01*
X28028000Y-13844500D02*
X28108000Y-13844500D01*
X28068000Y-14058500D02*
X28068000Y-14138500D01*
X28028000Y-14098500D02*
X28108000Y-14098500D01*
X28193500Y-15834000D02*
X28193500Y-15914000D01*
X28153500Y-15874000D02*
X28233500Y-15874000D01*
X28193500Y-16596000D02*
X28193500Y-16676000D01*
X28153500Y-16636000D02*
X28233500Y-16636000D01*
X28194000Y-11644000D02*
X28194000Y-11724000D01*
X28154000Y-11684000D02*
X28234000Y-11684000D01*
X28447500Y-15834000D02*
X28447500Y-15914000D01*
X28407500Y-15874000D02*
X28487500Y-15874000D01*
X28447500Y-16596000D02*
X28447500Y-16676000D01*
X28407500Y-16636000D02*
X28487500Y-16636000D01*
X28694000Y-11644000D02*
X28694000Y-11724000D01*
X28654000Y-11684000D02*
X28734000Y-11684000D01*
X28701500Y-15834000D02*
X28701500Y-15914000D01*
X28661500Y-15874000D02*
X28741500Y-15874000D01*
X28701500Y-16596000D02*
X28701500Y-16676000D01*
X28661500Y-16636000D02*
X28741500Y-16636000D01*
X28829000Y-15200000D02*
X28829000Y-15280000D01*
X28789000Y-15240000D02*
X28869000Y-15240000D01*
X28830000Y-12280500D02*
X28830000Y-12360500D01*
X28790000Y-12320500D02*
X28870000Y-12320500D01*
X28830000Y-12534500D02*
X28830000Y-12614500D01*
X28790000Y-12574500D02*
X28870000Y-12574500D01*
X28830000Y-12788500D02*
X28830000Y-12868500D01*
X28790000Y-12828500D02*
X28870000Y-12828500D01*
X28830000Y-13042500D02*
X28830000Y-13122500D01*
X28790000Y-13082500D02*
X28870000Y-13082500D01*
X28830000Y-13296500D02*
X28830000Y-13376500D01*
X28790000Y-13336500D02*
X28870000Y-13336500D01*
X28830000Y-13550500D02*
X28830000Y-13630500D01*
X28790000Y-13590500D02*
X28870000Y-13590500D01*
X28830000Y-13804500D02*
X28830000Y-13884500D01*
X28790000Y-13844500D02*
X28870000Y-13844500D01*
X28830000Y-14058500D02*
X28830000Y-14138500D01*
X28790000Y-14098500D02*
X28870000Y-14098500D01*
X28955500Y-15834000D02*
X28955500Y-15914000D01*
X28915500Y-15874000D02*
X28995500Y-15874000D01*
X28955500Y-16596000D02*
X28955500Y-16676000D01*
X28915500Y-16636000D02*
X28995500Y-16636000D01*
X29210000Y-17740000D02*
X29210000Y-17820000D01*
X29170000Y-17780000D02*
X29250000Y-17780000D01*
X29560000Y-17740000D02*
X29560000Y-17820000D01*
X29520000Y-17780000D02*
X29600000Y-17780000D01*
X29718000Y-13803000D02*
X29718000Y-13883000D01*
X29678000Y-13843000D02*
X29758000Y-13843000D01*
X29718000Y-15073000D02*
X29718000Y-15153000D01*
X29678000Y-15113000D02*
X29758000Y-15113000D01*
X29972000Y-10120000D02*
X29972000Y-10200000D01*
X29932000Y-10160000D02*
X30012000Y-10160000D01*
X29972000Y-11390000D02*
X29972000Y-11470000D01*
X29932000Y-11430000D02*
X30012000Y-11430000D01*
X29972500Y-12026000D02*
X29972500Y-12106000D01*
X29932500Y-12066000D02*
X30012500Y-12066000D01*
X29972500Y-12788000D02*
X29972500Y-12868000D01*
X29932500Y-12828000D02*
X30012500Y-12828000D01*
X30226500Y-12026000D02*
X30226500Y-12106000D01*
X30186500Y-12066000D02*
X30266500Y-12066000D01*
X30226500Y-12788000D02*
X30226500Y-12868000D01*
X30186500Y-12828000D02*
X30266500Y-12828000D01*
X30353000Y-17232000D02*
X30353000Y-17312000D01*
X30313000Y-17272000D02*
X30393000Y-17272000D01*
X30480500Y-12026000D02*
X30480500Y-12106000D01*
X30440500Y-12066000D02*
X30520500Y-12066000D01*
X30480500Y-12788000D02*
X30480500Y-12868000D01*
X30440500Y-12828000D02*
X30520500Y-12828000D01*
X30608000Y-14691500D02*
X30608000Y-14771500D01*
X30568000Y-14731500D02*
X30648000Y-14731500D01*
X30608000Y-14945500D02*
X30608000Y-15025500D01*
X30568000Y-14985500D02*
X30648000Y-14985500D01*
X30608000Y-15199500D02*
X30608000Y-15279500D01*
X30568000Y-15239500D02*
X30648000Y-15239500D01*
X30608000Y-15453500D02*
X30608000Y-15533500D01*
X30568000Y-15493500D02*
X30648000Y-15493500D01*
X30608000Y-15707500D02*
X30608000Y-15787500D01*
X30568000Y-15747500D02*
X30648000Y-15747500D01*
X30608000Y-15961500D02*
X30608000Y-16041500D01*
X30568000Y-16001500D02*
X30648000Y-16001500D01*
X30608000Y-16215500D02*
X30608000Y-16295500D01*
X30568000Y-16255500D02*
X30648000Y-16255500D01*
X30608000Y-18630000D02*
X30608000Y-18710000D01*
X30568000Y-18670000D02*
X30648000Y-18670000D01*
X30608000Y-18884000D02*
X30608000Y-18964000D01*
X30568000Y-18924000D02*
X30648000Y-18924000D01*
X30608000Y-19138000D02*
X30608000Y-19218000D01*
X30568000Y-19178000D02*
X30648000Y-19178000D01*
X30608000Y-19392000D02*
X30608000Y-19472000D01*
X30568000Y-19432000D02*
X30648000Y-19432000D01*
X30734000Y-10120000D02*
X30734000Y-10200000D01*
X30694000Y-10160000D02*
X30774000Y-10160000D01*
X30734500Y-12026000D02*
X30734500Y-12106000D01*
X30694500Y-12066000D02*
X30774500Y-12066000D01*
X30734500Y-12788000D02*
X30734500Y-12868000D01*
X30694500Y-12828000D02*
X30774500Y-12828000D01*
X30742000Y-14184000D02*
X30742000Y-14264000D01*
X30702000Y-14224000D02*
X30782000Y-14224000D01*
X30988500Y-12026000D02*
X30988500Y-12106000D01*
X30948500Y-12066000D02*
X31028500Y-12066000D01*
X30988500Y-12788000D02*
X30988500Y-12868000D01*
X30948500Y-12828000D02*
X31028500Y-12828000D01*
X30992000Y-11136000D02*
X30992000Y-11216000D01*
X30952000Y-11176000D02*
X31032000Y-11176000D01*
X31224000Y-10120000D02*
X31224000Y-10200000D01*
X31184000Y-10160000D02*
X31264000Y-10160000D01*
X31242000Y-11136000D02*
X31242000Y-11216000D01*
X31202000Y-11176000D02*
X31282000Y-11176000D01*
X31242000Y-14184000D02*
X31242000Y-14264000D01*
X31202000Y-14224000D02*
X31282000Y-14224000D01*
X31242500Y-12026000D02*
X31242500Y-12106000D01*
X31202500Y-12066000D02*
X31282500Y-12066000D01*
X31242500Y-12788000D02*
X31242500Y-12868000D01*
X31202500Y-12828000D02*
X31282500Y-12828000D01*
X31369000Y-20026000D02*
X31369000Y-20106000D01*
X31329000Y-20066000D02*
X31409000Y-20066000D01*
X31370000Y-14691500D02*
X31370000Y-14771500D01*
X31330000Y-14731500D02*
X31410000Y-14731500D01*
X31370000Y-14945500D02*
X31370000Y-15025500D01*
X31330000Y-14985500D02*
X31410000Y-14985500D01*
X31370000Y-15199500D02*
X31370000Y-15279500D01*
X31330000Y-15239500D02*
X31410000Y-15239500D01*
X31370000Y-15453500D02*
X31370000Y-15533500D01*
X31330000Y-15493500D02*
X31410000Y-15493500D01*
X31370000Y-15707500D02*
X31370000Y-15787500D01*
X31330000Y-15747500D02*
X31410000Y-15747500D01*
X31370000Y-15961500D02*
X31370000Y-16041500D01*
X31330000Y-16001500D02*
X31410000Y-16001500D01*
X31370000Y-16215500D02*
X31370000Y-16295500D01*
X31330000Y-16255500D02*
X31410000Y-16255500D01*
X31370000Y-18630000D02*
X31370000Y-18710000D01*
X31330000Y-18670000D02*
X31410000Y-18670000D01*
X31370000Y-18884000D02*
X31370000Y-18964000D01*
X31330000Y-18924000D02*
X31410000Y-18924000D01*
X31370000Y-19138000D02*
X31370000Y-19218000D01*
X31330000Y-19178000D02*
X31410000Y-19178000D01*
X31370000Y-19392000D02*
X31370000Y-19472000D01*
X31330000Y-19432000D02*
X31410000Y-19432000D01*
X31496500Y-12026000D02*
X31496500Y-12106000D01*
X31456500Y-12066000D02*
X31536500Y-12066000D01*
X31496500Y-12788000D02*
X31496500Y-12868000D01*
X31456500Y-12828000D02*
X31536500Y-12828000D01*
X31623000Y-17232000D02*
X31623000Y-17312000D01*
X31583000Y-17272000D02*
X31663000Y-17272000D01*
X32004000Y-10247000D02*
X32004000Y-10327000D01*
X31964000Y-10287000D02*
X32044000Y-10287000D01*
X32004000Y-11517000D02*
X32004000Y-11597000D01*
X31964000Y-11557000D02*
X32044000Y-11557000D01*
X32258000Y-12160000D02*
X32258000Y-12240000D01*
X32218000Y-12200000D02*
X32298000Y-12200000D01*
X32258000Y-12660000D02*
X32258000Y-12740000D01*
X32218000Y-12700000D02*
X32298000Y-12700000D01*
X32258000Y-14692000D02*
X32258000Y-14772000D01*
X32218000Y-14732000D02*
X32298000Y-14732000D01*
X32258000Y-19264000D02*
X32258000Y-19344000D01*
X32218000Y-19304000D02*
X32298000Y-19304000D01*
X32638000Y-14692000D02*
X32638000Y-14772000D01*
X32598000Y-14732000D02*
X32678000Y-14732000D01*
X32639000Y-20026000D02*
X32639000Y-20106000D01*
X32599000Y-20066000D02*
X32679000Y-20066000D01*
X32758000Y-19264000D02*
X32758000Y-19344000D01*
X32718000Y-19304000D02*
X32798000Y-19304000D01*
D15*
X11461820Y-14763820D02*
X11461820Y-14700180D01*
X11398180Y-14700180D01*
X11398180Y-14763820D01*
X11461820Y-14763820D01*
X11715820Y-14763820D02*
X11715820Y-14700180D01*
X11652180Y-14700180D01*
X11652180Y-14763820D01*
X11715820Y-14763820D01*
D16*
X10925000Y-10830250D02*
X10975000Y-10780250D01*
X10925000Y-10730250D01*
X10875000Y-10780250D01*
X10925000Y-10830250D01*
D11*
X10885000Y-10680250D02*
X10885000Y-10880250D01*
X10965000Y-10680250D02*
X10965000Y-10880250D01*
X10885000Y-10880250D02*
G75*
G03*
X10965000Y-10880250I40000J0D01*
G01*
X10965000Y-10680250D02*
G75*
G03*
X10885000Y-10680250I-40000J0D01*
G01*
D16*
X11225000Y-11300250D02*
X11275000Y-11250250D01*
X11225000Y-11200250D01*
X11175000Y-11250250D01*
X11225000Y-11300250D01*
D11*
X11125000Y-11290250D02*
X11325000Y-11290250D01*
X11125000Y-11210250D02*
X11325000Y-11210250D01*
X11325000Y-11290250D02*
G75*
G03*
X11325000Y-11210250I0J40000D01*
G01*
X11125000Y-11210250D02*
G75*
G03*
X11125000Y-11290250I0J-40000D01*
G01*
D16*
X11525000Y-10830250D02*
X11575000Y-10780250D01*
X11525000Y-10730250D01*
X11475000Y-10780250D01*
X11525000Y-10830250D01*
D11*
X11485000Y-10680250D02*
X11485000Y-10880250D01*
X11565000Y-10680250D02*
X11565000Y-10880250D01*
X11485000Y-10880250D02*
G75*
G03*
X11565000Y-10880250I40000J0D01*
G01*
X11565000Y-10680250D02*
G75*
G03*
X11485000Y-10680250I-40000J0D01*
G01*
D16*
X12700000Y-18084000D02*
X12750000Y-18034000D01*
X12700000Y-17984000D01*
X12650000Y-18034000D01*
X12700000Y-18084000D01*
X12700000Y-18338000D02*
X12750000Y-18288000D01*
X12700000Y-18238000D01*
X12650000Y-18288000D01*
X12700000Y-18338000D01*
X12700000Y-18592000D02*
X12750000Y-18542000D01*
X12700000Y-18492000D01*
X12650000Y-18542000D01*
X12700000Y-18592000D01*
X12828000Y-16052000D02*
X12878000Y-16002000D01*
X12828000Y-15952000D01*
X12778000Y-16002000D01*
X12828000Y-16052000D01*
X13208000Y-16052000D02*
X13258000Y-16002000D01*
X13208000Y-15952000D01*
X13158000Y-16002000D01*
X13208000Y-16052000D01*
X14732000Y-18592000D02*
X14782000Y-18542000D01*
X14732000Y-18492000D01*
X14682000Y-18542000D01*
X14732000Y-18592000D01*
X14732000Y-18846000D02*
X14782000Y-18796000D01*
X14732000Y-18746000D01*
X14682000Y-18796000D01*
X14732000Y-18846000D01*
X22479000Y-10285250D02*
X22529000Y-10235250D01*
X22479000Y-10185250D01*
X22429000Y-10235250D01*
X22479000Y-10285250D01*
X22479000Y-10539250D02*
X22529000Y-10489250D01*
X22479000Y-10439250D01*
X22429000Y-10489250D01*
X22479000Y-10539250D01*
X22733000Y-10285250D02*
X22783000Y-10235250D01*
X22733000Y-10185250D01*
X22683000Y-10235250D01*
X22733000Y-10285250D01*
X22733000Y-10539250D02*
X22783000Y-10489250D01*
X22733000Y-10439250D01*
X22683000Y-10489250D01*
X22733000Y-10539250D01*
X22987000Y-10285250D02*
X23037000Y-10235250D01*
X22987000Y-10185250D01*
X22937000Y-10235250D01*
X22987000Y-10285250D01*
X22987000Y-10539250D02*
X23037000Y-10489250D01*
X22987000Y-10439250D01*
X22937000Y-10489250D01*
X22987000Y-10539250D01*
X23241000Y-10285250D02*
X23291000Y-10235250D01*
X23241000Y-10185250D01*
X23191000Y-10235250D01*
X23241000Y-10285250D01*
X23241000Y-10539250D02*
X23291000Y-10489250D01*
X23241000Y-10439250D01*
X23191000Y-10489250D01*
X23241000Y-10539250D01*
X23495000Y-10285250D02*
X23545000Y-10235250D01*
X23495000Y-10185250D01*
X23445000Y-10235250D01*
X23495000Y-10285250D01*
X23495000Y-10539250D02*
X23545000Y-10489250D01*
X23495000Y-10439250D01*
X23445000Y-10489250D01*
X23495000Y-10539250D01*
X23749000Y-10285250D02*
X23799000Y-10235250D01*
X23749000Y-10185250D01*
X23699000Y-10235250D01*
X23749000Y-10285250D01*
X23749000Y-10539250D02*
X23799000Y-10489250D01*
X23749000Y-10439250D01*
X23699000Y-10489250D01*
X23749000Y-10539250D01*
X24003000Y-10285250D02*
X24053000Y-10235250D01*
X24003000Y-10185250D01*
X23953000Y-10235250D01*
X24003000Y-10285250D01*
X24003000Y-10539250D02*
X24053000Y-10489250D01*
X24003000Y-10439250D01*
X23953000Y-10489250D01*
X24003000Y-10539250D01*
X24257000Y-10285250D02*
X24307000Y-10235250D01*
X24257000Y-10185250D01*
X24207000Y-10235250D01*
X24257000Y-10285250D01*
X24257000Y-10539250D02*
X24307000Y-10489250D01*
X24257000Y-10439250D01*
X24207000Y-10489250D01*
X24257000Y-10539250D01*
X24511000Y-10285250D02*
X24561000Y-10235250D01*
X24511000Y-10185250D01*
X24461000Y-10235250D01*
X24511000Y-10285250D01*
X24511000Y-10539250D02*
X24561000Y-10489250D01*
X24511000Y-10439250D01*
X24461000Y-10489250D01*
X24511000Y-10539250D01*
X24765000Y-10285250D02*
X24815000Y-10235250D01*
X24765000Y-10185250D01*
X24715000Y-10235250D01*
X24765000Y-10285250D01*
X24765000Y-10539250D02*
X24815000Y-10489250D01*
X24765000Y-10439250D01*
X24715000Y-10489250D01*
X24765000Y-10539250D01*
X25019000Y-10285250D02*
X25069000Y-10235250D01*
X25019000Y-10185250D01*
X24969000Y-10235250D01*
X25019000Y-10285250D01*
X25019000Y-10539250D02*
X25069000Y-10489250D01*
X25019000Y-10439250D01*
X24969000Y-10489250D01*
X25019000Y-10539250D01*
X25273000Y-10285250D02*
X25323000Y-10235250D01*
X25273000Y-10185250D01*
X25223000Y-10235250D01*
X25273000Y-10285250D01*
X25273000Y-10539250D02*
X25323000Y-10489250D01*
X25273000Y-10439250D01*
X25223000Y-10489250D01*
X25273000Y-10539250D01*
X25527000Y-10285250D02*
X25577000Y-10235250D01*
X25527000Y-10185250D01*
X25477000Y-10235250D01*
X25527000Y-10285250D01*
X25527000Y-10539250D02*
X25577000Y-10489250D01*
X25527000Y-10439250D01*
X25477000Y-10489250D01*
X25527000Y-10539250D01*
X25781000Y-10285250D02*
X25831000Y-10235250D01*
X25781000Y-10185250D01*
X25731000Y-10235250D01*
X25781000Y-10285250D01*
X25781000Y-10539250D02*
X25831000Y-10489250D01*
X25781000Y-10439250D01*
X25731000Y-10489250D01*
X25781000Y-10539250D01*
X26035000Y-10285250D02*
X26085000Y-10235250D01*
X26035000Y-10185250D01*
X25985000Y-10235250D01*
X26035000Y-10285250D01*
X26035000Y-10539250D02*
X26085000Y-10489250D01*
X26035000Y-10439250D01*
X25985000Y-10489250D01*
X26035000Y-10539250D01*
X26289000Y-10285250D02*
X26339000Y-10235250D01*
X26289000Y-10185250D01*
X26239000Y-10235250D01*
X26289000Y-10285250D01*
X26289000Y-10539250D02*
X26339000Y-10489250D01*
X26289000Y-10439250D01*
X26239000Y-10489250D01*
X26289000Y-10539250D01*
X26543000Y-10285250D02*
X26593000Y-10235250D01*
X26543000Y-10185250D01*
X26493000Y-10235250D01*
X26543000Y-10285250D01*
X26543000Y-10539250D02*
X26593000Y-10489250D01*
X26543000Y-10439250D01*
X26493000Y-10489250D01*
X26543000Y-10539250D01*
X26797000Y-10285250D02*
X26847000Y-10235250D01*
X26797000Y-10185250D01*
X26747000Y-10235250D01*
X26797000Y-10285250D01*
X26797000Y-10539250D02*
X26847000Y-10489250D01*
X26797000Y-10439250D01*
X26747000Y-10489250D01*
X26797000Y-10539250D01*
X27051000Y-10285250D02*
X27101000Y-10235250D01*
X27051000Y-10185250D01*
X27001000Y-10235250D01*
X27051000Y-10285250D01*
X27051000Y-10539250D02*
X27101000Y-10489250D01*
X27051000Y-10439250D01*
X27001000Y-10489250D01*
X27051000Y-10539250D01*
X27305000Y-10285250D02*
X27355000Y-10235250D01*
X27305000Y-10185250D01*
X27255000Y-10235250D01*
X27305000Y-10285250D01*
X27305000Y-10539250D02*
X27355000Y-10489250D01*
X27305000Y-10439250D01*
X27255000Y-10489250D01*
X27305000Y-10539250D01*
X32132000Y-18084000D02*
X32182000Y-18034000D01*
X32132000Y-17984000D01*
X32082000Y-18034000D01*
X32132000Y-18084000D01*
X32512000Y-18084000D02*
X32562000Y-18034000D01*
X32512000Y-17984000D01*
X32462000Y-18034000D01*
X32512000Y-18084000D01*
D17*
X12648000Y-12853000D02*
X12758000Y-12963000D01*
X12758000Y-12853000D02*
X12648000Y-12963000D01*
X12758000Y-12908000D02*
G75*
G03*
X12758000Y-12908000I-55000J0D01*
G01*
X13664000Y-12853000D02*
X13774000Y-12963000D01*
X13774000Y-12853000D02*
X13664000Y-12963000D01*
X13774000Y-12908000D02*
G75*
G03*
X13774000Y-12908000I-55000J0D01*
G01*
X17884500Y-10994000D02*
X17994500Y-11104000D01*
X17994500Y-10994000D02*
X17884500Y-11104000D01*
X17994500Y-11049000D02*
G75*
G03*
X17994500Y-11049000I-55000J0D01*
G01*
X17884500Y-11248000D02*
X17994500Y-11358000D01*
X17994500Y-11248000D02*
X17884500Y-11358000D01*
X17994500Y-11303000D02*
G75*
G03*
X17994500Y-11303000I-55000J0D01*
G01*
X17884500Y-11502000D02*
X17994500Y-11612000D01*
X17994500Y-11502000D02*
X17884500Y-11612000D01*
X17994500Y-11557000D02*
G75*
G03*
X17994500Y-11557000I-55000J0D01*
G01*
D18*
X28391000Y-19240500D02*
X28521000Y-19370500D01*
X28521000Y-19240500D02*
X28391000Y-19370500D01*
X28456000Y-19240500D02*
X28456000Y-19370500D01*
X28391000Y-19305500D02*
X28521000Y-19305500D01*
X28391000Y-19740500D02*
X28521000Y-19870500D01*
X28521000Y-19740500D02*
X28391000Y-19870500D01*
X28456000Y-19740500D02*
X28456000Y-19870500D01*
X28391000Y-19805500D02*
X28521000Y-19805500D01*
X29391000Y-19490500D02*
X29521000Y-19620500D01*
X29521000Y-19490500D02*
X29391000Y-19620500D01*
X29456000Y-19490500D02*
X29456000Y-19620500D01*
X29391000Y-19555500D02*
X29521000Y-19555500D01*
D19*
X11435000Y-18157000D02*
X11605000Y-18327000D01*
X11605000Y-18157000D02*
X11435000Y-18327000D01*
X11580105Y-18302105D02*
X11580105Y-18181895D01*
X11459895Y-18181895D01*
X11459895Y-18302105D01*
X11580105Y-18302105D01*
X16806000Y-9440000D02*
X16976000Y-9610000D01*
X16976000Y-9440000D02*
X16806000Y-9610000D01*
X16951105Y-9585105D02*
X16951105Y-9464895D01*
X16830895Y-9464895D01*
X16830895Y-9585105D01*
X16951105Y-9585105D01*
X17202000Y-9440000D02*
X17372000Y-9610000D01*
X17372000Y-9440000D02*
X17202000Y-9610000D01*
X17347105Y-9585105D02*
X17347105Y-9464895D01*
X17226895Y-9464895D01*
X17226895Y-9585105D01*
X17347105Y-9585105D01*
X17598000Y-9440000D02*
X17768000Y-9610000D01*
X17768000Y-9440000D02*
X17598000Y-9610000D01*
X17743105Y-9585105D02*
X17743105Y-9464895D01*
X17622895Y-9464895D01*
X17622895Y-9585105D01*
X17743105Y-9585105D01*
X17994000Y-9440000D02*
X18164000Y-9610000D01*
X18164000Y-9440000D02*
X17994000Y-9610000D01*
X18139105Y-9585105D02*
X18139105Y-9464895D01*
X18018895Y-9464895D01*
X18018895Y-9585105D01*
X18139105Y-9585105D01*
D20*
X10522000Y-12561500D02*
X10707000Y-12746500D01*
X10707000Y-12561500D02*
X10522000Y-12746500D01*
X10614500Y-12746500D02*
X10707000Y-12654000D01*
X10614500Y-12561500D01*
X10522000Y-12654000D01*
X10614500Y-12746500D01*
X10522000Y-13069500D02*
X10707000Y-13254500D01*
X10707000Y-13069500D02*
X10522000Y-13254500D01*
X10614500Y-13254500D02*
X10707000Y-13162000D01*
X10614500Y-13069500D01*
X10522000Y-13162000D01*
X10614500Y-13254500D01*
X11792000Y-12345500D02*
X11977000Y-12530500D01*
X11977000Y-12345500D02*
X11792000Y-12530500D01*
X11884500Y-12530500D02*
X11977000Y-12438000D01*
X11884500Y-12345500D01*
X11792000Y-12438000D01*
X11884500Y-12530500D01*
X11792000Y-12815500D02*
X11977000Y-13000500D01*
X11977000Y-12815500D02*
X11792000Y-13000500D01*
X11884500Y-13000500D02*
X11977000Y-12908000D01*
X11884500Y-12815500D01*
X11792000Y-12908000D01*
X11884500Y-13000500D01*
X11792000Y-13285500D02*
X11977000Y-13470500D01*
X11977000Y-13285500D02*
X11792000Y-13470500D01*
X11884500Y-13470500D02*
X11977000Y-13378000D01*
X11884500Y-13285500D01*
X11792000Y-13378000D01*
X11884500Y-13470500D01*
D11*
X13719000Y-10238286D02*
X13719000Y-10438286D01*
X13619000Y-10338286D02*
X13819000Y-10338286D01*
X13819000Y-10338286D02*
G75*
G03*
X13819000Y-10338286I-100000J0D01*
G01*
X13719000Y-11238286D02*
X13719000Y-11438286D01*
X13619000Y-11338286D02*
X13819000Y-11338286D01*
X13819000Y-11338286D02*
G75*
G03*
X13819000Y-11338286I-100000J0D01*
G01*
D21*
X11161925Y-18333925D02*
X11161925Y-18150075D01*
X10978075Y-18150075D01*
X10978075Y-18333925D01*
X11161925Y-18333925D01*
X11200000Y-18242000D02*
G75*
G03*
X11200000Y-18242000I-130000J0D01*
G01*
X11611925Y-17833925D02*
X11611925Y-17650075D01*
X11428075Y-17650075D01*
X11428075Y-17833925D01*
X11611925Y-17833925D01*
X11650000Y-17742000D02*
G75*
G03*
X11650000Y-17742000I-130000J0D01*
G01*
X11611925Y-18833925D02*
X11611925Y-18650075D01*
X11428075Y-18650075D01*
X11428075Y-18833925D01*
X11611925Y-18833925D01*
X11650000Y-18742000D02*
G75*
G03*
X11650000Y-18742000I-130000J0D01*
G01*
D11*
X10539619Y-21143476D02*
X10539619Y-20943476D01*
X10587238Y-20943476D01*
X10615810Y-20953000D01*
X10634857Y-20972048D01*
X10644381Y-20991095D01*
X10653905Y-21029190D01*
X10653905Y-21057762D01*
X10644381Y-21095857D01*
X10634857Y-21114905D01*
X10615810Y-21133952D01*
X10587238Y-21143476D01*
X10539619Y-21143476D01*
X10739619Y-21143476D02*
X10739619Y-21010143D01*
X10739619Y-21048238D02*
X10749143Y-21029190D01*
X10758667Y-21019667D01*
X10777714Y-21010143D01*
X10796762Y-21010143D01*
X10863429Y-21143476D02*
X10863429Y-21010143D01*
X10863429Y-20943476D02*
X10853905Y-20953000D01*
X10863429Y-20962524D01*
X10872952Y-20953000D01*
X10863429Y-20943476D01*
X10863429Y-20962524D01*
X10987238Y-21143476D02*
X10968190Y-21133952D01*
X10958667Y-21114905D01*
X10958667Y-20943476D01*
X11092000Y-21143476D02*
X11072952Y-21133952D01*
X11063429Y-21114905D01*
X11063429Y-20943476D01*
X11320571Y-21143476D02*
X11320571Y-20943476D01*
X11387238Y-21086333D01*
X11453905Y-20943476D01*
X11453905Y-21143476D01*
X11634857Y-21143476D02*
X11634857Y-21038714D01*
X11625333Y-21019667D01*
X11606286Y-21010143D01*
X11568190Y-21010143D01*
X11549143Y-21019667D01*
X11634857Y-21133952D02*
X11615809Y-21143476D01*
X11568190Y-21143476D01*
X11549143Y-21133952D01*
X11539619Y-21114905D01*
X11539619Y-21095857D01*
X11549143Y-21076810D01*
X11568190Y-21067286D01*
X11615809Y-21067286D01*
X11634857Y-21057762D01*
X11730095Y-21010143D02*
X11730095Y-21210143D01*
X11730095Y-21019667D02*
X11749143Y-21010143D01*
X11787238Y-21010143D01*
X11806286Y-21019667D01*
X11815809Y-21029190D01*
X11825333Y-21048238D01*
X11825333Y-21105381D01*
X11815809Y-21124429D01*
X11806286Y-21133952D01*
X11787238Y-21143476D01*
X11749143Y-21143476D01*
X11730095Y-21133952D01*
X11911048Y-21124429D02*
X11920571Y-21133952D01*
X11911048Y-21143476D01*
X11901524Y-21133952D01*
X11911048Y-21124429D01*
X11911048Y-21143476D01*
X11911048Y-21019667D02*
X11920571Y-21029190D01*
X11911048Y-21038714D01*
X11901524Y-21029190D01*
X11911048Y-21019667D01*
X11911048Y-21038714D01*
D12*
X10242000Y-21453000D02*
X10282000Y-21493000D01*
X10282000Y-21453000D02*
X10242000Y-21493000D01*
D11*
X10577714Y-21363476D02*
X10596762Y-21363476D01*
X10615810Y-21373000D01*
X10625333Y-21382524D01*
X10634857Y-21401571D01*
X10644381Y-21439667D01*
X10644381Y-21487286D01*
X10634857Y-21525381D01*
X10625333Y-21544429D01*
X10615810Y-21553952D01*
X10596762Y-21563476D01*
X10577714Y-21563476D01*
X10558667Y-21553952D01*
X10549143Y-21544429D01*
X10539619Y-21525381D01*
X10530095Y-21487286D01*
X10530095Y-21439667D01*
X10539619Y-21401571D01*
X10549143Y-21382524D01*
X10558667Y-21373000D01*
X10577714Y-21363476D01*
X10730095Y-21544429D02*
X10739619Y-21553952D01*
X10730095Y-21563476D01*
X10720571Y-21553952D01*
X10730095Y-21544429D01*
X10730095Y-21563476D01*
X10911048Y-21430143D02*
X10911048Y-21563476D01*
X10863429Y-21353952D02*
X10815810Y-21496810D01*
X10939619Y-21496810D01*
X11053905Y-21363476D02*
X11072952Y-21363476D01*
X11092000Y-21373000D01*
X11101524Y-21382524D01*
X11111048Y-21401571D01*
X11120571Y-21439667D01*
X11120571Y-21487286D01*
X11111048Y-21525381D01*
X11101524Y-21544429D01*
X11092000Y-21553952D01*
X11072952Y-21563476D01*
X11053905Y-21563476D01*
X11034857Y-21553952D01*
X11025333Y-21544429D01*
X11015810Y-21525381D01*
X11006286Y-21487286D01*
X11006286Y-21439667D01*
X11015810Y-21401571D01*
X11025333Y-21382524D01*
X11034857Y-21373000D01*
X11053905Y-21363476D01*
X11244381Y-21363476D02*
X11263428Y-21363476D01*
X11282476Y-21373000D01*
X11292000Y-21382524D01*
X11301524Y-21401571D01*
X11311048Y-21439667D01*
X11311048Y-21487286D01*
X11301524Y-21525381D01*
X11292000Y-21544429D01*
X11282476Y-21553952D01*
X11263428Y-21563476D01*
X11244381Y-21563476D01*
X11225333Y-21553952D01*
X11215809Y-21544429D01*
X11206286Y-21525381D01*
X11196762Y-21487286D01*
X11196762Y-21439667D01*
X11206286Y-21401571D01*
X11215809Y-21382524D01*
X11225333Y-21373000D01*
X11244381Y-21363476D01*
X11396762Y-21563476D02*
X11396762Y-21430143D01*
X11396762Y-21449190D02*
X11406286Y-21439667D01*
X11425333Y-21430143D01*
X11453905Y-21430143D01*
X11472952Y-21439667D01*
X11482476Y-21458714D01*
X11482476Y-21563476D01*
X11482476Y-21458714D02*
X11492000Y-21439667D01*
X11511048Y-21430143D01*
X11539619Y-21430143D01*
X11558667Y-21439667D01*
X11568190Y-21458714D01*
X11568190Y-21563476D01*
X11663428Y-21563476D02*
X11663428Y-21430143D01*
X11663428Y-21449190D02*
X11672952Y-21439667D01*
X11692000Y-21430143D01*
X11720571Y-21430143D01*
X11739619Y-21439667D01*
X11749143Y-21458714D01*
X11749143Y-21563476D01*
X11749143Y-21458714D02*
X11758667Y-21439667D01*
X11777714Y-21430143D01*
X11806286Y-21430143D01*
X11825333Y-21439667D01*
X11834857Y-21458714D01*
X11834857Y-21563476D01*
X12225333Y-21353952D02*
X12053905Y-21611095D01*
X12482476Y-21363476D02*
X12501524Y-21363476D01*
X12520571Y-21373000D01*
X12530095Y-21382524D01*
X12539619Y-21401571D01*
X12549143Y-21439667D01*
X12549143Y-21487286D01*
X12539619Y-21525381D01*
X12530095Y-21544429D01*
X12520571Y-21553952D01*
X12501524Y-21563476D01*
X12482476Y-21563476D01*
X12463428Y-21553952D01*
X12453905Y-21544429D01*
X12444381Y-21525381D01*
X12434857Y-21487286D01*
X12434857Y-21439667D01*
X12444381Y-21401571D01*
X12453905Y-21382524D01*
X12463428Y-21373000D01*
X12482476Y-21363476D01*
X12634857Y-21544429D02*
X12644381Y-21553952D01*
X12634857Y-21563476D01*
X12625333Y-21553952D01*
X12634857Y-21544429D01*
X12634857Y-21563476D01*
X12768190Y-21363476D02*
X12787238Y-21363476D01*
X12806286Y-21373000D01*
X12815809Y-21382524D01*
X12825333Y-21401571D01*
X12834857Y-21439667D01*
X12834857Y-21487286D01*
X12825333Y-21525381D01*
X12815809Y-21544429D01*
X12806286Y-21553952D01*
X12787238Y-21563476D01*
X12768190Y-21563476D01*
X12749143Y-21553952D01*
X12739619Y-21544429D01*
X12730095Y-21525381D01*
X12720571Y-21487286D01*
X12720571Y-21439667D01*
X12730095Y-21401571D01*
X12739619Y-21382524D01*
X12749143Y-21373000D01*
X12768190Y-21363476D01*
X13025333Y-21563476D02*
X12911048Y-21563476D01*
X12968190Y-21563476D02*
X12968190Y-21363476D01*
X12949143Y-21392048D01*
X12930095Y-21411095D01*
X12911048Y-21420619D01*
X13206286Y-21363476D02*
X13111048Y-21363476D01*
X13101524Y-21458714D01*
X13111048Y-21449190D01*
X13130095Y-21439667D01*
X13177714Y-21439667D01*
X13196762Y-21449190D01*
X13206286Y-21458714D01*
X13215809Y-21477762D01*
X13215809Y-21525381D01*
X13206286Y-21544429D01*
X13196762Y-21553952D01*
X13177714Y-21563476D01*
X13130095Y-21563476D01*
X13111048Y-21553952D01*
X13101524Y-21544429D01*
X13282476Y-21363476D02*
X13415809Y-21363476D01*
X13330095Y-21563476D01*
X13482476Y-21363476D02*
X13482476Y-21401571D01*
X13558667Y-21363476D02*
X13558667Y-21401571D01*
X13853905Y-21639667D02*
X13844381Y-21630143D01*
X13825333Y-21601571D01*
X13815809Y-21582524D01*
X13806286Y-21553952D01*
X13796762Y-21506333D01*
X13796762Y-21468238D01*
X13806286Y-21420619D01*
X13815809Y-21392048D01*
X13825333Y-21373000D01*
X13844381Y-21344429D01*
X13853905Y-21334905D01*
X14025333Y-21363476D02*
X13930095Y-21363476D01*
X13920571Y-21458714D01*
X13930095Y-21449190D01*
X13949143Y-21439667D01*
X13996762Y-21439667D01*
X14015809Y-21449190D01*
X14025333Y-21458714D01*
X14034857Y-21477762D01*
X14034857Y-21525381D01*
X14025333Y-21544429D01*
X14015809Y-21553952D01*
X13996762Y-21563476D01*
X13949143Y-21563476D01*
X13930095Y-21553952D01*
X13920571Y-21544429D01*
X14206286Y-21430143D02*
X14206286Y-21563476D01*
X14158667Y-21353952D02*
X14111048Y-21496810D01*
X14234857Y-21496810D01*
X14463428Y-21563476D02*
X14463428Y-21363476D01*
X14549143Y-21563476D02*
X14549143Y-21458714D01*
X14539619Y-21439667D01*
X14520571Y-21430143D01*
X14492000Y-21430143D01*
X14472952Y-21439667D01*
X14463428Y-21449190D01*
X14672952Y-21563476D02*
X14653905Y-21553952D01*
X14644381Y-21544429D01*
X14634857Y-21525381D01*
X14634857Y-21468238D01*
X14644381Y-21449190D01*
X14653905Y-21439667D01*
X14672952Y-21430143D01*
X14701524Y-21430143D01*
X14720571Y-21439667D01*
X14730095Y-21449190D01*
X14739619Y-21468238D01*
X14739619Y-21525381D01*
X14730095Y-21544429D01*
X14720571Y-21553952D01*
X14701524Y-21563476D01*
X14672952Y-21563476D01*
X14853905Y-21563476D02*
X14834857Y-21553952D01*
X14825333Y-21534905D01*
X14825333Y-21363476D01*
X15006286Y-21553952D02*
X14987238Y-21563476D01*
X14949143Y-21563476D01*
X14930095Y-21553952D01*
X14920571Y-21534905D01*
X14920571Y-21458714D01*
X14930095Y-21439667D01*
X14949143Y-21430143D01*
X14987238Y-21430143D01*
X15006286Y-21439667D01*
X15015809Y-21458714D01*
X15015809Y-21477762D01*
X14920571Y-21496810D01*
X15092000Y-21553952D02*
X15111048Y-21563476D01*
X15149143Y-21563476D01*
X15168190Y-21553952D01*
X15177714Y-21534905D01*
X15177714Y-21525381D01*
X15168190Y-21506333D01*
X15149143Y-21496810D01*
X15120571Y-21496810D01*
X15101524Y-21487286D01*
X15092000Y-21468238D01*
X15092000Y-21458714D01*
X15101524Y-21439667D01*
X15120571Y-21430143D01*
X15149143Y-21430143D01*
X15168190Y-21439667D01*
X15244381Y-21639667D02*
X15253905Y-21630143D01*
X15272952Y-21601571D01*
X15282476Y-21582524D01*
X15292000Y-21553952D01*
X15301524Y-21506333D01*
X15301524Y-21468238D01*
X15292000Y-21420619D01*
X15282476Y-21392048D01*
X15272952Y-21373000D01*
X15253905Y-21344429D01*
X15244381Y-21334905D01*
D13*
X10282000Y-21737000D02*
G75*
G03*
X10282000Y-21737000I-37500J0D01*
G01*
D11*
X10577714Y-21627476D02*
X10596762Y-21627476D01*
X10615810Y-21637000D01*
X10625333Y-21646524D01*
X10634857Y-21665571D01*
X10644381Y-21703667D01*
X10644381Y-21751286D01*
X10634857Y-21789381D01*
X10625333Y-21808429D01*
X10615810Y-21817952D01*
X10596762Y-21827476D01*
X10577714Y-21827476D01*
X10558667Y-21817952D01*
X10549143Y-21808429D01*
X10539619Y-21789381D01*
X10530095Y-21751286D01*
X10530095Y-21703667D01*
X10539619Y-21665571D01*
X10549143Y-21646524D01*
X10558667Y-21637000D01*
X10577714Y-21627476D01*
X10730095Y-21808429D02*
X10739619Y-21817952D01*
X10730095Y-21827476D01*
X10720571Y-21817952D01*
X10730095Y-21808429D01*
X10730095Y-21827476D01*
X10806286Y-21627476D02*
X10939619Y-21627476D01*
X10853905Y-21827476D01*
X11111048Y-21627476D02*
X11015810Y-21627476D01*
X11006286Y-21722714D01*
X11015810Y-21713190D01*
X11034857Y-21703667D01*
X11082476Y-21703667D01*
X11101524Y-21713190D01*
X11111048Y-21722714D01*
X11120571Y-21741762D01*
X11120571Y-21789381D01*
X11111048Y-21808429D01*
X11101524Y-21817952D01*
X11082476Y-21827476D01*
X11034857Y-21827476D01*
X11015810Y-21817952D01*
X11006286Y-21808429D01*
X11244381Y-21627476D02*
X11263428Y-21627476D01*
X11282476Y-21637000D01*
X11292000Y-21646524D01*
X11301524Y-21665571D01*
X11311048Y-21703667D01*
X11311048Y-21751286D01*
X11301524Y-21789381D01*
X11292000Y-21808429D01*
X11282476Y-21817952D01*
X11263428Y-21827476D01*
X11244381Y-21827476D01*
X11225333Y-21817952D01*
X11215809Y-21808429D01*
X11206286Y-21789381D01*
X11196762Y-21751286D01*
X11196762Y-21703667D01*
X11206286Y-21665571D01*
X11215809Y-21646524D01*
X11225333Y-21637000D01*
X11244381Y-21627476D01*
X11396762Y-21827476D02*
X11396762Y-21694143D01*
X11396762Y-21713190D02*
X11406286Y-21703667D01*
X11425333Y-21694143D01*
X11453905Y-21694143D01*
X11472952Y-21703667D01*
X11482476Y-21722714D01*
X11482476Y-21827476D01*
X11482476Y-21722714D02*
X11492000Y-21703667D01*
X11511048Y-21694143D01*
X11539619Y-21694143D01*
X11558667Y-21703667D01*
X11568190Y-21722714D01*
X11568190Y-21827476D01*
X11663428Y-21827476D02*
X11663428Y-21694143D01*
X11663428Y-21713190D02*
X11672952Y-21703667D01*
X11692000Y-21694143D01*
X11720571Y-21694143D01*
X11739619Y-21703667D01*
X11749143Y-21722714D01*
X11749143Y-21827476D01*
X11749143Y-21722714D02*
X11758667Y-21703667D01*
X11777714Y-21694143D01*
X11806286Y-21694143D01*
X11825333Y-21703667D01*
X11834857Y-21722714D01*
X11834857Y-21827476D01*
X12225333Y-21617952D02*
X12053905Y-21875095D01*
X12482476Y-21627476D02*
X12501524Y-21627476D01*
X12520571Y-21637000D01*
X12530095Y-21646524D01*
X12539619Y-21665571D01*
X12549143Y-21703667D01*
X12549143Y-21751286D01*
X12539619Y-21789381D01*
X12530095Y-21808429D01*
X12520571Y-21817952D01*
X12501524Y-21827476D01*
X12482476Y-21827476D01*
X12463428Y-21817952D01*
X12453905Y-21808429D01*
X12444381Y-21789381D01*
X12434857Y-21751286D01*
X12434857Y-21703667D01*
X12444381Y-21665571D01*
X12453905Y-21646524D01*
X12463428Y-21637000D01*
X12482476Y-21627476D01*
X12634857Y-21808429D02*
X12644381Y-21817952D01*
X12634857Y-21827476D01*
X12625333Y-21817952D01*
X12634857Y-21808429D01*
X12634857Y-21827476D01*
X12768190Y-21627476D02*
X12787238Y-21627476D01*
X12806286Y-21637000D01*
X12815809Y-21646524D01*
X12825333Y-21665571D01*
X12834857Y-21703667D01*
X12834857Y-21751286D01*
X12825333Y-21789381D01*
X12815809Y-21808429D01*
X12806286Y-21817952D01*
X12787238Y-21827476D01*
X12768190Y-21827476D01*
X12749143Y-21817952D01*
X12739619Y-21808429D01*
X12730095Y-21789381D01*
X12720571Y-21751286D01*
X12720571Y-21703667D01*
X12730095Y-21665571D01*
X12739619Y-21646524D01*
X12749143Y-21637000D01*
X12768190Y-21627476D01*
X12911048Y-21646524D02*
X12920571Y-21637000D01*
X12939619Y-21627476D01*
X12987238Y-21627476D01*
X13006286Y-21637000D01*
X13015809Y-21646524D01*
X13025333Y-21665571D01*
X13025333Y-21684619D01*
X13015809Y-21713190D01*
X12901524Y-21827476D01*
X13025333Y-21827476D01*
X13120571Y-21827476D02*
X13158667Y-21827476D01*
X13177714Y-21817952D01*
X13187238Y-21808429D01*
X13206286Y-21779857D01*
X13215809Y-21741762D01*
X13215809Y-21665571D01*
X13206286Y-21646524D01*
X13196762Y-21637000D01*
X13177714Y-21627476D01*
X13139619Y-21627476D01*
X13120571Y-21637000D01*
X13111048Y-21646524D01*
X13101524Y-21665571D01*
X13101524Y-21713190D01*
X13111048Y-21732238D01*
X13120571Y-21741762D01*
X13139619Y-21751286D01*
X13177714Y-21751286D01*
X13196762Y-21741762D01*
X13206286Y-21732238D01*
X13215809Y-21713190D01*
X13396762Y-21627476D02*
X13301524Y-21627476D01*
X13292000Y-21722714D01*
X13301524Y-21713190D01*
X13320571Y-21703667D01*
X13368190Y-21703667D01*
X13387238Y-21713190D01*
X13396762Y-21722714D01*
X13406286Y-21741762D01*
X13406286Y-21789381D01*
X13396762Y-21808429D01*
X13387238Y-21817952D01*
X13368190Y-21827476D01*
X13320571Y-21827476D01*
X13301524Y-21817952D01*
X13292000Y-21808429D01*
X13482476Y-21627476D02*
X13482476Y-21665571D01*
X13558667Y-21627476D02*
X13558667Y-21665571D01*
X13853905Y-21903667D02*
X13844381Y-21894143D01*
X13825333Y-21865571D01*
X13815809Y-21846524D01*
X13806286Y-21817952D01*
X13796762Y-21770333D01*
X13796762Y-21732238D01*
X13806286Y-21684619D01*
X13815809Y-21656048D01*
X13825333Y-21637000D01*
X13844381Y-21608429D01*
X13853905Y-21598905D01*
X14025333Y-21627476D02*
X13930095Y-21627476D01*
X13920571Y-21722714D01*
X13930095Y-21713190D01*
X13949143Y-21703667D01*
X13996762Y-21703667D01*
X14015809Y-21713190D01*
X14025333Y-21722714D01*
X14034857Y-21741762D01*
X14034857Y-21789381D01*
X14025333Y-21808429D01*
X14015809Y-21817952D01*
X13996762Y-21827476D01*
X13949143Y-21827476D01*
X13930095Y-21817952D01*
X13920571Y-21808429D01*
X14272952Y-21827476D02*
X14272952Y-21627476D01*
X14358667Y-21827476D02*
X14358667Y-21722714D01*
X14349143Y-21703667D01*
X14330095Y-21694143D01*
X14301524Y-21694143D01*
X14282476Y-21703667D01*
X14272952Y-21713190D01*
X14482476Y-21827476D02*
X14463428Y-21817952D01*
X14453905Y-21808429D01*
X14444381Y-21789381D01*
X14444381Y-21732238D01*
X14453905Y-21713190D01*
X14463428Y-21703667D01*
X14482476Y-21694143D01*
X14511048Y-21694143D01*
X14530095Y-21703667D01*
X14539619Y-21713190D01*
X14549143Y-21732238D01*
X14549143Y-21789381D01*
X14539619Y-21808429D01*
X14530095Y-21817952D01*
X14511048Y-21827476D01*
X14482476Y-21827476D01*
X14663428Y-21827476D02*
X14644381Y-21817952D01*
X14634857Y-21798905D01*
X14634857Y-21627476D01*
X14815809Y-21817952D02*
X14796762Y-21827476D01*
X14758667Y-21827476D01*
X14739619Y-21817952D01*
X14730095Y-21798905D01*
X14730095Y-21722714D01*
X14739619Y-21703667D01*
X14758667Y-21694143D01*
X14796762Y-21694143D01*
X14815809Y-21703667D01*
X14825333Y-21722714D01*
X14825333Y-21741762D01*
X14730095Y-21760810D01*
X14901524Y-21817952D02*
X14920571Y-21827476D01*
X14958667Y-21827476D01*
X14977714Y-21817952D01*
X14987238Y-21798905D01*
X14987238Y-21789381D01*
X14977714Y-21770333D01*
X14958667Y-21760810D01*
X14930095Y-21760810D01*
X14911048Y-21751286D01*
X14901524Y-21732238D01*
X14901524Y-21722714D01*
X14911048Y-21703667D01*
X14930095Y-21694143D01*
X14958667Y-21694143D01*
X14977714Y-21703667D01*
X15053905Y-21903667D02*
X15063428Y-21894143D01*
X15082476Y-21865571D01*
X15092000Y-21846524D01*
X15101524Y-21817952D01*
X15111048Y-21770333D01*
X15111048Y-21732238D01*
X15101524Y-21684619D01*
X15092000Y-21656048D01*
X15082476Y-21637000D01*
X15063428Y-21608429D01*
X15053905Y-21598905D01*
D14*
X10242000Y-21961000D02*
X10242000Y-22041000D01*
X10202000Y-22001000D02*
X10282000Y-22001000D01*
D11*
X10577714Y-21891476D02*
X10596762Y-21891476D01*
X10615810Y-21901000D01*
X10625333Y-21910524D01*
X10634857Y-21929571D01*
X10644381Y-21967667D01*
X10644381Y-22015286D01*
X10634857Y-22053381D01*
X10625333Y-22072429D01*
X10615810Y-22081952D01*
X10596762Y-22091476D01*
X10577714Y-22091476D01*
X10558667Y-22081952D01*
X10549143Y-22072429D01*
X10539619Y-22053381D01*
X10530095Y-22015286D01*
X10530095Y-21967667D01*
X10539619Y-21929571D01*
X10549143Y-21910524D01*
X10558667Y-21901000D01*
X10577714Y-21891476D01*
X10730095Y-22072429D02*
X10739619Y-22081952D01*
X10730095Y-22091476D01*
X10720571Y-22081952D01*
X10730095Y-22072429D01*
X10730095Y-22091476D01*
X10853905Y-21977190D02*
X10834857Y-21967667D01*
X10825333Y-21958143D01*
X10815810Y-21939095D01*
X10815810Y-21929571D01*
X10825333Y-21910524D01*
X10834857Y-21901000D01*
X10853905Y-21891476D01*
X10892000Y-21891476D01*
X10911048Y-21901000D01*
X10920571Y-21910524D01*
X10930095Y-21929571D01*
X10930095Y-21939095D01*
X10920571Y-21958143D01*
X10911048Y-21967667D01*
X10892000Y-21977190D01*
X10853905Y-21977190D01*
X10834857Y-21986714D01*
X10825333Y-21996238D01*
X10815810Y-22015286D01*
X10815810Y-22053381D01*
X10825333Y-22072429D01*
X10834857Y-22081952D01*
X10853905Y-22091476D01*
X10892000Y-22091476D01*
X10911048Y-22081952D01*
X10920571Y-22072429D01*
X10930095Y-22053381D01*
X10930095Y-22015286D01*
X10920571Y-21996238D01*
X10911048Y-21986714D01*
X10892000Y-21977190D01*
X11053905Y-21891476D02*
X11072952Y-21891476D01*
X11092000Y-21901000D01*
X11101524Y-21910524D01*
X11111048Y-21929571D01*
X11120571Y-21967667D01*
X11120571Y-22015286D01*
X11111048Y-22053381D01*
X11101524Y-22072429D01*
X11092000Y-22081952D01*
X11072952Y-22091476D01*
X11053905Y-22091476D01*
X11034857Y-22081952D01*
X11025333Y-22072429D01*
X11015810Y-22053381D01*
X11006286Y-22015286D01*
X11006286Y-21967667D01*
X11015810Y-21929571D01*
X11025333Y-21910524D01*
X11034857Y-21901000D01*
X11053905Y-21891476D01*
X11244381Y-21891476D02*
X11263428Y-21891476D01*
X11282476Y-21901000D01*
X11292000Y-21910524D01*
X11301524Y-21929571D01*
X11311048Y-21967667D01*
X11311048Y-22015286D01*
X11301524Y-22053381D01*
X11292000Y-22072429D01*
X11282476Y-22081952D01*
X11263428Y-22091476D01*
X11244381Y-22091476D01*
X11225333Y-22081952D01*
X11215809Y-22072429D01*
X11206286Y-22053381D01*
X11196762Y-22015286D01*
X11196762Y-21967667D01*
X11206286Y-21929571D01*
X11215809Y-21910524D01*
X11225333Y-21901000D01*
X11244381Y-21891476D01*
X11396762Y-22091476D02*
X11396762Y-21958143D01*
X11396762Y-21977190D02*
X11406286Y-21967667D01*
X11425333Y-21958143D01*
X11453905Y-21958143D01*
X11472952Y-21967667D01*
X11482476Y-21986714D01*
X11482476Y-22091476D01*
X11482476Y-21986714D02*
X11492000Y-21967667D01*
X11511048Y-21958143D01*
X11539619Y-21958143D01*
X11558667Y-21967667D01*
X11568190Y-21986714D01*
X11568190Y-22091476D01*
X11663428Y-22091476D02*
X11663428Y-21958143D01*
X11663428Y-21977190D02*
X11672952Y-21967667D01*
X11692000Y-21958143D01*
X11720571Y-21958143D01*
X11739619Y-21967667D01*
X11749143Y-21986714D01*
X11749143Y-22091476D01*
X11749143Y-21986714D02*
X11758667Y-21967667D01*
X11777714Y-21958143D01*
X11806286Y-21958143D01*
X11825333Y-21967667D01*
X11834857Y-21986714D01*
X11834857Y-22091476D01*
X12225333Y-21881952D02*
X12053905Y-22139095D01*
X12482476Y-21891476D02*
X12501524Y-21891476D01*
X12520571Y-21901000D01*
X12530095Y-21910524D01*
X12539619Y-21929571D01*
X12549143Y-21967667D01*
X12549143Y-22015286D01*
X12539619Y-22053381D01*
X12530095Y-22072429D01*
X12520571Y-22081952D01*
X12501524Y-22091476D01*
X12482476Y-22091476D01*
X12463428Y-22081952D01*
X12453905Y-22072429D01*
X12444381Y-22053381D01*
X12434857Y-22015286D01*
X12434857Y-21967667D01*
X12444381Y-21929571D01*
X12453905Y-21910524D01*
X12463428Y-21901000D01*
X12482476Y-21891476D01*
X12634857Y-22072429D02*
X12644381Y-22081952D01*
X12634857Y-22091476D01*
X12625333Y-22081952D01*
X12634857Y-22072429D01*
X12634857Y-22091476D01*
X12768190Y-21891476D02*
X12787238Y-21891476D01*
X12806286Y-21901000D01*
X12815809Y-21910524D01*
X12825333Y-21929571D01*
X12834857Y-21967667D01*
X12834857Y-22015286D01*
X12825333Y-22053381D01*
X12815809Y-22072429D01*
X12806286Y-22081952D01*
X12787238Y-22091476D01*
X12768190Y-22091476D01*
X12749143Y-22081952D01*
X12739619Y-22072429D01*
X12730095Y-22053381D01*
X12720571Y-22015286D01*
X12720571Y-21967667D01*
X12730095Y-21929571D01*
X12739619Y-21910524D01*
X12749143Y-21901000D01*
X12768190Y-21891476D01*
X12901524Y-21891476D02*
X13025333Y-21891476D01*
X12958667Y-21967667D01*
X12987238Y-21967667D01*
X13006286Y-21977190D01*
X13015809Y-21986714D01*
X13025333Y-22005762D01*
X13025333Y-22053381D01*
X13015809Y-22072429D01*
X13006286Y-22081952D01*
X12987238Y-22091476D01*
X12930095Y-22091476D01*
X12911048Y-22081952D01*
X12901524Y-22072429D01*
X13215809Y-22091476D02*
X13101524Y-22091476D01*
X13158667Y-22091476D02*
X13158667Y-21891476D01*
X13139619Y-21920048D01*
X13120571Y-21939095D01*
X13101524Y-21948619D01*
X13396762Y-21891476D02*
X13301524Y-21891476D01*
X13292000Y-21986714D01*
X13301524Y-21977190D01*
X13320571Y-21967667D01*
X13368190Y-21967667D01*
X13387238Y-21977190D01*
X13396762Y-21986714D01*
X13406286Y-22005762D01*
X13406286Y-22053381D01*
X13396762Y-22072429D01*
X13387238Y-22081952D01*
X13368190Y-22091476D01*
X13320571Y-22091476D01*
X13301524Y-22081952D01*
X13292000Y-22072429D01*
X13482476Y-21891476D02*
X13482476Y-21929571D01*
X13558667Y-21891476D02*
X13558667Y-21929571D01*
X13853905Y-22167667D02*
X13844381Y-22158143D01*
X13825333Y-22129571D01*
X13815809Y-22110524D01*
X13806286Y-22081952D01*
X13796762Y-22034333D01*
X13796762Y-21996238D01*
X13806286Y-21948619D01*
X13815809Y-21920048D01*
X13825333Y-21901000D01*
X13844381Y-21872429D01*
X13853905Y-21862905D01*
X13911048Y-21891476D02*
X14034857Y-21891476D01*
X13968190Y-21967667D01*
X13996762Y-21967667D01*
X14015809Y-21977190D01*
X14025333Y-21986714D01*
X14034857Y-22005762D01*
X14034857Y-22053381D01*
X14025333Y-22072429D01*
X14015809Y-22081952D01*
X13996762Y-22091476D01*
X13939619Y-22091476D01*
X13920571Y-22081952D01*
X13911048Y-22072429D01*
X14225333Y-22091476D02*
X14111048Y-22091476D01*
X14168190Y-22091476D02*
X14168190Y-21891476D01*
X14149143Y-21920048D01*
X14130095Y-21939095D01*
X14111048Y-21948619D01*
X14415809Y-22091476D02*
X14301524Y-22091476D01*
X14358667Y-22091476D02*
X14358667Y-21891476D01*
X14339619Y-21920048D01*
X14320571Y-21939095D01*
X14301524Y-21948619D01*
X14653905Y-22091476D02*
X14653905Y-21891476D01*
X14739619Y-22091476D02*
X14739619Y-21986714D01*
X14730095Y-21967667D01*
X14711048Y-21958143D01*
X14682476Y-21958143D01*
X14663428Y-21967667D01*
X14653905Y-21977190D01*
X14863428Y-22091476D02*
X14844381Y-22081952D01*
X14834857Y-22072429D01*
X14825333Y-22053381D01*
X14825333Y-21996238D01*
X14834857Y-21977190D01*
X14844381Y-21967667D01*
X14863428Y-21958143D01*
X14892000Y-21958143D01*
X14911048Y-21967667D01*
X14920571Y-21977190D01*
X14930095Y-21996238D01*
X14930095Y-22053381D01*
X14920571Y-22072429D01*
X14911048Y-22081952D01*
X14892000Y-22091476D01*
X14863428Y-22091476D01*
X15044381Y-22091476D02*
X15025333Y-22081952D01*
X15015809Y-22062905D01*
X15015809Y-21891476D01*
X15196762Y-22081952D02*
X15177714Y-22091476D01*
X15139619Y-22091476D01*
X15120571Y-22081952D01*
X15111048Y-22062905D01*
X15111048Y-21986714D01*
X15120571Y-21967667D01*
X15139619Y-21958143D01*
X15177714Y-21958143D01*
X15196762Y-21967667D01*
X15206286Y-21986714D01*
X15206286Y-22005762D01*
X15111048Y-22024810D01*
X15282476Y-22081952D02*
X15301524Y-22091476D01*
X15339619Y-22091476D01*
X15358667Y-22081952D01*
X15368190Y-22062905D01*
X15368190Y-22053381D01*
X15358667Y-22034333D01*
X15339619Y-22024810D01*
X15311048Y-22024810D01*
X15292000Y-22015286D01*
X15282476Y-21996238D01*
X15282476Y-21986714D01*
X15292000Y-21967667D01*
X15311048Y-21958143D01*
X15339619Y-21958143D01*
X15358667Y-21967667D01*
X15434857Y-22167667D02*
X15444381Y-22158143D01*
X15463428Y-22129571D01*
X15472952Y-22110524D01*
X15482476Y-22081952D01*
X15492000Y-22034333D01*
X15492000Y-21996238D01*
X15482476Y-21948619D01*
X15472952Y-21920048D01*
X15463428Y-21901000D01*
X15444381Y-21872429D01*
X15434857Y-21862905D01*
D15*
X10268820Y-22296820D02*
X10268820Y-22233180D01*
X10205180Y-22233180D01*
X10205180Y-22296820D01*
X10268820Y-22296820D01*
D11*
X10577714Y-22155476D02*
X10596762Y-22155476D01*
X10615810Y-22165000D01*
X10625333Y-22174524D01*
X10634857Y-22193571D01*
X10644381Y-22231667D01*
X10644381Y-22279286D01*
X10634857Y-22317381D01*
X10625333Y-22336429D01*
X10615810Y-22345952D01*
X10596762Y-22355476D01*
X10577714Y-22355476D01*
X10558667Y-22345952D01*
X10549143Y-22336429D01*
X10539619Y-22317381D01*
X10530095Y-22279286D01*
X10530095Y-22231667D01*
X10539619Y-22193571D01*
X10549143Y-22174524D01*
X10558667Y-22165000D01*
X10577714Y-22155476D01*
X10730095Y-22336429D02*
X10739619Y-22345952D01*
X10730095Y-22355476D01*
X10720571Y-22345952D01*
X10730095Y-22336429D01*
X10730095Y-22355476D01*
X10834857Y-22355476D02*
X10872952Y-22355476D01*
X10892000Y-22345952D01*
X10901524Y-22336429D01*
X10920571Y-22307857D01*
X10930095Y-22269762D01*
X10930095Y-22193571D01*
X10920571Y-22174524D01*
X10911048Y-22165000D01*
X10892000Y-22155476D01*
X10853905Y-22155476D01*
X10834857Y-22165000D01*
X10825333Y-22174524D01*
X10815810Y-22193571D01*
X10815810Y-22241190D01*
X10825333Y-22260238D01*
X10834857Y-22269762D01*
X10853905Y-22279286D01*
X10892000Y-22279286D01*
X10911048Y-22269762D01*
X10920571Y-22260238D01*
X10930095Y-22241190D01*
X11053905Y-22155476D02*
X11072952Y-22155476D01*
X11092000Y-22165000D01*
X11101524Y-22174524D01*
X11111048Y-22193571D01*
X11120571Y-22231667D01*
X11120571Y-22279286D01*
X11111048Y-22317381D01*
X11101524Y-22336429D01*
X11092000Y-22345952D01*
X11072952Y-22355476D01*
X11053905Y-22355476D01*
X11034857Y-22345952D01*
X11025333Y-22336429D01*
X11015810Y-22317381D01*
X11006286Y-22279286D01*
X11006286Y-22231667D01*
X11015810Y-22193571D01*
X11025333Y-22174524D01*
X11034857Y-22165000D01*
X11053905Y-22155476D01*
X11244381Y-22155476D02*
X11263428Y-22155476D01*
X11282476Y-22165000D01*
X11292000Y-22174524D01*
X11301524Y-22193571D01*
X11311048Y-22231667D01*
X11311048Y-22279286D01*
X11301524Y-22317381D01*
X11292000Y-22336429D01*
X11282476Y-22345952D01*
X11263428Y-22355476D01*
X11244381Y-22355476D01*
X11225333Y-22345952D01*
X11215809Y-22336429D01*
X11206286Y-22317381D01*
X11196762Y-22279286D01*
X11196762Y-22231667D01*
X11206286Y-22193571D01*
X11215809Y-22174524D01*
X11225333Y-22165000D01*
X11244381Y-22155476D01*
X11396762Y-22355476D02*
X11396762Y-22222143D01*
X11396762Y-22241190D02*
X11406286Y-22231667D01*
X11425333Y-22222143D01*
X11453905Y-22222143D01*
X11472952Y-22231667D01*
X11482476Y-22250714D01*
X11482476Y-22355476D01*
X11482476Y-22250714D02*
X11492000Y-22231667D01*
X11511048Y-22222143D01*
X11539619Y-22222143D01*
X11558667Y-22231667D01*
X11568190Y-22250714D01*
X11568190Y-22355476D01*
X11663428Y-22355476D02*
X11663428Y-22222143D01*
X11663428Y-22241190D02*
X11672952Y-22231667D01*
X11692000Y-22222143D01*
X11720571Y-22222143D01*
X11739619Y-22231667D01*
X11749143Y-22250714D01*
X11749143Y-22355476D01*
X11749143Y-22250714D02*
X11758667Y-22231667D01*
X11777714Y-22222143D01*
X11806286Y-22222143D01*
X11825333Y-22231667D01*
X11834857Y-22250714D01*
X11834857Y-22355476D01*
X12225333Y-22145952D02*
X12053905Y-22403095D01*
X12482476Y-22155476D02*
X12501524Y-22155476D01*
X12520571Y-22165000D01*
X12530095Y-22174524D01*
X12539619Y-22193571D01*
X12549143Y-22231667D01*
X12549143Y-22279286D01*
X12539619Y-22317381D01*
X12530095Y-22336429D01*
X12520571Y-22345952D01*
X12501524Y-22355476D01*
X12482476Y-22355476D01*
X12463428Y-22345952D01*
X12453905Y-22336429D01*
X12444381Y-22317381D01*
X12434857Y-22279286D01*
X12434857Y-22231667D01*
X12444381Y-22193571D01*
X12453905Y-22174524D01*
X12463428Y-22165000D01*
X12482476Y-22155476D01*
X12634857Y-22336429D02*
X12644381Y-22345952D01*
X12634857Y-22355476D01*
X12625333Y-22345952D01*
X12634857Y-22336429D01*
X12634857Y-22355476D01*
X12768190Y-22155476D02*
X12787238Y-22155476D01*
X12806286Y-22165000D01*
X12815809Y-22174524D01*
X12825333Y-22193571D01*
X12834857Y-22231667D01*
X12834857Y-22279286D01*
X12825333Y-22317381D01*
X12815809Y-22336429D01*
X12806286Y-22345952D01*
X12787238Y-22355476D01*
X12768190Y-22355476D01*
X12749143Y-22345952D01*
X12739619Y-22336429D01*
X12730095Y-22317381D01*
X12720571Y-22279286D01*
X12720571Y-22231667D01*
X12730095Y-22193571D01*
X12739619Y-22174524D01*
X12749143Y-22165000D01*
X12768190Y-22155476D01*
X12901524Y-22155476D02*
X13025333Y-22155476D01*
X12958667Y-22231667D01*
X12987238Y-22231667D01*
X13006286Y-22241190D01*
X13015809Y-22250714D01*
X13025333Y-22269762D01*
X13025333Y-22317381D01*
X13015809Y-22336429D01*
X13006286Y-22345952D01*
X12987238Y-22355476D01*
X12930095Y-22355476D01*
X12911048Y-22345952D01*
X12901524Y-22336429D01*
X13206286Y-22155476D02*
X13111048Y-22155476D01*
X13101524Y-22250714D01*
X13111048Y-22241190D01*
X13130095Y-22231667D01*
X13177714Y-22231667D01*
X13196762Y-22241190D01*
X13206286Y-22250714D01*
X13215809Y-22269762D01*
X13215809Y-22317381D01*
X13206286Y-22336429D01*
X13196762Y-22345952D01*
X13177714Y-22355476D01*
X13130095Y-22355476D01*
X13111048Y-22345952D01*
X13101524Y-22336429D01*
X13387238Y-22222143D02*
X13387238Y-22355476D01*
X13339619Y-22145952D02*
X13292000Y-22288810D01*
X13415809Y-22288810D01*
X13482476Y-22155476D02*
X13482476Y-22193571D01*
X13558667Y-22155476D02*
X13558667Y-22193571D01*
X13853905Y-22431667D02*
X13844381Y-22422143D01*
X13825333Y-22393571D01*
X13815809Y-22374524D01*
X13806286Y-22345952D01*
X13796762Y-22298333D01*
X13796762Y-22260238D01*
X13806286Y-22212619D01*
X13815809Y-22184048D01*
X13825333Y-22165000D01*
X13844381Y-22136429D01*
X13853905Y-22126905D01*
X13920571Y-22174524D02*
X13930095Y-22165000D01*
X13949143Y-22155476D01*
X13996762Y-22155476D01*
X14015809Y-22165000D01*
X14025333Y-22174524D01*
X14034857Y-22193571D01*
X14034857Y-22212619D01*
X14025333Y-22241190D01*
X13911048Y-22355476D01*
X14034857Y-22355476D01*
X14272952Y-22355476D02*
X14272952Y-22155476D01*
X14358667Y-22355476D02*
X14358667Y-22250714D01*
X14349143Y-22231667D01*
X14330095Y-22222143D01*
X14301524Y-22222143D01*
X14282476Y-22231667D01*
X14272952Y-22241190D01*
X14482476Y-22355476D02*
X14463428Y-22345952D01*
X14453905Y-22336429D01*
X14444381Y-22317381D01*
X14444381Y-22260238D01*
X14453905Y-22241190D01*
X14463428Y-22231667D01*
X14482476Y-22222143D01*
X14511048Y-22222143D01*
X14530095Y-22231667D01*
X14539619Y-22241190D01*
X14549143Y-22260238D01*
X14549143Y-22317381D01*
X14539619Y-22336429D01*
X14530095Y-22345952D01*
X14511048Y-22355476D01*
X14482476Y-22355476D01*
X14663428Y-22355476D02*
X14644381Y-22345952D01*
X14634857Y-22326905D01*
X14634857Y-22155476D01*
X14815809Y-22345952D02*
X14796762Y-22355476D01*
X14758667Y-22355476D01*
X14739619Y-22345952D01*
X14730095Y-22326905D01*
X14730095Y-22250714D01*
X14739619Y-22231667D01*
X14758667Y-22222143D01*
X14796762Y-22222143D01*
X14815809Y-22231667D01*
X14825333Y-22250714D01*
X14825333Y-22269762D01*
X14730095Y-22288810D01*
X14901524Y-22345952D02*
X14920571Y-22355476D01*
X14958667Y-22355476D01*
X14977714Y-22345952D01*
X14987238Y-22326905D01*
X14987238Y-22317381D01*
X14977714Y-22298333D01*
X14958667Y-22288810D01*
X14930095Y-22288810D01*
X14911048Y-22279286D01*
X14901524Y-22260238D01*
X14901524Y-22250714D01*
X14911048Y-22231667D01*
X14930095Y-22222143D01*
X14958667Y-22222143D01*
X14977714Y-22231667D01*
X15053905Y-22431667D02*
X15063428Y-22422143D01*
X15082476Y-22393571D01*
X15092000Y-22374524D01*
X15101524Y-22345952D01*
X15111048Y-22298333D01*
X15111048Y-22260238D01*
X15101524Y-22212619D01*
X15092000Y-22184048D01*
X15082476Y-22165000D01*
X15063428Y-22136429D01*
X15053905Y-22126905D01*
D16*
X10232000Y-22579000D02*
X10282000Y-22529000D01*
X10232000Y-22479000D01*
X10182000Y-22529000D01*
X10232000Y-22579000D01*
D11*
X10644381Y-22619476D02*
X10530095Y-22619476D01*
X10587238Y-22619476D02*
X10587238Y-22419476D01*
X10568190Y-22448048D01*
X10549143Y-22467095D01*
X10530095Y-22476619D01*
X10730095Y-22600428D02*
X10739619Y-22609952D01*
X10730095Y-22619476D01*
X10720571Y-22609952D01*
X10730095Y-22600428D01*
X10730095Y-22619476D01*
X10863429Y-22419476D02*
X10882476Y-22419476D01*
X10901524Y-22429000D01*
X10911048Y-22438524D01*
X10920571Y-22457571D01*
X10930095Y-22495667D01*
X10930095Y-22543286D01*
X10920571Y-22581381D01*
X10911048Y-22600428D01*
X10901524Y-22609952D01*
X10882476Y-22619476D01*
X10863429Y-22619476D01*
X10844381Y-22609952D01*
X10834857Y-22600428D01*
X10825333Y-22581381D01*
X10815810Y-22543286D01*
X10815810Y-22495667D01*
X10825333Y-22457571D01*
X10834857Y-22438524D01*
X10844381Y-22429000D01*
X10863429Y-22419476D01*
X11053905Y-22419476D02*
X11072952Y-22419476D01*
X11092000Y-22429000D01*
X11101524Y-22438524D01*
X11111048Y-22457571D01*
X11120571Y-22495667D01*
X11120571Y-22543286D01*
X11111048Y-22581381D01*
X11101524Y-22600428D01*
X11092000Y-22609952D01*
X11072952Y-22619476D01*
X11053905Y-22619476D01*
X11034857Y-22609952D01*
X11025333Y-22600428D01*
X11015810Y-22581381D01*
X11006286Y-22543286D01*
X11006286Y-22495667D01*
X11015810Y-22457571D01*
X11025333Y-22438524D01*
X11034857Y-22429000D01*
X11053905Y-22419476D01*
X11244381Y-22419476D02*
X11263428Y-22419476D01*
X11282476Y-22429000D01*
X11292000Y-22438524D01*
X11301524Y-22457571D01*
X11311048Y-22495667D01*
X11311048Y-22543286D01*
X11301524Y-22581381D01*
X11292000Y-22600428D01*
X11282476Y-22609952D01*
X11263428Y-22619476D01*
X11244381Y-22619476D01*
X11225333Y-22609952D01*
X11215809Y-22600428D01*
X11206286Y-22581381D01*
X11196762Y-22543286D01*
X11196762Y-22495667D01*
X11206286Y-22457571D01*
X11215809Y-22438524D01*
X11225333Y-22429000D01*
X11244381Y-22419476D01*
X11396762Y-22619476D02*
X11396762Y-22486143D01*
X11396762Y-22505190D02*
X11406286Y-22495667D01*
X11425333Y-22486143D01*
X11453905Y-22486143D01*
X11472952Y-22495667D01*
X11482476Y-22514714D01*
X11482476Y-22619476D01*
X11482476Y-22514714D02*
X11492000Y-22495667D01*
X11511048Y-22486143D01*
X11539619Y-22486143D01*
X11558667Y-22495667D01*
X11568190Y-22514714D01*
X11568190Y-22619476D01*
X11663428Y-22619476D02*
X11663428Y-22486143D01*
X11663428Y-22505190D02*
X11672952Y-22495667D01*
X11692000Y-22486143D01*
X11720571Y-22486143D01*
X11739619Y-22495667D01*
X11749143Y-22514714D01*
X11749143Y-22619476D01*
X11749143Y-22514714D02*
X11758667Y-22495667D01*
X11777714Y-22486143D01*
X11806286Y-22486143D01*
X11825333Y-22495667D01*
X11834857Y-22514714D01*
X11834857Y-22619476D01*
X12225333Y-22409952D02*
X12053905Y-22667095D01*
X12482476Y-22419476D02*
X12501524Y-22419476D01*
X12520571Y-22429000D01*
X12530095Y-22438524D01*
X12539619Y-22457571D01*
X12549143Y-22495667D01*
X12549143Y-22543286D01*
X12539619Y-22581381D01*
X12530095Y-22600428D01*
X12520571Y-22609952D01*
X12501524Y-22619476D01*
X12482476Y-22619476D01*
X12463428Y-22609952D01*
X12453905Y-22600428D01*
X12444381Y-22581381D01*
X12434857Y-22543286D01*
X12434857Y-22495667D01*
X12444381Y-22457571D01*
X12453905Y-22438524D01*
X12463428Y-22429000D01*
X12482476Y-22419476D01*
X12634857Y-22600428D02*
X12644381Y-22609952D01*
X12634857Y-22619476D01*
X12625333Y-22609952D01*
X12634857Y-22600428D01*
X12634857Y-22619476D01*
X12768190Y-22419476D02*
X12787238Y-22419476D01*
X12806286Y-22429000D01*
X12815809Y-22438524D01*
X12825333Y-22457571D01*
X12834857Y-22495667D01*
X12834857Y-22543286D01*
X12825333Y-22581381D01*
X12815809Y-22600428D01*
X12806286Y-22609952D01*
X12787238Y-22619476D01*
X12768190Y-22619476D01*
X12749143Y-22609952D01*
X12739619Y-22600428D01*
X12730095Y-22581381D01*
X12720571Y-22543286D01*
X12720571Y-22495667D01*
X12730095Y-22457571D01*
X12739619Y-22438524D01*
X12749143Y-22429000D01*
X12768190Y-22419476D01*
X12901524Y-22419476D02*
X13025333Y-22419476D01*
X12958667Y-22495667D01*
X12987238Y-22495667D01*
X13006286Y-22505190D01*
X13015809Y-22514714D01*
X13025333Y-22533762D01*
X13025333Y-22581381D01*
X13015809Y-22600428D01*
X13006286Y-22609952D01*
X12987238Y-22619476D01*
X12930095Y-22619476D01*
X12911048Y-22609952D01*
X12901524Y-22600428D01*
X13120571Y-22619476D02*
X13158667Y-22619476D01*
X13177714Y-22609952D01*
X13187238Y-22600428D01*
X13206286Y-22571857D01*
X13215809Y-22533762D01*
X13215809Y-22457571D01*
X13206286Y-22438524D01*
X13196762Y-22429000D01*
X13177714Y-22419476D01*
X13139619Y-22419476D01*
X13120571Y-22429000D01*
X13111048Y-22438524D01*
X13101524Y-22457571D01*
X13101524Y-22505190D01*
X13111048Y-22524238D01*
X13120571Y-22533762D01*
X13139619Y-22543286D01*
X13177714Y-22543286D01*
X13196762Y-22533762D01*
X13206286Y-22524238D01*
X13215809Y-22505190D01*
X13387238Y-22486143D02*
X13387238Y-22619476D01*
X13339619Y-22409952D02*
X13292000Y-22552809D01*
X13415809Y-22552809D01*
X13482476Y-22419476D02*
X13482476Y-22457571D01*
X13558667Y-22419476D02*
X13558667Y-22457571D01*
X13853905Y-22695667D02*
X13844381Y-22686143D01*
X13825333Y-22657571D01*
X13815809Y-22638524D01*
X13806286Y-22609952D01*
X13796762Y-22562333D01*
X13796762Y-22524238D01*
X13806286Y-22476619D01*
X13815809Y-22448048D01*
X13825333Y-22429000D01*
X13844381Y-22400428D01*
X13853905Y-22390905D01*
X14015809Y-22486143D02*
X14015809Y-22619476D01*
X13968190Y-22409952D02*
X13920571Y-22552809D01*
X14044381Y-22552809D01*
X14130095Y-22619476D02*
X14168190Y-22619476D01*
X14187238Y-22609952D01*
X14196762Y-22600428D01*
X14215809Y-22571857D01*
X14225333Y-22533762D01*
X14225333Y-22457571D01*
X14215809Y-22438524D01*
X14206286Y-22429000D01*
X14187238Y-22419476D01*
X14149143Y-22419476D01*
X14130095Y-22429000D01*
X14120571Y-22438524D01*
X14111048Y-22457571D01*
X14111048Y-22505190D01*
X14120571Y-22524238D01*
X14130095Y-22533762D01*
X14149143Y-22543286D01*
X14187238Y-22543286D01*
X14206286Y-22533762D01*
X14215809Y-22524238D01*
X14225333Y-22505190D01*
X14463428Y-22619476D02*
X14463428Y-22419476D01*
X14549143Y-22619476D02*
X14549143Y-22514714D01*
X14539619Y-22495667D01*
X14520571Y-22486143D01*
X14492000Y-22486143D01*
X14472952Y-22495667D01*
X14463428Y-22505190D01*
X14672952Y-22619476D02*
X14653905Y-22609952D01*
X14644381Y-22600428D01*
X14634857Y-22581381D01*
X14634857Y-22524238D01*
X14644381Y-22505190D01*
X14653905Y-22495667D01*
X14672952Y-22486143D01*
X14701524Y-22486143D01*
X14720571Y-22495667D01*
X14730095Y-22505190D01*
X14739619Y-22524238D01*
X14739619Y-22581381D01*
X14730095Y-22600428D01*
X14720571Y-22609952D01*
X14701524Y-22619476D01*
X14672952Y-22619476D01*
X14853905Y-22619476D02*
X14834857Y-22609952D01*
X14825333Y-22590905D01*
X14825333Y-22419476D01*
X15006286Y-22609952D02*
X14987238Y-22619476D01*
X14949143Y-22619476D01*
X14930095Y-22609952D01*
X14920571Y-22590905D01*
X14920571Y-22514714D01*
X14930095Y-22495667D01*
X14949143Y-22486143D01*
X14987238Y-22486143D01*
X15006286Y-22495667D01*
X15015809Y-22514714D01*
X15015809Y-22533762D01*
X14920571Y-22552809D01*
X15092000Y-22609952D02*
X15111048Y-22619476D01*
X15149143Y-22619476D01*
X15168190Y-22609952D01*
X15177714Y-22590905D01*
X15177714Y-22581381D01*
X15168190Y-22562333D01*
X15149143Y-22552809D01*
X15120571Y-22552809D01*
X15101524Y-22543286D01*
X15092000Y-22524238D01*
X15092000Y-22514714D01*
X15101524Y-22495667D01*
X15120571Y-22486143D01*
X15149143Y-22486143D01*
X15168190Y-22495667D01*
X15415809Y-22543286D02*
X15568190Y-22543286D01*
X15492000Y-22619476D02*
X15492000Y-22467095D01*
X15796762Y-22419476D02*
X15920571Y-22419476D01*
X15853905Y-22495667D01*
X15882476Y-22495667D01*
X15901524Y-22505190D01*
X15911048Y-22514714D01*
X15920571Y-22533762D01*
X15920571Y-22581381D01*
X15911048Y-22600428D01*
X15901524Y-22609952D01*
X15882476Y-22619476D01*
X15825333Y-22619476D01*
X15806286Y-22609952D01*
X15796762Y-22600428D01*
X16149143Y-22609952D02*
X16168190Y-22619476D01*
X16206286Y-22619476D01*
X16225333Y-22609952D01*
X16234857Y-22590905D01*
X16234857Y-22581381D01*
X16225333Y-22562333D01*
X16206286Y-22552809D01*
X16177714Y-22552809D01*
X16158667Y-22543286D01*
X16149143Y-22524238D01*
X16149143Y-22514714D01*
X16158667Y-22495667D01*
X16177714Y-22486143D01*
X16206286Y-22486143D01*
X16225333Y-22495667D01*
X16349143Y-22619476D02*
X16330095Y-22609952D01*
X16320571Y-22590905D01*
X16320571Y-22419476D01*
X16453905Y-22619476D02*
X16434857Y-22609952D01*
X16425333Y-22600428D01*
X16415809Y-22581381D01*
X16415809Y-22524238D01*
X16425333Y-22505190D01*
X16434857Y-22495667D01*
X16453905Y-22486143D01*
X16482476Y-22486143D01*
X16501524Y-22495667D01*
X16511048Y-22505190D01*
X16520571Y-22524238D01*
X16520571Y-22581381D01*
X16511048Y-22600428D01*
X16501524Y-22609952D01*
X16482476Y-22619476D01*
X16453905Y-22619476D01*
X16577714Y-22486143D02*
X16653905Y-22486143D01*
X16606286Y-22419476D02*
X16606286Y-22590905D01*
X16615809Y-22609952D01*
X16634857Y-22619476D01*
X16653905Y-22619476D01*
X16711048Y-22609952D02*
X16730095Y-22619476D01*
X16768190Y-22619476D01*
X16787238Y-22609952D01*
X16796762Y-22590905D01*
X16796762Y-22581381D01*
X16787238Y-22562333D01*
X16768190Y-22552809D01*
X16739619Y-22552809D01*
X16720571Y-22543286D01*
X16711048Y-22524238D01*
X16711048Y-22514714D01*
X16720571Y-22495667D01*
X16739619Y-22486143D01*
X16768190Y-22486143D01*
X16787238Y-22495667D01*
X16863429Y-22695667D02*
X16872952Y-22686143D01*
X16892000Y-22657571D01*
X16901524Y-22638524D01*
X16911048Y-22609952D01*
X16920571Y-22562333D01*
X16920571Y-22524238D01*
X16911048Y-22476619D01*
X16901524Y-22448048D01*
X16892000Y-22429000D01*
X16872952Y-22400428D01*
X16863429Y-22390905D01*
D17*
X10172000Y-22738000D02*
X10282000Y-22848000D01*
X10282000Y-22738000D02*
X10172000Y-22848000D01*
X10282000Y-22793000D02*
G75*
G03*
X10282000Y-22793000I-55000J0D01*
G01*
D11*
X10644381Y-22883476D02*
X10530095Y-22883476D01*
X10587238Y-22883476D02*
X10587238Y-22683476D01*
X10568190Y-22712048D01*
X10549143Y-22731095D01*
X10530095Y-22740619D01*
X10730095Y-22864428D02*
X10739619Y-22873952D01*
X10730095Y-22883476D01*
X10720571Y-22873952D01*
X10730095Y-22864428D01*
X10730095Y-22883476D01*
X10930095Y-22883476D02*
X10815810Y-22883476D01*
X10872952Y-22883476D02*
X10872952Y-22683476D01*
X10853905Y-22712048D01*
X10834857Y-22731095D01*
X10815810Y-22740619D01*
X11053905Y-22683476D02*
X11072952Y-22683476D01*
X11092000Y-22693000D01*
X11101524Y-22702524D01*
X11111048Y-22721571D01*
X11120571Y-22759667D01*
X11120571Y-22807286D01*
X11111048Y-22845381D01*
X11101524Y-22864428D01*
X11092000Y-22873952D01*
X11072952Y-22883476D01*
X11053905Y-22883476D01*
X11034857Y-22873952D01*
X11025333Y-22864428D01*
X11015810Y-22845381D01*
X11006286Y-22807286D01*
X11006286Y-22759667D01*
X11015810Y-22721571D01*
X11025333Y-22702524D01*
X11034857Y-22693000D01*
X11053905Y-22683476D01*
X11244381Y-22683476D02*
X11263428Y-22683476D01*
X11282476Y-22693000D01*
X11292000Y-22702524D01*
X11301524Y-22721571D01*
X11311048Y-22759667D01*
X11311048Y-22807286D01*
X11301524Y-22845381D01*
X11292000Y-22864428D01*
X11282476Y-22873952D01*
X11263428Y-22883476D01*
X11244381Y-22883476D01*
X11225333Y-22873952D01*
X11215809Y-22864428D01*
X11206286Y-22845381D01*
X11196762Y-22807286D01*
X11196762Y-22759667D01*
X11206286Y-22721571D01*
X11215809Y-22702524D01*
X11225333Y-22693000D01*
X11244381Y-22683476D01*
X11396762Y-22883476D02*
X11396762Y-22750143D01*
X11396762Y-22769190D02*
X11406286Y-22759667D01*
X11425333Y-22750143D01*
X11453905Y-22750143D01*
X11472952Y-22759667D01*
X11482476Y-22778714D01*
X11482476Y-22883476D01*
X11482476Y-22778714D02*
X11492000Y-22759667D01*
X11511048Y-22750143D01*
X11539619Y-22750143D01*
X11558667Y-22759667D01*
X11568190Y-22778714D01*
X11568190Y-22883476D01*
X11663428Y-22883476D02*
X11663428Y-22750143D01*
X11663428Y-22769190D02*
X11672952Y-22759667D01*
X11692000Y-22750143D01*
X11720571Y-22750143D01*
X11739619Y-22759667D01*
X11749143Y-22778714D01*
X11749143Y-22883476D01*
X11749143Y-22778714D02*
X11758667Y-22759667D01*
X11777714Y-22750143D01*
X11806286Y-22750143D01*
X11825333Y-22759667D01*
X11834857Y-22778714D01*
X11834857Y-22883476D01*
X12225333Y-22673952D02*
X12053905Y-22931095D01*
X12482476Y-22683476D02*
X12501524Y-22683476D01*
X12520571Y-22693000D01*
X12530095Y-22702524D01*
X12539619Y-22721571D01*
X12549143Y-22759667D01*
X12549143Y-22807286D01*
X12539619Y-22845381D01*
X12530095Y-22864428D01*
X12520571Y-22873952D01*
X12501524Y-22883476D01*
X12482476Y-22883476D01*
X12463428Y-22873952D01*
X12453905Y-22864428D01*
X12444381Y-22845381D01*
X12434857Y-22807286D01*
X12434857Y-22759667D01*
X12444381Y-22721571D01*
X12453905Y-22702524D01*
X12463428Y-22693000D01*
X12482476Y-22683476D01*
X12634857Y-22864428D02*
X12644381Y-22873952D01*
X12634857Y-22883476D01*
X12625333Y-22873952D01*
X12634857Y-22864428D01*
X12634857Y-22883476D01*
X12768190Y-22683476D02*
X12787238Y-22683476D01*
X12806286Y-22693000D01*
X12815809Y-22702524D01*
X12825333Y-22721571D01*
X12834857Y-22759667D01*
X12834857Y-22807286D01*
X12825333Y-22845381D01*
X12815809Y-22864428D01*
X12806286Y-22873952D01*
X12787238Y-22883476D01*
X12768190Y-22883476D01*
X12749143Y-22873952D01*
X12739619Y-22864428D01*
X12730095Y-22845381D01*
X12720571Y-22807286D01*
X12720571Y-22759667D01*
X12730095Y-22721571D01*
X12739619Y-22702524D01*
X12749143Y-22693000D01*
X12768190Y-22683476D01*
X13006286Y-22750143D02*
X13006286Y-22883476D01*
X12958667Y-22673952D02*
X12911048Y-22816809D01*
X13034857Y-22816809D01*
X13092000Y-22683476D02*
X13215809Y-22683476D01*
X13149143Y-22759667D01*
X13177714Y-22759667D01*
X13196762Y-22769190D01*
X13206286Y-22778714D01*
X13215809Y-22797762D01*
X13215809Y-22845381D01*
X13206286Y-22864428D01*
X13196762Y-22873952D01*
X13177714Y-22883476D01*
X13120571Y-22883476D01*
X13101524Y-22873952D01*
X13092000Y-22864428D01*
X13282476Y-22683476D02*
X13406286Y-22683476D01*
X13339619Y-22759667D01*
X13368190Y-22759667D01*
X13387238Y-22769190D01*
X13396762Y-22778714D01*
X13406286Y-22797762D01*
X13406286Y-22845381D01*
X13396762Y-22864428D01*
X13387238Y-22873952D01*
X13368190Y-22883476D01*
X13311048Y-22883476D01*
X13292000Y-22873952D01*
X13282476Y-22864428D01*
X13482476Y-22683476D02*
X13482476Y-22721571D01*
X13558667Y-22683476D02*
X13558667Y-22721571D01*
X13853905Y-22959667D02*
X13844381Y-22950143D01*
X13825333Y-22921571D01*
X13815809Y-22902524D01*
X13806286Y-22873952D01*
X13796762Y-22826333D01*
X13796762Y-22788238D01*
X13806286Y-22740619D01*
X13815809Y-22712048D01*
X13825333Y-22693000D01*
X13844381Y-22664428D01*
X13853905Y-22654905D01*
X14025333Y-22683476D02*
X13930095Y-22683476D01*
X13920571Y-22778714D01*
X13930095Y-22769190D01*
X13949143Y-22759667D01*
X13996762Y-22759667D01*
X14015809Y-22769190D01*
X14025333Y-22778714D01*
X14034857Y-22797762D01*
X14034857Y-22845381D01*
X14025333Y-22864428D01*
X14015809Y-22873952D01*
X13996762Y-22883476D01*
X13949143Y-22883476D01*
X13930095Y-22873952D01*
X13920571Y-22864428D01*
X14272952Y-22883476D02*
X14272952Y-22683476D01*
X14358667Y-22883476D02*
X14358667Y-22778714D01*
X14349143Y-22759667D01*
X14330095Y-22750143D01*
X14301524Y-22750143D01*
X14282476Y-22759667D01*
X14272952Y-22769190D01*
X14482476Y-22883476D02*
X14463428Y-22873952D01*
X14453905Y-22864428D01*
X14444381Y-22845381D01*
X14444381Y-22788238D01*
X14453905Y-22769190D01*
X14463428Y-22759667D01*
X14482476Y-22750143D01*
X14511048Y-22750143D01*
X14530095Y-22759667D01*
X14539619Y-22769190D01*
X14549143Y-22788238D01*
X14549143Y-22845381D01*
X14539619Y-22864428D01*
X14530095Y-22873952D01*
X14511048Y-22883476D01*
X14482476Y-22883476D01*
X14663428Y-22883476D02*
X14644381Y-22873952D01*
X14634857Y-22854905D01*
X14634857Y-22683476D01*
X14815809Y-22873952D02*
X14796762Y-22883476D01*
X14758667Y-22883476D01*
X14739619Y-22873952D01*
X14730095Y-22854905D01*
X14730095Y-22778714D01*
X14739619Y-22759667D01*
X14758667Y-22750143D01*
X14796762Y-22750143D01*
X14815809Y-22759667D01*
X14825333Y-22778714D01*
X14825333Y-22797762D01*
X14730095Y-22816809D01*
X14901524Y-22873952D02*
X14920571Y-22883476D01*
X14958667Y-22883476D01*
X14977714Y-22873952D01*
X14987238Y-22854905D01*
X14987238Y-22845381D01*
X14977714Y-22826333D01*
X14958667Y-22816809D01*
X14930095Y-22816809D01*
X14911048Y-22807286D01*
X14901524Y-22788238D01*
X14901524Y-22778714D01*
X14911048Y-22759667D01*
X14930095Y-22750143D01*
X14958667Y-22750143D01*
X14977714Y-22759667D01*
X15053905Y-22959667D02*
X15063428Y-22950143D01*
X15082476Y-22921571D01*
X15092000Y-22902524D01*
X15101524Y-22873952D01*
X15111048Y-22826333D01*
X15111048Y-22788238D01*
X15101524Y-22740619D01*
X15092000Y-22712048D01*
X15082476Y-22693000D01*
X15063428Y-22664428D01*
X15053905Y-22654905D01*
D18*
X10152000Y-22992000D02*
X10282000Y-23122000D01*
X10282000Y-22992000D02*
X10152000Y-23122000D01*
X10217000Y-22992000D02*
X10217000Y-23122000D01*
X10152000Y-23057000D02*
X10282000Y-23057000D01*
D11*
X10644381Y-23147476D02*
X10530095Y-23147476D01*
X10587238Y-23147476D02*
X10587238Y-22947476D01*
X10568190Y-22976048D01*
X10549143Y-22995095D01*
X10530095Y-23004619D01*
X10730095Y-23128428D02*
X10739619Y-23137952D01*
X10730095Y-23147476D01*
X10720571Y-23137952D01*
X10730095Y-23128428D01*
X10730095Y-23147476D01*
X10806286Y-22947476D02*
X10930095Y-22947476D01*
X10863429Y-23023667D01*
X10892000Y-23023667D01*
X10911048Y-23033190D01*
X10920571Y-23042714D01*
X10930095Y-23061762D01*
X10930095Y-23109381D01*
X10920571Y-23128428D01*
X10911048Y-23137952D01*
X10892000Y-23147476D01*
X10834857Y-23147476D01*
X10815810Y-23137952D01*
X10806286Y-23128428D01*
X11053905Y-22947476D02*
X11072952Y-22947476D01*
X11092000Y-22957000D01*
X11101524Y-22966524D01*
X11111048Y-22985571D01*
X11120571Y-23023667D01*
X11120571Y-23071286D01*
X11111048Y-23109381D01*
X11101524Y-23128428D01*
X11092000Y-23137952D01*
X11072952Y-23147476D01*
X11053905Y-23147476D01*
X11034857Y-23137952D01*
X11025333Y-23128428D01*
X11015810Y-23109381D01*
X11006286Y-23071286D01*
X11006286Y-23023667D01*
X11015810Y-22985571D01*
X11025333Y-22966524D01*
X11034857Y-22957000D01*
X11053905Y-22947476D01*
X11244381Y-22947476D02*
X11263428Y-22947476D01*
X11282476Y-22957000D01*
X11292000Y-22966524D01*
X11301524Y-22985571D01*
X11311048Y-23023667D01*
X11311048Y-23071286D01*
X11301524Y-23109381D01*
X11292000Y-23128428D01*
X11282476Y-23137952D01*
X11263428Y-23147476D01*
X11244381Y-23147476D01*
X11225333Y-23137952D01*
X11215809Y-23128428D01*
X11206286Y-23109381D01*
X11196762Y-23071286D01*
X11196762Y-23023667D01*
X11206286Y-22985571D01*
X11215809Y-22966524D01*
X11225333Y-22957000D01*
X11244381Y-22947476D01*
X11396762Y-23147476D02*
X11396762Y-23014143D01*
X11396762Y-23033190D02*
X11406286Y-23023667D01*
X11425333Y-23014143D01*
X11453905Y-23014143D01*
X11472952Y-23023667D01*
X11482476Y-23042714D01*
X11482476Y-23147476D01*
X11482476Y-23042714D02*
X11492000Y-23023667D01*
X11511048Y-23014143D01*
X11539619Y-23014143D01*
X11558667Y-23023667D01*
X11568190Y-23042714D01*
X11568190Y-23147476D01*
X11663428Y-23147476D02*
X11663428Y-23014143D01*
X11663428Y-23033190D02*
X11672952Y-23023667D01*
X11692000Y-23014143D01*
X11720571Y-23014143D01*
X11739619Y-23023667D01*
X11749143Y-23042714D01*
X11749143Y-23147476D01*
X11749143Y-23042714D02*
X11758667Y-23023667D01*
X11777714Y-23014143D01*
X11806286Y-23014143D01*
X11825333Y-23023667D01*
X11834857Y-23042714D01*
X11834857Y-23147476D01*
X12225333Y-22937952D02*
X12053905Y-23195095D01*
X12482476Y-22947476D02*
X12501524Y-22947476D01*
X12520571Y-22957000D01*
X12530095Y-22966524D01*
X12539619Y-22985571D01*
X12549143Y-23023667D01*
X12549143Y-23071286D01*
X12539619Y-23109381D01*
X12530095Y-23128428D01*
X12520571Y-23137952D01*
X12501524Y-23147476D01*
X12482476Y-23147476D01*
X12463428Y-23137952D01*
X12453905Y-23128428D01*
X12444381Y-23109381D01*
X12434857Y-23071286D01*
X12434857Y-23023667D01*
X12444381Y-22985571D01*
X12453905Y-22966524D01*
X12463428Y-22957000D01*
X12482476Y-22947476D01*
X12634857Y-23128428D02*
X12644381Y-23137952D01*
X12634857Y-23147476D01*
X12625333Y-23137952D01*
X12634857Y-23128428D01*
X12634857Y-23147476D01*
X12768190Y-22947476D02*
X12787238Y-22947476D01*
X12806286Y-22957000D01*
X12815809Y-22966524D01*
X12825333Y-22985571D01*
X12834857Y-23023667D01*
X12834857Y-23071286D01*
X12825333Y-23109381D01*
X12815809Y-23128428D01*
X12806286Y-23137952D01*
X12787238Y-23147476D01*
X12768190Y-23147476D01*
X12749143Y-23137952D01*
X12739619Y-23128428D01*
X12730095Y-23109381D01*
X12720571Y-23071286D01*
X12720571Y-23023667D01*
X12730095Y-22985571D01*
X12739619Y-22966524D01*
X12749143Y-22957000D01*
X12768190Y-22947476D01*
X13015809Y-22947476D02*
X12920571Y-22947476D01*
X12911048Y-23042714D01*
X12920571Y-23033190D01*
X12939619Y-23023667D01*
X12987238Y-23023667D01*
X13006286Y-23033190D01*
X13015809Y-23042714D01*
X13025333Y-23061762D01*
X13025333Y-23109381D01*
X13015809Y-23128428D01*
X13006286Y-23137952D01*
X12987238Y-23147476D01*
X12939619Y-23147476D01*
X12920571Y-23137952D01*
X12911048Y-23128428D01*
X13215809Y-23147476D02*
X13101524Y-23147476D01*
X13158667Y-23147476D02*
X13158667Y-22947476D01*
X13139619Y-22976048D01*
X13120571Y-22995095D01*
X13101524Y-23004619D01*
X13292000Y-22966524D02*
X13301524Y-22957000D01*
X13320571Y-22947476D01*
X13368190Y-22947476D01*
X13387238Y-22957000D01*
X13396762Y-22966524D01*
X13406286Y-22985571D01*
X13406286Y-23004619D01*
X13396762Y-23033190D01*
X13282476Y-23147476D01*
X13406286Y-23147476D01*
X13482476Y-22947476D02*
X13482476Y-22985571D01*
X13558667Y-22947476D02*
X13558667Y-22985571D01*
X13853905Y-23223667D02*
X13844381Y-23214143D01*
X13825333Y-23185571D01*
X13815809Y-23166524D01*
X13806286Y-23137952D01*
X13796762Y-23090333D01*
X13796762Y-23052238D01*
X13806286Y-23004619D01*
X13815809Y-22976048D01*
X13825333Y-22957000D01*
X13844381Y-22928428D01*
X13853905Y-22918905D01*
X13911048Y-22947476D02*
X14034857Y-22947476D01*
X13968190Y-23023667D01*
X13996762Y-23023667D01*
X14015809Y-23033190D01*
X14025333Y-23042714D01*
X14034857Y-23061762D01*
X14034857Y-23109381D01*
X14025333Y-23128428D01*
X14015809Y-23137952D01*
X13996762Y-23147476D01*
X13939619Y-23147476D01*
X13920571Y-23137952D01*
X13911048Y-23128428D01*
X14272952Y-23147476D02*
X14272952Y-22947476D01*
X14358667Y-23147476D02*
X14358667Y-23042714D01*
X14349143Y-23023667D01*
X14330095Y-23014143D01*
X14301524Y-23014143D01*
X14282476Y-23023667D01*
X14272952Y-23033190D01*
X14482476Y-23147476D02*
X14463428Y-23137952D01*
X14453905Y-23128428D01*
X14444381Y-23109381D01*
X14444381Y-23052238D01*
X14453905Y-23033190D01*
X14463428Y-23023667D01*
X14482476Y-23014143D01*
X14511048Y-23014143D01*
X14530095Y-23023667D01*
X14539619Y-23033190D01*
X14549143Y-23052238D01*
X14549143Y-23109381D01*
X14539619Y-23128428D01*
X14530095Y-23137952D01*
X14511048Y-23147476D01*
X14482476Y-23147476D01*
X14663428Y-23147476D02*
X14644381Y-23137952D01*
X14634857Y-23118905D01*
X14634857Y-22947476D01*
X14815809Y-23137952D02*
X14796762Y-23147476D01*
X14758667Y-23147476D01*
X14739619Y-23137952D01*
X14730095Y-23118905D01*
X14730095Y-23042714D01*
X14739619Y-23023667D01*
X14758667Y-23014143D01*
X14796762Y-23014143D01*
X14815809Y-23023667D01*
X14825333Y-23042714D01*
X14825333Y-23061762D01*
X14730095Y-23080809D01*
X14901524Y-23137952D02*
X14920571Y-23147476D01*
X14958667Y-23147476D01*
X14977714Y-23137952D01*
X14987238Y-23118905D01*
X14987238Y-23109381D01*
X14977714Y-23090333D01*
X14958667Y-23080809D01*
X14930095Y-23080809D01*
X14911048Y-23071286D01*
X14901524Y-23052238D01*
X14901524Y-23042714D01*
X14911048Y-23023667D01*
X14930095Y-23014143D01*
X14958667Y-23014143D01*
X14977714Y-23023667D01*
X15053905Y-23223667D02*
X15063428Y-23214143D01*
X15082476Y-23185571D01*
X15092000Y-23166524D01*
X15101524Y-23137952D01*
X15111048Y-23090333D01*
X15111048Y-23052238D01*
X15101524Y-23004619D01*
X15092000Y-22976048D01*
X15082476Y-22957000D01*
X15063428Y-22928428D01*
X15053905Y-22918905D01*
D19*
X10112000Y-23236000D02*
X10282000Y-23406000D01*
X10282000Y-23236000D02*
X10112000Y-23406000D01*
X10257105Y-23381105D02*
X10257105Y-23260895D01*
X10136895Y-23260895D01*
X10136895Y-23381105D01*
X10257105Y-23381105D01*
D11*
X10644381Y-23411476D02*
X10530095Y-23411476D01*
X10587238Y-23411476D02*
X10587238Y-23211476D01*
X10568190Y-23240048D01*
X10549143Y-23259095D01*
X10530095Y-23268619D01*
X10730095Y-23392428D02*
X10739619Y-23401952D01*
X10730095Y-23411476D01*
X10720571Y-23401952D01*
X10730095Y-23392428D01*
X10730095Y-23411476D01*
X10806286Y-23211476D02*
X10939619Y-23211476D01*
X10853905Y-23411476D01*
X11053905Y-23211476D02*
X11072952Y-23211476D01*
X11092000Y-23221000D01*
X11101524Y-23230524D01*
X11111048Y-23249571D01*
X11120571Y-23287667D01*
X11120571Y-23335286D01*
X11111048Y-23373381D01*
X11101524Y-23392428D01*
X11092000Y-23401952D01*
X11072952Y-23411476D01*
X11053905Y-23411476D01*
X11034857Y-23401952D01*
X11025333Y-23392428D01*
X11015810Y-23373381D01*
X11006286Y-23335286D01*
X11006286Y-23287667D01*
X11015810Y-23249571D01*
X11025333Y-23230524D01*
X11034857Y-23221000D01*
X11053905Y-23211476D01*
X11244381Y-23211476D02*
X11263428Y-23211476D01*
X11282476Y-23221000D01*
X11292000Y-23230524D01*
X11301524Y-23249571D01*
X11311048Y-23287667D01*
X11311048Y-23335286D01*
X11301524Y-23373381D01*
X11292000Y-23392428D01*
X11282476Y-23401952D01*
X11263428Y-23411476D01*
X11244381Y-23411476D01*
X11225333Y-23401952D01*
X11215809Y-23392428D01*
X11206286Y-23373381D01*
X11196762Y-23335286D01*
X11196762Y-23287667D01*
X11206286Y-23249571D01*
X11215809Y-23230524D01*
X11225333Y-23221000D01*
X11244381Y-23211476D01*
X11396762Y-23411476D02*
X11396762Y-23278143D01*
X11396762Y-23297190D02*
X11406286Y-23287667D01*
X11425333Y-23278143D01*
X11453905Y-23278143D01*
X11472952Y-23287667D01*
X11482476Y-23306714D01*
X11482476Y-23411476D01*
X11482476Y-23306714D02*
X11492000Y-23287667D01*
X11511048Y-23278143D01*
X11539619Y-23278143D01*
X11558667Y-23287667D01*
X11568190Y-23306714D01*
X11568190Y-23411476D01*
X11663428Y-23411476D02*
X11663428Y-23278143D01*
X11663428Y-23297190D02*
X11672952Y-23287667D01*
X11692000Y-23278143D01*
X11720571Y-23278143D01*
X11739619Y-23287667D01*
X11749143Y-23306714D01*
X11749143Y-23411476D01*
X11749143Y-23306714D02*
X11758667Y-23287667D01*
X11777714Y-23278143D01*
X11806286Y-23278143D01*
X11825333Y-23287667D01*
X11834857Y-23306714D01*
X11834857Y-23411476D01*
X12225333Y-23201952D02*
X12053905Y-23459095D01*
X12482476Y-23211476D02*
X12501524Y-23211476D01*
X12520571Y-23221000D01*
X12530095Y-23230524D01*
X12539619Y-23249571D01*
X12549143Y-23287667D01*
X12549143Y-23335286D01*
X12539619Y-23373381D01*
X12530095Y-23392428D01*
X12520571Y-23401952D01*
X12501524Y-23411476D01*
X12482476Y-23411476D01*
X12463428Y-23401952D01*
X12453905Y-23392428D01*
X12444381Y-23373381D01*
X12434857Y-23335286D01*
X12434857Y-23287667D01*
X12444381Y-23249571D01*
X12453905Y-23230524D01*
X12463428Y-23221000D01*
X12482476Y-23211476D01*
X12634857Y-23392428D02*
X12644381Y-23401952D01*
X12634857Y-23411476D01*
X12625333Y-23401952D01*
X12634857Y-23392428D01*
X12634857Y-23411476D01*
X12768190Y-23211476D02*
X12787238Y-23211476D01*
X12806286Y-23221000D01*
X12815809Y-23230524D01*
X12825333Y-23249571D01*
X12834857Y-23287667D01*
X12834857Y-23335286D01*
X12825333Y-23373381D01*
X12815809Y-23392428D01*
X12806286Y-23401952D01*
X12787238Y-23411476D01*
X12768190Y-23411476D01*
X12749143Y-23401952D01*
X12739619Y-23392428D01*
X12730095Y-23373381D01*
X12720571Y-23335286D01*
X12720571Y-23287667D01*
X12730095Y-23249571D01*
X12739619Y-23230524D01*
X12749143Y-23221000D01*
X12768190Y-23211476D01*
X13006286Y-23211476D02*
X12968190Y-23211476D01*
X12949143Y-23221000D01*
X12939619Y-23230524D01*
X12920571Y-23259095D01*
X12911048Y-23297190D01*
X12911048Y-23373381D01*
X12920571Y-23392428D01*
X12930095Y-23401952D01*
X12949143Y-23411476D01*
X12987238Y-23411476D01*
X13006286Y-23401952D01*
X13015809Y-23392428D01*
X13025333Y-23373381D01*
X13025333Y-23325762D01*
X13015809Y-23306714D01*
X13006286Y-23297190D01*
X12987238Y-23287667D01*
X12949143Y-23287667D01*
X12930095Y-23297190D01*
X12920571Y-23306714D01*
X12911048Y-23325762D01*
X13196762Y-23211476D02*
X13158667Y-23211476D01*
X13139619Y-23221000D01*
X13130095Y-23230524D01*
X13111048Y-23259095D01*
X13101524Y-23297190D01*
X13101524Y-23373381D01*
X13111048Y-23392428D01*
X13120571Y-23401952D01*
X13139619Y-23411476D01*
X13177714Y-23411476D01*
X13196762Y-23401952D01*
X13206286Y-23392428D01*
X13215809Y-23373381D01*
X13215809Y-23325762D01*
X13206286Y-23306714D01*
X13196762Y-23297190D01*
X13177714Y-23287667D01*
X13139619Y-23287667D01*
X13120571Y-23297190D01*
X13111048Y-23306714D01*
X13101524Y-23325762D01*
X13311048Y-23411476D02*
X13349143Y-23411476D01*
X13368190Y-23401952D01*
X13377714Y-23392428D01*
X13396762Y-23363857D01*
X13406286Y-23325762D01*
X13406286Y-23249571D01*
X13396762Y-23230524D01*
X13387238Y-23221000D01*
X13368190Y-23211476D01*
X13330095Y-23211476D01*
X13311048Y-23221000D01*
X13301524Y-23230524D01*
X13292000Y-23249571D01*
X13292000Y-23297190D01*
X13301524Y-23316238D01*
X13311048Y-23325762D01*
X13330095Y-23335286D01*
X13368190Y-23335286D01*
X13387238Y-23325762D01*
X13396762Y-23316238D01*
X13406286Y-23297190D01*
X13482476Y-23211476D02*
X13482476Y-23249571D01*
X13558667Y-23211476D02*
X13558667Y-23249571D01*
X13853905Y-23487667D02*
X13844381Y-23478143D01*
X13825333Y-23449571D01*
X13815809Y-23430524D01*
X13806286Y-23401952D01*
X13796762Y-23354333D01*
X13796762Y-23316238D01*
X13806286Y-23268619D01*
X13815809Y-23240048D01*
X13825333Y-23221000D01*
X13844381Y-23192428D01*
X13853905Y-23182905D01*
X14025333Y-23211476D02*
X13930095Y-23211476D01*
X13920571Y-23306714D01*
X13930095Y-23297190D01*
X13949143Y-23287667D01*
X13996762Y-23287667D01*
X14015809Y-23297190D01*
X14025333Y-23306714D01*
X14034857Y-23325762D01*
X14034857Y-23373381D01*
X14025333Y-23392428D01*
X14015809Y-23401952D01*
X13996762Y-23411476D01*
X13949143Y-23411476D01*
X13930095Y-23401952D01*
X13920571Y-23392428D01*
X14272952Y-23411476D02*
X14272952Y-23211476D01*
X14358667Y-23411476D02*
X14358667Y-23306714D01*
X14349143Y-23287667D01*
X14330095Y-23278143D01*
X14301524Y-23278143D01*
X14282476Y-23287667D01*
X14272952Y-23297190D01*
X14482476Y-23411476D02*
X14463428Y-23401952D01*
X14453905Y-23392428D01*
X14444381Y-23373381D01*
X14444381Y-23316238D01*
X14453905Y-23297190D01*
X14463428Y-23287667D01*
X14482476Y-23278143D01*
X14511048Y-23278143D01*
X14530095Y-23287667D01*
X14539619Y-23297190D01*
X14549143Y-23316238D01*
X14549143Y-23373381D01*
X14539619Y-23392428D01*
X14530095Y-23401952D01*
X14511048Y-23411476D01*
X14482476Y-23411476D01*
X14663428Y-23411476D02*
X14644381Y-23401952D01*
X14634857Y-23382905D01*
X14634857Y-23211476D01*
X14815809Y-23401952D02*
X14796762Y-23411476D01*
X14758667Y-23411476D01*
X14739619Y-23401952D01*
X14730095Y-23382905D01*
X14730095Y-23306714D01*
X14739619Y-23287667D01*
X14758667Y-23278143D01*
X14796762Y-23278143D01*
X14815809Y-23287667D01*
X14825333Y-23306714D01*
X14825333Y-23325762D01*
X14730095Y-23344809D01*
X14901524Y-23401952D02*
X14920571Y-23411476D01*
X14958667Y-23411476D01*
X14977714Y-23401952D01*
X14987238Y-23382905D01*
X14987238Y-23373381D01*
X14977714Y-23354333D01*
X14958667Y-23344809D01*
X14930095Y-23344809D01*
X14911048Y-23335286D01*
X14901524Y-23316238D01*
X14901524Y-23306714D01*
X14911048Y-23287667D01*
X14930095Y-23278143D01*
X14958667Y-23278143D01*
X14977714Y-23287667D01*
X15053905Y-23487667D02*
X15063428Y-23478143D01*
X15082476Y-23449571D01*
X15092000Y-23430524D01*
X15101524Y-23401952D01*
X15111048Y-23354333D01*
X15111048Y-23316238D01*
X15101524Y-23268619D01*
X15092000Y-23240048D01*
X15082476Y-23221000D01*
X15063428Y-23192428D01*
X15053905Y-23182905D01*
D20*
X10097000Y-23518500D02*
X10282000Y-23703500D01*
X10282000Y-23518500D02*
X10097000Y-23703500D01*
X10189500Y-23703500D02*
X10282000Y-23611000D01*
X10189500Y-23518500D01*
X10097000Y-23611000D01*
X10189500Y-23703500D01*
D11*
X10644381Y-23701476D02*
X10530095Y-23701476D01*
X10587238Y-23701476D02*
X10587238Y-23501476D01*
X10568190Y-23530048D01*
X10549143Y-23549095D01*
X10530095Y-23558619D01*
X10730095Y-23682428D02*
X10739619Y-23691952D01*
X10730095Y-23701476D01*
X10720571Y-23691952D01*
X10730095Y-23682428D01*
X10730095Y-23701476D01*
X10853905Y-23587190D02*
X10834857Y-23577667D01*
X10825333Y-23568143D01*
X10815810Y-23549095D01*
X10815810Y-23539571D01*
X10825333Y-23520524D01*
X10834857Y-23511000D01*
X10853905Y-23501476D01*
X10892000Y-23501476D01*
X10911048Y-23511000D01*
X10920571Y-23520524D01*
X10930095Y-23539571D01*
X10930095Y-23549095D01*
X10920571Y-23568143D01*
X10911048Y-23577667D01*
X10892000Y-23587190D01*
X10853905Y-23587190D01*
X10834857Y-23596714D01*
X10825333Y-23606238D01*
X10815810Y-23625286D01*
X10815810Y-23663381D01*
X10825333Y-23682428D01*
X10834857Y-23691952D01*
X10853905Y-23701476D01*
X10892000Y-23701476D01*
X10911048Y-23691952D01*
X10920571Y-23682428D01*
X10930095Y-23663381D01*
X10930095Y-23625286D01*
X10920571Y-23606238D01*
X10911048Y-23596714D01*
X10892000Y-23587190D01*
X11111048Y-23501476D02*
X11015810Y-23501476D01*
X11006286Y-23596714D01*
X11015810Y-23587190D01*
X11034857Y-23577667D01*
X11082476Y-23577667D01*
X11101524Y-23587190D01*
X11111048Y-23596714D01*
X11120571Y-23615762D01*
X11120571Y-23663381D01*
X11111048Y-23682428D01*
X11101524Y-23691952D01*
X11082476Y-23701476D01*
X11034857Y-23701476D01*
X11015810Y-23691952D01*
X11006286Y-23682428D01*
X11244381Y-23501476D02*
X11263428Y-23501476D01*
X11282476Y-23511000D01*
X11292000Y-23520524D01*
X11301524Y-23539571D01*
X11311048Y-23577667D01*
X11311048Y-23625286D01*
X11301524Y-23663381D01*
X11292000Y-23682428D01*
X11282476Y-23691952D01*
X11263428Y-23701476D01*
X11244381Y-23701476D01*
X11225333Y-23691952D01*
X11215809Y-23682428D01*
X11206286Y-23663381D01*
X11196762Y-23625286D01*
X11196762Y-23577667D01*
X11206286Y-23539571D01*
X11215809Y-23520524D01*
X11225333Y-23511000D01*
X11244381Y-23501476D01*
X11396762Y-23701476D02*
X11396762Y-23568143D01*
X11396762Y-23587190D02*
X11406286Y-23577667D01*
X11425333Y-23568143D01*
X11453905Y-23568143D01*
X11472952Y-23577667D01*
X11482476Y-23596714D01*
X11482476Y-23701476D01*
X11482476Y-23596714D02*
X11492000Y-23577667D01*
X11511048Y-23568143D01*
X11539619Y-23568143D01*
X11558667Y-23577667D01*
X11568190Y-23596714D01*
X11568190Y-23701476D01*
X11663428Y-23701476D02*
X11663428Y-23568143D01*
X11663428Y-23587190D02*
X11672952Y-23577667D01*
X11692000Y-23568143D01*
X11720571Y-23568143D01*
X11739619Y-23577667D01*
X11749143Y-23596714D01*
X11749143Y-23701476D01*
X11749143Y-23596714D02*
X11758667Y-23577667D01*
X11777714Y-23568143D01*
X11806286Y-23568143D01*
X11825333Y-23577667D01*
X11834857Y-23596714D01*
X11834857Y-23701476D01*
X12225333Y-23491952D02*
X12053905Y-23749095D01*
X12482476Y-23501476D02*
X12501524Y-23501476D01*
X12520571Y-23511000D01*
X12530095Y-23520524D01*
X12539619Y-23539571D01*
X12549143Y-23577667D01*
X12549143Y-23625286D01*
X12539619Y-23663381D01*
X12530095Y-23682428D01*
X12520571Y-23691952D01*
X12501524Y-23701476D01*
X12482476Y-23701476D01*
X12463428Y-23691952D01*
X12453905Y-23682428D01*
X12444381Y-23663381D01*
X12434857Y-23625286D01*
X12434857Y-23577667D01*
X12444381Y-23539571D01*
X12453905Y-23520524D01*
X12463428Y-23511000D01*
X12482476Y-23501476D01*
X12634857Y-23682428D02*
X12644381Y-23691952D01*
X12634857Y-23701476D01*
X12625333Y-23691952D01*
X12634857Y-23682428D01*
X12634857Y-23701476D01*
X12768190Y-23501476D02*
X12787238Y-23501476D01*
X12806286Y-23511000D01*
X12815809Y-23520524D01*
X12825333Y-23539571D01*
X12834857Y-23577667D01*
X12834857Y-23625286D01*
X12825333Y-23663381D01*
X12815809Y-23682428D01*
X12806286Y-23691952D01*
X12787238Y-23701476D01*
X12768190Y-23701476D01*
X12749143Y-23691952D01*
X12739619Y-23682428D01*
X12730095Y-23663381D01*
X12720571Y-23625286D01*
X12720571Y-23577667D01*
X12730095Y-23539571D01*
X12739619Y-23520524D01*
X12749143Y-23511000D01*
X12768190Y-23501476D01*
X12901524Y-23501476D02*
X13034857Y-23501476D01*
X12949143Y-23701476D01*
X13101524Y-23520524D02*
X13111048Y-23511000D01*
X13130095Y-23501476D01*
X13177714Y-23501476D01*
X13196762Y-23511000D01*
X13206286Y-23520524D01*
X13215809Y-23539571D01*
X13215809Y-23558619D01*
X13206286Y-23587190D01*
X13092000Y-23701476D01*
X13215809Y-23701476D01*
X13330095Y-23587190D02*
X13311048Y-23577667D01*
X13301524Y-23568143D01*
X13292000Y-23549095D01*
X13292000Y-23539571D01*
X13301524Y-23520524D01*
X13311048Y-23511000D01*
X13330095Y-23501476D01*
X13368190Y-23501476D01*
X13387238Y-23511000D01*
X13396762Y-23520524D01*
X13406286Y-23539571D01*
X13406286Y-23549095D01*
X13396762Y-23568143D01*
X13387238Y-23577667D01*
X13368190Y-23587190D01*
X13330095Y-23587190D01*
X13311048Y-23596714D01*
X13301524Y-23606238D01*
X13292000Y-23625286D01*
X13292000Y-23663381D01*
X13301524Y-23682428D01*
X13311048Y-23691952D01*
X13330095Y-23701476D01*
X13368190Y-23701476D01*
X13387238Y-23691952D01*
X13396762Y-23682428D01*
X13406286Y-23663381D01*
X13406286Y-23625286D01*
X13396762Y-23606238D01*
X13387238Y-23596714D01*
X13368190Y-23587190D01*
X13482476Y-23501476D02*
X13482476Y-23539571D01*
X13558667Y-23501476D02*
X13558667Y-23539571D01*
X13853905Y-23777667D02*
X13844381Y-23768143D01*
X13825333Y-23739571D01*
X13815809Y-23720524D01*
X13806286Y-23691952D01*
X13796762Y-23644333D01*
X13796762Y-23606238D01*
X13806286Y-23558619D01*
X13815809Y-23530048D01*
X13825333Y-23511000D01*
X13844381Y-23482428D01*
X13853905Y-23472905D01*
X14025333Y-23501476D02*
X13930095Y-23501476D01*
X13920571Y-23596714D01*
X13930095Y-23587190D01*
X13949143Y-23577667D01*
X13996762Y-23577667D01*
X14015809Y-23587190D01*
X14025333Y-23596714D01*
X14034857Y-23615762D01*
X14034857Y-23663381D01*
X14025333Y-23682428D01*
X14015809Y-23691952D01*
X13996762Y-23701476D01*
X13949143Y-23701476D01*
X13930095Y-23691952D01*
X13920571Y-23682428D01*
X14272952Y-23701476D02*
X14272952Y-23501476D01*
X14358667Y-23701476D02*
X14358667Y-23596714D01*
X14349143Y-23577667D01*
X14330095Y-23568143D01*
X14301524Y-23568143D01*
X14282476Y-23577667D01*
X14272952Y-23587190D01*
X14482476Y-23701476D02*
X14463428Y-23691952D01*
X14453905Y-23682428D01*
X14444381Y-23663381D01*
X14444381Y-23606238D01*
X14453905Y-23587190D01*
X14463428Y-23577667D01*
X14482476Y-23568143D01*
X14511048Y-23568143D01*
X14530095Y-23577667D01*
X14539619Y-23587190D01*
X14549143Y-23606238D01*
X14549143Y-23663381D01*
X14539619Y-23682428D01*
X14530095Y-23691952D01*
X14511048Y-23701476D01*
X14482476Y-23701476D01*
X14663428Y-23701476D02*
X14644381Y-23691952D01*
X14634857Y-23672905D01*
X14634857Y-23501476D01*
X14815809Y-23691952D02*
X14796762Y-23701476D01*
X14758667Y-23701476D01*
X14739619Y-23691952D01*
X14730095Y-23672905D01*
X14730095Y-23596714D01*
X14739619Y-23577667D01*
X14758667Y-23568143D01*
X14796762Y-23568143D01*
X14815809Y-23577667D01*
X14825333Y-23596714D01*
X14825333Y-23615762D01*
X14730095Y-23634809D01*
X14901524Y-23691952D02*
X14920571Y-23701476D01*
X14958667Y-23701476D01*
X14977714Y-23691952D01*
X14987238Y-23672905D01*
X14987238Y-23663381D01*
X14977714Y-23644333D01*
X14958667Y-23634809D01*
X14930095Y-23634809D01*
X14911048Y-23625286D01*
X14901524Y-23606238D01*
X14901524Y-23596714D01*
X14911048Y-23577667D01*
X14930095Y-23568143D01*
X14958667Y-23568143D01*
X14977714Y-23577667D01*
X15053905Y-23777667D02*
X15063428Y-23768143D01*
X15082476Y-23739571D01*
X15092000Y-23720524D01*
X15101524Y-23691952D01*
X15111048Y-23644333D01*
X15111048Y-23606238D01*
X15101524Y-23558619D01*
X15092000Y-23530048D01*
X15082476Y-23511000D01*
X15063428Y-23482428D01*
X15053905Y-23472905D01*
X10182000Y-23816000D02*
X10182000Y-24016000D01*
X10082000Y-23916000D02*
X10282000Y-23916000D01*
X10282000Y-23916000D02*
G75*
G03*
X10282000Y-23916000I-100000J0D01*
G01*
X10530095Y-23825524D02*
X10539619Y-23816000D01*
X10558667Y-23806476D01*
X10606286Y-23806476D01*
X10625333Y-23816000D01*
X10634857Y-23825524D01*
X10644381Y-23844571D01*
X10644381Y-23863619D01*
X10634857Y-23892190D01*
X10520571Y-24006476D01*
X10644381Y-24006476D01*
X10730095Y-23987428D02*
X10739619Y-23996952D01*
X10730095Y-24006476D01*
X10720571Y-23996952D01*
X10730095Y-23987428D01*
X10730095Y-24006476D01*
X10863429Y-23806476D02*
X10882476Y-23806476D01*
X10901524Y-23816000D01*
X10911048Y-23825524D01*
X10920571Y-23844571D01*
X10930095Y-23882667D01*
X10930095Y-23930286D01*
X10920571Y-23968381D01*
X10911048Y-23987428D01*
X10901524Y-23996952D01*
X10882476Y-24006476D01*
X10863429Y-24006476D01*
X10844381Y-23996952D01*
X10834857Y-23987428D01*
X10825333Y-23968381D01*
X10815810Y-23930286D01*
X10815810Y-23882667D01*
X10825333Y-23844571D01*
X10834857Y-23825524D01*
X10844381Y-23816000D01*
X10863429Y-23806476D01*
X11053905Y-23806476D02*
X11072952Y-23806476D01*
X11092000Y-23816000D01*
X11101524Y-23825524D01*
X11111048Y-23844571D01*
X11120571Y-23882667D01*
X11120571Y-23930286D01*
X11111048Y-23968381D01*
X11101524Y-23987428D01*
X11092000Y-23996952D01*
X11072952Y-24006476D01*
X11053905Y-24006476D01*
X11034857Y-23996952D01*
X11025333Y-23987428D01*
X11015810Y-23968381D01*
X11006286Y-23930286D01*
X11006286Y-23882667D01*
X11015810Y-23844571D01*
X11025333Y-23825524D01*
X11034857Y-23816000D01*
X11053905Y-23806476D01*
X11244381Y-23806476D02*
X11263428Y-23806476D01*
X11282476Y-23816000D01*
X11292000Y-23825524D01*
X11301524Y-23844571D01*
X11311048Y-23882667D01*
X11311048Y-23930286D01*
X11301524Y-23968381D01*
X11292000Y-23987428D01*
X11282476Y-23996952D01*
X11263428Y-24006476D01*
X11244381Y-24006476D01*
X11225333Y-23996952D01*
X11215809Y-23987428D01*
X11206286Y-23968381D01*
X11196762Y-23930286D01*
X11196762Y-23882667D01*
X11206286Y-23844571D01*
X11215809Y-23825524D01*
X11225333Y-23816000D01*
X11244381Y-23806476D01*
X11396762Y-24006476D02*
X11396762Y-23873143D01*
X11396762Y-23892190D02*
X11406286Y-23882667D01*
X11425333Y-23873143D01*
X11453905Y-23873143D01*
X11472952Y-23882667D01*
X11482476Y-23901714D01*
X11482476Y-24006476D01*
X11482476Y-23901714D02*
X11492000Y-23882667D01*
X11511048Y-23873143D01*
X11539619Y-23873143D01*
X11558667Y-23882667D01*
X11568190Y-23901714D01*
X11568190Y-24006476D01*
X11663428Y-24006476D02*
X11663428Y-23873143D01*
X11663428Y-23892190D02*
X11672952Y-23882667D01*
X11692000Y-23873143D01*
X11720571Y-23873143D01*
X11739619Y-23882667D01*
X11749143Y-23901714D01*
X11749143Y-24006476D01*
X11749143Y-23901714D02*
X11758667Y-23882667D01*
X11777714Y-23873143D01*
X11806286Y-23873143D01*
X11825333Y-23882667D01*
X11834857Y-23901714D01*
X11834857Y-24006476D01*
X12225333Y-23796952D02*
X12053905Y-24054095D01*
X12482476Y-23806476D02*
X12501524Y-23806476D01*
X12520571Y-23816000D01*
X12530095Y-23825524D01*
X12539619Y-23844571D01*
X12549143Y-23882667D01*
X12549143Y-23930286D01*
X12539619Y-23968381D01*
X12530095Y-23987428D01*
X12520571Y-23996952D01*
X12501524Y-24006476D01*
X12482476Y-24006476D01*
X12463428Y-23996952D01*
X12453905Y-23987428D01*
X12444381Y-23968381D01*
X12434857Y-23930286D01*
X12434857Y-23882667D01*
X12444381Y-23844571D01*
X12453905Y-23825524D01*
X12463428Y-23816000D01*
X12482476Y-23806476D01*
X12634857Y-23987428D02*
X12644381Y-23996952D01*
X12634857Y-24006476D01*
X12625333Y-23996952D01*
X12634857Y-23987428D01*
X12634857Y-24006476D01*
X12768190Y-23806476D02*
X12787238Y-23806476D01*
X12806286Y-23816000D01*
X12815809Y-23825524D01*
X12825333Y-23844571D01*
X12834857Y-23882667D01*
X12834857Y-23930286D01*
X12825333Y-23968381D01*
X12815809Y-23987428D01*
X12806286Y-23996952D01*
X12787238Y-24006476D01*
X12768190Y-24006476D01*
X12749143Y-23996952D01*
X12739619Y-23987428D01*
X12730095Y-23968381D01*
X12720571Y-23930286D01*
X12720571Y-23882667D01*
X12730095Y-23844571D01*
X12739619Y-23825524D01*
X12749143Y-23816000D01*
X12768190Y-23806476D01*
X12901524Y-23806476D02*
X13034857Y-23806476D01*
X12949143Y-24006476D01*
X13139619Y-23892190D02*
X13120571Y-23882667D01*
X13111048Y-23873143D01*
X13101524Y-23854095D01*
X13101524Y-23844571D01*
X13111048Y-23825524D01*
X13120571Y-23816000D01*
X13139619Y-23806476D01*
X13177714Y-23806476D01*
X13196762Y-23816000D01*
X13206286Y-23825524D01*
X13215809Y-23844571D01*
X13215809Y-23854095D01*
X13206286Y-23873143D01*
X13196762Y-23882667D01*
X13177714Y-23892190D01*
X13139619Y-23892190D01*
X13120571Y-23901714D01*
X13111048Y-23911238D01*
X13101524Y-23930286D01*
X13101524Y-23968381D01*
X13111048Y-23987428D01*
X13120571Y-23996952D01*
X13139619Y-24006476D01*
X13177714Y-24006476D01*
X13196762Y-23996952D01*
X13206286Y-23987428D01*
X13215809Y-23968381D01*
X13215809Y-23930286D01*
X13206286Y-23911238D01*
X13196762Y-23901714D01*
X13177714Y-23892190D01*
X13282476Y-23806476D02*
X13415809Y-23806476D01*
X13330095Y-24006476D01*
X13482476Y-23806476D02*
X13482476Y-23844571D01*
X13558667Y-23806476D02*
X13558667Y-23844571D01*
X13853905Y-24082667D02*
X13844381Y-24073143D01*
X13825333Y-24044571D01*
X13815809Y-24025524D01*
X13806286Y-23996952D01*
X13796762Y-23949333D01*
X13796762Y-23911238D01*
X13806286Y-23863619D01*
X13815809Y-23835048D01*
X13825333Y-23816000D01*
X13844381Y-23787428D01*
X13853905Y-23777905D01*
X13920571Y-23825524D02*
X13930095Y-23816000D01*
X13949143Y-23806476D01*
X13996762Y-23806476D01*
X14015809Y-23816000D01*
X14025333Y-23825524D01*
X14034857Y-23844571D01*
X14034857Y-23863619D01*
X14025333Y-23892190D01*
X13911048Y-24006476D01*
X14034857Y-24006476D01*
X14272952Y-24006476D02*
X14272952Y-23806476D01*
X14358667Y-24006476D02*
X14358667Y-23901714D01*
X14349143Y-23882667D01*
X14330095Y-23873143D01*
X14301524Y-23873143D01*
X14282476Y-23882667D01*
X14272952Y-23892190D01*
X14482476Y-24006476D02*
X14463428Y-23996952D01*
X14453905Y-23987428D01*
X14444381Y-23968381D01*
X14444381Y-23911238D01*
X14453905Y-23892190D01*
X14463428Y-23882667D01*
X14482476Y-23873143D01*
X14511048Y-23873143D01*
X14530095Y-23882667D01*
X14539619Y-23892190D01*
X14549143Y-23911238D01*
X14549143Y-23968381D01*
X14539619Y-23987428D01*
X14530095Y-23996952D01*
X14511048Y-24006476D01*
X14482476Y-24006476D01*
X14663428Y-24006476D02*
X14644381Y-23996952D01*
X14634857Y-23977905D01*
X14634857Y-23806476D01*
X14815809Y-23996952D02*
X14796762Y-24006476D01*
X14758667Y-24006476D01*
X14739619Y-23996952D01*
X14730095Y-23977905D01*
X14730095Y-23901714D01*
X14739619Y-23882667D01*
X14758667Y-23873143D01*
X14796762Y-23873143D01*
X14815809Y-23882667D01*
X14825333Y-23901714D01*
X14825333Y-23920762D01*
X14730095Y-23939809D01*
X14901524Y-23996952D02*
X14920571Y-24006476D01*
X14958667Y-24006476D01*
X14977714Y-23996952D01*
X14987238Y-23977905D01*
X14987238Y-23968381D01*
X14977714Y-23949333D01*
X14958667Y-23939809D01*
X14930095Y-23939809D01*
X14911048Y-23930286D01*
X14901524Y-23911238D01*
X14901524Y-23901714D01*
X14911048Y-23882667D01*
X14930095Y-23873143D01*
X14958667Y-23873143D01*
X14977714Y-23882667D01*
X15053905Y-24082667D02*
X15063428Y-24073143D01*
X15082476Y-24044571D01*
X15092000Y-24025524D01*
X15101524Y-23996952D01*
X15111048Y-23949333D01*
X15111048Y-23911238D01*
X15101524Y-23863619D01*
X15092000Y-23835048D01*
X15082476Y-23816000D01*
X15063428Y-23787428D01*
X15053905Y-23777905D01*
X10252711Y-24306711D02*
X10252711Y-24165289D01*
X10111289Y-24165289D01*
X10111289Y-24306711D01*
X10252711Y-24306711D01*
X10282000Y-24236000D02*
G75*
G03*
X10282000Y-24236000I-100000J0D01*
G01*
X10530095Y-24145524D02*
X10539619Y-24136000D01*
X10558667Y-24126476D01*
X10606286Y-24126476D01*
X10625333Y-24136000D01*
X10634857Y-24145524D01*
X10644381Y-24164571D01*
X10644381Y-24183619D01*
X10634857Y-24212190D01*
X10520571Y-24326476D01*
X10644381Y-24326476D01*
X10730095Y-24307428D02*
X10739619Y-24316952D01*
X10730095Y-24326476D01*
X10720571Y-24316952D01*
X10730095Y-24307428D01*
X10730095Y-24326476D01*
X10911048Y-24126476D02*
X10872952Y-24126476D01*
X10853905Y-24136000D01*
X10844381Y-24145524D01*
X10825333Y-24174095D01*
X10815810Y-24212190D01*
X10815810Y-24288381D01*
X10825333Y-24307428D01*
X10834857Y-24316952D01*
X10853905Y-24326476D01*
X10892000Y-24326476D01*
X10911048Y-24316952D01*
X10920571Y-24307428D01*
X10930095Y-24288381D01*
X10930095Y-24240762D01*
X10920571Y-24221714D01*
X10911048Y-24212190D01*
X10892000Y-24202667D01*
X10853905Y-24202667D01*
X10834857Y-24212190D01*
X10825333Y-24221714D01*
X10815810Y-24240762D01*
X11053905Y-24126476D02*
X11072952Y-24126476D01*
X11092000Y-24136000D01*
X11101524Y-24145524D01*
X11111048Y-24164571D01*
X11120571Y-24202667D01*
X11120571Y-24250286D01*
X11111048Y-24288381D01*
X11101524Y-24307428D01*
X11092000Y-24316952D01*
X11072952Y-24326476D01*
X11053905Y-24326476D01*
X11034857Y-24316952D01*
X11025333Y-24307428D01*
X11015810Y-24288381D01*
X11006286Y-24250286D01*
X11006286Y-24202667D01*
X11015810Y-24164571D01*
X11025333Y-24145524D01*
X11034857Y-24136000D01*
X11053905Y-24126476D01*
X11244381Y-24126476D02*
X11263428Y-24126476D01*
X11282476Y-24136000D01*
X11292000Y-24145524D01*
X11301524Y-24164571D01*
X11311048Y-24202667D01*
X11311048Y-24250286D01*
X11301524Y-24288381D01*
X11292000Y-24307428D01*
X11282476Y-24316952D01*
X11263428Y-24326476D01*
X11244381Y-24326476D01*
X11225333Y-24316952D01*
X11215809Y-24307428D01*
X11206286Y-24288381D01*
X11196762Y-24250286D01*
X11196762Y-24202667D01*
X11206286Y-24164571D01*
X11215809Y-24145524D01*
X11225333Y-24136000D01*
X11244381Y-24126476D01*
X11396762Y-24326476D02*
X11396762Y-24193143D01*
X11396762Y-24212190D02*
X11406286Y-24202667D01*
X11425333Y-24193143D01*
X11453905Y-24193143D01*
X11472952Y-24202667D01*
X11482476Y-24221714D01*
X11482476Y-24326476D01*
X11482476Y-24221714D02*
X11492000Y-24202667D01*
X11511048Y-24193143D01*
X11539619Y-24193143D01*
X11558667Y-24202667D01*
X11568190Y-24221714D01*
X11568190Y-24326476D01*
X11663428Y-24326476D02*
X11663428Y-24193143D01*
X11663428Y-24212190D02*
X11672952Y-24202667D01*
X11692000Y-24193143D01*
X11720571Y-24193143D01*
X11739619Y-24202667D01*
X11749143Y-24221714D01*
X11749143Y-24326476D01*
X11749143Y-24221714D02*
X11758667Y-24202667D01*
X11777714Y-24193143D01*
X11806286Y-24193143D01*
X11825333Y-24202667D01*
X11834857Y-24221714D01*
X11834857Y-24326476D01*
X12225333Y-24116952D02*
X12053905Y-24374095D01*
X12482476Y-24126476D02*
X12501524Y-24126476D01*
X12520571Y-24136000D01*
X12530095Y-24145524D01*
X12539619Y-24164571D01*
X12549143Y-24202667D01*
X12549143Y-24250286D01*
X12539619Y-24288381D01*
X12530095Y-24307428D01*
X12520571Y-24316952D01*
X12501524Y-24326476D01*
X12482476Y-24326476D01*
X12463428Y-24316952D01*
X12453905Y-24307428D01*
X12444381Y-24288381D01*
X12434857Y-24250286D01*
X12434857Y-24202667D01*
X12444381Y-24164571D01*
X12453905Y-24145524D01*
X12463428Y-24136000D01*
X12482476Y-24126476D01*
X12634857Y-24307428D02*
X12644381Y-24316952D01*
X12634857Y-24326476D01*
X12625333Y-24316952D01*
X12634857Y-24307428D01*
X12634857Y-24326476D01*
X12834857Y-24326476D02*
X12720571Y-24326476D01*
X12777714Y-24326476D02*
X12777714Y-24126476D01*
X12758667Y-24155048D01*
X12739619Y-24174095D01*
X12720571Y-24183619D01*
X12958667Y-24126476D02*
X12977714Y-24126476D01*
X12996762Y-24136000D01*
X13006286Y-24145524D01*
X13015809Y-24164571D01*
X13025333Y-24202667D01*
X13025333Y-24250286D01*
X13015809Y-24288381D01*
X13006286Y-24307428D01*
X12996762Y-24316952D01*
X12977714Y-24326476D01*
X12958667Y-24326476D01*
X12939619Y-24316952D01*
X12930095Y-24307428D01*
X12920571Y-24288381D01*
X12911048Y-24250286D01*
X12911048Y-24202667D01*
X12920571Y-24164571D01*
X12930095Y-24145524D01*
X12939619Y-24136000D01*
X12958667Y-24126476D01*
X13101524Y-24145524D02*
X13111048Y-24136000D01*
X13130095Y-24126476D01*
X13177714Y-24126476D01*
X13196762Y-24136000D01*
X13206286Y-24145524D01*
X13215809Y-24164571D01*
X13215809Y-24183619D01*
X13206286Y-24212190D01*
X13092000Y-24326476D01*
X13215809Y-24326476D01*
X13387238Y-24193143D02*
X13387238Y-24326476D01*
X13339619Y-24116952D02*
X13292000Y-24259809D01*
X13415809Y-24259809D01*
X13482476Y-24126476D02*
X13482476Y-24164571D01*
X13558667Y-24126476D02*
X13558667Y-24164571D01*
X13853905Y-24402667D02*
X13844381Y-24393143D01*
X13825333Y-24364571D01*
X13815809Y-24345524D01*
X13806286Y-24316952D01*
X13796762Y-24269333D01*
X13796762Y-24231238D01*
X13806286Y-24183619D01*
X13815809Y-24155048D01*
X13825333Y-24136000D01*
X13844381Y-24107428D01*
X13853905Y-24097905D01*
X13911048Y-24126476D02*
X14034857Y-24126476D01*
X13968190Y-24202667D01*
X13996762Y-24202667D01*
X14015809Y-24212190D01*
X14025333Y-24221714D01*
X14034857Y-24240762D01*
X14034857Y-24288381D01*
X14025333Y-24307428D01*
X14015809Y-24316952D01*
X13996762Y-24326476D01*
X13939619Y-24326476D01*
X13920571Y-24316952D01*
X13911048Y-24307428D01*
X14272952Y-24326476D02*
X14272952Y-24126476D01*
X14358667Y-24326476D02*
X14358667Y-24221714D01*
X14349143Y-24202667D01*
X14330095Y-24193143D01*
X14301524Y-24193143D01*
X14282476Y-24202667D01*
X14272952Y-24212190D01*
X14482476Y-24326476D02*
X14463428Y-24316952D01*
X14453905Y-24307428D01*
X14444381Y-24288381D01*
X14444381Y-24231238D01*
X14453905Y-24212190D01*
X14463428Y-24202667D01*
X14482476Y-24193143D01*
X14511048Y-24193143D01*
X14530095Y-24202667D01*
X14539619Y-24212190D01*
X14549143Y-24231238D01*
X14549143Y-24288381D01*
X14539619Y-24307428D01*
X14530095Y-24316952D01*
X14511048Y-24326476D01*
X14482476Y-24326476D01*
X14663428Y-24326476D02*
X14644381Y-24316952D01*
X14634857Y-24297905D01*
X14634857Y-24126476D01*
X14815809Y-24316952D02*
X14796762Y-24326476D01*
X14758667Y-24326476D01*
X14739619Y-24316952D01*
X14730095Y-24297905D01*
X14730095Y-24221714D01*
X14739619Y-24202667D01*
X14758667Y-24193143D01*
X14796762Y-24193143D01*
X14815809Y-24202667D01*
X14825333Y-24221714D01*
X14825333Y-24240762D01*
X14730095Y-24259809D01*
X14901524Y-24316952D02*
X14920571Y-24326476D01*
X14958667Y-24326476D01*
X14977714Y-24316952D01*
X14987238Y-24297905D01*
X14987238Y-24288381D01*
X14977714Y-24269333D01*
X14958667Y-24259809D01*
X14930095Y-24259809D01*
X14911048Y-24250286D01*
X14901524Y-24231238D01*
X14901524Y-24221714D01*
X14911048Y-24202667D01*
X14930095Y-24193143D01*
X14958667Y-24193143D01*
X14977714Y-24202667D01*
X15053905Y-24402667D02*
X15063428Y-24393143D01*
X15082476Y-24364571D01*
X15092000Y-24345524D01*
X15101524Y-24316952D01*
X15111048Y-24269333D01*
X15111048Y-24231238D01*
X15101524Y-24183619D01*
X15092000Y-24155048D01*
X15082476Y-24136000D01*
X15063428Y-24107428D01*
X15053905Y-24097905D01*
M02*
