%FSLAX45Y45*%
G04 Gerber Fmt 4.5, Leading zero omitted, Abs format (unit mm)*
G04 Created by KiCad (PCBNEW (6.0.5)) date 2025-05-16 22:36:22*
%MOMM*%
%LPD*%
G01*
G04 APERTURE LIST*
%TA.AperFunction,Profile*%
%ADD10C,0.050000*%
%TD*%
%ADD11C,0.200000*%
%ADD12C,0.320000*%
G04 APERTURE END LIST*
D10*
X29380180Y-21810980D02*
X13116560Y-21810980D01*
X13116560Y-21810980D02*
X13116560Y-8526780D01*
X13116560Y-8526780D02*
X29380180Y-8526780D01*
X29380180Y-8526780D02*
X29380180Y-21810980D01*
D11*
X21749080Y-19765340D02*
X21949080Y-19965340D01*
X21949080Y-19765340D02*
X21749080Y-19965340D01*
D12*
X13733760Y-9220200D02*
G75*
G03*
X13733760Y-9220200I-160000J0D01*
G01*
X13779480Y-16832580D02*
G75*
G03*
X13779480Y-16832580I-160000J0D01*
G01*
X28994080Y-21325840D02*
G75*
G03*
X28994080Y-21325840I-160000J0D01*
G01*
X28999160Y-9232900D02*
G75*
G03*
X28999160Y-9232900I-160000J0D01*
G01*
D11*
X13371679Y-22123956D02*
X13371679Y-21923956D01*
X13419298Y-21923956D01*
X13447869Y-21933480D01*
X13466917Y-21952528D01*
X13476441Y-21971575D01*
X13485965Y-22009670D01*
X13485965Y-22038242D01*
X13476441Y-22076337D01*
X13466917Y-22095385D01*
X13447869Y-22114432D01*
X13419298Y-22123956D01*
X13371679Y-22123956D01*
X13571679Y-22123956D02*
X13571679Y-21990623D01*
X13571679Y-22028718D02*
X13581203Y-22009670D01*
X13590727Y-22000147D01*
X13609774Y-21990623D01*
X13628822Y-21990623D01*
X13695488Y-22123956D02*
X13695488Y-21990623D01*
X13695488Y-21923956D02*
X13685965Y-21933480D01*
X13695488Y-21943004D01*
X13705012Y-21933480D01*
X13695488Y-21923956D01*
X13695488Y-21943004D01*
X13819298Y-22123956D02*
X13800250Y-22114432D01*
X13790727Y-22095385D01*
X13790727Y-21923956D01*
X13924060Y-22123956D02*
X13905012Y-22114432D01*
X13895488Y-22095385D01*
X13895488Y-21923956D01*
X14152631Y-22123956D02*
X14152631Y-21923956D01*
X14219298Y-22066813D01*
X14285965Y-21923956D01*
X14285965Y-22123956D01*
X14466917Y-22123956D02*
X14466917Y-22019194D01*
X14457393Y-22000147D01*
X14438346Y-21990623D01*
X14400250Y-21990623D01*
X14381203Y-22000147D01*
X14466917Y-22114432D02*
X14447869Y-22123956D01*
X14400250Y-22123956D01*
X14381203Y-22114432D01*
X14371679Y-22095385D01*
X14371679Y-22076337D01*
X14381203Y-22057290D01*
X14400250Y-22047766D01*
X14447869Y-22047766D01*
X14466917Y-22038242D01*
X14562155Y-21990623D02*
X14562155Y-22190623D01*
X14562155Y-22000147D02*
X14581203Y-21990623D01*
X14619298Y-21990623D01*
X14638346Y-22000147D01*
X14647869Y-22009670D01*
X14657393Y-22028718D01*
X14657393Y-22085861D01*
X14647869Y-22104909D01*
X14638346Y-22114432D01*
X14619298Y-22123956D01*
X14581203Y-22123956D01*
X14562155Y-22114432D01*
X14743108Y-22104909D02*
X14752631Y-22114432D01*
X14743108Y-22123956D01*
X14733584Y-22114432D01*
X14743108Y-22104909D01*
X14743108Y-22123956D01*
X14743108Y-22000147D02*
X14752631Y-22009670D01*
X14743108Y-22019194D01*
X14733584Y-22009670D01*
X14743108Y-22000147D01*
X14743108Y-22019194D01*
X12914060Y-22353480D02*
X13114060Y-22553480D01*
X13114060Y-22353480D02*
X12914060Y-22553480D01*
X13362155Y-22363004D02*
X13371679Y-22353480D01*
X13390727Y-22343956D01*
X13438346Y-22343956D01*
X13457393Y-22353480D01*
X13466917Y-22363004D01*
X13476441Y-22382051D01*
X13476441Y-22401099D01*
X13466917Y-22429670D01*
X13352631Y-22543956D01*
X13476441Y-22543956D01*
X13562155Y-22524908D02*
X13571679Y-22534432D01*
X13562155Y-22543956D01*
X13552631Y-22534432D01*
X13562155Y-22524908D01*
X13562155Y-22543956D01*
X13695488Y-22343956D02*
X13714536Y-22343956D01*
X13733584Y-22353480D01*
X13743108Y-22363004D01*
X13752631Y-22382051D01*
X13762155Y-22420147D01*
X13762155Y-22467766D01*
X13752631Y-22505861D01*
X13743108Y-22524908D01*
X13733584Y-22534432D01*
X13714536Y-22543956D01*
X13695488Y-22543956D01*
X13676441Y-22534432D01*
X13666917Y-22524908D01*
X13657393Y-22505861D01*
X13647869Y-22467766D01*
X13647869Y-22420147D01*
X13657393Y-22382051D01*
X13666917Y-22363004D01*
X13676441Y-22353480D01*
X13695488Y-22343956D01*
X13885965Y-22343956D02*
X13905012Y-22343956D01*
X13924060Y-22353480D01*
X13933584Y-22363004D01*
X13943108Y-22382051D01*
X13952631Y-22420147D01*
X13952631Y-22467766D01*
X13943108Y-22505861D01*
X13933584Y-22524908D01*
X13924060Y-22534432D01*
X13905012Y-22543956D01*
X13885965Y-22543956D01*
X13866917Y-22534432D01*
X13857393Y-22524908D01*
X13847869Y-22505861D01*
X13838346Y-22467766D01*
X13838346Y-22420147D01*
X13847869Y-22382051D01*
X13857393Y-22363004D01*
X13866917Y-22353480D01*
X13885965Y-22343956D01*
X14076441Y-22343956D02*
X14095488Y-22343956D01*
X14114536Y-22353480D01*
X14124060Y-22363004D01*
X14133584Y-22382051D01*
X14143108Y-22420147D01*
X14143108Y-22467766D01*
X14133584Y-22505861D01*
X14124060Y-22524908D01*
X14114536Y-22534432D01*
X14095488Y-22543956D01*
X14076441Y-22543956D01*
X14057393Y-22534432D01*
X14047869Y-22524908D01*
X14038346Y-22505861D01*
X14028822Y-22467766D01*
X14028822Y-22420147D01*
X14038346Y-22382051D01*
X14047869Y-22363004D01*
X14057393Y-22353480D01*
X14076441Y-22343956D01*
X14228822Y-22543956D02*
X14228822Y-22410623D01*
X14228822Y-22429670D02*
X14238346Y-22420147D01*
X14257393Y-22410623D01*
X14285965Y-22410623D01*
X14305012Y-22420147D01*
X14314536Y-22439194D01*
X14314536Y-22543956D01*
X14314536Y-22439194D02*
X14324060Y-22420147D01*
X14343108Y-22410623D01*
X14371679Y-22410623D01*
X14390727Y-22420147D01*
X14400250Y-22439194D01*
X14400250Y-22543956D01*
X14495488Y-22543956D02*
X14495488Y-22410623D01*
X14495488Y-22429670D02*
X14505012Y-22420147D01*
X14524060Y-22410623D01*
X14552631Y-22410623D01*
X14571679Y-22420147D01*
X14581203Y-22439194D01*
X14581203Y-22543956D01*
X14581203Y-22439194D02*
X14590727Y-22420147D01*
X14609774Y-22410623D01*
X14638346Y-22410623D01*
X14657393Y-22420147D01*
X14666917Y-22439194D01*
X14666917Y-22543956D01*
X15057393Y-22334432D02*
X14885965Y-22591575D01*
X15314536Y-22343956D02*
X15333584Y-22343956D01*
X15352631Y-22353480D01*
X15362155Y-22363004D01*
X15371679Y-22382051D01*
X15381203Y-22420147D01*
X15381203Y-22467766D01*
X15371679Y-22505861D01*
X15362155Y-22524908D01*
X15352631Y-22534432D01*
X15333584Y-22543956D01*
X15314536Y-22543956D01*
X15295488Y-22534432D01*
X15285965Y-22524908D01*
X15276441Y-22505861D01*
X15266917Y-22467766D01*
X15266917Y-22420147D01*
X15276441Y-22382051D01*
X15285965Y-22363004D01*
X15295488Y-22353480D01*
X15314536Y-22343956D01*
X15466917Y-22524908D02*
X15476441Y-22534432D01*
X15466917Y-22543956D01*
X15457393Y-22534432D01*
X15466917Y-22524908D01*
X15466917Y-22543956D01*
X15600250Y-22343956D02*
X15619298Y-22343956D01*
X15638346Y-22353480D01*
X15647869Y-22363004D01*
X15657393Y-22382051D01*
X15666917Y-22420147D01*
X15666917Y-22467766D01*
X15657393Y-22505861D01*
X15647869Y-22524908D01*
X15638346Y-22534432D01*
X15619298Y-22543956D01*
X15600250Y-22543956D01*
X15581203Y-22534432D01*
X15571679Y-22524908D01*
X15562155Y-22505861D01*
X15552631Y-22467766D01*
X15552631Y-22420147D01*
X15562155Y-22382051D01*
X15571679Y-22363004D01*
X15581203Y-22353480D01*
X15600250Y-22343956D01*
X15733584Y-22343956D02*
X15866917Y-22343956D01*
X15781203Y-22543956D01*
X15971679Y-22429670D02*
X15952631Y-22420147D01*
X15943108Y-22410623D01*
X15933584Y-22391575D01*
X15933584Y-22382051D01*
X15943108Y-22363004D01*
X15952631Y-22353480D01*
X15971679Y-22343956D01*
X16009774Y-22343956D01*
X16028822Y-22353480D01*
X16038346Y-22363004D01*
X16047869Y-22382051D01*
X16047869Y-22391575D01*
X16038346Y-22410623D01*
X16028822Y-22420147D01*
X16009774Y-22429670D01*
X15971679Y-22429670D01*
X15952631Y-22439194D01*
X15943108Y-22448718D01*
X15933584Y-22467766D01*
X15933584Y-22505861D01*
X15943108Y-22524908D01*
X15952631Y-22534432D01*
X15971679Y-22543956D01*
X16009774Y-22543956D01*
X16028822Y-22534432D01*
X16038346Y-22524908D01*
X16047869Y-22505861D01*
X16047869Y-22467766D01*
X16038346Y-22448718D01*
X16028822Y-22439194D01*
X16009774Y-22429670D01*
X16114536Y-22343956D02*
X16247869Y-22343956D01*
X16162155Y-22543956D01*
X16314536Y-22343956D02*
X16314536Y-22382051D01*
X16390727Y-22343956D02*
X16390727Y-22382051D01*
X16685965Y-22620147D02*
X16676441Y-22610623D01*
X16657393Y-22582051D01*
X16647869Y-22563004D01*
X16638346Y-22534432D01*
X16628822Y-22486813D01*
X16628822Y-22448718D01*
X16638346Y-22401099D01*
X16647869Y-22372528D01*
X16657393Y-22353480D01*
X16676441Y-22324909D01*
X16685965Y-22315385D01*
X16866917Y-22543956D02*
X16752631Y-22543956D01*
X16809774Y-22543956D02*
X16809774Y-22343956D01*
X16790727Y-22372528D01*
X16771679Y-22391575D01*
X16752631Y-22401099D01*
X17105012Y-22543956D02*
X17105012Y-22343956D01*
X17190727Y-22543956D02*
X17190727Y-22439194D01*
X17181203Y-22420147D01*
X17162155Y-22410623D01*
X17133584Y-22410623D01*
X17114536Y-22420147D01*
X17105012Y-22429670D01*
X17314536Y-22543956D02*
X17295489Y-22534432D01*
X17285965Y-22524908D01*
X17276441Y-22505861D01*
X17276441Y-22448718D01*
X17285965Y-22429670D01*
X17295489Y-22420147D01*
X17314536Y-22410623D01*
X17343108Y-22410623D01*
X17362155Y-22420147D01*
X17371679Y-22429670D01*
X17381203Y-22448718D01*
X17381203Y-22505861D01*
X17371679Y-22524908D01*
X17362155Y-22534432D01*
X17343108Y-22543956D01*
X17314536Y-22543956D01*
X17495489Y-22543956D02*
X17476441Y-22534432D01*
X17466917Y-22515385D01*
X17466917Y-22343956D01*
X17647870Y-22534432D02*
X17628822Y-22543956D01*
X17590727Y-22543956D01*
X17571679Y-22534432D01*
X17562155Y-22515385D01*
X17562155Y-22439194D01*
X17571679Y-22420147D01*
X17590727Y-22410623D01*
X17628822Y-22410623D01*
X17647870Y-22420147D01*
X17657393Y-22439194D01*
X17657393Y-22458242D01*
X17562155Y-22477289D01*
X17724060Y-22620147D02*
X17733584Y-22610623D01*
X17752631Y-22582051D01*
X17762155Y-22563004D01*
X17771679Y-22534432D01*
X17781203Y-22486813D01*
X17781203Y-22448718D01*
X17771679Y-22401099D01*
X17762155Y-22372528D01*
X17752631Y-22353480D01*
X17733584Y-22324909D01*
X17724060Y-22315385D01*
X18085965Y-22620147D02*
X18076441Y-22610623D01*
X18057393Y-22582051D01*
X18047870Y-22563004D01*
X18038346Y-22534432D01*
X18028822Y-22486813D01*
X18028822Y-22448718D01*
X18038346Y-22401099D01*
X18047870Y-22372528D01*
X18057393Y-22353480D01*
X18076441Y-22324909D01*
X18085965Y-22315385D01*
X18162155Y-22410623D02*
X18162155Y-22543956D01*
X18162155Y-22429670D02*
X18171679Y-22420147D01*
X18190727Y-22410623D01*
X18219298Y-22410623D01*
X18238346Y-22420147D01*
X18247870Y-22439194D01*
X18247870Y-22543956D01*
X18371679Y-22543956D02*
X18352631Y-22534432D01*
X18343108Y-22524908D01*
X18333584Y-22505861D01*
X18333584Y-22448718D01*
X18343108Y-22429670D01*
X18352631Y-22420147D01*
X18371679Y-22410623D01*
X18400250Y-22410623D01*
X18419298Y-22420147D01*
X18428822Y-22429670D01*
X18438346Y-22448718D01*
X18438346Y-22505861D01*
X18428822Y-22524908D01*
X18419298Y-22534432D01*
X18400250Y-22543956D01*
X18371679Y-22543956D01*
X18495489Y-22410623D02*
X18571679Y-22410623D01*
X18524060Y-22343956D02*
X18524060Y-22515385D01*
X18533584Y-22534432D01*
X18552631Y-22543956D01*
X18571679Y-22543956D01*
X18790727Y-22410623D02*
X18790727Y-22610623D01*
X18790727Y-22420147D02*
X18809774Y-22410623D01*
X18847870Y-22410623D01*
X18866917Y-22420147D01*
X18876441Y-22429670D01*
X18885965Y-22448718D01*
X18885965Y-22505861D01*
X18876441Y-22524908D01*
X18866917Y-22534432D01*
X18847870Y-22543956D01*
X18809774Y-22543956D01*
X18790727Y-22534432D01*
X19000250Y-22543956D02*
X18981203Y-22534432D01*
X18971679Y-22515385D01*
X18971679Y-22343956D01*
X19162155Y-22543956D02*
X19162155Y-22439194D01*
X19152631Y-22420147D01*
X19133584Y-22410623D01*
X19095489Y-22410623D01*
X19076441Y-22420147D01*
X19162155Y-22534432D02*
X19143108Y-22543956D01*
X19095489Y-22543956D01*
X19076441Y-22534432D01*
X19066917Y-22515385D01*
X19066917Y-22496337D01*
X19076441Y-22477289D01*
X19095489Y-22467766D01*
X19143108Y-22467766D01*
X19162155Y-22458242D01*
X19228822Y-22410623D02*
X19305012Y-22410623D01*
X19257393Y-22343956D02*
X19257393Y-22515385D01*
X19266917Y-22534432D01*
X19285965Y-22543956D01*
X19305012Y-22543956D01*
X19447870Y-22534432D02*
X19428822Y-22543956D01*
X19390727Y-22543956D01*
X19371679Y-22534432D01*
X19362155Y-22515385D01*
X19362155Y-22439194D01*
X19371679Y-22420147D01*
X19390727Y-22410623D01*
X19428822Y-22410623D01*
X19447870Y-22420147D01*
X19457393Y-22439194D01*
X19457393Y-22458242D01*
X19362155Y-22477289D01*
X19628822Y-22543956D02*
X19628822Y-22343956D01*
X19628822Y-22534432D02*
X19609774Y-22543956D01*
X19571679Y-22543956D01*
X19552631Y-22534432D01*
X19543108Y-22524908D01*
X19533584Y-22505861D01*
X19533584Y-22448718D01*
X19543108Y-22429670D01*
X19552631Y-22420147D01*
X19571679Y-22410623D01*
X19609774Y-22410623D01*
X19628822Y-22420147D01*
X19705012Y-22620147D02*
X19714536Y-22610623D01*
X19733584Y-22582051D01*
X19743108Y-22563004D01*
X19752631Y-22534432D01*
X19762155Y-22486813D01*
X19762155Y-22448718D01*
X19752631Y-22401099D01*
X19743108Y-22372528D01*
X19733584Y-22353480D01*
X19714536Y-22324909D01*
X19705012Y-22315385D01*
X13114060Y-22773480D02*
G75*
G03*
X13114060Y-22773480I-100000J0D01*
G01*
X13352631Y-22663956D02*
X13476441Y-22663956D01*
X13409774Y-22740147D01*
X13438346Y-22740147D01*
X13457393Y-22749670D01*
X13466917Y-22759194D01*
X13476441Y-22778242D01*
X13476441Y-22825861D01*
X13466917Y-22844908D01*
X13457393Y-22854432D01*
X13438346Y-22863956D01*
X13381203Y-22863956D01*
X13362155Y-22854432D01*
X13352631Y-22844908D01*
X13562155Y-22844908D02*
X13571679Y-22854432D01*
X13562155Y-22863956D01*
X13552631Y-22854432D01*
X13562155Y-22844908D01*
X13562155Y-22863956D01*
X13647869Y-22683004D02*
X13657393Y-22673480D01*
X13676441Y-22663956D01*
X13724060Y-22663956D01*
X13743108Y-22673480D01*
X13752631Y-22683004D01*
X13762155Y-22702051D01*
X13762155Y-22721099D01*
X13752631Y-22749670D01*
X13638346Y-22863956D01*
X13762155Y-22863956D01*
X13885965Y-22663956D02*
X13905012Y-22663956D01*
X13924060Y-22673480D01*
X13933584Y-22683004D01*
X13943108Y-22702051D01*
X13952631Y-22740147D01*
X13952631Y-22787766D01*
X13943108Y-22825861D01*
X13933584Y-22844908D01*
X13924060Y-22854432D01*
X13905012Y-22863956D01*
X13885965Y-22863956D01*
X13866917Y-22854432D01*
X13857393Y-22844908D01*
X13847869Y-22825861D01*
X13838346Y-22787766D01*
X13838346Y-22740147D01*
X13847869Y-22702051D01*
X13857393Y-22683004D01*
X13866917Y-22673480D01*
X13885965Y-22663956D01*
X14076441Y-22663956D02*
X14095488Y-22663956D01*
X14114536Y-22673480D01*
X14124060Y-22683004D01*
X14133584Y-22702051D01*
X14143108Y-22740147D01*
X14143108Y-22787766D01*
X14133584Y-22825861D01*
X14124060Y-22844908D01*
X14114536Y-22854432D01*
X14095488Y-22863956D01*
X14076441Y-22863956D01*
X14057393Y-22854432D01*
X14047869Y-22844908D01*
X14038346Y-22825861D01*
X14028822Y-22787766D01*
X14028822Y-22740147D01*
X14038346Y-22702051D01*
X14047869Y-22683004D01*
X14057393Y-22673480D01*
X14076441Y-22663956D01*
X14228822Y-22863956D02*
X14228822Y-22730623D01*
X14228822Y-22749670D02*
X14238346Y-22740147D01*
X14257393Y-22730623D01*
X14285965Y-22730623D01*
X14305012Y-22740147D01*
X14314536Y-22759194D01*
X14314536Y-22863956D01*
X14314536Y-22759194D02*
X14324060Y-22740147D01*
X14343108Y-22730623D01*
X14371679Y-22730623D01*
X14390727Y-22740147D01*
X14400250Y-22759194D01*
X14400250Y-22863956D01*
X14495488Y-22863956D02*
X14495488Y-22730623D01*
X14495488Y-22749670D02*
X14505012Y-22740147D01*
X14524060Y-22730623D01*
X14552631Y-22730623D01*
X14571679Y-22740147D01*
X14581203Y-22759194D01*
X14581203Y-22863956D01*
X14581203Y-22759194D02*
X14590727Y-22740147D01*
X14609774Y-22730623D01*
X14638346Y-22730623D01*
X14657393Y-22740147D01*
X14666917Y-22759194D01*
X14666917Y-22863956D01*
X15057393Y-22654432D02*
X14885965Y-22911575D01*
X15314536Y-22663956D02*
X15333584Y-22663956D01*
X15352631Y-22673480D01*
X15362155Y-22683004D01*
X15371679Y-22702051D01*
X15381203Y-22740147D01*
X15381203Y-22787766D01*
X15371679Y-22825861D01*
X15362155Y-22844908D01*
X15352631Y-22854432D01*
X15333584Y-22863956D01*
X15314536Y-22863956D01*
X15295488Y-22854432D01*
X15285965Y-22844908D01*
X15276441Y-22825861D01*
X15266917Y-22787766D01*
X15266917Y-22740147D01*
X15276441Y-22702051D01*
X15285965Y-22683004D01*
X15295488Y-22673480D01*
X15314536Y-22663956D01*
X15466917Y-22844908D02*
X15476441Y-22854432D01*
X15466917Y-22863956D01*
X15457393Y-22854432D01*
X15466917Y-22844908D01*
X15466917Y-22863956D01*
X15666917Y-22863956D02*
X15552631Y-22863956D01*
X15609774Y-22863956D02*
X15609774Y-22663956D01*
X15590727Y-22692528D01*
X15571679Y-22711575D01*
X15552631Y-22721099D01*
X15743108Y-22683004D02*
X15752631Y-22673480D01*
X15771679Y-22663956D01*
X15819298Y-22663956D01*
X15838346Y-22673480D01*
X15847869Y-22683004D01*
X15857393Y-22702051D01*
X15857393Y-22721099D01*
X15847869Y-22749670D01*
X15733584Y-22863956D01*
X15857393Y-22863956D01*
X16028822Y-22663956D02*
X15990727Y-22663956D01*
X15971679Y-22673480D01*
X15962155Y-22683004D01*
X15943108Y-22711575D01*
X15933584Y-22749670D01*
X15933584Y-22825861D01*
X15943108Y-22844908D01*
X15952631Y-22854432D01*
X15971679Y-22863956D01*
X16009774Y-22863956D01*
X16028822Y-22854432D01*
X16038346Y-22844908D01*
X16047869Y-22825861D01*
X16047869Y-22778242D01*
X16038346Y-22759194D01*
X16028822Y-22749670D01*
X16009774Y-22740147D01*
X15971679Y-22740147D01*
X15952631Y-22749670D01*
X15943108Y-22759194D01*
X15933584Y-22778242D01*
X16171679Y-22663956D02*
X16190727Y-22663956D01*
X16209774Y-22673480D01*
X16219298Y-22683004D01*
X16228822Y-22702051D01*
X16238346Y-22740147D01*
X16238346Y-22787766D01*
X16228822Y-22825861D01*
X16219298Y-22844908D01*
X16209774Y-22854432D01*
X16190727Y-22863956D01*
X16171679Y-22863956D01*
X16152631Y-22854432D01*
X16143108Y-22844908D01*
X16133584Y-22825861D01*
X16124060Y-22787766D01*
X16124060Y-22740147D01*
X16133584Y-22702051D01*
X16143108Y-22683004D01*
X16152631Y-22673480D01*
X16171679Y-22663956D01*
X16314536Y-22663956D02*
X16314536Y-22702051D01*
X16390727Y-22663956D02*
X16390727Y-22702051D01*
X16685965Y-22940147D02*
X16676441Y-22930623D01*
X16657393Y-22902051D01*
X16647869Y-22883004D01*
X16638346Y-22854432D01*
X16628822Y-22806813D01*
X16628822Y-22768718D01*
X16638346Y-22721099D01*
X16647869Y-22692528D01*
X16657393Y-22673480D01*
X16676441Y-22644908D01*
X16685965Y-22635385D01*
X16847870Y-22730623D02*
X16847870Y-22863956D01*
X16800250Y-22654432D02*
X16752631Y-22797289D01*
X16876441Y-22797289D01*
X17105012Y-22863956D02*
X17105012Y-22663956D01*
X17190727Y-22863956D02*
X17190727Y-22759194D01*
X17181203Y-22740147D01*
X17162155Y-22730623D01*
X17133584Y-22730623D01*
X17114536Y-22740147D01*
X17105012Y-22749670D01*
X17314536Y-22863956D02*
X17295489Y-22854432D01*
X17285965Y-22844908D01*
X17276441Y-22825861D01*
X17276441Y-22768718D01*
X17285965Y-22749670D01*
X17295489Y-22740147D01*
X17314536Y-22730623D01*
X17343108Y-22730623D01*
X17362155Y-22740147D01*
X17371679Y-22749670D01*
X17381203Y-22768718D01*
X17381203Y-22825861D01*
X17371679Y-22844908D01*
X17362155Y-22854432D01*
X17343108Y-22863956D01*
X17314536Y-22863956D01*
X17495489Y-22863956D02*
X17476441Y-22854432D01*
X17466917Y-22835385D01*
X17466917Y-22663956D01*
X17647870Y-22854432D02*
X17628822Y-22863956D01*
X17590727Y-22863956D01*
X17571679Y-22854432D01*
X17562155Y-22835385D01*
X17562155Y-22759194D01*
X17571679Y-22740147D01*
X17590727Y-22730623D01*
X17628822Y-22730623D01*
X17647870Y-22740147D01*
X17657393Y-22759194D01*
X17657393Y-22778242D01*
X17562155Y-22797289D01*
X17733584Y-22854432D02*
X17752631Y-22863956D01*
X17790727Y-22863956D01*
X17809774Y-22854432D01*
X17819298Y-22835385D01*
X17819298Y-22825861D01*
X17809774Y-22806813D01*
X17790727Y-22797289D01*
X17762155Y-22797289D01*
X17743108Y-22787766D01*
X17733584Y-22768718D01*
X17733584Y-22759194D01*
X17743108Y-22740147D01*
X17762155Y-22730623D01*
X17790727Y-22730623D01*
X17809774Y-22740147D01*
X17885965Y-22940147D02*
X17895489Y-22930623D01*
X17914536Y-22902051D01*
X17924060Y-22883004D01*
X17933584Y-22854432D01*
X17943108Y-22806813D01*
X17943108Y-22768718D01*
X17933584Y-22721099D01*
X17924060Y-22692528D01*
X17914536Y-22673480D01*
X17895489Y-22644908D01*
X17885965Y-22635385D01*
X18247870Y-22940147D02*
X18238346Y-22930623D01*
X18219298Y-22902051D01*
X18209774Y-22883004D01*
X18200250Y-22854432D01*
X18190727Y-22806813D01*
X18190727Y-22768718D01*
X18200250Y-22721099D01*
X18209774Y-22692528D01*
X18219298Y-22673480D01*
X18238346Y-22644908D01*
X18247870Y-22635385D01*
X18324060Y-22730623D02*
X18324060Y-22863956D01*
X18324060Y-22749670D02*
X18333584Y-22740147D01*
X18352631Y-22730623D01*
X18381203Y-22730623D01*
X18400250Y-22740147D01*
X18409774Y-22759194D01*
X18409774Y-22863956D01*
X18533584Y-22863956D02*
X18514536Y-22854432D01*
X18505012Y-22844908D01*
X18495489Y-22825861D01*
X18495489Y-22768718D01*
X18505012Y-22749670D01*
X18514536Y-22740147D01*
X18533584Y-22730623D01*
X18562155Y-22730623D01*
X18581203Y-22740147D01*
X18590727Y-22749670D01*
X18600250Y-22768718D01*
X18600250Y-22825861D01*
X18590727Y-22844908D01*
X18581203Y-22854432D01*
X18562155Y-22863956D01*
X18533584Y-22863956D01*
X18657393Y-22730623D02*
X18733584Y-22730623D01*
X18685965Y-22663956D02*
X18685965Y-22835385D01*
X18695489Y-22854432D01*
X18714536Y-22863956D01*
X18733584Y-22863956D01*
X18952631Y-22730623D02*
X18952631Y-22930623D01*
X18952631Y-22740147D02*
X18971679Y-22730623D01*
X19009774Y-22730623D01*
X19028822Y-22740147D01*
X19038346Y-22749670D01*
X19047870Y-22768718D01*
X19047870Y-22825861D01*
X19038346Y-22844908D01*
X19028822Y-22854432D01*
X19009774Y-22863956D01*
X18971679Y-22863956D01*
X18952631Y-22854432D01*
X19162155Y-22863956D02*
X19143108Y-22854432D01*
X19133584Y-22835385D01*
X19133584Y-22663956D01*
X19324060Y-22863956D02*
X19324060Y-22759194D01*
X19314536Y-22740147D01*
X19295489Y-22730623D01*
X19257393Y-22730623D01*
X19238346Y-22740147D01*
X19324060Y-22854432D02*
X19305012Y-22863956D01*
X19257393Y-22863956D01*
X19238346Y-22854432D01*
X19228822Y-22835385D01*
X19228822Y-22816337D01*
X19238346Y-22797289D01*
X19257393Y-22787766D01*
X19305012Y-22787766D01*
X19324060Y-22778242D01*
X19390727Y-22730623D02*
X19466917Y-22730623D01*
X19419298Y-22663956D02*
X19419298Y-22835385D01*
X19428822Y-22854432D01*
X19447870Y-22863956D01*
X19466917Y-22863956D01*
X19609774Y-22854432D02*
X19590727Y-22863956D01*
X19552631Y-22863956D01*
X19533584Y-22854432D01*
X19524060Y-22835385D01*
X19524060Y-22759194D01*
X19533584Y-22740147D01*
X19552631Y-22730623D01*
X19590727Y-22730623D01*
X19609774Y-22740147D01*
X19619298Y-22759194D01*
X19619298Y-22778242D01*
X19524060Y-22797289D01*
X19790727Y-22863956D02*
X19790727Y-22663956D01*
X19790727Y-22854432D02*
X19771679Y-22863956D01*
X19733584Y-22863956D01*
X19714536Y-22854432D01*
X19705012Y-22844908D01*
X19695489Y-22825861D01*
X19695489Y-22768718D01*
X19705012Y-22749670D01*
X19714536Y-22740147D01*
X19733584Y-22730623D01*
X19771679Y-22730623D01*
X19790727Y-22740147D01*
X19866917Y-22940147D02*
X19876441Y-22930623D01*
X19895489Y-22902051D01*
X19905012Y-22883004D01*
X19914536Y-22854432D01*
X19924060Y-22806813D01*
X19924060Y-22768718D01*
X19914536Y-22721099D01*
X19905012Y-22692528D01*
X19895489Y-22673480D01*
X19876441Y-22644908D01*
X19866917Y-22635385D01*
M02*
