M48
; DRILL file {KiCad (6.0.5)} date Fri May 16 22:36:26 2025
; FORMAT={-:-/ absolute / metric / decimal}
; #@! TF.CreationDate,2025-05-16T22:36:26-04:00
; #@! TF.GenerationSoftware,Kicad,Pcbnew,(6.0.5)
; #@! TF.FileFunction,Plated,1,2,PTH
FMAT,2
METRIC
; #@! TA.AperFunction,Plated,PTH,ViaDrill
T1C0.400
; #@! TA.AperFunction,Plated,PTH,ViaDrill
T2C0.600
; #@! TA.AperFunction,Plated,PTH,ComponentDrill
T3C0.700
; #@! TA.AperFunction,Plated,PTH,ComponentDrill
T4C0.750
; #@! TA.AperFunction,Plated,PTH,ViaDrill
T5C0.800
; #@! TA.AperFunction,Plated,PTH,ComponentDrill
T6C0.800
; #@! TA.AperFunction,Plated,PTH,ComponentDrill
T7C0.900
; #@! TA.AperFunction,Plated,PTH,ComponentDrill
T8C1.000
; #@! TA.AperFunction,Plated,PTH,ComponentDrill
T9C1.090
; #@! TA.AperFunction,Plated,PTH,ComponentDrill
T10C1.100
; #@! TA.AperFunction,Plated,PTH,ComponentDrill
T11C1.200
; #@! TA.AperFunction,Plated,PTH,ComponentDrill
T12C1.700
; #@! TA.AperFunction,Plated,PTH,ComponentDrill
T13C2.600
%
G90
G05
T1
X176.962Y-164.846
X177.952Y-159.334
X180.873Y-162.001
X183.566Y-114.554
X183.566Y-125.324
X183.642Y-120.091
X186.69Y-126.035
X186.868Y-121.437
X186.893Y-117.246
X192.811Y-97.384
X195.224Y-132.385
X198.476Y-125.882
X200.279Y-106.782
X200.304Y-97.053
X201.955Y-139.09
X202.057Y-109.677
X202.235Y-93.904
X202.71Y-104.605
X203.505Y-159.893
X204.368Y-164.795
X204.648Y-158.14
X206.959Y-185.268
X209.017Y-158.039
X211.049Y-184.683
X211.341Y-137.96
X211.95Y-140.83
X213.106Y-152.349
X213.995Y-183.134
X214.262Y-137.884
X215.976Y-183.032
X217.119Y-180.111
X217.424Y-108.966
X218.135Y-178.13
X221.336Y-126.34
X221.59Y-181.61
X221.793Y-104.546
X226.695Y-114.605
X227.559Y-113.259
X227.559Y-118.212
X229.794Y-131.14
X230.708Y-142.545
X233.68Y-135.255
X235.763Y-135.28
X236.169Y-144.043
X238.379Y-138.405
X240.005Y-125.501
X240.081Y-163.728
X240.894Y-135.357
X242.672Y-143.104
X243.84Y-176.987
X245.008Y-111.252
X245.821Y-142.138
X246.278Y-116.129
X246.329Y-167.894
X246.355Y-120.04
X246.405Y-128.143
X247.04Y-137.363
X247.218Y-111.176
X248.437Y-158.826
X249.072Y-135.001
X249.758Y-137.185
X250.622Y-120.396
X251.358Y-148.209
X251.739Y-106.197
X253.975Y-128.397
X256.438Y-105.639
X258.496Y-112.7
X259.563Y-126.365
X259.842Y-134.061
X261.01Y-140.995
X262.077Y-139.217
X262.636Y-135.28
X264.973Y-106.528
X264.973Y-169.52
X266.217Y-110.617
X266.624Y-105.283
X266.903Y-144.602
X267.411Y-106.756
X267.487Y-130.048
X268.046Y-119.355
X268.122Y-121.514
X269.138Y-128.473
X270.916Y-126.822
X274.803Y-204.368
X281.559Y-147.726
X282.118Y-126.517
X282.6Y-135.712
X283.896Y-146.761
X283.947Y-133.35
X286.918Y-130.734
T2
X216.129Y-155.981
X235.483Y-151.257
T3
X139.192Y-194.437
X139.725Y-210.845
X140.97Y-199.034
X140.97Y-206.654
X146.812Y-194.437
X147.269Y-141.072
X147.269Y-148.692
X147.345Y-210.845
X160.35Y-203.251
X160.35Y-210.871
X160.579Y-189.027
X160.579Y-196.647
X186.182Y-154.965
X186.182Y-162.585
X186.842Y-136.246
X186.842Y-143.866
X205.867Y-121.615
X205.867Y-129.235
X244.373Y-136.83
X244.424Y-145.669
X248.539Y-148.158
X248.539Y-155.778
X285.496Y-150.622
X285.496Y-158.242
T4
X148.763Y-201.778
X148.763Y-203.048
X148.763Y-204.318
X184.318Y-210.168
X186.318Y-210.168
T5
X177.724Y-154.889
X180.492Y-172.11
X182.524Y-181.762
X183.413Y-151.765
X184.963Y-183.972
X200.304Y-102.743
X209.829Y-194.285
X209.931Y-191.364
X221.463Y-159.08
X268.681Y-138.532
T6
X152.564Y-182.143
X155.064Y-182.143
X158.663Y-136.703
X162.027Y-183.896
X163.663Y-136.703
X164.567Y-183.896
X166.583Y-195.626
X166.583Y-198.166
X166.583Y-200.706
X166.583Y-203.246
X166.583Y-205.786
X166.583Y-208.326
X166.583Y-210.866
X167.107Y-183.896
X168.061Y-191.16
X171.939Y-132.41
X173.061Y-191.16
X174.203Y-195.626
X174.203Y-198.166
X174.203Y-200.706
X174.203Y-203.246
X174.203Y-205.786
X174.203Y-208.326
X174.203Y-210.866
X174.777Y-114.797
X174.777Y-119.797
X175.439Y-132.41
X180.061Y-143.524
X180.061Y-148.424
X183.413Y-172.785
X183.413Y-177.785
X183.439Y-188.127
X183.439Y-193.127
X186.385Y-147.182
X186.385Y-149.682
X189.327Y-171.948
X189.327Y-179.568
X189.327Y-186.858
X189.327Y-194.478
X191.867Y-171.948
X191.867Y-179.568
X191.867Y-186.858
X191.867Y-194.478
X192.237Y-144.038
X192.237Y-146.578
X192.237Y-149.118
X192.237Y-151.658
X192.237Y-154.198
X192.237Y-156.738
X192.237Y-159.278
X193.152Y-114.163
X193.152Y-116.703
X193.152Y-119.243
X193.152Y-121.783
X193.152Y-124.323
X193.152Y-126.863
X193.152Y-129.403
X193.152Y-131.943
X193.218Y-200.839
X193.218Y-204.639
X193.918Y-108.864
X194.198Y-138.532
X194.407Y-171.948
X194.407Y-179.568
X194.407Y-186.858
X194.407Y-194.478
X195.834Y-210.439
X196.947Y-171.948
X196.947Y-179.568
X196.947Y-186.858
X196.947Y-194.478
X198.918Y-108.864
X199.198Y-138.532
X199.487Y-171.948
X199.487Y-179.568
X199.487Y-186.858
X199.487Y-194.478
X199.857Y-144.038
X199.857Y-146.578
X199.857Y-149.118
X199.857Y-151.658
X199.857Y-154.198
X199.857Y-156.738
X199.857Y-159.278
X200.772Y-114.163
X200.772Y-116.703
X200.772Y-119.243
X200.772Y-121.783
X200.772Y-124.323
X200.772Y-126.863
X200.772Y-129.403
X200.772Y-131.943
X202.027Y-171.948
X202.027Y-179.568
X202.027Y-186.858
X202.027Y-194.478
X204.567Y-171.948
X204.567Y-179.568
X204.567Y-186.858
X204.567Y-194.478
X204.693Y-201.117
X207.193Y-201.117
X208.534Y-210.439
X215.824Y-166.994
X215.824Y-171.994
X216.687Y-145.988
X216.687Y-150.988
X216.977Y-115.616
X216.977Y-118.156
X216.977Y-120.696
X216.977Y-123.236
X216.977Y-125.776
X216.977Y-128.316
X216.977Y-130.856
X218.099Y-111.531
X218.338Y-208.512
X218.338Y-211.012
X220.777Y-183.631
X220.777Y-188.631
X221.407Y-148.809
X221.407Y-156.429
X221.788Y-166.36
X221.788Y-173.98
X223.099Y-111.531
X223.947Y-148.809
X223.947Y-156.429
X224.328Y-166.36
X224.328Y-173.98
X224.597Y-115.616
X224.597Y-118.156
X224.597Y-120.696
X224.597Y-123.236
X224.597Y-125.776
X224.597Y-128.316
X224.597Y-130.856
X226.436Y-182.794
X226.436Y-190.414
X226.487Y-148.809
X226.487Y-156.429
X226.868Y-166.36
X226.868Y-173.98
X228.483Y-200.04
X228.483Y-207.66
X228.976Y-182.794
X228.976Y-190.414
X229.027Y-148.809
X229.027Y-156.429
X229.408Y-166.36
X229.408Y-173.98
X231.023Y-200.04
X231.023Y-207.66
X231.516Y-182.794
X231.516Y-190.414
X231.567Y-148.809
X231.567Y-156.429
X231.948Y-166.36
X231.948Y-173.98
X233.563Y-200.04
X233.563Y-207.66
X234.056Y-182.794
X234.056Y-190.414
X234.107Y-148.809
X234.107Y-156.429
X234.488Y-166.36
X234.488Y-173.98
X235.011Y-115.895
X235.011Y-118.435
X235.011Y-120.975
X235.011Y-123.515
X235.011Y-126.055
X235.011Y-128.595
X235.011Y-131.135
X236.103Y-200.04
X236.103Y-207.66
X236.596Y-182.794
X236.596Y-190.414
X236.647Y-148.809
X236.647Y-156.429
X237.028Y-166.36
X237.028Y-173.98
X237.098Y-111.354
X239.136Y-182.794
X239.136Y-190.414
X241.676Y-182.794
X241.676Y-190.414
X242.098Y-111.354
X242.631Y-115.895
X242.631Y-118.435
X242.631Y-120.975
X242.631Y-123.515
X242.631Y-126.055
X242.631Y-128.595
X242.631Y-131.135
X249.911Y-204.674
X249.911Y-208.474
X254.264Y-149.118
X254.264Y-151.658
X254.264Y-154.198
X254.264Y-156.738
X254.264Y-159.278
X254.264Y-161.818
X254.264Y-164.358
X255.61Y-180.919
X255.61Y-183.459
X255.61Y-185.999
X255.61Y-188.539
X255.61Y-191.079
X255.61Y-193.619
X255.61Y-196.159
X255.742Y-144.526
X256.301Y-175.92
X256.753Y-115.463
X256.753Y-118.003
X256.753Y-120.543
X256.753Y-123.083
X256.753Y-125.623
X256.753Y-128.163
X256.753Y-130.703
X258.42Y-110.439
X260.742Y-144.526
X261.301Y-175.92
X261.884Y-149.118
X261.884Y-151.658
X261.884Y-154.198
X261.884Y-156.738
X261.884Y-159.278
X261.884Y-161.818
X261.884Y-164.358
X263.23Y-180.919
X263.23Y-183.459
X263.23Y-185.999
X263.23Y-188.539
X263.23Y-191.079
X263.23Y-193.619
X263.23Y-196.159
X263.42Y-110.439
X264.373Y-115.463
X264.373Y-118.003
X264.373Y-120.543
X264.373Y-123.083
X264.373Y-125.623
X264.373Y-128.163
X264.373Y-130.703
X272.247Y-149.449
X272.247Y-151.989
X272.247Y-154.529
X272.247Y-157.069
X272.247Y-159.609
X272.247Y-162.149
X272.247Y-164.689
X273.979Y-144.272
X274.127Y-182.311
X274.127Y-184.851
X274.127Y-187.391
X274.127Y-189.931
X274.127Y-192.471
X274.127Y-195.011
X274.127Y-197.551
X274.127Y-200.091
X275.808Y-176.555
X276.514Y-115.108
X276.514Y-117.648
X276.514Y-120.188
X276.514Y-122.728
X276.514Y-125.268
X276.514Y-127.808
X276.514Y-130.348
X277.814Y-110.617
X278.979Y-144.272
X279.867Y-149.449
X279.867Y-151.989
X279.867Y-154.529
X279.867Y-157.069
X279.867Y-159.609
X279.867Y-162.149
X279.867Y-164.689
X280.808Y-176.555
X281.747Y-182.311
X281.747Y-184.851
X281.747Y-187.391
X281.747Y-189.931
X281.747Y-192.471
X281.747Y-195.011
X281.747Y-197.551
X281.747Y-200.091
X282.814Y-110.617
X284.134Y-115.108
X284.134Y-117.648
X284.134Y-120.188
X284.134Y-122.728
X284.134Y-125.268
X284.134Y-127.808
X284.134Y-130.348
T7
X138.608Y-143.286
X138.608Y-145.826
X215.991Y-196.153
X215.991Y-201.153
X220.991Y-198.653
T8
X154.153Y-190.043
X154.153Y-192.583
X154.153Y-195.123
X154.965Y-207.543
X154.965Y-210.083
X217.856Y-96.104
X217.856Y-98.644
X220.396Y-96.104
X220.396Y-98.644
X222.936Y-96.104
X222.936Y-98.644
X225.476Y-96.104
X225.476Y-98.644
X228.016Y-96.104
X228.016Y-98.644
X230.556Y-96.104
X230.556Y-98.644
X233.096Y-96.104
X233.096Y-98.644
X235.636Y-96.104
X235.636Y-98.644
X238.176Y-96.104
X238.176Y-98.644
X240.716Y-96.104
X240.716Y-98.644
X243.256Y-96.104
X243.256Y-98.644
X245.796Y-96.104
X245.796Y-98.644
X248.336Y-96.104
X248.336Y-98.644
X250.876Y-96.104
X250.876Y-98.644
X253.416Y-96.104
X253.416Y-98.644
X255.956Y-96.104
X255.956Y-98.644
X258.496Y-96.104
X258.496Y-98.644
X261.036Y-96.104
X261.036Y-98.644
X263.576Y-96.104
X263.576Y-98.644
X266.116Y-96.104
X266.116Y-98.644
T9
X136.148Y-124.638
X136.148Y-129.718
X141.228Y-124.638
X141.228Y-127.178
X141.228Y-129.718
T10
X153.518Y-105.893
X163.678Y-105.893
X163.957Y-157.861
X163.957Y-160.401
X163.957Y-162.941
T11
X157.549Y-120.955
X165.049Y-120.955
T12
X140.265Y-181.915
X174.089Y-96.656
X178.049Y-96.656
X182.009Y-96.656
X185.969Y-96.656
T13
X135.765Y-181.915
X140.265Y-176.915
X140.265Y-186.915
T8
G00X139.675Y-102.03
M15
G01X139.675Y-104.03
M16
G05
G00X141.675Y-107.73
M15
G01X143.675Y-107.73
M16
G05
G00X145.675Y-102.03
M15
G01X145.675Y-104.03
M16
G05
T0
M30
