M48
; DRILL file {KiCad (6.0.5)} date Sun Feb  2 16:15:59 2025
; FORMAT={-:-/ absolute / metric / decimal}
; #@! TF.CreationDate,2025-02-02T16:15:59-05:00
; #@! TF.GenerationSoftware,Kicad,Pcbnew,(6.0.5)
; #@! TF.FileFunction,Plated,1,2,PTH
FMAT,2
METRIC
; #@! TA.AperFunction,Plated,PTH,ViaDrill
T1C0.400
; #@! TA.AperFunction,Plated,PTH,ComponentDrill
T2C0.700
; #@! TA.AperFunction,Plated,PTH,ComponentDrill
T3C0.750
; #@! TA.AperFunction,Plated,PTH,ComponentDrill
T4C0.800
; #@! TA.AperFunction,Plated,PTH,ComponentDrill
T5C0.900
; #@! TA.AperFunction,Plated,PTH,ComponentDrill
T6C1.000
; #@! TA.AperFunction,Plated,PTH,ComponentDrill
T7C1.090
; #@! TA.AperFunction,Plated,PTH,ComponentDrill
T8C1.100
; #@! TA.AperFunction,Plated,PTH,ComponentDrill
T9C1.200
; #@! TA.AperFunction,Plated,PTH,ComponentDrill
T10C1.700
; #@! TA.AperFunction,Plated,PTH,ComponentDrill
T11C2.600
%
G90
G05
T1
X170.967Y-186.715
X176.657Y-182.804
X176.657Y-184.226
X176.733Y-191.44
X179.019Y-189.154
X181.051Y-189.306
X181.127Y-183.109
X182.423Y-196.266
X193.446Y-97.688
X193.446Y-99.67
X196.418Y-123.063
X197.663Y-97.688
X197.714Y-99.593
X198.018Y-116.611
X199.238Y-198.958
X202.133Y-108.458
X206.477Y-163.906
X208.534Y-165.735
X210.033Y-108.179
X210.323Y-145.988
X212.837Y-145.988
X213.766Y-180.797
X216.23Y-106.045
X216.433Y-159.639
X218.034Y-160.96
X220.294Y-120.853
X220.447Y-157.124
X222.25Y-137.795
X223.037Y-159.741
X225.501Y-193.954
X226.365Y-154.813
X227.432Y-114.046
X227.457Y-173.939
X227.838Y-137.693
X228.473Y-111.531
X229.616Y-160.071
X232.308Y-193.624
X234.874Y-154.889
X238.836Y-175.285
X238.862Y-174.015
X239.928Y-154.94
X240.36Y-105.486
X244.348Y-154.94
X245.516Y-192.964
X246.271Y-137.828
X247.091Y-107.823
X247.396Y-199.365
X247.574Y-177.419
X247.574Y-178.689
X248.691Y-115.367
X248.717Y-123.419
X249.58Y-138.913
X250.495Y-172.517
X251.028Y-169.139
X252.12Y-191.821
X254.305Y-141.148
X255.295Y-107.518
X255.473Y-112.776
X255.88Y-134.112
X256.743Y-152.095
X262.509Y-205.334
X262.585Y-203.022
X262.636Y-207.797
X263.55Y-112.776
X266.065Y-137.389
X266.7Y-133.858
X266.751Y-173.025
X267.843Y-167.716
X268.046Y-139.116
X272.364Y-110.947
X273.837Y-141.402
X273.939Y-205.816
X274.015Y-203.505
X274.218Y-208.483
X275.59Y-135.687
X282.88Y-203.175
X283.007Y-205.13
X285.801Y-139.217
X286.741Y-110.668
X289.763Y-127.914
X290.932Y-137.033
T2
X139.192Y-194.437
X139.725Y-210.845
X140.97Y-199.034
X140.97Y-206.654
X146.812Y-194.437
X147.269Y-141.072
X147.269Y-148.692
X147.345Y-210.845
X160.35Y-203.251
X160.35Y-210.871
X160.579Y-189.027
X160.579Y-196.647
X186.182Y-154.965
X186.182Y-162.585
X186.842Y-136.246
X186.842Y-143.866
X205.867Y-121.615
X205.867Y-129.235
X244.373Y-136.83
X244.424Y-145.669
X248.539Y-148.158
X248.539Y-155.778
X285.496Y-150.622
X285.496Y-158.242
T3
X148.763Y-201.778
X148.763Y-203.048
X148.763Y-204.318
X184.318Y-210.168
X186.318Y-210.168
T4
X152.564Y-182.143
X155.064Y-182.143
X158.663Y-136.703
X162.027Y-183.896
X163.663Y-136.703
X164.567Y-183.896
X166.583Y-195.626
X166.583Y-198.166
X166.583Y-200.706
X166.583Y-203.246
X166.583Y-205.786
X166.583Y-208.326
X166.583Y-210.866
X167.107Y-183.896
X168.061Y-191.16
X171.939Y-132.41
X173.061Y-191.16
X174.203Y-195.626
X174.203Y-198.166
X174.203Y-200.706
X174.203Y-203.246
X174.203Y-205.786
X174.203Y-208.326
X174.203Y-210.866
X174.777Y-114.797
X174.777Y-119.797
X175.439Y-132.41
X180.061Y-143.524
X180.061Y-148.424
X183.413Y-172.785
X183.413Y-177.785
X183.439Y-188.127
X183.439Y-193.127
X186.385Y-147.182
X186.385Y-149.682
X189.327Y-171.948
X189.327Y-179.568
X189.327Y-186.858
X189.327Y-194.478
X191.867Y-171.948
X191.867Y-179.568
X191.867Y-186.858
X191.867Y-194.478
X192.237Y-144.038
X192.237Y-146.578
X192.237Y-149.118
X192.237Y-151.658
X192.237Y-154.198
X192.237Y-156.738
X192.237Y-159.278
X192.872Y-112.613
X192.872Y-115.153
X192.872Y-117.693
X192.872Y-120.233
X192.872Y-122.773
X192.872Y-125.313
X192.872Y-127.853
X192.872Y-130.393
X193.218Y-200.839
X193.218Y-204.639
X193.918Y-108.864
X194.198Y-138.532
X194.407Y-171.948
X194.407Y-179.568
X194.407Y-186.858
X194.407Y-194.478
X195.834Y-210.439
X196.947Y-171.948
X196.947Y-179.568
X196.947Y-186.858
X196.947Y-194.478
X198.918Y-108.864
X199.198Y-138.532
X199.487Y-171.948
X199.487Y-179.568
X199.487Y-186.858
X199.487Y-194.478
X199.857Y-144.038
X199.857Y-146.578
X199.857Y-149.118
X199.857Y-151.658
X199.857Y-154.198
X199.857Y-156.738
X199.857Y-159.278
X200.492Y-112.613
X200.492Y-115.153
X200.492Y-117.693
X200.492Y-120.233
X200.492Y-122.773
X200.492Y-125.313
X200.492Y-127.853
X200.492Y-130.393
X202.027Y-171.948
X202.027Y-179.568
X202.027Y-186.858
X202.027Y-194.478
X204.567Y-171.948
X204.567Y-179.568
X204.567Y-186.858
X204.567Y-194.478
X204.693Y-201.117
X207.193Y-201.117
X208.534Y-210.439
X215.468Y-163.692
X215.468Y-168.692
X216.002Y-182.869
X216.002Y-187.869
X216.687Y-145.988
X216.687Y-150.988
X216.977Y-115.616
X216.977Y-118.156
X216.977Y-120.696
X216.977Y-123.236
X216.977Y-125.776
X216.977Y-128.316
X216.977Y-130.856
X218.099Y-111.531
X218.338Y-208.512
X218.338Y-211.012
X221.051Y-162.169
X221.051Y-169.789
X221.458Y-144.668
X221.458Y-152.288
X221.661Y-181.702
X221.661Y-189.322
X223.099Y-111.531
X223.591Y-162.169
X223.591Y-169.789
X223.998Y-144.668
X223.998Y-152.288
X224.201Y-181.702
X224.201Y-189.322
X224.597Y-115.616
X224.597Y-118.156
X224.597Y-120.696
X224.597Y-123.236
X224.597Y-125.776
X224.597Y-128.316
X224.597Y-130.856
X226.131Y-162.169
X226.131Y-169.789
X226.538Y-144.668
X226.538Y-152.288
X226.741Y-181.702
X226.741Y-189.322
X228.483Y-200.04
X228.483Y-207.66
X228.671Y-162.169
X228.671Y-169.789
X229.078Y-144.668
X229.078Y-152.288
X229.281Y-181.702
X229.281Y-189.322
X231.023Y-200.04
X231.023Y-207.66
X231.211Y-162.169
X231.211Y-169.789
X231.618Y-144.668
X231.618Y-152.288
X231.821Y-181.702
X231.821Y-189.322
X233.563Y-200.04
X233.563Y-207.66
X233.751Y-162.169
X233.751Y-169.789
X234.158Y-144.668
X234.158Y-152.288
X234.361Y-181.702
X234.361Y-189.322
X235.011Y-115.895
X235.011Y-118.435
X235.011Y-120.975
X235.011Y-123.515
X235.011Y-126.055
X235.011Y-128.595
X235.011Y-131.135
X236.103Y-200.04
X236.103Y-207.66
X236.291Y-162.169
X236.291Y-169.789
X236.698Y-144.668
X236.698Y-152.288
X236.901Y-181.702
X236.901Y-189.322
X237.098Y-111.354
X242.098Y-111.354
X242.631Y-115.895
X242.631Y-118.435
X242.631Y-120.975
X242.631Y-123.515
X242.631Y-126.055
X242.631Y-128.595
X242.631Y-131.135
X249.911Y-204.674
X249.911Y-208.474
X254.264Y-149.118
X254.264Y-151.658
X254.264Y-154.198
X254.264Y-156.738
X254.264Y-159.278
X254.264Y-161.818
X254.264Y-164.358
X255.61Y-180.919
X255.61Y-183.459
X255.61Y-185.999
X255.61Y-188.539
X255.61Y-191.079
X255.61Y-193.619
X255.61Y-196.159
X255.742Y-144.526
X256.301Y-175.92
X256.753Y-115.463
X256.753Y-118.003
X256.753Y-120.543
X256.753Y-123.083
X256.753Y-125.623
X256.753Y-128.163
X256.753Y-130.703
X258.42Y-110.439
X260.742Y-144.526
X261.301Y-175.92
X261.884Y-149.118
X261.884Y-151.658
X261.884Y-154.198
X261.884Y-156.738
X261.884Y-159.278
X261.884Y-161.818
X261.884Y-164.358
X263.23Y-180.919
X263.23Y-183.459
X263.23Y-185.999
X263.23Y-188.539
X263.23Y-191.079
X263.23Y-193.619
X263.23Y-196.159
X263.42Y-110.439
X264.373Y-115.463
X264.373Y-118.003
X264.373Y-120.543
X264.373Y-123.083
X264.373Y-125.623
X264.373Y-128.163
X264.373Y-130.703
X272.247Y-149.449
X272.247Y-151.989
X272.247Y-154.529
X272.247Y-157.069
X272.247Y-159.609
X272.247Y-162.149
X272.247Y-164.689
X273.979Y-144.272
X274.482Y-115.463
X274.482Y-118.003
X274.482Y-120.543
X274.482Y-123.083
X274.482Y-125.623
X274.482Y-128.163
X274.482Y-130.703
X274.66Y-180.126
X274.66Y-182.666
X274.66Y-185.206
X274.66Y-187.746
X274.66Y-190.286
X274.66Y-192.826
X274.66Y-195.366
X274.66Y-197.906
X275.808Y-176.555
X277.814Y-110.617
X278.979Y-144.272
X279.867Y-149.449
X279.867Y-151.989
X279.867Y-154.529
X279.867Y-157.069
X279.867Y-159.609
X279.867Y-162.149
X279.867Y-164.689
X280.808Y-176.555
X282.102Y-115.463
X282.102Y-118.003
X282.102Y-120.543
X282.102Y-123.083
X282.102Y-125.623
X282.102Y-128.163
X282.102Y-130.703
X282.28Y-180.126
X282.28Y-182.666
X282.28Y-185.206
X282.28Y-187.746
X282.28Y-190.286
X282.28Y-192.826
X282.28Y-195.366
X282.28Y-197.906
X282.814Y-110.617
T5
X138.608Y-143.286
X138.608Y-145.826
X215.991Y-196.153
X215.991Y-201.153
X220.991Y-198.653
T6
X154.153Y-190.043
X154.153Y-192.583
X154.153Y-195.123
X154.965Y-207.543
X154.965Y-210.083
X217.856Y-96.104
X217.856Y-98.644
X220.396Y-96.104
X220.396Y-98.644
X222.936Y-96.104
X222.936Y-98.644
X225.476Y-96.104
X225.476Y-98.644
X228.016Y-96.104
X228.016Y-98.644
X230.556Y-96.104
X230.556Y-98.644
X233.096Y-96.104
X233.096Y-98.644
X235.636Y-96.104
X235.636Y-98.644
X238.176Y-96.104
X238.176Y-98.644
X240.716Y-96.104
X240.716Y-98.644
X243.256Y-96.104
X243.256Y-98.644
X245.796Y-96.104
X245.796Y-98.644
X248.336Y-96.104
X248.336Y-98.644
X250.876Y-96.104
X250.876Y-98.644
X253.416Y-96.104
X253.416Y-98.644
X255.956Y-96.104
X255.956Y-98.644
X258.496Y-96.104
X258.496Y-98.644
X261.036Y-96.104
X261.036Y-98.644
X263.576Y-96.104
X263.576Y-98.644
X266.116Y-96.104
X266.116Y-98.644
T7
X136.148Y-124.638
X136.148Y-129.718
X141.228Y-124.638
X141.228Y-127.178
X141.228Y-129.718
T8
X153.518Y-105.893
X163.678Y-105.893
X163.957Y-157.861
X163.957Y-160.401
X163.957Y-162.941
T9
X157.549Y-120.955
X165.049Y-120.955
T10
X140.265Y-181.915
X174.089Y-96.656
X178.049Y-96.656
X182.009Y-96.656
X185.969Y-96.656
T11
X135.765Y-181.915
X140.265Y-176.915
X140.265Y-186.915
T6
G00X139.675Y-102.03
M15
G01X139.675Y-104.03
M16
G05
G00X141.675Y-107.73
M15
G01X143.675Y-107.73
M16
G05
G00X145.675Y-102.03
M15
G01X145.675Y-104.03
M16
G05
T0
M30
