%FSLAX45Y45*%
G04 Gerber Fmt 4.5, Leading zero omitted, Abs format (unit mm)*
G04 Created by KiCad (PCBNEW (6.0.5)) date 2025-02-02 16:15:58*
%MOMM*%
%LPD*%
G01*
G04 APERTURE LIST*
%TA.AperFunction,Profile*%
%ADD10C,0.050000*%
%TD*%
%ADD11C,0.200000*%
%ADD12C,0.320000*%
G04 APERTURE END LIST*
D10*
X29273500Y-8834120D02*
X13162280Y-8834120D01*
X13162280Y-8834120D02*
X13162280Y-21704300D01*
X13162280Y-21704300D02*
X29273500Y-21704300D01*
X29273500Y-21704300D02*
X29273500Y-8834120D01*
D11*
X21749080Y-19765340D02*
X21949080Y-19965340D01*
X21949080Y-19765340D02*
X21749080Y-19965340D01*
D12*
X13733760Y-9220200D02*
G75*
G03*
X13733760Y-9220200I-160000J0D01*
G01*
X13779480Y-16832580D02*
G75*
G03*
X13779480Y-16832580I-160000J0D01*
G01*
X28994080Y-21325840D02*
G75*
G03*
X28994080Y-21325840I-160000J0D01*
G01*
X28999160Y-9232900D02*
G75*
G03*
X28999160Y-9232900I-160000J0D01*
G01*
D11*
X13417399Y-22017276D02*
X13417399Y-21817276D01*
X13465018Y-21817276D01*
X13493589Y-21826800D01*
X13512637Y-21845848D01*
X13522161Y-21864895D01*
X13531685Y-21902990D01*
X13531685Y-21931562D01*
X13522161Y-21969657D01*
X13512637Y-21988705D01*
X13493589Y-22007752D01*
X13465018Y-22017276D01*
X13417399Y-22017276D01*
X13617399Y-22017276D02*
X13617399Y-21883943D01*
X13617399Y-21922038D02*
X13626923Y-21902990D01*
X13636447Y-21893467D01*
X13655494Y-21883943D01*
X13674542Y-21883943D01*
X13741208Y-22017276D02*
X13741208Y-21883943D01*
X13741208Y-21817276D02*
X13731685Y-21826800D01*
X13741208Y-21836324D01*
X13750732Y-21826800D01*
X13741208Y-21817276D01*
X13741208Y-21836324D01*
X13865018Y-22017276D02*
X13845970Y-22007752D01*
X13836447Y-21988705D01*
X13836447Y-21817276D01*
X13969780Y-22017276D02*
X13950732Y-22007752D01*
X13941208Y-21988705D01*
X13941208Y-21817276D01*
X14198351Y-22017276D02*
X14198351Y-21817276D01*
X14265018Y-21960133D01*
X14331685Y-21817276D01*
X14331685Y-22017276D01*
X14512637Y-22017276D02*
X14512637Y-21912514D01*
X14503113Y-21893467D01*
X14484066Y-21883943D01*
X14445970Y-21883943D01*
X14426923Y-21893467D01*
X14512637Y-22007752D02*
X14493589Y-22017276D01*
X14445970Y-22017276D01*
X14426923Y-22007752D01*
X14417399Y-21988705D01*
X14417399Y-21969657D01*
X14426923Y-21950610D01*
X14445970Y-21941086D01*
X14493589Y-21941086D01*
X14512637Y-21931562D01*
X14607875Y-21883943D02*
X14607875Y-22083943D01*
X14607875Y-21893467D02*
X14626923Y-21883943D01*
X14665018Y-21883943D01*
X14684066Y-21893467D01*
X14693589Y-21902990D01*
X14703113Y-21922038D01*
X14703113Y-21979181D01*
X14693589Y-21998229D01*
X14684066Y-22007752D01*
X14665018Y-22017276D01*
X14626923Y-22017276D01*
X14607875Y-22007752D01*
X14788828Y-21998229D02*
X14798351Y-22007752D01*
X14788828Y-22017276D01*
X14779304Y-22007752D01*
X14788828Y-21998229D01*
X14788828Y-22017276D01*
X14788828Y-21893467D02*
X14798351Y-21902990D01*
X14788828Y-21912514D01*
X14779304Y-21902990D01*
X14788828Y-21893467D01*
X14788828Y-21912514D01*
X12959780Y-22246800D02*
X13159780Y-22446800D01*
X13159780Y-22246800D02*
X12959780Y-22446800D01*
X13407875Y-22256324D02*
X13417399Y-22246800D01*
X13436447Y-22237276D01*
X13484066Y-22237276D01*
X13503113Y-22246800D01*
X13512637Y-22256324D01*
X13522161Y-22275371D01*
X13522161Y-22294419D01*
X13512637Y-22322990D01*
X13398351Y-22437276D01*
X13522161Y-22437276D01*
X13607875Y-22418228D02*
X13617399Y-22427752D01*
X13607875Y-22437276D01*
X13598351Y-22427752D01*
X13607875Y-22418228D01*
X13607875Y-22437276D01*
X13741208Y-22237276D02*
X13760256Y-22237276D01*
X13779304Y-22246800D01*
X13788828Y-22256324D01*
X13798351Y-22275371D01*
X13807875Y-22313467D01*
X13807875Y-22361086D01*
X13798351Y-22399181D01*
X13788828Y-22418228D01*
X13779304Y-22427752D01*
X13760256Y-22437276D01*
X13741208Y-22437276D01*
X13722161Y-22427752D01*
X13712637Y-22418228D01*
X13703113Y-22399181D01*
X13693589Y-22361086D01*
X13693589Y-22313467D01*
X13703113Y-22275371D01*
X13712637Y-22256324D01*
X13722161Y-22246800D01*
X13741208Y-22237276D01*
X13931685Y-22237276D02*
X13950732Y-22237276D01*
X13969780Y-22246800D01*
X13979304Y-22256324D01*
X13988828Y-22275371D01*
X13998351Y-22313467D01*
X13998351Y-22361086D01*
X13988828Y-22399181D01*
X13979304Y-22418228D01*
X13969780Y-22427752D01*
X13950732Y-22437276D01*
X13931685Y-22437276D01*
X13912637Y-22427752D01*
X13903113Y-22418228D01*
X13893589Y-22399181D01*
X13884066Y-22361086D01*
X13884066Y-22313467D01*
X13893589Y-22275371D01*
X13903113Y-22256324D01*
X13912637Y-22246800D01*
X13931685Y-22237276D01*
X14122161Y-22237276D02*
X14141208Y-22237276D01*
X14160256Y-22246800D01*
X14169780Y-22256324D01*
X14179304Y-22275371D01*
X14188828Y-22313467D01*
X14188828Y-22361086D01*
X14179304Y-22399181D01*
X14169780Y-22418228D01*
X14160256Y-22427752D01*
X14141208Y-22437276D01*
X14122161Y-22437276D01*
X14103113Y-22427752D01*
X14093589Y-22418228D01*
X14084066Y-22399181D01*
X14074542Y-22361086D01*
X14074542Y-22313467D01*
X14084066Y-22275371D01*
X14093589Y-22256324D01*
X14103113Y-22246800D01*
X14122161Y-22237276D01*
X14274542Y-22437276D02*
X14274542Y-22303943D01*
X14274542Y-22322990D02*
X14284066Y-22313467D01*
X14303113Y-22303943D01*
X14331685Y-22303943D01*
X14350732Y-22313467D01*
X14360256Y-22332514D01*
X14360256Y-22437276D01*
X14360256Y-22332514D02*
X14369780Y-22313467D01*
X14388828Y-22303943D01*
X14417399Y-22303943D01*
X14436447Y-22313467D01*
X14445970Y-22332514D01*
X14445970Y-22437276D01*
X14541208Y-22437276D02*
X14541208Y-22303943D01*
X14541208Y-22322990D02*
X14550732Y-22313467D01*
X14569780Y-22303943D01*
X14598351Y-22303943D01*
X14617399Y-22313467D01*
X14626923Y-22332514D01*
X14626923Y-22437276D01*
X14626923Y-22332514D02*
X14636447Y-22313467D01*
X14655494Y-22303943D01*
X14684066Y-22303943D01*
X14703113Y-22313467D01*
X14712637Y-22332514D01*
X14712637Y-22437276D01*
X15103113Y-22227752D02*
X14931685Y-22484895D01*
X15360256Y-22237276D02*
X15379304Y-22237276D01*
X15398351Y-22246800D01*
X15407875Y-22256324D01*
X15417399Y-22275371D01*
X15426923Y-22313467D01*
X15426923Y-22361086D01*
X15417399Y-22399181D01*
X15407875Y-22418228D01*
X15398351Y-22427752D01*
X15379304Y-22437276D01*
X15360256Y-22437276D01*
X15341208Y-22427752D01*
X15331685Y-22418228D01*
X15322161Y-22399181D01*
X15312637Y-22361086D01*
X15312637Y-22313467D01*
X15322161Y-22275371D01*
X15331685Y-22256324D01*
X15341208Y-22246800D01*
X15360256Y-22237276D01*
X15512637Y-22418228D02*
X15522161Y-22427752D01*
X15512637Y-22437276D01*
X15503113Y-22427752D01*
X15512637Y-22418228D01*
X15512637Y-22437276D01*
X15645970Y-22237276D02*
X15665018Y-22237276D01*
X15684066Y-22246800D01*
X15693589Y-22256324D01*
X15703113Y-22275371D01*
X15712637Y-22313467D01*
X15712637Y-22361086D01*
X15703113Y-22399181D01*
X15693589Y-22418228D01*
X15684066Y-22427752D01*
X15665018Y-22437276D01*
X15645970Y-22437276D01*
X15626923Y-22427752D01*
X15617399Y-22418228D01*
X15607875Y-22399181D01*
X15598351Y-22361086D01*
X15598351Y-22313467D01*
X15607875Y-22275371D01*
X15617399Y-22256324D01*
X15626923Y-22246800D01*
X15645970Y-22237276D01*
X15779304Y-22237276D02*
X15912637Y-22237276D01*
X15826923Y-22437276D01*
X16017399Y-22322990D02*
X15998351Y-22313467D01*
X15988828Y-22303943D01*
X15979304Y-22284895D01*
X15979304Y-22275371D01*
X15988828Y-22256324D01*
X15998351Y-22246800D01*
X16017399Y-22237276D01*
X16055494Y-22237276D01*
X16074542Y-22246800D01*
X16084066Y-22256324D01*
X16093589Y-22275371D01*
X16093589Y-22284895D01*
X16084066Y-22303943D01*
X16074542Y-22313467D01*
X16055494Y-22322990D01*
X16017399Y-22322990D01*
X15998351Y-22332514D01*
X15988828Y-22342038D01*
X15979304Y-22361086D01*
X15979304Y-22399181D01*
X15988828Y-22418228D01*
X15998351Y-22427752D01*
X16017399Y-22437276D01*
X16055494Y-22437276D01*
X16074542Y-22427752D01*
X16084066Y-22418228D01*
X16093589Y-22399181D01*
X16093589Y-22361086D01*
X16084066Y-22342038D01*
X16074542Y-22332514D01*
X16055494Y-22322990D01*
X16160256Y-22237276D02*
X16293589Y-22237276D01*
X16207875Y-22437276D01*
X16360256Y-22237276D02*
X16360256Y-22275371D01*
X16436447Y-22237276D02*
X16436447Y-22275371D01*
X16731685Y-22513467D02*
X16722161Y-22503943D01*
X16703113Y-22475371D01*
X16693589Y-22456324D01*
X16684066Y-22427752D01*
X16674542Y-22380133D01*
X16674542Y-22342038D01*
X16684066Y-22294419D01*
X16693589Y-22265848D01*
X16703113Y-22246800D01*
X16722161Y-22218229D01*
X16731685Y-22208705D01*
X16912637Y-22437276D02*
X16798351Y-22437276D01*
X16855494Y-22437276D02*
X16855494Y-22237276D01*
X16836447Y-22265848D01*
X16817399Y-22284895D01*
X16798351Y-22294419D01*
X17150732Y-22437276D02*
X17150732Y-22237276D01*
X17236447Y-22437276D02*
X17236447Y-22332514D01*
X17226923Y-22313467D01*
X17207875Y-22303943D01*
X17179304Y-22303943D01*
X17160256Y-22313467D01*
X17150732Y-22322990D01*
X17360256Y-22437276D02*
X17341209Y-22427752D01*
X17331685Y-22418228D01*
X17322161Y-22399181D01*
X17322161Y-22342038D01*
X17331685Y-22322990D01*
X17341209Y-22313467D01*
X17360256Y-22303943D01*
X17388828Y-22303943D01*
X17407875Y-22313467D01*
X17417399Y-22322990D01*
X17426923Y-22342038D01*
X17426923Y-22399181D01*
X17417399Y-22418228D01*
X17407875Y-22427752D01*
X17388828Y-22437276D01*
X17360256Y-22437276D01*
X17541209Y-22437276D02*
X17522161Y-22427752D01*
X17512637Y-22408705D01*
X17512637Y-22237276D01*
X17693590Y-22427752D02*
X17674542Y-22437276D01*
X17636447Y-22437276D01*
X17617399Y-22427752D01*
X17607875Y-22408705D01*
X17607875Y-22332514D01*
X17617399Y-22313467D01*
X17636447Y-22303943D01*
X17674542Y-22303943D01*
X17693590Y-22313467D01*
X17703113Y-22332514D01*
X17703113Y-22351562D01*
X17607875Y-22370609D01*
X17769780Y-22513467D02*
X17779304Y-22503943D01*
X17798351Y-22475371D01*
X17807875Y-22456324D01*
X17817399Y-22427752D01*
X17826923Y-22380133D01*
X17826923Y-22342038D01*
X17817399Y-22294419D01*
X17807875Y-22265848D01*
X17798351Y-22246800D01*
X17779304Y-22218229D01*
X17769780Y-22208705D01*
X18131685Y-22513467D02*
X18122161Y-22503943D01*
X18103113Y-22475371D01*
X18093590Y-22456324D01*
X18084066Y-22427752D01*
X18074542Y-22380133D01*
X18074542Y-22342038D01*
X18084066Y-22294419D01*
X18093590Y-22265848D01*
X18103113Y-22246800D01*
X18122161Y-22218229D01*
X18131685Y-22208705D01*
X18207875Y-22303943D02*
X18207875Y-22437276D01*
X18207875Y-22322990D02*
X18217399Y-22313467D01*
X18236447Y-22303943D01*
X18265018Y-22303943D01*
X18284066Y-22313467D01*
X18293590Y-22332514D01*
X18293590Y-22437276D01*
X18417399Y-22437276D02*
X18398351Y-22427752D01*
X18388828Y-22418228D01*
X18379304Y-22399181D01*
X18379304Y-22342038D01*
X18388828Y-22322990D01*
X18398351Y-22313467D01*
X18417399Y-22303943D01*
X18445970Y-22303943D01*
X18465018Y-22313467D01*
X18474542Y-22322990D01*
X18484066Y-22342038D01*
X18484066Y-22399181D01*
X18474542Y-22418228D01*
X18465018Y-22427752D01*
X18445970Y-22437276D01*
X18417399Y-22437276D01*
X18541209Y-22303943D02*
X18617399Y-22303943D01*
X18569780Y-22237276D02*
X18569780Y-22408705D01*
X18579304Y-22427752D01*
X18598351Y-22437276D01*
X18617399Y-22437276D01*
X18836447Y-22303943D02*
X18836447Y-22503943D01*
X18836447Y-22313467D02*
X18855494Y-22303943D01*
X18893590Y-22303943D01*
X18912637Y-22313467D01*
X18922161Y-22322990D01*
X18931685Y-22342038D01*
X18931685Y-22399181D01*
X18922161Y-22418228D01*
X18912637Y-22427752D01*
X18893590Y-22437276D01*
X18855494Y-22437276D01*
X18836447Y-22427752D01*
X19045970Y-22437276D02*
X19026923Y-22427752D01*
X19017399Y-22408705D01*
X19017399Y-22237276D01*
X19207875Y-22437276D02*
X19207875Y-22332514D01*
X19198351Y-22313467D01*
X19179304Y-22303943D01*
X19141209Y-22303943D01*
X19122161Y-22313467D01*
X19207875Y-22427752D02*
X19188828Y-22437276D01*
X19141209Y-22437276D01*
X19122161Y-22427752D01*
X19112637Y-22408705D01*
X19112637Y-22389657D01*
X19122161Y-22370609D01*
X19141209Y-22361086D01*
X19188828Y-22361086D01*
X19207875Y-22351562D01*
X19274542Y-22303943D02*
X19350732Y-22303943D01*
X19303113Y-22237276D02*
X19303113Y-22408705D01*
X19312637Y-22427752D01*
X19331685Y-22437276D01*
X19350732Y-22437276D01*
X19493590Y-22427752D02*
X19474542Y-22437276D01*
X19436447Y-22437276D01*
X19417399Y-22427752D01*
X19407875Y-22408705D01*
X19407875Y-22332514D01*
X19417399Y-22313467D01*
X19436447Y-22303943D01*
X19474542Y-22303943D01*
X19493590Y-22313467D01*
X19503113Y-22332514D01*
X19503113Y-22351562D01*
X19407875Y-22370609D01*
X19674542Y-22437276D02*
X19674542Y-22237276D01*
X19674542Y-22427752D02*
X19655494Y-22437276D01*
X19617399Y-22437276D01*
X19598351Y-22427752D01*
X19588828Y-22418228D01*
X19579304Y-22399181D01*
X19579304Y-22342038D01*
X19588828Y-22322990D01*
X19598351Y-22313467D01*
X19617399Y-22303943D01*
X19655494Y-22303943D01*
X19674542Y-22313467D01*
X19750732Y-22513467D02*
X19760256Y-22503943D01*
X19779304Y-22475371D01*
X19788828Y-22456324D01*
X19798351Y-22427752D01*
X19807875Y-22380133D01*
X19807875Y-22342038D01*
X19798351Y-22294419D01*
X19788828Y-22265848D01*
X19779304Y-22246800D01*
X19760256Y-22218229D01*
X19750732Y-22208705D01*
X13159780Y-22666800D02*
G75*
G03*
X13159780Y-22666800I-100000J0D01*
G01*
X13398351Y-22557276D02*
X13522161Y-22557276D01*
X13455494Y-22633467D01*
X13484066Y-22633467D01*
X13503113Y-22642990D01*
X13512637Y-22652514D01*
X13522161Y-22671562D01*
X13522161Y-22719181D01*
X13512637Y-22738228D01*
X13503113Y-22747752D01*
X13484066Y-22757276D01*
X13426923Y-22757276D01*
X13407875Y-22747752D01*
X13398351Y-22738228D01*
X13607875Y-22738228D02*
X13617399Y-22747752D01*
X13607875Y-22757276D01*
X13598351Y-22747752D01*
X13607875Y-22738228D01*
X13607875Y-22757276D01*
X13693589Y-22576324D02*
X13703113Y-22566800D01*
X13722161Y-22557276D01*
X13769780Y-22557276D01*
X13788828Y-22566800D01*
X13798351Y-22576324D01*
X13807875Y-22595371D01*
X13807875Y-22614419D01*
X13798351Y-22642990D01*
X13684066Y-22757276D01*
X13807875Y-22757276D01*
X13931685Y-22557276D02*
X13950732Y-22557276D01*
X13969780Y-22566800D01*
X13979304Y-22576324D01*
X13988828Y-22595371D01*
X13998351Y-22633467D01*
X13998351Y-22681086D01*
X13988828Y-22719181D01*
X13979304Y-22738228D01*
X13969780Y-22747752D01*
X13950732Y-22757276D01*
X13931685Y-22757276D01*
X13912637Y-22747752D01*
X13903113Y-22738228D01*
X13893589Y-22719181D01*
X13884066Y-22681086D01*
X13884066Y-22633467D01*
X13893589Y-22595371D01*
X13903113Y-22576324D01*
X13912637Y-22566800D01*
X13931685Y-22557276D01*
X14122161Y-22557276D02*
X14141208Y-22557276D01*
X14160256Y-22566800D01*
X14169780Y-22576324D01*
X14179304Y-22595371D01*
X14188828Y-22633467D01*
X14188828Y-22681086D01*
X14179304Y-22719181D01*
X14169780Y-22738228D01*
X14160256Y-22747752D01*
X14141208Y-22757276D01*
X14122161Y-22757276D01*
X14103113Y-22747752D01*
X14093589Y-22738228D01*
X14084066Y-22719181D01*
X14074542Y-22681086D01*
X14074542Y-22633467D01*
X14084066Y-22595371D01*
X14093589Y-22576324D01*
X14103113Y-22566800D01*
X14122161Y-22557276D01*
X14274542Y-22757276D02*
X14274542Y-22623943D01*
X14274542Y-22642990D02*
X14284066Y-22633467D01*
X14303113Y-22623943D01*
X14331685Y-22623943D01*
X14350732Y-22633467D01*
X14360256Y-22652514D01*
X14360256Y-22757276D01*
X14360256Y-22652514D02*
X14369780Y-22633467D01*
X14388828Y-22623943D01*
X14417399Y-22623943D01*
X14436447Y-22633467D01*
X14445970Y-22652514D01*
X14445970Y-22757276D01*
X14541208Y-22757276D02*
X14541208Y-22623943D01*
X14541208Y-22642990D02*
X14550732Y-22633467D01*
X14569780Y-22623943D01*
X14598351Y-22623943D01*
X14617399Y-22633467D01*
X14626923Y-22652514D01*
X14626923Y-22757276D01*
X14626923Y-22652514D02*
X14636447Y-22633467D01*
X14655494Y-22623943D01*
X14684066Y-22623943D01*
X14703113Y-22633467D01*
X14712637Y-22652514D01*
X14712637Y-22757276D01*
X15103113Y-22547752D02*
X14931685Y-22804895D01*
X15360256Y-22557276D02*
X15379304Y-22557276D01*
X15398351Y-22566800D01*
X15407875Y-22576324D01*
X15417399Y-22595371D01*
X15426923Y-22633467D01*
X15426923Y-22681086D01*
X15417399Y-22719181D01*
X15407875Y-22738228D01*
X15398351Y-22747752D01*
X15379304Y-22757276D01*
X15360256Y-22757276D01*
X15341208Y-22747752D01*
X15331685Y-22738228D01*
X15322161Y-22719181D01*
X15312637Y-22681086D01*
X15312637Y-22633467D01*
X15322161Y-22595371D01*
X15331685Y-22576324D01*
X15341208Y-22566800D01*
X15360256Y-22557276D01*
X15512637Y-22738228D02*
X15522161Y-22747752D01*
X15512637Y-22757276D01*
X15503113Y-22747752D01*
X15512637Y-22738228D01*
X15512637Y-22757276D01*
X15712637Y-22757276D02*
X15598351Y-22757276D01*
X15655494Y-22757276D02*
X15655494Y-22557276D01*
X15636447Y-22585848D01*
X15617399Y-22604895D01*
X15598351Y-22614419D01*
X15788828Y-22576324D02*
X15798351Y-22566800D01*
X15817399Y-22557276D01*
X15865018Y-22557276D01*
X15884066Y-22566800D01*
X15893589Y-22576324D01*
X15903113Y-22595371D01*
X15903113Y-22614419D01*
X15893589Y-22642990D01*
X15779304Y-22757276D01*
X15903113Y-22757276D01*
X16074542Y-22557276D02*
X16036447Y-22557276D01*
X16017399Y-22566800D01*
X16007875Y-22576324D01*
X15988828Y-22604895D01*
X15979304Y-22642990D01*
X15979304Y-22719181D01*
X15988828Y-22738228D01*
X15998351Y-22747752D01*
X16017399Y-22757276D01*
X16055494Y-22757276D01*
X16074542Y-22747752D01*
X16084066Y-22738228D01*
X16093589Y-22719181D01*
X16093589Y-22671562D01*
X16084066Y-22652514D01*
X16074542Y-22642990D01*
X16055494Y-22633467D01*
X16017399Y-22633467D01*
X15998351Y-22642990D01*
X15988828Y-22652514D01*
X15979304Y-22671562D01*
X16217399Y-22557276D02*
X16236447Y-22557276D01*
X16255494Y-22566800D01*
X16265018Y-22576324D01*
X16274542Y-22595371D01*
X16284066Y-22633467D01*
X16284066Y-22681086D01*
X16274542Y-22719181D01*
X16265018Y-22738228D01*
X16255494Y-22747752D01*
X16236447Y-22757276D01*
X16217399Y-22757276D01*
X16198351Y-22747752D01*
X16188828Y-22738228D01*
X16179304Y-22719181D01*
X16169780Y-22681086D01*
X16169780Y-22633467D01*
X16179304Y-22595371D01*
X16188828Y-22576324D01*
X16198351Y-22566800D01*
X16217399Y-22557276D01*
X16360256Y-22557276D02*
X16360256Y-22595371D01*
X16436447Y-22557276D02*
X16436447Y-22595371D01*
X16731685Y-22833467D02*
X16722161Y-22823943D01*
X16703113Y-22795371D01*
X16693589Y-22776324D01*
X16684066Y-22747752D01*
X16674542Y-22700133D01*
X16674542Y-22662038D01*
X16684066Y-22614419D01*
X16693589Y-22585848D01*
X16703113Y-22566800D01*
X16722161Y-22538228D01*
X16731685Y-22528705D01*
X16893590Y-22623943D02*
X16893590Y-22757276D01*
X16845970Y-22547752D02*
X16798351Y-22690609D01*
X16922161Y-22690609D01*
X17150732Y-22757276D02*
X17150732Y-22557276D01*
X17236447Y-22757276D02*
X17236447Y-22652514D01*
X17226923Y-22633467D01*
X17207875Y-22623943D01*
X17179304Y-22623943D01*
X17160256Y-22633467D01*
X17150732Y-22642990D01*
X17360256Y-22757276D02*
X17341209Y-22747752D01*
X17331685Y-22738228D01*
X17322161Y-22719181D01*
X17322161Y-22662038D01*
X17331685Y-22642990D01*
X17341209Y-22633467D01*
X17360256Y-22623943D01*
X17388828Y-22623943D01*
X17407875Y-22633467D01*
X17417399Y-22642990D01*
X17426923Y-22662038D01*
X17426923Y-22719181D01*
X17417399Y-22738228D01*
X17407875Y-22747752D01*
X17388828Y-22757276D01*
X17360256Y-22757276D01*
X17541209Y-22757276D02*
X17522161Y-22747752D01*
X17512637Y-22728705D01*
X17512637Y-22557276D01*
X17693590Y-22747752D02*
X17674542Y-22757276D01*
X17636447Y-22757276D01*
X17617399Y-22747752D01*
X17607875Y-22728705D01*
X17607875Y-22652514D01*
X17617399Y-22633467D01*
X17636447Y-22623943D01*
X17674542Y-22623943D01*
X17693590Y-22633467D01*
X17703113Y-22652514D01*
X17703113Y-22671562D01*
X17607875Y-22690609D01*
X17779304Y-22747752D02*
X17798351Y-22757276D01*
X17836447Y-22757276D01*
X17855494Y-22747752D01*
X17865018Y-22728705D01*
X17865018Y-22719181D01*
X17855494Y-22700133D01*
X17836447Y-22690609D01*
X17807875Y-22690609D01*
X17788828Y-22681086D01*
X17779304Y-22662038D01*
X17779304Y-22652514D01*
X17788828Y-22633467D01*
X17807875Y-22623943D01*
X17836447Y-22623943D01*
X17855494Y-22633467D01*
X17931685Y-22833467D02*
X17941209Y-22823943D01*
X17960256Y-22795371D01*
X17969780Y-22776324D01*
X17979304Y-22747752D01*
X17988828Y-22700133D01*
X17988828Y-22662038D01*
X17979304Y-22614419D01*
X17969780Y-22585848D01*
X17960256Y-22566800D01*
X17941209Y-22538228D01*
X17931685Y-22528705D01*
X18293590Y-22833467D02*
X18284066Y-22823943D01*
X18265018Y-22795371D01*
X18255494Y-22776324D01*
X18245970Y-22747752D01*
X18236447Y-22700133D01*
X18236447Y-22662038D01*
X18245970Y-22614419D01*
X18255494Y-22585848D01*
X18265018Y-22566800D01*
X18284066Y-22538228D01*
X18293590Y-22528705D01*
X18369780Y-22623943D02*
X18369780Y-22757276D01*
X18369780Y-22642990D02*
X18379304Y-22633467D01*
X18398351Y-22623943D01*
X18426923Y-22623943D01*
X18445970Y-22633467D01*
X18455494Y-22652514D01*
X18455494Y-22757276D01*
X18579304Y-22757276D02*
X18560256Y-22747752D01*
X18550732Y-22738228D01*
X18541209Y-22719181D01*
X18541209Y-22662038D01*
X18550732Y-22642990D01*
X18560256Y-22633467D01*
X18579304Y-22623943D01*
X18607875Y-22623943D01*
X18626923Y-22633467D01*
X18636447Y-22642990D01*
X18645970Y-22662038D01*
X18645970Y-22719181D01*
X18636447Y-22738228D01*
X18626923Y-22747752D01*
X18607875Y-22757276D01*
X18579304Y-22757276D01*
X18703113Y-22623943D02*
X18779304Y-22623943D01*
X18731685Y-22557276D02*
X18731685Y-22728705D01*
X18741209Y-22747752D01*
X18760256Y-22757276D01*
X18779304Y-22757276D01*
X18998351Y-22623943D02*
X18998351Y-22823943D01*
X18998351Y-22633467D02*
X19017399Y-22623943D01*
X19055494Y-22623943D01*
X19074542Y-22633467D01*
X19084066Y-22642990D01*
X19093590Y-22662038D01*
X19093590Y-22719181D01*
X19084066Y-22738228D01*
X19074542Y-22747752D01*
X19055494Y-22757276D01*
X19017399Y-22757276D01*
X18998351Y-22747752D01*
X19207875Y-22757276D02*
X19188828Y-22747752D01*
X19179304Y-22728705D01*
X19179304Y-22557276D01*
X19369780Y-22757276D02*
X19369780Y-22652514D01*
X19360256Y-22633467D01*
X19341209Y-22623943D01*
X19303113Y-22623943D01*
X19284066Y-22633467D01*
X19369780Y-22747752D02*
X19350732Y-22757276D01*
X19303113Y-22757276D01*
X19284066Y-22747752D01*
X19274542Y-22728705D01*
X19274542Y-22709657D01*
X19284066Y-22690609D01*
X19303113Y-22681086D01*
X19350732Y-22681086D01*
X19369780Y-22671562D01*
X19436447Y-22623943D02*
X19512637Y-22623943D01*
X19465018Y-22557276D02*
X19465018Y-22728705D01*
X19474542Y-22747752D01*
X19493590Y-22757276D01*
X19512637Y-22757276D01*
X19655494Y-22747752D02*
X19636447Y-22757276D01*
X19598351Y-22757276D01*
X19579304Y-22747752D01*
X19569780Y-22728705D01*
X19569780Y-22652514D01*
X19579304Y-22633467D01*
X19598351Y-22623943D01*
X19636447Y-22623943D01*
X19655494Y-22633467D01*
X19665018Y-22652514D01*
X19665018Y-22671562D01*
X19569780Y-22690609D01*
X19836447Y-22757276D02*
X19836447Y-22557276D01*
X19836447Y-22747752D02*
X19817399Y-22757276D01*
X19779304Y-22757276D01*
X19760256Y-22747752D01*
X19750732Y-22738228D01*
X19741209Y-22719181D01*
X19741209Y-22662038D01*
X19750732Y-22642990D01*
X19760256Y-22633467D01*
X19779304Y-22623943D01*
X19817399Y-22623943D01*
X19836447Y-22633467D01*
X19912637Y-22833467D02*
X19922161Y-22823943D01*
X19941209Y-22795371D01*
X19950732Y-22776324D01*
X19960256Y-22747752D01*
X19969780Y-22700133D01*
X19969780Y-22662038D01*
X19960256Y-22614419D01*
X19950732Y-22585848D01*
X19941209Y-22566800D01*
X19922161Y-22538228D01*
X19912637Y-22528705D01*
M02*
