%FSLAX45Y45*%
G04 Gerber Fmt 4.5, Leading zero omitted, Abs format (unit mm)*
G04 Created by KiCad (PCBNEW (6.0.5)) date 2025-02-02 16:15:58*
%MOMM*%
%LPD*%
G01*
G04 APERTURE LIST*
%TA.AperFunction,Profile*%
%ADD10C,0.050000*%
%TD*%
%ADD11C,0.200000*%
%ADD12C,0.040000*%
%ADD13C,0.070000*%
%ADD14C,0.075000*%
%ADD15C,0.080000*%
%ADD16C,0.090000*%
%ADD17C,0.100000*%
%ADD18C,0.109000*%
%ADD19C,0.110000*%
%ADD20C,0.120000*%
%ADD21C,0.170000*%
%ADD22C,0.260000*%
G04 APERTURE END LIST*
D10*
X29273500Y-8834120D02*
X13162280Y-8834120D01*
X13162280Y-8834120D02*
X13162280Y-21704300D01*
X13162280Y-21704300D02*
X29273500Y-21704300D01*
X29273500Y-21704300D02*
X29273500Y-8834120D01*
D11*
D12*
X17076740Y-18651540D02*
X17116740Y-18691540D01*
X17116740Y-18651540D02*
X17076740Y-18691540D01*
X17645700Y-18260380D02*
X17685700Y-18300380D01*
X17685700Y-18260380D02*
X17645700Y-18300380D01*
X17645700Y-18402620D02*
X17685700Y-18442620D01*
X17685700Y-18402620D02*
X17645700Y-18442620D01*
X17653320Y-19123980D02*
X17693320Y-19163980D01*
X17693320Y-19123980D02*
X17653320Y-19163980D01*
X17881920Y-18895380D02*
X17921920Y-18935380D01*
X17921920Y-18895380D02*
X17881920Y-18935380D01*
X18085120Y-18910620D02*
X18125120Y-18950620D01*
X18125120Y-18910620D02*
X18085120Y-18950620D01*
X18092740Y-18290860D02*
X18132740Y-18330860D01*
X18132740Y-18290860D02*
X18092740Y-18330860D01*
X18222280Y-19606580D02*
X18262280Y-19646580D01*
X18262280Y-19606580D02*
X18222280Y-19646580D01*
X19324640Y-9748840D02*
X19364640Y-9788840D01*
X19364640Y-9748840D02*
X19324640Y-9788840D01*
X19324640Y-9946960D02*
X19364640Y-9986960D01*
X19364640Y-9946960D02*
X19324640Y-9986960D01*
X19621820Y-12286300D02*
X19661820Y-12326300D01*
X19661820Y-12286300D02*
X19621820Y-12326300D01*
X19746280Y-9748840D02*
X19786280Y-9788840D01*
X19786280Y-9748840D02*
X19746280Y-9788840D01*
X19751360Y-9939340D02*
X19791360Y-9979340D01*
X19791360Y-9939340D02*
X19751360Y-9979340D01*
X19781840Y-11641140D02*
X19821840Y-11681140D01*
X19821840Y-11641140D02*
X19781840Y-11681140D01*
X19903760Y-19875820D02*
X19943760Y-19915820D01*
X19943760Y-19875820D02*
X19903760Y-19915820D01*
X20193320Y-10825800D02*
X20233320Y-10865800D01*
X20233320Y-10825800D02*
X20193320Y-10865800D01*
X20627660Y-16370620D02*
X20667660Y-16410620D01*
X20667660Y-16370620D02*
X20627660Y-16410620D01*
X20833400Y-16553500D02*
X20873400Y-16593500D01*
X20873400Y-16553500D02*
X20833400Y-16593500D01*
X20983260Y-10797860D02*
X21023260Y-10837860D01*
X21023260Y-10797860D02*
X20983260Y-10837860D01*
X21012280Y-14578840D02*
X21052280Y-14618840D01*
X21052280Y-14578840D02*
X21012280Y-14618840D01*
X21263740Y-14578840D02*
X21303740Y-14618840D01*
X21303740Y-14578840D02*
X21263740Y-14618840D01*
X21356640Y-18059720D02*
X21396640Y-18099720D01*
X21396640Y-18059720D02*
X21356640Y-18099720D01*
X21603020Y-10584500D02*
X21643020Y-10624500D01*
X21643020Y-10584500D02*
X21603020Y-10624500D01*
X21623340Y-15943900D02*
X21663340Y-15983900D01*
X21663340Y-15943900D02*
X21623340Y-15983900D01*
X21783360Y-16075980D02*
X21823360Y-16115980D01*
X21823360Y-16075980D02*
X21783360Y-16115980D01*
X22009420Y-12065320D02*
X22049420Y-12105320D01*
X22049420Y-12065320D02*
X22009420Y-12105320D01*
X22024660Y-15692440D02*
X22064660Y-15732440D01*
X22064660Y-15692440D02*
X22024660Y-15732440D01*
X22205000Y-13759500D02*
X22245000Y-13799500D01*
X22245000Y-13759500D02*
X22205000Y-13799500D01*
X22283740Y-15954060D02*
X22323740Y-15994060D01*
X22323740Y-15954060D02*
X22283740Y-15994060D01*
X22530120Y-19375440D02*
X22570120Y-19415440D01*
X22570120Y-19375440D02*
X22530120Y-19415440D01*
X22616480Y-15461300D02*
X22656480Y-15501300D01*
X22656480Y-15461300D02*
X22616480Y-15501300D01*
X22723160Y-11384600D02*
X22763160Y-11424600D01*
X22763160Y-11384600D02*
X22723160Y-11424600D01*
X22725700Y-17373920D02*
X22765700Y-17413920D01*
X22765700Y-17373920D02*
X22725700Y-17413920D01*
X22763800Y-13749340D02*
X22803800Y-13789340D01*
X22803800Y-13749340D02*
X22763800Y-13789340D01*
X22827300Y-11133140D02*
X22867300Y-11173140D01*
X22867300Y-11133140D02*
X22827300Y-11173140D01*
X22941600Y-15987080D02*
X22981600Y-16027080D01*
X22981600Y-15987080D02*
X22941600Y-16027080D01*
X23210840Y-19342420D02*
X23250840Y-19382420D01*
X23250840Y-19342420D02*
X23210840Y-19382420D01*
X23467380Y-15468920D02*
X23507380Y-15508920D01*
X23507380Y-15468920D02*
X23467380Y-15508920D01*
X23863620Y-17508540D02*
X23903620Y-17548540D01*
X23903620Y-17508540D02*
X23863620Y-17548540D01*
X23866160Y-17381540D02*
X23906160Y-17421540D01*
X23906160Y-17381540D02*
X23866160Y-17421540D01*
X23972840Y-15474000D02*
X24012840Y-15514000D01*
X24012840Y-15474000D02*
X23972840Y-15514000D01*
X24016020Y-10528620D02*
X24056020Y-10568620D01*
X24056020Y-10528620D02*
X24016020Y-10568620D01*
X24414800Y-15474000D02*
X24454800Y-15514000D01*
X24454800Y-15474000D02*
X24414800Y-15514000D01*
X24531640Y-19276380D02*
X24571640Y-19316380D01*
X24571640Y-19276380D02*
X24531640Y-19316380D01*
X24607072Y-13762808D02*
X24647072Y-13802808D01*
X24647072Y-13762808D02*
X24607072Y-13802808D01*
X24689120Y-10762300D02*
X24729120Y-10802300D01*
X24729120Y-10762300D02*
X24689120Y-10802300D01*
X24719600Y-19916460D02*
X24759600Y-19956460D01*
X24759600Y-19916460D02*
X24719600Y-19956460D01*
X24737380Y-17721900D02*
X24777380Y-17761900D01*
X24777380Y-17721900D02*
X24737380Y-17761900D01*
X24737380Y-17848900D02*
X24777380Y-17888900D01*
X24777380Y-17848900D02*
X24737380Y-17888900D01*
X24849140Y-11516680D02*
X24889140Y-11556680D01*
X24889140Y-11516680D02*
X24849140Y-11556680D01*
X24851680Y-12321860D02*
X24891680Y-12361860D01*
X24891680Y-12321860D02*
X24851680Y-12361860D01*
X24938040Y-13871260D02*
X24978040Y-13911260D01*
X24978040Y-13871260D02*
X24938040Y-13911260D01*
X25029480Y-17231680D02*
X25069480Y-17271680D01*
X25069480Y-17231680D02*
X25029480Y-17271680D01*
X25082820Y-16893860D02*
X25122820Y-16933860D01*
X25122820Y-16893860D02*
X25082820Y-16933860D01*
X25192040Y-19162080D02*
X25232040Y-19202080D01*
X25232040Y-19162080D02*
X25192040Y-19202080D01*
X25410480Y-14094780D02*
X25450480Y-14134780D01*
X25450480Y-14094780D02*
X25410480Y-14134780D01*
X25509540Y-10731820D02*
X25549540Y-10771820D01*
X25549540Y-10731820D02*
X25509540Y-10771820D01*
X25527320Y-11257600D02*
X25567320Y-11297600D01*
X25567320Y-11257600D02*
X25527320Y-11297600D01*
X25567960Y-13391200D02*
X25607960Y-13431200D01*
X25607960Y-13391200D02*
X25567960Y-13431200D01*
X25654320Y-15189520D02*
X25694320Y-15229520D01*
X25694320Y-15189520D02*
X25654320Y-15229520D01*
X26230900Y-20513360D02*
X26270900Y-20553360D01*
X26270900Y-20513360D02*
X26230900Y-20553360D01*
X26238520Y-20282220D02*
X26278520Y-20322220D01*
X26278520Y-20282220D02*
X26238520Y-20322220D01*
X26243600Y-20759740D02*
X26283600Y-20799740D01*
X26283600Y-20759740D02*
X26243600Y-20799740D01*
X26335040Y-11257600D02*
X26375040Y-11297600D01*
X26375040Y-11257600D02*
X26335040Y-11297600D01*
X26586500Y-13718860D02*
X26626500Y-13758860D01*
X26626500Y-13718860D02*
X26586500Y-13758860D01*
X26650000Y-13365800D02*
X26690000Y-13405800D01*
X26690000Y-13365800D02*
X26650000Y-13405800D01*
X26655080Y-17282480D02*
X26695080Y-17322480D01*
X26695080Y-17282480D02*
X26655080Y-17322480D01*
X26764300Y-16751620D02*
X26804300Y-16791620D01*
X26804300Y-16751620D02*
X26764300Y-16791620D01*
X26784620Y-13891580D02*
X26824620Y-13931580D01*
X26824620Y-13891580D02*
X26784620Y-13931580D01*
X27216420Y-11074720D02*
X27256420Y-11114720D01*
X27256420Y-11074720D02*
X27216420Y-11114720D01*
X27363740Y-14120180D02*
X27403740Y-14160180D01*
X27403740Y-14120180D02*
X27363740Y-14160180D01*
X27373900Y-20561620D02*
X27413900Y-20601620D01*
X27413900Y-20561620D02*
X27373900Y-20601620D01*
X27381520Y-20330480D02*
X27421520Y-20370480D01*
X27421520Y-20330480D02*
X27381520Y-20370480D01*
X27401840Y-20828320D02*
X27441840Y-20868320D01*
X27441840Y-20828320D02*
X27401840Y-20868320D01*
X27539000Y-13548680D02*
X27579000Y-13588680D01*
X27579000Y-13548680D02*
X27539000Y-13588680D01*
X28267980Y-20297460D02*
X28307980Y-20337460D01*
X28307980Y-20297460D02*
X28267980Y-20337460D01*
X28280680Y-20493040D02*
X28320680Y-20533040D01*
X28320680Y-20493040D02*
X28280680Y-20533040D01*
X28560080Y-13901740D02*
X28600080Y-13941740D01*
X28600080Y-13901740D02*
X28560080Y-13941740D01*
X28654060Y-11046780D02*
X28694060Y-11086780D01*
X28694060Y-11046780D02*
X28654060Y-11086780D01*
X28956320Y-12771440D02*
X28996320Y-12811440D01*
X28996320Y-12771440D02*
X28956320Y-12811440D01*
X29073160Y-13683300D02*
X29113160Y-13723300D01*
X29113160Y-13683300D02*
X29073160Y-13723300D01*
D13*
X13954200Y-19443700D02*
G75*
G03*
X13954200Y-19443700I-35000J0D01*
G01*
X14007540Y-21084540D02*
G75*
G03*
X14007540Y-21084540I-35000J0D01*
G01*
X14132000Y-19903440D02*
G75*
G03*
X14132000Y-19903440I-35000J0D01*
G01*
X14132000Y-20665440D02*
G75*
G03*
X14132000Y-20665440I-35000J0D01*
G01*
X14716200Y-19443700D02*
G75*
G03*
X14716200Y-19443700I-35000J0D01*
G01*
X14761920Y-14107160D02*
G75*
G03*
X14761920Y-14107160I-35000J0D01*
G01*
X14761920Y-14869160D02*
G75*
G03*
X14761920Y-14869160I-35000J0D01*
G01*
X14769540Y-21084540D02*
G75*
G03*
X14769540Y-21084540I-35000J0D01*
G01*
X16070020Y-20325080D02*
G75*
G03*
X16070020Y-20325080I-35000J0D01*
G01*
X16070020Y-21087080D02*
G75*
G03*
X16070020Y-21087080I-35000J0D01*
G01*
X16092880Y-18902680D02*
G75*
G03*
X16092880Y-18902680I-35000J0D01*
G01*
X16092880Y-19664680D02*
G75*
G03*
X16092880Y-19664680I-35000J0D01*
G01*
X18653200Y-15496540D02*
G75*
G03*
X18653200Y-15496540I-35000J0D01*
G01*
X18653200Y-16258540D02*
G75*
G03*
X18653200Y-16258540I-35000J0D01*
G01*
X18719240Y-13624560D02*
G75*
G03*
X18719240Y-13624560I-35000J0D01*
G01*
X18719240Y-14386560D02*
G75*
G03*
X18719240Y-14386560I-35000J0D01*
G01*
X20621700Y-12161520D02*
G75*
G03*
X20621700Y-12161520I-35000J0D01*
G01*
X20621700Y-12923520D02*
G75*
G03*
X20621700Y-12923520I-35000J0D01*
G01*
X24472340Y-13682980D02*
G75*
G03*
X24472340Y-13682980I-35000J0D01*
G01*
X24477420Y-14566900D02*
G75*
G03*
X24477420Y-14566900I-35000J0D01*
G01*
X24888900Y-14815820D02*
G75*
G03*
X24888900Y-14815820I-35000J0D01*
G01*
X24888900Y-15577820D02*
G75*
G03*
X24888900Y-15577820I-35000J0D01*
G01*
X28584600Y-15062200D02*
G75*
G03*
X28584600Y-15062200I-35000J0D01*
G01*
X28584600Y-15824200D02*
G75*
G03*
X28584600Y-15824200I-35000J0D01*
G01*
D14*
X14876340Y-20140260D02*
X14876340Y-20215260D01*
X14838840Y-20177760D02*
X14913840Y-20177760D01*
X14876340Y-20267260D02*
X14876340Y-20342260D01*
X14838840Y-20304760D02*
X14913840Y-20304760D01*
X14876340Y-20394260D02*
X14876340Y-20469260D01*
X14838840Y-20431760D02*
X14913840Y-20431760D01*
X18431840Y-20979340D02*
X18431840Y-21054340D01*
X18394340Y-21016840D02*
X18469340Y-21016840D01*
X18631840Y-20979340D02*
X18631840Y-21054340D01*
X18594340Y-21016840D02*
X18669340Y-21016840D01*
D15*
X15284667Y-18242625D02*
X15284667Y-18186056D01*
X15228098Y-18186056D01*
X15228098Y-18242625D01*
X15284667Y-18242625D01*
X15534667Y-18242625D02*
X15534667Y-18186056D01*
X15478098Y-18186056D01*
X15478098Y-18242625D01*
X15534667Y-18242625D01*
X15894584Y-13698564D02*
X15894584Y-13641995D01*
X15838015Y-13641995D01*
X15838015Y-13698564D01*
X15894584Y-13698564D01*
X16230944Y-18417885D02*
X16230944Y-18361316D01*
X16174375Y-18361316D01*
X16174375Y-18417885D01*
X16230944Y-18417885D01*
X16394584Y-13698564D02*
X16394584Y-13641995D01*
X16338015Y-13641995D01*
X16338015Y-13698564D01*
X16394584Y-13698564D01*
X16484944Y-18417885D02*
X16484944Y-18361316D01*
X16428375Y-18361316D01*
X16428375Y-18417885D01*
X16484944Y-18417885D01*
X16686604Y-19590865D02*
X16686604Y-19534296D01*
X16630035Y-19534296D01*
X16630035Y-19590865D01*
X16686604Y-19590865D01*
X16686604Y-19844865D02*
X16686604Y-19788296D01*
X16630035Y-19788296D01*
X16630035Y-19844865D01*
X16686604Y-19844865D01*
X16686604Y-20098865D02*
X16686604Y-20042296D01*
X16630035Y-20042296D01*
X16630035Y-20098865D01*
X16686604Y-20098865D01*
X16686604Y-20352865D02*
X16686604Y-20296296D01*
X16630035Y-20296296D01*
X16630035Y-20352865D01*
X16686604Y-20352865D01*
X16686604Y-20606865D02*
X16686604Y-20550296D01*
X16630035Y-20550296D01*
X16630035Y-20606865D01*
X16686604Y-20606865D01*
X16686604Y-20860865D02*
X16686604Y-20804296D01*
X16630035Y-20804296D01*
X16630035Y-20860865D01*
X16686604Y-20860865D01*
X16686604Y-21114865D02*
X16686604Y-21058296D01*
X16630035Y-21058296D01*
X16630035Y-21114865D01*
X16686604Y-21114865D01*
X16738944Y-18417885D02*
X16738944Y-18361316D01*
X16682375Y-18361316D01*
X16682375Y-18417885D01*
X16738944Y-18417885D01*
X16834385Y-19144325D02*
X16834385Y-19087756D01*
X16777816Y-19087756D01*
X16777816Y-19144325D01*
X16834385Y-19144325D01*
X17222230Y-13269304D02*
X17222230Y-13212735D01*
X17165661Y-13212735D01*
X17165661Y-13269304D01*
X17222230Y-13269304D01*
X17334385Y-19144325D02*
X17334385Y-19087756D01*
X17277816Y-19087756D01*
X17277816Y-19144325D01*
X17334385Y-19144325D01*
X17448605Y-19590865D02*
X17448605Y-19534296D01*
X17392036Y-19534296D01*
X17392036Y-19590865D01*
X17448605Y-19590865D01*
X17448605Y-19844865D02*
X17448605Y-19788296D01*
X17392036Y-19788296D01*
X17392036Y-19844865D01*
X17448605Y-19844865D01*
X17448605Y-20098865D02*
X17448605Y-20042296D01*
X17392036Y-20042296D01*
X17392036Y-20098865D01*
X17448605Y-20098865D01*
X17448605Y-20352865D02*
X17448605Y-20296296D01*
X17392036Y-20296296D01*
X17392036Y-20352865D01*
X17448605Y-20352865D01*
X17448605Y-20606865D02*
X17448605Y-20550296D01*
X17392036Y-20550296D01*
X17392036Y-20606865D01*
X17448605Y-20606865D01*
X17448605Y-20860865D02*
X17448605Y-20804296D01*
X17392036Y-20804296D01*
X17392036Y-20860865D01*
X17448605Y-20860865D01*
X17448605Y-21114865D02*
X17448605Y-21058296D01*
X17392036Y-21058296D01*
X17392036Y-21114865D01*
X17448605Y-21114865D01*
X17506025Y-11508004D02*
X17506025Y-11451435D01*
X17449456Y-11451435D01*
X17449456Y-11508004D01*
X17506025Y-11508004D01*
X17506025Y-12008004D02*
X17506025Y-11951435D01*
X17449456Y-11951435D01*
X17449456Y-12008004D01*
X17506025Y-12008004D01*
X17572230Y-13269304D02*
X17572230Y-13212735D01*
X17515661Y-13212735D01*
X17515661Y-13269304D01*
X17572230Y-13269304D01*
X18034345Y-14380664D02*
X18034345Y-14324095D01*
X17977776Y-14324095D01*
X17977776Y-14380664D01*
X18034345Y-14380664D01*
X18034345Y-14870664D02*
X18034345Y-14814095D01*
X17977776Y-14814095D01*
X17977776Y-14870664D01*
X18034345Y-14870664D01*
X18369625Y-17306825D02*
X18369625Y-17250256D01*
X18313056Y-17250256D01*
X18313056Y-17306825D01*
X18369625Y-17306825D01*
X18369625Y-17806825D02*
X18369625Y-17750256D01*
X18313056Y-17750256D01*
X18313056Y-17806825D01*
X18369625Y-17806825D01*
X18372165Y-18840985D02*
X18372165Y-18784416D01*
X18315596Y-18784416D01*
X18315596Y-18840985D01*
X18372165Y-18840985D01*
X18372165Y-19340985D02*
X18372165Y-19284416D01*
X18315596Y-19284416D01*
X18315596Y-19340985D01*
X18372165Y-19340985D01*
X18666805Y-14746504D02*
X18666805Y-14689935D01*
X18610236Y-14689935D01*
X18610236Y-14746504D01*
X18666805Y-14746504D01*
X18666805Y-14996504D02*
X18666805Y-14939935D01*
X18610236Y-14939935D01*
X18610236Y-14996504D01*
X18666805Y-14996504D01*
X18960945Y-17223085D02*
X18960945Y-17166516D01*
X18904376Y-17166516D01*
X18904376Y-17223085D01*
X18960945Y-17223085D01*
X18960945Y-17985085D02*
X18960945Y-17928516D01*
X18904376Y-17928516D01*
X18904376Y-17985085D01*
X18960945Y-17985085D01*
X18960945Y-18714065D02*
X18960945Y-18657496D01*
X18904376Y-18657496D01*
X18904376Y-18714065D01*
X18960945Y-18714065D01*
X18960945Y-19476065D02*
X18960945Y-19419496D01*
X18904376Y-19419496D01*
X18904376Y-19476065D01*
X18960945Y-19476065D01*
X19214945Y-17223085D02*
X19214945Y-17166516D01*
X19158376Y-17166516D01*
X19158376Y-17223085D01*
X19214945Y-17223085D01*
X19214945Y-17985085D02*
X19214945Y-17928516D01*
X19158376Y-17928516D01*
X19158376Y-17985085D01*
X19214945Y-17985085D01*
X19214945Y-18714065D02*
X19214945Y-18657496D01*
X19158376Y-18657496D01*
X19158376Y-18714065D01*
X19214945Y-18714065D01*
X19214945Y-19476065D02*
X19214945Y-19419496D01*
X19158376Y-19419496D01*
X19158376Y-19476065D01*
X19214945Y-19476065D01*
X19252005Y-14432124D02*
X19252005Y-14375555D01*
X19195436Y-14375555D01*
X19195436Y-14432124D01*
X19252005Y-14432124D01*
X19252005Y-14686124D02*
X19252005Y-14629555D01*
X19195436Y-14629555D01*
X19195436Y-14686124D01*
X19252005Y-14686124D01*
X19252005Y-14940124D02*
X19252005Y-14883555D01*
X19195436Y-14883555D01*
X19195436Y-14940124D01*
X19252005Y-14940124D01*
X19252005Y-15194124D02*
X19252005Y-15137555D01*
X19195436Y-15137555D01*
X19195436Y-15194124D01*
X19252005Y-15194124D01*
X19252005Y-15448124D02*
X19252005Y-15391555D01*
X19195436Y-15391555D01*
X19195436Y-15448124D01*
X19252005Y-15448124D01*
X19252005Y-15702124D02*
X19252005Y-15645555D01*
X19195436Y-15645555D01*
X19195436Y-15702124D01*
X19252005Y-15702124D01*
X19252005Y-15956124D02*
X19252005Y-15899555D01*
X19195436Y-15899555D01*
X19195436Y-15956124D01*
X19252005Y-15956124D01*
X19315505Y-11289604D02*
X19315505Y-11233035D01*
X19258936Y-11233035D01*
X19258936Y-11289604D01*
X19315505Y-11289604D01*
X19315505Y-11543604D02*
X19315505Y-11487035D01*
X19258936Y-11487035D01*
X19258936Y-11543604D01*
X19315505Y-11543604D01*
X19315505Y-11797604D02*
X19315505Y-11741035D01*
X19258936Y-11741035D01*
X19258936Y-11797604D01*
X19315505Y-11797604D01*
X19315505Y-12051604D02*
X19315505Y-11995035D01*
X19258936Y-11995035D01*
X19258936Y-12051604D01*
X19315505Y-12051604D01*
X19315505Y-12305604D02*
X19315505Y-12249035D01*
X19258936Y-12249035D01*
X19258936Y-12305604D01*
X19315505Y-12305604D01*
X19315505Y-12559604D02*
X19315505Y-12503035D01*
X19258936Y-12503035D01*
X19258936Y-12559604D01*
X19315505Y-12559604D01*
X19315505Y-12813604D02*
X19315505Y-12757035D01*
X19258936Y-12757035D01*
X19258936Y-12813604D01*
X19315505Y-12813604D01*
X19315505Y-13067604D02*
X19315505Y-13011035D01*
X19258936Y-13011035D01*
X19258936Y-13067604D01*
X19315505Y-13067604D01*
X19350065Y-20112139D02*
X19350065Y-20055570D01*
X19293496Y-20055570D01*
X19293496Y-20112139D01*
X19350065Y-20112139D01*
X19350065Y-20492139D02*
X19350065Y-20435570D01*
X19293496Y-20435570D01*
X19293496Y-20492139D01*
X19350065Y-20492139D01*
X19420105Y-10914725D02*
X19420105Y-10858156D01*
X19363536Y-10858156D01*
X19363536Y-10914725D01*
X19420105Y-10914725D01*
X19448045Y-13881444D02*
X19448045Y-13824875D01*
X19391476Y-13824875D01*
X19391476Y-13881444D01*
X19448045Y-13881444D01*
X19468945Y-17223085D02*
X19468945Y-17166516D01*
X19412376Y-17166516D01*
X19412376Y-17223085D01*
X19468945Y-17223085D01*
X19468945Y-17985085D02*
X19468945Y-17928516D01*
X19412376Y-17928516D01*
X19412376Y-17985085D01*
X19468945Y-17985085D01*
X19468945Y-18714065D02*
X19468945Y-18657496D01*
X19412376Y-18657496D01*
X19412376Y-18714065D01*
X19468945Y-18714065D01*
X19468945Y-19476065D02*
X19468945Y-19419496D01*
X19412376Y-19419496D01*
X19412376Y-19476065D01*
X19468945Y-19476065D01*
X19611685Y-21072185D02*
X19611685Y-21015616D01*
X19555116Y-21015616D01*
X19555116Y-21072185D01*
X19611685Y-21072185D01*
X19722945Y-17223085D02*
X19722945Y-17166516D01*
X19666376Y-17166516D01*
X19666376Y-17223085D01*
X19722945Y-17223085D01*
X19722945Y-17985085D02*
X19722945Y-17928516D01*
X19666376Y-17928516D01*
X19666376Y-17985085D01*
X19722945Y-17985085D01*
X19722945Y-18714065D02*
X19722945Y-18657496D01*
X19666376Y-18657496D01*
X19666376Y-18714065D01*
X19722945Y-18714065D01*
X19722945Y-19476065D02*
X19722945Y-19419496D01*
X19666376Y-19419496D01*
X19666376Y-19476065D01*
X19722945Y-19476065D01*
X19920105Y-10914725D02*
X19920105Y-10858156D01*
X19863536Y-10858156D01*
X19863536Y-10914725D01*
X19920105Y-10914725D01*
X19948045Y-13881444D02*
X19948045Y-13824875D01*
X19891476Y-13824875D01*
X19891476Y-13881444D01*
X19948045Y-13881444D01*
X19976945Y-17223085D02*
X19976945Y-17166516D01*
X19920376Y-17166516D01*
X19920376Y-17223085D01*
X19976945Y-17223085D01*
X19976945Y-17985085D02*
X19976945Y-17928516D01*
X19920376Y-17928516D01*
X19920376Y-17985085D01*
X19976945Y-17985085D01*
X19976945Y-18714065D02*
X19976945Y-18657496D01*
X19920376Y-18657496D01*
X19920376Y-18714065D01*
X19976945Y-18714065D01*
X19976945Y-19476065D02*
X19976945Y-19419496D01*
X19920376Y-19419496D01*
X19920376Y-19476065D01*
X19976945Y-19476065D01*
X20014005Y-14432124D02*
X20014005Y-14375555D01*
X19957436Y-14375555D01*
X19957436Y-14432124D01*
X20014005Y-14432124D01*
X20014005Y-14686124D02*
X20014005Y-14629555D01*
X19957436Y-14629555D01*
X19957436Y-14686124D01*
X20014005Y-14686124D01*
X20014005Y-14940124D02*
X20014005Y-14883555D01*
X19957436Y-14883555D01*
X19957436Y-14940124D01*
X20014005Y-14940124D01*
X20014005Y-15194124D02*
X20014005Y-15137555D01*
X19957436Y-15137555D01*
X19957436Y-15194124D01*
X20014005Y-15194124D01*
X20014005Y-15448124D02*
X20014005Y-15391555D01*
X19957436Y-15391555D01*
X19957436Y-15448124D01*
X20014005Y-15448124D01*
X20014005Y-15702124D02*
X20014005Y-15645555D01*
X19957436Y-15645555D01*
X19957436Y-15702124D01*
X20014005Y-15702124D01*
X20014005Y-15956124D02*
X20014005Y-15899555D01*
X19957436Y-15899555D01*
X19957436Y-15956124D01*
X20014005Y-15956124D01*
X20077505Y-11289604D02*
X20077505Y-11233035D01*
X20020936Y-11233035D01*
X20020936Y-11289604D01*
X20077505Y-11289604D01*
X20077505Y-11543604D02*
X20077505Y-11487035D01*
X20020936Y-11487035D01*
X20020936Y-11543604D01*
X20077505Y-11543604D01*
X20077505Y-11797604D02*
X20077505Y-11741035D01*
X20020936Y-11741035D01*
X20020936Y-11797604D01*
X20077505Y-11797604D01*
X20077505Y-12051604D02*
X20077505Y-11995035D01*
X20020936Y-11995035D01*
X20020936Y-12051604D01*
X20077505Y-12051604D01*
X20077505Y-12305604D02*
X20077505Y-12249035D01*
X20020936Y-12249035D01*
X20020936Y-12305604D01*
X20077505Y-12305604D01*
X20077505Y-12559604D02*
X20077505Y-12503035D01*
X20020936Y-12503035D01*
X20020936Y-12559604D01*
X20077505Y-12559604D01*
X20077505Y-12813604D02*
X20077505Y-12757035D01*
X20020936Y-12757035D01*
X20020936Y-12813604D01*
X20077505Y-12813604D01*
X20077505Y-13067604D02*
X20077505Y-13011035D01*
X20020936Y-13011035D01*
X20020936Y-13067604D01*
X20077505Y-13067604D01*
X20230945Y-17223085D02*
X20230945Y-17166516D01*
X20174376Y-17166516D01*
X20174376Y-17223085D01*
X20230945Y-17223085D01*
X20230945Y-17985085D02*
X20230945Y-17928516D01*
X20174376Y-17928516D01*
X20174376Y-17985085D01*
X20230945Y-17985085D01*
X20230945Y-18714065D02*
X20230945Y-18657496D01*
X20174376Y-18657496D01*
X20174376Y-18714065D01*
X20230945Y-18714065D01*
X20230945Y-19476065D02*
X20230945Y-19419496D01*
X20174376Y-19419496D01*
X20174376Y-19476065D01*
X20230945Y-19476065D01*
X20484945Y-17223085D02*
X20484945Y-17166516D01*
X20428376Y-17166516D01*
X20428376Y-17223085D01*
X20484945Y-17223085D01*
X20484945Y-17985085D02*
X20484945Y-17928516D01*
X20428376Y-17928516D01*
X20428376Y-17985085D01*
X20484945Y-17985085D01*
X20484945Y-18714065D02*
X20484945Y-18657496D01*
X20428376Y-18657496D01*
X20428376Y-18714065D01*
X20484945Y-18714065D01*
X20484945Y-19476065D02*
X20484945Y-19419496D01*
X20428376Y-19419496D01*
X20428376Y-19476065D01*
X20484945Y-19476065D01*
X20497605Y-20140005D02*
X20497605Y-20083436D01*
X20441036Y-20083436D01*
X20441036Y-20140005D01*
X20497605Y-20140005D01*
X20747605Y-20140005D02*
X20747605Y-20083436D01*
X20691036Y-20083436D01*
X20691036Y-20140005D01*
X20747605Y-20140005D01*
X20881685Y-21072185D02*
X20881685Y-21015616D01*
X20825116Y-21015616D01*
X20825116Y-21072185D01*
X20881685Y-21072185D01*
X21575105Y-16397504D02*
X21575105Y-16340935D01*
X21518536Y-16340935D01*
X21518536Y-16397504D01*
X21575105Y-16397504D01*
X21575105Y-16897505D02*
X21575105Y-16840936D01*
X21518536Y-16840936D01*
X21518536Y-16897505D01*
X21575105Y-16897505D01*
X21628445Y-18315205D02*
X21628445Y-18258636D01*
X21571876Y-18258636D01*
X21571876Y-18315205D01*
X21628445Y-18315205D01*
X21628445Y-18815205D02*
X21628445Y-18758636D01*
X21571876Y-18758636D01*
X21571876Y-18815205D01*
X21628445Y-18815205D01*
X21697025Y-14627124D02*
X21697025Y-14570555D01*
X21640456Y-14570555D01*
X21640456Y-14627124D01*
X21697025Y-14627124D01*
X21697025Y-15127124D02*
X21697025Y-15070555D01*
X21640456Y-15070555D01*
X21640456Y-15127124D01*
X21697025Y-15127124D01*
X21725965Y-11589864D02*
X21725965Y-11533295D01*
X21669396Y-11533295D01*
X21669396Y-11589864D01*
X21725965Y-11589864D01*
X21725965Y-11843864D02*
X21725965Y-11787295D01*
X21669396Y-11787295D01*
X21669396Y-11843864D01*
X21725965Y-11843864D01*
X21725965Y-12097864D02*
X21725965Y-12041295D01*
X21669396Y-12041295D01*
X21669396Y-12097864D01*
X21725965Y-12097864D01*
X21725965Y-12351864D02*
X21725965Y-12295295D01*
X21669396Y-12295295D01*
X21669396Y-12351864D01*
X21725965Y-12351864D01*
X21725965Y-12605864D02*
X21725965Y-12549295D01*
X21669396Y-12549295D01*
X21669396Y-12605864D01*
X21725965Y-12605864D01*
X21725965Y-12859864D02*
X21725965Y-12803295D01*
X21669396Y-12803295D01*
X21669396Y-12859864D01*
X21725965Y-12859864D01*
X21725965Y-13113864D02*
X21725965Y-13057295D01*
X21669396Y-13057295D01*
X21669396Y-13113864D01*
X21725965Y-13113864D01*
X21838185Y-11181425D02*
X21838185Y-11124856D01*
X21781616Y-11124856D01*
X21781616Y-11181425D01*
X21838185Y-11181425D01*
X21862125Y-20879463D02*
X21862125Y-20822894D01*
X21805556Y-20822894D01*
X21805556Y-20879463D01*
X21862125Y-20879463D01*
X21862125Y-21129463D02*
X21862125Y-21072894D01*
X21805556Y-21072894D01*
X21805556Y-21129463D01*
X21862125Y-21129463D01*
X22133405Y-16245184D02*
X22133405Y-16188615D01*
X22076836Y-16188615D01*
X22076836Y-16245184D01*
X22133405Y-16245184D01*
X22133405Y-17007185D02*
X22133405Y-16950616D01*
X22076836Y-16950616D01*
X22076836Y-17007185D01*
X22133405Y-17007185D01*
X22174045Y-14495124D02*
X22174045Y-14438555D01*
X22117476Y-14438555D01*
X22117476Y-14495124D01*
X22174045Y-14495124D01*
X22174045Y-15257124D02*
X22174045Y-15200555D01*
X22117476Y-15200555D01*
X22117476Y-15257124D01*
X22174045Y-15257124D01*
X22194365Y-18198445D02*
X22194365Y-18141876D01*
X22137796Y-18141876D01*
X22137796Y-18198445D01*
X22194365Y-18198445D01*
X22194365Y-18960445D02*
X22194365Y-18903876D01*
X22137796Y-18903876D01*
X22137796Y-18960445D01*
X22194365Y-18960445D01*
X22338185Y-11181425D02*
X22338185Y-11124856D01*
X22281616Y-11124856D01*
X22281616Y-11181425D01*
X22338185Y-11181425D01*
X22387404Y-16245184D02*
X22387404Y-16188615D01*
X22330836Y-16188615D01*
X22330836Y-16245184D01*
X22387404Y-16245184D01*
X22387404Y-17007185D02*
X22387404Y-16950616D01*
X22330836Y-16950616D01*
X22330836Y-17007185D01*
X22387404Y-17007185D01*
X22428044Y-14495124D02*
X22428044Y-14438555D01*
X22371475Y-14438555D01*
X22371475Y-14495124D01*
X22428044Y-14495124D01*
X22428044Y-15257124D02*
X22428044Y-15200555D01*
X22371475Y-15200555D01*
X22371475Y-15257124D01*
X22428044Y-15257124D01*
X22448364Y-18198445D02*
X22448364Y-18141876D01*
X22391795Y-18141876D01*
X22391795Y-18198445D01*
X22448364Y-18198445D01*
X22448364Y-18960445D02*
X22448364Y-18903876D01*
X22391795Y-18903876D01*
X22391795Y-18960445D01*
X22448364Y-18960445D01*
X22487964Y-11589864D02*
X22487964Y-11533295D01*
X22431395Y-11533295D01*
X22431395Y-11589864D01*
X22487964Y-11589864D01*
X22487964Y-11843864D02*
X22487964Y-11787295D01*
X22431395Y-11787295D01*
X22431395Y-11843864D01*
X22487964Y-11843864D01*
X22487964Y-12097864D02*
X22487964Y-12041295D01*
X22431395Y-12041295D01*
X22431395Y-12097864D01*
X22487964Y-12097864D01*
X22487964Y-12351864D02*
X22487964Y-12295295D01*
X22431395Y-12295295D01*
X22431395Y-12351864D01*
X22487964Y-12351864D01*
X22487964Y-12605864D02*
X22487964Y-12549295D01*
X22431395Y-12549295D01*
X22431395Y-12605864D01*
X22487964Y-12605864D01*
X22487964Y-12859864D02*
X22487964Y-12803295D01*
X22431395Y-12803295D01*
X22431395Y-12859864D01*
X22487964Y-12859864D01*
X22487964Y-13113864D02*
X22487964Y-13057295D01*
X22431395Y-13057295D01*
X22431395Y-13113864D01*
X22487964Y-13113864D01*
X22641404Y-16245184D02*
X22641404Y-16188615D01*
X22584835Y-16188615D01*
X22584835Y-16245184D01*
X22641404Y-16245184D01*
X22641404Y-17007185D02*
X22641404Y-16950616D01*
X22584835Y-16950616D01*
X22584835Y-17007185D01*
X22641404Y-17007185D01*
X22682044Y-14495124D02*
X22682044Y-14438555D01*
X22625475Y-14438555D01*
X22625475Y-14495124D01*
X22682044Y-14495124D01*
X22682044Y-15257124D02*
X22682044Y-15200555D01*
X22625475Y-15200555D01*
X22625475Y-15257124D01*
X22682044Y-15257124D01*
X22702364Y-18198445D02*
X22702364Y-18141876D01*
X22645795Y-18141876D01*
X22645795Y-18198445D01*
X22702364Y-18198445D01*
X22702364Y-18960445D02*
X22702364Y-18903876D01*
X22645795Y-18903876D01*
X22645795Y-18960445D01*
X22702364Y-18960445D01*
X22876584Y-20032325D02*
X22876584Y-19975756D01*
X22820015Y-19975756D01*
X22820015Y-20032325D01*
X22876584Y-20032325D01*
X22876584Y-20794325D02*
X22876584Y-20737756D01*
X22820015Y-20737756D01*
X22820015Y-20794325D01*
X22876584Y-20794325D01*
X22895404Y-16245184D02*
X22895404Y-16188615D01*
X22838835Y-16188615D01*
X22838835Y-16245184D01*
X22895404Y-16245184D01*
X22895404Y-17007185D02*
X22895404Y-16950616D01*
X22838835Y-16950616D01*
X22838835Y-17007185D01*
X22895404Y-17007185D01*
X22936044Y-14495124D02*
X22936044Y-14438555D01*
X22879475Y-14438555D01*
X22879475Y-14495124D01*
X22936044Y-14495124D01*
X22936044Y-15257124D02*
X22936044Y-15200555D01*
X22879475Y-15200555D01*
X22879475Y-15257124D01*
X22936044Y-15257124D01*
X22956364Y-18198445D02*
X22956364Y-18141876D01*
X22899795Y-18141876D01*
X22899795Y-18198445D01*
X22956364Y-18198445D01*
X22956364Y-18960445D02*
X22956364Y-18903876D01*
X22899795Y-18903876D01*
X22899795Y-18960445D01*
X22956364Y-18960445D01*
X23130584Y-20032325D02*
X23130584Y-19975756D01*
X23074015Y-19975756D01*
X23074015Y-20032325D01*
X23130584Y-20032325D01*
X23130584Y-20794325D02*
X23130584Y-20737756D01*
X23074015Y-20737756D01*
X23074015Y-20794325D01*
X23130584Y-20794325D01*
X23149404Y-16245184D02*
X23149404Y-16188615D01*
X23092835Y-16188615D01*
X23092835Y-16245184D01*
X23149404Y-16245184D01*
X23149404Y-17007185D02*
X23149404Y-16950616D01*
X23092835Y-16950616D01*
X23092835Y-17007185D01*
X23149404Y-17007185D01*
X23190044Y-14495124D02*
X23190044Y-14438555D01*
X23133475Y-14438555D01*
X23133475Y-14495124D01*
X23190044Y-14495124D01*
X23190044Y-15257124D02*
X23190044Y-15200555D01*
X23133475Y-15200555D01*
X23133475Y-15257124D01*
X23190044Y-15257124D01*
X23210364Y-18198445D02*
X23210364Y-18141876D01*
X23153795Y-18141876D01*
X23153795Y-18198445D01*
X23210364Y-18198445D01*
X23210364Y-18960445D02*
X23210364Y-18903876D01*
X23153795Y-18903876D01*
X23153795Y-18960445D01*
X23210364Y-18960445D01*
X23384584Y-20032325D02*
X23384584Y-19975756D01*
X23328015Y-19975756D01*
X23328015Y-20032325D01*
X23384584Y-20032325D01*
X23384584Y-20794325D02*
X23384584Y-20737756D01*
X23328015Y-20737756D01*
X23328015Y-20794325D01*
X23384584Y-20794325D01*
X23403404Y-16245184D02*
X23403404Y-16188615D01*
X23346835Y-16188615D01*
X23346835Y-16245184D01*
X23403404Y-16245184D01*
X23403404Y-17007185D02*
X23403404Y-16950616D01*
X23346835Y-16950616D01*
X23346835Y-17007185D01*
X23403404Y-17007185D01*
X23444044Y-14495124D02*
X23444044Y-14438555D01*
X23387475Y-14438555D01*
X23387475Y-14495124D01*
X23444044Y-14495124D01*
X23444044Y-15257124D02*
X23444044Y-15200555D01*
X23387475Y-15200555D01*
X23387475Y-15257124D01*
X23444044Y-15257124D01*
X23464364Y-18198445D02*
X23464364Y-18141876D01*
X23407795Y-18141876D01*
X23407795Y-18198445D01*
X23464364Y-18198445D01*
X23464364Y-18960445D02*
X23464364Y-18903876D01*
X23407795Y-18903876D01*
X23407795Y-18960445D01*
X23464364Y-18960445D01*
X23529364Y-11617804D02*
X23529364Y-11561235D01*
X23472795Y-11561235D01*
X23472795Y-11617804D01*
X23529364Y-11617804D01*
X23529364Y-11871804D02*
X23529364Y-11815235D01*
X23472795Y-11815235D01*
X23472795Y-11871804D01*
X23529364Y-11871804D01*
X23529364Y-12125804D02*
X23529364Y-12069235D01*
X23472795Y-12069235D01*
X23472795Y-12125804D01*
X23529364Y-12125804D01*
X23529364Y-12379804D02*
X23529364Y-12323235D01*
X23472795Y-12323235D01*
X23472795Y-12379804D01*
X23529364Y-12379804D01*
X23529364Y-12633804D02*
X23529364Y-12577235D01*
X23472795Y-12577235D01*
X23472795Y-12633804D01*
X23529364Y-12633804D01*
X23529364Y-12887804D02*
X23529364Y-12831235D01*
X23472795Y-12831235D01*
X23472795Y-12887804D01*
X23529364Y-12887804D01*
X23529364Y-13141804D02*
X23529364Y-13085235D01*
X23472795Y-13085235D01*
X23472795Y-13141804D01*
X23529364Y-13141804D01*
X23638584Y-20032325D02*
X23638584Y-19975756D01*
X23582015Y-19975756D01*
X23582015Y-20032325D01*
X23638584Y-20032325D01*
X23638584Y-20794325D02*
X23638584Y-20737756D01*
X23582015Y-20737756D01*
X23582015Y-20794325D01*
X23638584Y-20794325D01*
X23657404Y-16245184D02*
X23657404Y-16188615D01*
X23600835Y-16188615D01*
X23600835Y-16245184D01*
X23657404Y-16245184D01*
X23657404Y-17007185D02*
X23657404Y-16950616D01*
X23600835Y-16950616D01*
X23600835Y-17007185D01*
X23657404Y-17007185D01*
X23698044Y-14495124D02*
X23698044Y-14438555D01*
X23641475Y-14438555D01*
X23641475Y-14495124D01*
X23698044Y-14495124D01*
X23698044Y-15257124D02*
X23698044Y-15200555D01*
X23641475Y-15200555D01*
X23641475Y-15257124D01*
X23698044Y-15257124D01*
X23718364Y-18198445D02*
X23718364Y-18141876D01*
X23661795Y-18141876D01*
X23661795Y-18198445D01*
X23718364Y-18198445D01*
X23718364Y-18960445D02*
X23718364Y-18903876D01*
X23661795Y-18903876D01*
X23661795Y-18960445D01*
X23718364Y-18960445D01*
X23738104Y-11163645D02*
X23738104Y-11107076D01*
X23681535Y-11107076D01*
X23681535Y-11163645D01*
X23738104Y-11163645D01*
X24238104Y-11163645D02*
X24238104Y-11107076D01*
X24181535Y-11107076D01*
X24181535Y-11163645D01*
X24238104Y-11163645D01*
X24291364Y-11617804D02*
X24291364Y-11561235D01*
X24234795Y-11561235D01*
X24234795Y-11617804D01*
X24291364Y-11617804D01*
X24291364Y-11871804D02*
X24291364Y-11815235D01*
X24234795Y-11815235D01*
X24234795Y-11871804D01*
X24291364Y-11871804D01*
X24291364Y-12125804D02*
X24291364Y-12069235D01*
X24234795Y-12069235D01*
X24234795Y-12125804D01*
X24291364Y-12125804D01*
X24291364Y-12379804D02*
X24291364Y-12323235D01*
X24234795Y-12323235D01*
X24234795Y-12379804D01*
X24291364Y-12379804D01*
X24291364Y-12633804D02*
X24291364Y-12577235D01*
X24234795Y-12577235D01*
X24234795Y-12633804D01*
X24291364Y-12633804D01*
X24291364Y-12887804D02*
X24291364Y-12831235D01*
X24234795Y-12831235D01*
X24234795Y-12887804D01*
X24291364Y-12887804D01*
X24291364Y-13141804D02*
X24291364Y-13085235D01*
X24234795Y-13085235D01*
X24234795Y-13141804D01*
X24291364Y-13141804D01*
X25019344Y-20495679D02*
X25019344Y-20439110D01*
X24962775Y-20439110D01*
X24962775Y-20495679D01*
X25019344Y-20495679D01*
X25019344Y-20875679D02*
X25019344Y-20819110D01*
X24962775Y-20819110D01*
X24962775Y-20875679D01*
X25019344Y-20875679D01*
X25454684Y-14940124D02*
X25454684Y-14883555D01*
X25398115Y-14883555D01*
X25398115Y-14940124D01*
X25454684Y-14940124D01*
X25454684Y-15194124D02*
X25454684Y-15137555D01*
X25398115Y-15137555D01*
X25398115Y-15194124D01*
X25454684Y-15194124D01*
X25454684Y-15448124D02*
X25454684Y-15391555D01*
X25398115Y-15391555D01*
X25398115Y-15448124D01*
X25454684Y-15448124D01*
X25454684Y-15702124D02*
X25454684Y-15645555D01*
X25398115Y-15645555D01*
X25398115Y-15702124D01*
X25454684Y-15702124D01*
X25454684Y-15956124D02*
X25454684Y-15899555D01*
X25398115Y-15899555D01*
X25398115Y-15956124D01*
X25454684Y-15956124D01*
X25454684Y-16210124D02*
X25454684Y-16153555D01*
X25398115Y-16153555D01*
X25398115Y-16210124D01*
X25454684Y-16210124D01*
X25454684Y-16464124D02*
X25454684Y-16407555D01*
X25398115Y-16407555D01*
X25398115Y-16464124D01*
X25454684Y-16464124D01*
X25589304Y-18120205D02*
X25589304Y-18063636D01*
X25532735Y-18063636D01*
X25532735Y-18120205D01*
X25589304Y-18120205D01*
X25589304Y-18374205D02*
X25589304Y-18317636D01*
X25532735Y-18317636D01*
X25532735Y-18374205D01*
X25589304Y-18374205D01*
X25589304Y-18628205D02*
X25589304Y-18571636D01*
X25532735Y-18571636D01*
X25532735Y-18628205D01*
X25589304Y-18628205D01*
X25589304Y-18882205D02*
X25589304Y-18825636D01*
X25532735Y-18825636D01*
X25532735Y-18882205D01*
X25589304Y-18882205D01*
X25589304Y-19136205D02*
X25589304Y-19079636D01*
X25532735Y-19079636D01*
X25532735Y-19136205D01*
X25589304Y-19136205D01*
X25589304Y-19390205D02*
X25589304Y-19333636D01*
X25532735Y-19333636D01*
X25532735Y-19390205D01*
X25589304Y-19390205D01*
X25589304Y-19644205D02*
X25589304Y-19587636D01*
X25532735Y-19587636D01*
X25532735Y-19644205D01*
X25589304Y-19644205D01*
X25602464Y-14480884D02*
X25602464Y-14424315D01*
X25545895Y-14424315D01*
X25545895Y-14480884D01*
X25602464Y-14480884D01*
X25658344Y-17620325D02*
X25658344Y-17563756D01*
X25601775Y-17563756D01*
X25601775Y-17620325D01*
X25658344Y-17620325D01*
X25703604Y-11574624D02*
X25703604Y-11518055D01*
X25647035Y-11518055D01*
X25647035Y-11574624D01*
X25703604Y-11574624D01*
X25703604Y-11828624D02*
X25703604Y-11772055D01*
X25647035Y-11772055D01*
X25647035Y-11828624D01*
X25703604Y-11828624D01*
X25703604Y-12082624D02*
X25703604Y-12026055D01*
X25647035Y-12026055D01*
X25647035Y-12082624D01*
X25703604Y-12082624D01*
X25703604Y-12336624D02*
X25703604Y-12280055D01*
X25647035Y-12280055D01*
X25647035Y-12336624D01*
X25703604Y-12336624D01*
X25703604Y-12590624D02*
X25703604Y-12534055D01*
X25647035Y-12534055D01*
X25647035Y-12590624D01*
X25703604Y-12590624D01*
X25703604Y-12844624D02*
X25703604Y-12788055D01*
X25647035Y-12788055D01*
X25647035Y-12844624D01*
X25703604Y-12844624D01*
X25703604Y-13098624D02*
X25703604Y-13042055D01*
X25647035Y-13042055D01*
X25647035Y-13098624D01*
X25703604Y-13098624D01*
X25870244Y-11072205D02*
X25870244Y-11015636D01*
X25813675Y-11015636D01*
X25813675Y-11072205D01*
X25870244Y-11072205D01*
X26102464Y-14480884D02*
X26102464Y-14424315D01*
X26045895Y-14424315D01*
X26045895Y-14480884D01*
X26102464Y-14480884D01*
X26158344Y-17620325D02*
X26158344Y-17563756D01*
X26101775Y-17563756D01*
X26101775Y-17620325D01*
X26158344Y-17620325D01*
X26216684Y-14940124D02*
X26216684Y-14883555D01*
X26160115Y-14883555D01*
X26160115Y-14940124D01*
X26216684Y-14940124D01*
X26216684Y-15194124D02*
X26216684Y-15137555D01*
X26160115Y-15137555D01*
X26160115Y-15194124D01*
X26216684Y-15194124D01*
X26216684Y-15448124D02*
X26216684Y-15391555D01*
X26160115Y-15391555D01*
X26160115Y-15448124D01*
X26216684Y-15448124D01*
X26216684Y-15702124D02*
X26216684Y-15645555D01*
X26160115Y-15645555D01*
X26160115Y-15702124D01*
X26216684Y-15702124D01*
X26216684Y-15956124D02*
X26216684Y-15899555D01*
X26160115Y-15899555D01*
X26160115Y-15956124D01*
X26216684Y-15956124D01*
X26216684Y-16210124D02*
X26216684Y-16153555D01*
X26160115Y-16153555D01*
X26160115Y-16210124D01*
X26216684Y-16210124D01*
X26216684Y-16464124D02*
X26216684Y-16407555D01*
X26160115Y-16407555D01*
X26160115Y-16464124D01*
X26216684Y-16464124D01*
X26351304Y-18120205D02*
X26351304Y-18063636D01*
X26294735Y-18063636D01*
X26294735Y-18120205D01*
X26351304Y-18120205D01*
X26351304Y-18374205D02*
X26351304Y-18317636D01*
X26294735Y-18317636D01*
X26294735Y-18374205D01*
X26351304Y-18374205D01*
X26351304Y-18628205D02*
X26351304Y-18571636D01*
X26294735Y-18571636D01*
X26294735Y-18628205D01*
X26351304Y-18628205D01*
X26351304Y-18882205D02*
X26351304Y-18825636D01*
X26294735Y-18825636D01*
X26294735Y-18882205D01*
X26351304Y-18882205D01*
X26351304Y-19136205D02*
X26351304Y-19079636D01*
X26294735Y-19079636D01*
X26294735Y-19136205D01*
X26351304Y-19136205D01*
X26351304Y-19390205D02*
X26351304Y-19333636D01*
X26294735Y-19333636D01*
X26294735Y-19390205D01*
X26351304Y-19390205D01*
X26351304Y-19644205D02*
X26351304Y-19587636D01*
X26294735Y-19587636D01*
X26294735Y-19644205D01*
X26351304Y-19644205D01*
X26370244Y-11072205D02*
X26370244Y-11015636D01*
X26313675Y-11015636D01*
X26313675Y-11072205D01*
X26370244Y-11072205D01*
X26465604Y-11574624D02*
X26465604Y-11518055D01*
X26409035Y-11518055D01*
X26409035Y-11574624D01*
X26465604Y-11574624D01*
X26465604Y-11828624D02*
X26465604Y-11772055D01*
X26409035Y-11772055D01*
X26409035Y-11828624D01*
X26465604Y-11828624D01*
X26465604Y-12082624D02*
X26465604Y-12026055D01*
X26409035Y-12026055D01*
X26409035Y-12082624D01*
X26465604Y-12082624D01*
X26465604Y-12336624D02*
X26465604Y-12280055D01*
X26409035Y-12280055D01*
X26409035Y-12336624D01*
X26465604Y-12336624D01*
X26465604Y-12590624D02*
X26465604Y-12534055D01*
X26409035Y-12534055D01*
X26409035Y-12590624D01*
X26465604Y-12590624D01*
X26465604Y-12844624D02*
X26465604Y-12788055D01*
X26409035Y-12788055D01*
X26409035Y-12844624D01*
X26465604Y-12844624D01*
X26465604Y-13098624D02*
X26465604Y-13042055D01*
X26409035Y-13042055D01*
X26409035Y-13098624D01*
X26465604Y-13098624D01*
X27253004Y-14973144D02*
X27253004Y-14916575D01*
X27196435Y-14916575D01*
X27196435Y-14973144D01*
X27253004Y-14973144D01*
X27253004Y-15227144D02*
X27253004Y-15170575D01*
X27196435Y-15170575D01*
X27196435Y-15227144D01*
X27253004Y-15227144D01*
X27253004Y-15481144D02*
X27253004Y-15424575D01*
X27196435Y-15424575D01*
X27196435Y-15481144D01*
X27253004Y-15481144D01*
X27253004Y-15735144D02*
X27253004Y-15678575D01*
X27196435Y-15678575D01*
X27196435Y-15735144D01*
X27253004Y-15735144D01*
X27253004Y-15989144D02*
X27253004Y-15932575D01*
X27196435Y-15932575D01*
X27196435Y-15989144D01*
X27253004Y-15989144D01*
X27253004Y-16243144D02*
X27253004Y-16186575D01*
X27196435Y-16186575D01*
X27196435Y-16243144D01*
X27253004Y-16243144D01*
X27253004Y-16497144D02*
X27253004Y-16440575D01*
X27196435Y-16440575D01*
X27196435Y-16497144D01*
X27253004Y-16497144D01*
X27426184Y-14455484D02*
X27426184Y-14398915D01*
X27369615Y-14398915D01*
X27369615Y-14455484D01*
X27426184Y-14455484D01*
X27476524Y-11574624D02*
X27476524Y-11518055D01*
X27419955Y-11518055D01*
X27419955Y-11574624D01*
X27476524Y-11574624D01*
X27476524Y-11828624D02*
X27476524Y-11772055D01*
X27419955Y-11772055D01*
X27419955Y-11828624D01*
X27476524Y-11828624D01*
X27476524Y-12082624D02*
X27476524Y-12026055D01*
X27419955Y-12026055D01*
X27419955Y-12082624D01*
X27476524Y-12082624D01*
X27476524Y-12336624D02*
X27476524Y-12280055D01*
X27419955Y-12280055D01*
X27419955Y-12336624D01*
X27476524Y-12336624D01*
X27476524Y-12590624D02*
X27476524Y-12534055D01*
X27419955Y-12534055D01*
X27419955Y-12590624D01*
X27476524Y-12590624D01*
X27476524Y-12844624D02*
X27476524Y-12788055D01*
X27419955Y-12788055D01*
X27419955Y-12844624D01*
X27476524Y-12844624D01*
X27476524Y-13098624D02*
X27476524Y-13042055D01*
X27419955Y-13042055D01*
X27419955Y-13098624D01*
X27476524Y-13098624D01*
X27494304Y-18040925D02*
X27494304Y-17984356D01*
X27437735Y-17984356D01*
X27437735Y-18040925D01*
X27494304Y-18040925D01*
X27494304Y-18294925D02*
X27494304Y-18238356D01*
X27437735Y-18238356D01*
X27437735Y-18294925D01*
X27494304Y-18294925D01*
X27494304Y-18548925D02*
X27494304Y-18492356D01*
X27437735Y-18492356D01*
X27437735Y-18548925D01*
X27494304Y-18548925D01*
X27494304Y-18802925D02*
X27494304Y-18746356D01*
X27437735Y-18746356D01*
X27437735Y-18802925D01*
X27494304Y-18802925D01*
X27494304Y-19056925D02*
X27494304Y-19000356D01*
X27437735Y-19000356D01*
X27437735Y-19056925D01*
X27494304Y-19056925D01*
X27494304Y-19310925D02*
X27494304Y-19254356D01*
X27437735Y-19254356D01*
X27437735Y-19310925D01*
X27494304Y-19310925D01*
X27494304Y-19564925D02*
X27494304Y-19508356D01*
X27437735Y-19508356D01*
X27437735Y-19564925D01*
X27494304Y-19564925D01*
X27494304Y-19818925D02*
X27494304Y-19762356D01*
X27437735Y-19762356D01*
X27437735Y-19818925D01*
X27494304Y-19818925D01*
X27609064Y-17683825D02*
X27609064Y-17627256D01*
X27552495Y-17627256D01*
X27552495Y-17683825D01*
X27609064Y-17683825D01*
X27809724Y-11089985D02*
X27809724Y-11033416D01*
X27753155Y-11033416D01*
X27753155Y-11089985D01*
X27809724Y-11089985D01*
X27926184Y-14455484D02*
X27926184Y-14398915D01*
X27869615Y-14398915D01*
X27869615Y-14455484D01*
X27926184Y-14455484D01*
X28015004Y-14973144D02*
X28015004Y-14916575D01*
X27958435Y-14916575D01*
X27958435Y-14973144D01*
X28015004Y-14973144D01*
X28015004Y-15227144D02*
X28015004Y-15170575D01*
X27958435Y-15170575D01*
X27958435Y-15227144D01*
X28015004Y-15227144D01*
X28015004Y-15481144D02*
X28015004Y-15424575D01*
X27958435Y-15424575D01*
X27958435Y-15481144D01*
X28015004Y-15481144D01*
X28015004Y-15735144D02*
X28015004Y-15678575D01*
X27958435Y-15678575D01*
X27958435Y-15735144D01*
X28015004Y-15735144D01*
X28015004Y-15989144D02*
X28015004Y-15932575D01*
X27958435Y-15932575D01*
X27958435Y-15989144D01*
X28015004Y-15989144D01*
X28015004Y-16243144D02*
X28015004Y-16186575D01*
X27958435Y-16186575D01*
X27958435Y-16243144D01*
X28015004Y-16243144D01*
X28015004Y-16497144D02*
X28015004Y-16440575D01*
X27958435Y-16440575D01*
X27958435Y-16497144D01*
X28015004Y-16497144D01*
X28109064Y-17683825D02*
X28109064Y-17627256D01*
X28052495Y-17627256D01*
X28052495Y-17683825D01*
X28109064Y-17683825D01*
X28238524Y-11574624D02*
X28238524Y-11518055D01*
X28181955Y-11518055D01*
X28181955Y-11574624D01*
X28238524Y-11574624D01*
X28238524Y-11828624D02*
X28238524Y-11772055D01*
X28181955Y-11772055D01*
X28181955Y-11828624D01*
X28238524Y-11828624D01*
X28238524Y-12082624D02*
X28238524Y-12026055D01*
X28181955Y-12026055D01*
X28181955Y-12082624D01*
X28238524Y-12082624D01*
X28238524Y-12336624D02*
X28238524Y-12280055D01*
X28181955Y-12280055D01*
X28181955Y-12336624D01*
X28238524Y-12336624D01*
X28238524Y-12590624D02*
X28238524Y-12534055D01*
X28181955Y-12534055D01*
X28181955Y-12590624D01*
X28238524Y-12590624D01*
X28238524Y-12844624D02*
X28238524Y-12788055D01*
X28181955Y-12788055D01*
X28181955Y-12844624D01*
X28238524Y-12844624D01*
X28238524Y-13098624D02*
X28238524Y-13042055D01*
X28181955Y-13042055D01*
X28181955Y-13098624D01*
X28238524Y-13098624D01*
X28256304Y-18040925D02*
X28256304Y-17984356D01*
X28199735Y-17984356D01*
X28199735Y-18040925D01*
X28256304Y-18040925D01*
X28256304Y-18294925D02*
X28256304Y-18238356D01*
X28199735Y-18238356D01*
X28199735Y-18294925D01*
X28256304Y-18294925D01*
X28256304Y-18548925D02*
X28256304Y-18492356D01*
X28199735Y-18492356D01*
X28199735Y-18548925D01*
X28256304Y-18548925D01*
X28256304Y-18802925D02*
X28256304Y-18746356D01*
X28199735Y-18746356D01*
X28199735Y-18802925D01*
X28256304Y-18802925D01*
X28256304Y-19056925D02*
X28256304Y-19000356D01*
X28199735Y-19000356D01*
X28199735Y-19056925D01*
X28256304Y-19056925D01*
X28256304Y-19310925D02*
X28256304Y-19254356D01*
X28199735Y-19254356D01*
X28199735Y-19310925D01*
X28256304Y-19310925D01*
X28256304Y-19564925D02*
X28256304Y-19508356D01*
X28199735Y-19508356D01*
X28199735Y-19564925D01*
X28256304Y-19564925D01*
X28256304Y-19818925D02*
X28256304Y-19762356D01*
X28199735Y-19762356D01*
X28199735Y-19818925D01*
X28256304Y-19818925D01*
X28309724Y-11089985D02*
X28309724Y-11033416D01*
X28253155Y-11033416D01*
X28253155Y-11089985D01*
X28309724Y-11089985D01*
D16*
X13860780Y-14373640D02*
X13905780Y-14328640D01*
X13860780Y-14283640D01*
X13815780Y-14328640D01*
X13860780Y-14373640D01*
X13860780Y-14627640D02*
X13905780Y-14582640D01*
X13860780Y-14537640D01*
X13815780Y-14582640D01*
X13860780Y-14627640D01*
X21599080Y-19660340D02*
X21644080Y-19615340D01*
X21599080Y-19570340D01*
X21554080Y-19615340D01*
X21599080Y-19660340D01*
X21599080Y-20160340D02*
X21644080Y-20115340D01*
X21599080Y-20070340D01*
X21554080Y-20115340D01*
X21599080Y-20160340D01*
X22099080Y-19910340D02*
X22144080Y-19865340D01*
X22099080Y-19820340D01*
X22054080Y-19865340D01*
X22099080Y-19910340D01*
D17*
X13917460Y-10253010D02*
X14017460Y-10353010D01*
X14017460Y-10253010D02*
X13917460Y-10353010D01*
X14017460Y-10303010D02*
G75*
G03*
X14017460Y-10303010I-50000J0D01*
G01*
D11*
X13927460Y-10203010D02*
X13927460Y-10403010D01*
X14007460Y-10203010D02*
X14007460Y-10403010D01*
X13927460Y-10403010D02*
G75*
G03*
X14007460Y-10403010I40000J0D01*
G01*
X14007460Y-10203010D02*
G75*
G03*
X13927460Y-10203010I-40000J0D01*
G01*
D17*
X14217460Y-10723010D02*
X14317460Y-10823010D01*
X14317460Y-10723010D02*
X14217460Y-10823010D01*
X14317460Y-10773010D02*
G75*
G03*
X14317460Y-10773010I-50000J0D01*
G01*
D11*
X14167460Y-10813010D02*
X14367460Y-10813010D01*
X14167460Y-10733010D02*
X14367460Y-10733010D01*
X14367460Y-10813010D02*
G75*
G03*
X14367460Y-10733010I0J40000D01*
G01*
X14167460Y-10733010D02*
G75*
G03*
X14167460Y-10813010I0J-40000D01*
G01*
D17*
X14517460Y-10253010D02*
X14617460Y-10353010D01*
X14617460Y-10253010D02*
X14517460Y-10353010D01*
X14617460Y-10303010D02*
G75*
G03*
X14617460Y-10303010I-50000J0D01*
G01*
D11*
X14527460Y-10203010D02*
X14527460Y-10403010D01*
X14607460Y-10203010D02*
X14607460Y-10403010D01*
X14527460Y-10403010D02*
G75*
G03*
X14607460Y-10403010I40000J0D01*
G01*
X14607460Y-10203010D02*
G75*
G03*
X14527460Y-10203010I-40000J0D01*
G01*
D17*
X15365260Y-18954280D02*
X15465260Y-19054280D01*
X15465260Y-18954280D02*
X15365260Y-19054280D01*
X15465260Y-19004280D02*
G75*
G03*
X15465260Y-19004280I-50000J0D01*
G01*
X15365260Y-19208280D02*
X15465260Y-19308280D01*
X15465260Y-19208280D02*
X15365260Y-19308280D01*
X15465260Y-19258280D02*
G75*
G03*
X15465260Y-19258280I-50000J0D01*
G01*
X15365260Y-19462280D02*
X15465260Y-19562280D01*
X15465260Y-19462280D02*
X15365260Y-19562280D01*
X15465260Y-19512280D02*
G75*
G03*
X15465260Y-19512280I-50000J0D01*
G01*
X15446540Y-20704340D02*
X15546540Y-20804340D01*
X15546540Y-20704340D02*
X15446540Y-20804340D01*
X15546540Y-20754340D02*
G75*
G03*
X15546540Y-20754340I-50000J0D01*
G01*
X15446540Y-20958340D02*
X15546540Y-21058340D01*
X15546540Y-20958340D02*
X15446540Y-21058340D01*
X15546540Y-21008340D02*
G75*
G03*
X15546540Y-21008340I-50000J0D01*
G01*
X21735580Y-9560410D02*
X21835580Y-9660410D01*
X21835580Y-9560410D02*
X21735580Y-9660410D01*
X21835580Y-9610410D02*
G75*
G03*
X21835580Y-9610410I-50000J0D01*
G01*
X21735580Y-9814410D02*
X21835580Y-9914410D01*
X21835580Y-9814410D02*
X21735580Y-9914410D01*
X21835580Y-9864410D02*
G75*
G03*
X21835580Y-9864410I-50000J0D01*
G01*
X21989580Y-9560410D02*
X22089580Y-9660410D01*
X22089580Y-9560410D02*
X21989580Y-9660410D01*
X22089580Y-9610410D02*
G75*
G03*
X22089580Y-9610410I-50000J0D01*
G01*
X21989580Y-9814410D02*
X22089580Y-9914410D01*
X22089580Y-9814410D02*
X21989580Y-9914410D01*
X22089580Y-9864410D02*
G75*
G03*
X22089580Y-9864410I-50000J0D01*
G01*
X22243580Y-9560410D02*
X22343580Y-9660410D01*
X22343580Y-9560410D02*
X22243580Y-9660410D01*
X22343580Y-9610410D02*
G75*
G03*
X22343580Y-9610410I-50000J0D01*
G01*
X22243580Y-9814410D02*
X22343580Y-9914410D01*
X22343580Y-9814410D02*
X22243580Y-9914410D01*
X22343580Y-9864410D02*
G75*
G03*
X22343580Y-9864410I-50000J0D01*
G01*
X22497580Y-9560410D02*
X22597580Y-9660410D01*
X22597580Y-9560410D02*
X22497580Y-9660410D01*
X22597580Y-9610410D02*
G75*
G03*
X22597580Y-9610410I-50000J0D01*
G01*
X22497580Y-9814410D02*
X22597580Y-9914410D01*
X22597580Y-9814410D02*
X22497580Y-9914410D01*
X22597580Y-9864410D02*
G75*
G03*
X22597580Y-9864410I-50000J0D01*
G01*
X22751580Y-9560410D02*
X22851580Y-9660410D01*
X22851580Y-9560410D02*
X22751580Y-9660410D01*
X22851580Y-9610410D02*
G75*
G03*
X22851580Y-9610410I-50000J0D01*
G01*
X22751580Y-9814410D02*
X22851580Y-9914410D01*
X22851580Y-9814410D02*
X22751580Y-9914410D01*
X22851580Y-9864410D02*
G75*
G03*
X22851580Y-9864410I-50000J0D01*
G01*
X23005580Y-9560410D02*
X23105580Y-9660410D01*
X23105580Y-9560410D02*
X23005580Y-9660410D01*
X23105580Y-9610410D02*
G75*
G03*
X23105580Y-9610410I-50000J0D01*
G01*
X23005580Y-9814410D02*
X23105580Y-9914410D01*
X23105580Y-9814410D02*
X23005580Y-9914410D01*
X23105580Y-9864410D02*
G75*
G03*
X23105580Y-9864410I-50000J0D01*
G01*
X23259580Y-9560410D02*
X23359580Y-9660410D01*
X23359580Y-9560410D02*
X23259580Y-9660410D01*
X23359580Y-9610410D02*
G75*
G03*
X23359580Y-9610410I-50000J0D01*
G01*
X23259580Y-9814410D02*
X23359580Y-9914410D01*
X23359580Y-9814410D02*
X23259580Y-9914410D01*
X23359580Y-9864410D02*
G75*
G03*
X23359580Y-9864410I-50000J0D01*
G01*
X23513580Y-9560410D02*
X23613580Y-9660410D01*
X23613580Y-9560410D02*
X23513580Y-9660410D01*
X23613580Y-9610410D02*
G75*
G03*
X23613580Y-9610410I-50000J0D01*
G01*
X23513580Y-9814410D02*
X23613580Y-9914410D01*
X23613580Y-9814410D02*
X23513580Y-9914410D01*
X23613580Y-9864410D02*
G75*
G03*
X23613580Y-9864410I-50000J0D01*
G01*
X23767580Y-9560410D02*
X23867580Y-9660410D01*
X23867580Y-9560410D02*
X23767580Y-9660410D01*
X23867580Y-9610410D02*
G75*
G03*
X23867580Y-9610410I-50000J0D01*
G01*
X23767580Y-9814410D02*
X23867580Y-9914410D01*
X23867580Y-9814410D02*
X23767580Y-9914410D01*
X23867580Y-9864410D02*
G75*
G03*
X23867580Y-9864410I-50000J0D01*
G01*
X24021580Y-9560410D02*
X24121580Y-9660410D01*
X24121580Y-9560410D02*
X24021580Y-9660410D01*
X24121580Y-9610410D02*
G75*
G03*
X24121580Y-9610410I-50000J0D01*
G01*
X24021580Y-9814410D02*
X24121580Y-9914410D01*
X24121580Y-9814410D02*
X24021580Y-9914410D01*
X24121580Y-9864410D02*
G75*
G03*
X24121580Y-9864410I-50000J0D01*
G01*
X24275580Y-9560410D02*
X24375580Y-9660410D01*
X24375580Y-9560410D02*
X24275580Y-9660410D01*
X24375580Y-9610410D02*
G75*
G03*
X24375580Y-9610410I-50000J0D01*
G01*
X24275580Y-9814410D02*
X24375580Y-9914410D01*
X24375580Y-9814410D02*
X24275580Y-9914410D01*
X24375580Y-9864410D02*
G75*
G03*
X24375580Y-9864410I-50000J0D01*
G01*
X24529580Y-9560410D02*
X24629580Y-9660410D01*
X24629580Y-9560410D02*
X24529580Y-9660410D01*
X24629580Y-9610410D02*
G75*
G03*
X24629580Y-9610410I-50000J0D01*
G01*
X24529580Y-9814410D02*
X24629580Y-9914410D01*
X24629580Y-9814410D02*
X24529580Y-9914410D01*
X24629580Y-9864410D02*
G75*
G03*
X24629580Y-9864410I-50000J0D01*
G01*
X24783580Y-9560410D02*
X24883580Y-9660410D01*
X24883580Y-9560410D02*
X24783580Y-9660410D01*
X24883580Y-9610410D02*
G75*
G03*
X24883580Y-9610410I-50000J0D01*
G01*
X24783580Y-9814410D02*
X24883580Y-9914410D01*
X24883580Y-9814410D02*
X24783580Y-9914410D01*
X24883580Y-9864410D02*
G75*
G03*
X24883580Y-9864410I-50000J0D01*
G01*
X25037580Y-9560410D02*
X25137580Y-9660410D01*
X25137580Y-9560410D02*
X25037580Y-9660410D01*
X25137580Y-9610410D02*
G75*
G03*
X25137580Y-9610410I-50000J0D01*
G01*
X25037580Y-9814410D02*
X25137580Y-9914410D01*
X25137580Y-9814410D02*
X25037580Y-9914410D01*
X25137580Y-9864410D02*
G75*
G03*
X25137580Y-9864410I-50000J0D01*
G01*
X25291580Y-9560410D02*
X25391580Y-9660410D01*
X25391580Y-9560410D02*
X25291580Y-9660410D01*
X25391580Y-9610410D02*
G75*
G03*
X25391580Y-9610410I-50000J0D01*
G01*
X25291580Y-9814410D02*
X25391580Y-9914410D01*
X25391580Y-9814410D02*
X25291580Y-9914410D01*
X25391580Y-9864410D02*
G75*
G03*
X25391580Y-9864410I-50000J0D01*
G01*
X25545580Y-9560410D02*
X25645580Y-9660410D01*
X25645580Y-9560410D02*
X25545580Y-9660410D01*
X25645580Y-9610410D02*
G75*
G03*
X25645580Y-9610410I-50000J0D01*
G01*
X25545580Y-9814410D02*
X25645580Y-9914410D01*
X25645580Y-9814410D02*
X25545580Y-9914410D01*
X25645580Y-9864410D02*
G75*
G03*
X25645580Y-9864410I-50000J0D01*
G01*
X25799580Y-9560410D02*
X25899580Y-9660410D01*
X25899580Y-9560410D02*
X25799580Y-9660410D01*
X25899580Y-9610410D02*
G75*
G03*
X25899580Y-9610410I-50000J0D01*
G01*
X25799580Y-9814410D02*
X25899580Y-9914410D01*
X25899580Y-9814410D02*
X25799580Y-9914410D01*
X25899580Y-9864410D02*
G75*
G03*
X25899580Y-9864410I-50000J0D01*
G01*
X26053580Y-9560410D02*
X26153580Y-9660410D01*
X26153580Y-9560410D02*
X26053580Y-9660410D01*
X26153580Y-9610410D02*
G75*
G03*
X26153580Y-9610410I-50000J0D01*
G01*
X26053580Y-9814410D02*
X26153580Y-9914410D01*
X26153580Y-9814410D02*
X26053580Y-9914410D01*
X26153580Y-9864410D02*
G75*
G03*
X26153580Y-9864410I-50000J0D01*
G01*
X26307580Y-9560410D02*
X26407580Y-9660410D01*
X26407580Y-9560410D02*
X26307580Y-9660410D01*
X26407580Y-9610410D02*
G75*
G03*
X26407580Y-9610410I-50000J0D01*
G01*
X26307580Y-9814410D02*
X26407580Y-9914410D01*
X26407580Y-9814410D02*
X26307580Y-9914410D01*
X26407580Y-9864410D02*
G75*
G03*
X26407580Y-9864410I-50000J0D01*
G01*
X26561580Y-9560410D02*
X26661580Y-9660410D01*
X26661580Y-9560410D02*
X26561580Y-9660410D01*
X26661580Y-9610410D02*
G75*
G03*
X26661580Y-9610410I-50000J0D01*
G01*
X26561580Y-9814410D02*
X26661580Y-9914410D01*
X26661580Y-9814410D02*
X26561580Y-9914410D01*
X26661580Y-9864410D02*
G75*
G03*
X26661580Y-9864410I-50000J0D01*
G01*
D18*
X13560275Y-12409280D02*
X13669275Y-12518280D01*
X13669275Y-12409280D02*
X13560275Y-12518280D01*
X13614775Y-12409280D02*
X13614775Y-12518280D01*
X13560275Y-12463780D02*
X13669275Y-12463780D01*
X13560275Y-12917280D02*
X13669275Y-13026280D01*
X13669275Y-12917280D02*
X13560275Y-13026280D01*
X13614775Y-12917280D02*
X13614775Y-13026280D01*
X13560275Y-12971780D02*
X13669275Y-12971780D01*
X14068275Y-12409280D02*
X14177275Y-12518280D01*
X14177275Y-12409280D02*
X14068275Y-12518280D01*
X14122775Y-12409280D02*
X14122775Y-12518280D01*
X14068275Y-12463780D02*
X14177275Y-12463780D01*
X14068275Y-12663280D02*
X14177275Y-12772280D01*
X14177275Y-12663280D02*
X14068275Y-12772280D01*
X14122775Y-12663280D02*
X14122775Y-12772280D01*
X14068275Y-12717780D02*
X14177275Y-12717780D01*
X14068275Y-12917280D02*
X14177275Y-13026280D01*
X14177275Y-12917280D02*
X14068275Y-13026280D01*
X14122775Y-12917280D02*
X14122775Y-13026280D01*
X14068275Y-12971780D02*
X14177275Y-12971780D01*
D19*
X15296760Y-10534260D02*
X15406760Y-10644260D01*
X15406760Y-10534260D02*
X15296760Y-10644260D01*
X15390651Y-10628151D02*
X15390651Y-10550369D01*
X15312869Y-10550369D01*
X15312869Y-10628151D01*
X15390651Y-10628151D01*
X16312760Y-10534260D02*
X16422760Y-10644260D01*
X16422760Y-10534260D02*
X16312760Y-10644260D01*
X16406651Y-10628151D02*
X16406651Y-10550369D01*
X16328869Y-10550369D01*
X16328869Y-10628151D01*
X16406651Y-10628151D01*
X16340700Y-15731100D02*
X16450700Y-15841100D01*
X16450700Y-15731100D02*
X16340700Y-15841100D01*
X16434591Y-15824991D02*
X16434591Y-15747209D01*
X16356809Y-15747209D01*
X16356809Y-15824991D01*
X16434591Y-15824991D01*
X16340700Y-15985100D02*
X16450700Y-16095100D01*
X16450700Y-15985100D02*
X16340700Y-16095100D01*
X16434591Y-16078991D02*
X16434591Y-16001209D01*
X16356809Y-16001209D01*
X16356809Y-16078991D01*
X16434591Y-16078991D01*
X16340700Y-16239100D02*
X16450700Y-16349100D01*
X16450700Y-16239100D02*
X16340700Y-16349100D01*
X16434591Y-16332991D02*
X16434591Y-16255209D01*
X16356809Y-16255209D01*
X16356809Y-16332991D01*
X16434591Y-16332991D01*
D20*
X15694865Y-12035480D02*
X15814865Y-12155480D01*
X15814865Y-12035480D02*
X15694865Y-12155480D01*
X15754865Y-12155480D02*
X15814865Y-12095480D01*
X15754865Y-12035480D01*
X15694865Y-12095480D01*
X15754865Y-12155480D01*
X16444865Y-12035480D02*
X16564865Y-12155480D01*
X16564865Y-12035480D02*
X16444865Y-12155480D01*
X16504865Y-12155480D02*
X16564865Y-12095480D01*
X16504865Y-12035480D01*
X16444865Y-12095480D01*
X16504865Y-12155480D01*
D21*
X14026520Y-18106480D02*
X14026520Y-18276480D01*
X13941520Y-18191480D02*
X14111520Y-18191480D01*
X14111520Y-18191480D02*
G75*
G03*
X14111520Y-18191480I-85000J0D01*
G01*
X17408910Y-9580580D02*
X17408910Y-9750580D01*
X17323910Y-9665580D02*
X17493910Y-9665580D01*
X17493910Y-9665580D02*
G75*
G03*
X17493910Y-9665580I-85000J0D01*
G01*
X17804910Y-9580580D02*
X17804910Y-9750580D01*
X17719910Y-9665580D02*
X17889910Y-9665580D01*
X17889910Y-9665580D02*
G75*
G03*
X17889910Y-9665580I-85000J0D01*
G01*
X18200910Y-9580580D02*
X18200910Y-9750580D01*
X18115910Y-9665580D02*
X18285910Y-9665580D01*
X18285910Y-9665580D02*
G75*
G03*
X18285910Y-9665580I-85000J0D01*
G01*
X18596910Y-9580580D02*
X18596910Y-9750580D01*
X18511910Y-9665580D02*
X18681910Y-9665580D01*
X18681910Y-9665580D02*
G75*
G03*
X18681910Y-9665580I-85000J0D01*
G01*
D22*
X13668445Y-18283405D02*
X13668445Y-18099555D01*
X13484595Y-18099555D01*
X13484595Y-18283405D01*
X13668445Y-18283405D01*
X13706520Y-18191480D02*
G75*
G03*
X13706520Y-18191480I-130000J0D01*
G01*
X14118445Y-17783405D02*
X14118445Y-17599555D01*
X13934595Y-17599555D01*
X13934595Y-17783405D01*
X14118445Y-17783405D01*
X14156520Y-17691480D02*
G75*
G03*
X14156520Y-17691480I-130000J0D01*
G01*
X14118445Y-18783405D02*
X14118445Y-18599555D01*
X13934595Y-18599555D01*
X13934595Y-18783405D01*
X14118445Y-18783405D01*
X14156520Y-18691480D02*
G75*
G03*
X14156520Y-18691480I-130000J0D01*
G01*
D11*
X13417399Y-22017276D02*
X13417399Y-21817276D01*
X13465018Y-21817276D01*
X13493589Y-21826800D01*
X13512637Y-21845848D01*
X13522161Y-21864895D01*
X13531685Y-21902990D01*
X13531685Y-21931562D01*
X13522161Y-21969657D01*
X13512637Y-21988705D01*
X13493589Y-22007752D01*
X13465018Y-22017276D01*
X13417399Y-22017276D01*
X13617399Y-22017276D02*
X13617399Y-21883943D01*
X13617399Y-21922038D02*
X13626923Y-21902990D01*
X13636447Y-21893467D01*
X13655494Y-21883943D01*
X13674542Y-21883943D01*
X13741208Y-22017276D02*
X13741208Y-21883943D01*
X13741208Y-21817276D02*
X13731685Y-21826800D01*
X13741208Y-21836324D01*
X13750732Y-21826800D01*
X13741208Y-21817276D01*
X13741208Y-21836324D01*
X13865018Y-22017276D02*
X13845970Y-22007752D01*
X13836447Y-21988705D01*
X13836447Y-21817276D01*
X13969780Y-22017276D02*
X13950732Y-22007752D01*
X13941208Y-21988705D01*
X13941208Y-21817276D01*
X14198351Y-22017276D02*
X14198351Y-21817276D01*
X14265018Y-21960133D01*
X14331685Y-21817276D01*
X14331685Y-22017276D01*
X14512637Y-22017276D02*
X14512637Y-21912514D01*
X14503113Y-21893467D01*
X14484066Y-21883943D01*
X14445970Y-21883943D01*
X14426923Y-21893467D01*
X14512637Y-22007752D02*
X14493589Y-22017276D01*
X14445970Y-22017276D01*
X14426923Y-22007752D01*
X14417399Y-21988705D01*
X14417399Y-21969657D01*
X14426923Y-21950610D01*
X14445970Y-21941086D01*
X14493589Y-21941086D01*
X14512637Y-21931562D01*
X14607875Y-21883943D02*
X14607875Y-22083943D01*
X14607875Y-21893467D02*
X14626923Y-21883943D01*
X14665018Y-21883943D01*
X14684066Y-21893467D01*
X14693589Y-21902990D01*
X14703113Y-21922038D01*
X14703113Y-21979181D01*
X14693589Y-21998229D01*
X14684066Y-22007752D01*
X14665018Y-22017276D01*
X14626923Y-22017276D01*
X14607875Y-22007752D01*
X14788828Y-21998229D02*
X14798351Y-22007752D01*
X14788828Y-22017276D01*
X14779304Y-22007752D01*
X14788828Y-21998229D01*
X14788828Y-22017276D01*
X14788828Y-21893467D02*
X14798351Y-21902990D01*
X14788828Y-21912514D01*
X14779304Y-21902990D01*
X14788828Y-21893467D01*
X14788828Y-21912514D01*
D12*
X13119780Y-22326800D02*
X13159780Y-22366800D01*
X13159780Y-22326800D02*
X13119780Y-22366800D01*
D11*
X13455494Y-22237276D02*
X13474542Y-22237276D01*
X13493589Y-22246800D01*
X13503113Y-22256324D01*
X13512637Y-22275371D01*
X13522161Y-22313467D01*
X13522161Y-22361086D01*
X13512637Y-22399181D01*
X13503113Y-22418228D01*
X13493589Y-22427752D01*
X13474542Y-22437276D01*
X13455494Y-22437276D01*
X13436447Y-22427752D01*
X13426923Y-22418228D01*
X13417399Y-22399181D01*
X13407875Y-22361086D01*
X13407875Y-22313467D01*
X13417399Y-22275371D01*
X13426923Y-22256324D01*
X13436447Y-22246800D01*
X13455494Y-22237276D01*
X13607875Y-22418228D02*
X13617399Y-22427752D01*
X13607875Y-22437276D01*
X13598351Y-22427752D01*
X13607875Y-22418228D01*
X13607875Y-22437276D01*
X13788828Y-22303943D02*
X13788828Y-22437276D01*
X13741208Y-22227752D02*
X13693589Y-22370609D01*
X13817399Y-22370609D01*
X13931685Y-22237276D02*
X13950732Y-22237276D01*
X13969780Y-22246800D01*
X13979304Y-22256324D01*
X13988828Y-22275371D01*
X13998351Y-22313467D01*
X13998351Y-22361086D01*
X13988828Y-22399181D01*
X13979304Y-22418228D01*
X13969780Y-22427752D01*
X13950732Y-22437276D01*
X13931685Y-22437276D01*
X13912637Y-22427752D01*
X13903113Y-22418228D01*
X13893589Y-22399181D01*
X13884066Y-22361086D01*
X13884066Y-22313467D01*
X13893589Y-22275371D01*
X13903113Y-22256324D01*
X13912637Y-22246800D01*
X13931685Y-22237276D01*
X14122161Y-22237276D02*
X14141208Y-22237276D01*
X14160256Y-22246800D01*
X14169780Y-22256324D01*
X14179304Y-22275371D01*
X14188828Y-22313467D01*
X14188828Y-22361086D01*
X14179304Y-22399181D01*
X14169780Y-22418228D01*
X14160256Y-22427752D01*
X14141208Y-22437276D01*
X14122161Y-22437276D01*
X14103113Y-22427752D01*
X14093589Y-22418228D01*
X14084066Y-22399181D01*
X14074542Y-22361086D01*
X14074542Y-22313467D01*
X14084066Y-22275371D01*
X14093589Y-22256324D01*
X14103113Y-22246800D01*
X14122161Y-22237276D01*
X14274542Y-22437276D02*
X14274542Y-22303943D01*
X14274542Y-22322990D02*
X14284066Y-22313467D01*
X14303113Y-22303943D01*
X14331685Y-22303943D01*
X14350732Y-22313467D01*
X14360256Y-22332514D01*
X14360256Y-22437276D01*
X14360256Y-22332514D02*
X14369780Y-22313467D01*
X14388828Y-22303943D01*
X14417399Y-22303943D01*
X14436447Y-22313467D01*
X14445970Y-22332514D01*
X14445970Y-22437276D01*
X14541208Y-22437276D02*
X14541208Y-22303943D01*
X14541208Y-22322990D02*
X14550732Y-22313467D01*
X14569780Y-22303943D01*
X14598351Y-22303943D01*
X14617399Y-22313467D01*
X14626923Y-22332514D01*
X14626923Y-22437276D01*
X14626923Y-22332514D02*
X14636447Y-22313467D01*
X14655494Y-22303943D01*
X14684066Y-22303943D01*
X14703113Y-22313467D01*
X14712637Y-22332514D01*
X14712637Y-22437276D01*
X15103113Y-22227752D02*
X14931685Y-22484895D01*
X15360256Y-22237276D02*
X15379304Y-22237276D01*
X15398351Y-22246800D01*
X15407875Y-22256324D01*
X15417399Y-22275371D01*
X15426923Y-22313467D01*
X15426923Y-22361086D01*
X15417399Y-22399181D01*
X15407875Y-22418228D01*
X15398351Y-22427752D01*
X15379304Y-22437276D01*
X15360256Y-22437276D01*
X15341208Y-22427752D01*
X15331685Y-22418228D01*
X15322161Y-22399181D01*
X15312637Y-22361086D01*
X15312637Y-22313467D01*
X15322161Y-22275371D01*
X15331685Y-22256324D01*
X15341208Y-22246800D01*
X15360256Y-22237276D01*
X15512637Y-22418228D02*
X15522161Y-22427752D01*
X15512637Y-22437276D01*
X15503113Y-22427752D01*
X15512637Y-22418228D01*
X15512637Y-22437276D01*
X15645970Y-22237276D02*
X15665018Y-22237276D01*
X15684066Y-22246800D01*
X15693589Y-22256324D01*
X15703113Y-22275371D01*
X15712637Y-22313467D01*
X15712637Y-22361086D01*
X15703113Y-22399181D01*
X15693589Y-22418228D01*
X15684066Y-22427752D01*
X15665018Y-22437276D01*
X15645970Y-22437276D01*
X15626923Y-22427752D01*
X15617399Y-22418228D01*
X15607875Y-22399181D01*
X15598351Y-22361086D01*
X15598351Y-22313467D01*
X15607875Y-22275371D01*
X15617399Y-22256324D01*
X15626923Y-22246800D01*
X15645970Y-22237276D01*
X15903113Y-22437276D02*
X15788828Y-22437276D01*
X15845970Y-22437276D02*
X15845970Y-22237276D01*
X15826923Y-22265848D01*
X15807875Y-22284895D01*
X15788828Y-22294419D01*
X16084066Y-22237276D02*
X15988828Y-22237276D01*
X15979304Y-22332514D01*
X15988828Y-22322990D01*
X16007875Y-22313467D01*
X16055494Y-22313467D01*
X16074542Y-22322990D01*
X16084066Y-22332514D01*
X16093589Y-22351562D01*
X16093589Y-22399181D01*
X16084066Y-22418228D01*
X16074542Y-22427752D01*
X16055494Y-22437276D01*
X16007875Y-22437276D01*
X15988828Y-22427752D01*
X15979304Y-22418228D01*
X16160256Y-22237276D02*
X16293589Y-22237276D01*
X16207875Y-22437276D01*
X16360256Y-22237276D02*
X16360256Y-22275371D01*
X16436447Y-22237276D02*
X16436447Y-22275371D01*
X16731685Y-22513467D02*
X16722161Y-22503943D01*
X16703113Y-22475371D01*
X16693589Y-22456324D01*
X16684066Y-22427752D01*
X16674542Y-22380133D01*
X16674542Y-22342038D01*
X16684066Y-22294419D01*
X16693589Y-22265848D01*
X16703113Y-22246800D01*
X16722161Y-22218229D01*
X16731685Y-22208705D01*
X16836447Y-22322990D02*
X16817399Y-22313467D01*
X16807875Y-22303943D01*
X16798351Y-22284895D01*
X16798351Y-22275371D01*
X16807875Y-22256324D01*
X16817399Y-22246800D01*
X16836447Y-22237276D01*
X16874542Y-22237276D01*
X16893590Y-22246800D01*
X16903113Y-22256324D01*
X16912637Y-22275371D01*
X16912637Y-22284895D01*
X16903113Y-22303943D01*
X16893590Y-22313467D01*
X16874542Y-22322990D01*
X16836447Y-22322990D01*
X16817399Y-22332514D01*
X16807875Y-22342038D01*
X16798351Y-22361086D01*
X16798351Y-22399181D01*
X16807875Y-22418228D01*
X16817399Y-22427752D01*
X16836447Y-22437276D01*
X16874542Y-22437276D01*
X16893590Y-22427752D01*
X16903113Y-22418228D01*
X16912637Y-22399181D01*
X16912637Y-22361086D01*
X16903113Y-22342038D01*
X16893590Y-22332514D01*
X16874542Y-22322990D01*
X17103113Y-22437276D02*
X16988828Y-22437276D01*
X17045970Y-22437276D02*
X17045970Y-22237276D01*
X17026923Y-22265848D01*
X17007875Y-22284895D01*
X16988828Y-22294419D01*
X17341209Y-22437276D02*
X17341209Y-22237276D01*
X17426923Y-22437276D02*
X17426923Y-22332514D01*
X17417399Y-22313467D01*
X17398351Y-22303943D01*
X17369780Y-22303943D01*
X17350732Y-22313467D01*
X17341209Y-22322990D01*
X17550732Y-22437276D02*
X17531685Y-22427752D01*
X17522161Y-22418228D01*
X17512637Y-22399181D01*
X17512637Y-22342038D01*
X17522161Y-22322990D01*
X17531685Y-22313467D01*
X17550732Y-22303943D01*
X17579304Y-22303943D01*
X17598351Y-22313467D01*
X17607875Y-22322990D01*
X17617399Y-22342038D01*
X17617399Y-22399181D01*
X17607875Y-22418228D01*
X17598351Y-22427752D01*
X17579304Y-22437276D01*
X17550732Y-22437276D01*
X17731685Y-22437276D02*
X17712637Y-22427752D01*
X17703113Y-22408705D01*
X17703113Y-22237276D01*
X17884066Y-22427752D02*
X17865018Y-22437276D01*
X17826923Y-22437276D01*
X17807875Y-22427752D01*
X17798351Y-22408705D01*
X17798351Y-22332514D01*
X17807875Y-22313467D01*
X17826923Y-22303943D01*
X17865018Y-22303943D01*
X17884066Y-22313467D01*
X17893590Y-22332514D01*
X17893590Y-22351562D01*
X17798351Y-22370609D01*
X17969780Y-22427752D02*
X17988828Y-22437276D01*
X18026923Y-22437276D01*
X18045970Y-22427752D01*
X18055494Y-22408705D01*
X18055494Y-22399181D01*
X18045970Y-22380133D01*
X18026923Y-22370609D01*
X17998351Y-22370609D01*
X17979304Y-22361086D01*
X17969780Y-22342038D01*
X17969780Y-22332514D01*
X17979304Y-22313467D01*
X17998351Y-22303943D01*
X18026923Y-22303943D01*
X18045970Y-22313467D01*
X18122161Y-22513467D02*
X18131685Y-22503943D01*
X18150732Y-22475371D01*
X18160256Y-22456324D01*
X18169780Y-22427752D01*
X18179304Y-22380133D01*
X18179304Y-22342038D01*
X18169780Y-22294419D01*
X18160256Y-22265848D01*
X18150732Y-22246800D01*
X18131685Y-22218229D01*
X18122161Y-22208705D01*
D13*
X13159780Y-22610800D02*
G75*
G03*
X13159780Y-22610800I-35000J0D01*
G01*
D11*
X13455494Y-22501276D02*
X13474542Y-22501276D01*
X13493589Y-22510800D01*
X13503113Y-22520324D01*
X13512637Y-22539371D01*
X13522161Y-22577467D01*
X13522161Y-22625086D01*
X13512637Y-22663181D01*
X13503113Y-22682228D01*
X13493589Y-22691752D01*
X13474542Y-22701276D01*
X13455494Y-22701276D01*
X13436447Y-22691752D01*
X13426923Y-22682228D01*
X13417399Y-22663181D01*
X13407875Y-22625086D01*
X13407875Y-22577467D01*
X13417399Y-22539371D01*
X13426923Y-22520324D01*
X13436447Y-22510800D01*
X13455494Y-22501276D01*
X13607875Y-22682228D02*
X13617399Y-22691752D01*
X13607875Y-22701276D01*
X13598351Y-22691752D01*
X13607875Y-22682228D01*
X13607875Y-22701276D01*
X13684066Y-22501276D02*
X13817399Y-22501276D01*
X13731685Y-22701276D01*
X13931685Y-22501276D02*
X13950732Y-22501276D01*
X13969780Y-22510800D01*
X13979304Y-22520324D01*
X13988828Y-22539371D01*
X13998351Y-22577467D01*
X13998351Y-22625086D01*
X13988828Y-22663181D01*
X13979304Y-22682228D01*
X13969780Y-22691752D01*
X13950732Y-22701276D01*
X13931685Y-22701276D01*
X13912637Y-22691752D01*
X13903113Y-22682228D01*
X13893589Y-22663181D01*
X13884066Y-22625086D01*
X13884066Y-22577467D01*
X13893589Y-22539371D01*
X13903113Y-22520324D01*
X13912637Y-22510800D01*
X13931685Y-22501276D01*
X14122161Y-22501276D02*
X14141208Y-22501276D01*
X14160256Y-22510800D01*
X14169780Y-22520324D01*
X14179304Y-22539371D01*
X14188828Y-22577467D01*
X14188828Y-22625086D01*
X14179304Y-22663181D01*
X14169780Y-22682228D01*
X14160256Y-22691752D01*
X14141208Y-22701276D01*
X14122161Y-22701276D01*
X14103113Y-22691752D01*
X14093589Y-22682228D01*
X14084066Y-22663181D01*
X14074542Y-22625086D01*
X14074542Y-22577467D01*
X14084066Y-22539371D01*
X14093589Y-22520324D01*
X14103113Y-22510800D01*
X14122161Y-22501276D01*
X14274542Y-22701276D02*
X14274542Y-22567943D01*
X14274542Y-22586990D02*
X14284066Y-22577467D01*
X14303113Y-22567943D01*
X14331685Y-22567943D01*
X14350732Y-22577467D01*
X14360256Y-22596514D01*
X14360256Y-22701276D01*
X14360256Y-22596514D02*
X14369780Y-22577467D01*
X14388828Y-22567943D01*
X14417399Y-22567943D01*
X14436447Y-22577467D01*
X14445970Y-22596514D01*
X14445970Y-22701276D01*
X14541208Y-22701276D02*
X14541208Y-22567943D01*
X14541208Y-22586990D02*
X14550732Y-22577467D01*
X14569780Y-22567943D01*
X14598351Y-22567943D01*
X14617399Y-22577467D01*
X14626923Y-22596514D01*
X14626923Y-22701276D01*
X14626923Y-22596514D02*
X14636447Y-22577467D01*
X14655494Y-22567943D01*
X14684066Y-22567943D01*
X14703113Y-22577467D01*
X14712637Y-22596514D01*
X14712637Y-22701276D01*
X15103113Y-22491752D02*
X14931685Y-22748895D01*
X15360256Y-22501276D02*
X15379304Y-22501276D01*
X15398351Y-22510800D01*
X15407875Y-22520324D01*
X15417399Y-22539371D01*
X15426923Y-22577467D01*
X15426923Y-22625086D01*
X15417399Y-22663181D01*
X15407875Y-22682228D01*
X15398351Y-22691752D01*
X15379304Y-22701276D01*
X15360256Y-22701276D01*
X15341208Y-22691752D01*
X15331685Y-22682228D01*
X15322161Y-22663181D01*
X15312637Y-22625086D01*
X15312637Y-22577467D01*
X15322161Y-22539371D01*
X15331685Y-22520324D01*
X15341208Y-22510800D01*
X15360256Y-22501276D01*
X15512637Y-22682228D02*
X15522161Y-22691752D01*
X15512637Y-22701276D01*
X15503113Y-22691752D01*
X15512637Y-22682228D01*
X15512637Y-22701276D01*
X15645970Y-22501276D02*
X15665018Y-22501276D01*
X15684066Y-22510800D01*
X15693589Y-22520324D01*
X15703113Y-22539371D01*
X15712637Y-22577467D01*
X15712637Y-22625086D01*
X15703113Y-22663181D01*
X15693589Y-22682228D01*
X15684066Y-22691752D01*
X15665018Y-22701276D01*
X15645970Y-22701276D01*
X15626923Y-22691752D01*
X15617399Y-22682228D01*
X15607875Y-22663181D01*
X15598351Y-22625086D01*
X15598351Y-22577467D01*
X15607875Y-22539371D01*
X15617399Y-22520324D01*
X15626923Y-22510800D01*
X15645970Y-22501276D01*
X15788828Y-22520324D02*
X15798351Y-22510800D01*
X15817399Y-22501276D01*
X15865018Y-22501276D01*
X15884066Y-22510800D01*
X15893589Y-22520324D01*
X15903113Y-22539371D01*
X15903113Y-22558419D01*
X15893589Y-22586990D01*
X15779304Y-22701276D01*
X15903113Y-22701276D01*
X15969780Y-22501276D02*
X16103113Y-22501276D01*
X16017399Y-22701276D01*
X16265018Y-22501276D02*
X16226923Y-22501276D01*
X16207875Y-22510800D01*
X16198351Y-22520324D01*
X16179304Y-22548895D01*
X16169780Y-22586990D01*
X16169780Y-22663181D01*
X16179304Y-22682228D01*
X16188828Y-22691752D01*
X16207875Y-22701276D01*
X16245970Y-22701276D01*
X16265018Y-22691752D01*
X16274542Y-22682228D01*
X16284066Y-22663181D01*
X16284066Y-22615562D01*
X16274542Y-22596514D01*
X16265018Y-22586990D01*
X16245970Y-22577467D01*
X16207875Y-22577467D01*
X16188828Y-22586990D01*
X16179304Y-22596514D01*
X16169780Y-22615562D01*
X16360256Y-22501276D02*
X16360256Y-22539371D01*
X16436447Y-22501276D02*
X16436447Y-22539371D01*
X16731685Y-22777467D02*
X16722161Y-22767943D01*
X16703113Y-22739371D01*
X16693589Y-22720324D01*
X16684066Y-22691752D01*
X16674542Y-22644133D01*
X16674542Y-22606038D01*
X16684066Y-22558419D01*
X16693589Y-22529848D01*
X16703113Y-22510800D01*
X16722161Y-22482228D01*
X16731685Y-22472705D01*
X16798351Y-22520324D02*
X16807875Y-22510800D01*
X16826923Y-22501276D01*
X16874542Y-22501276D01*
X16893590Y-22510800D01*
X16903113Y-22520324D01*
X16912637Y-22539371D01*
X16912637Y-22558419D01*
X16903113Y-22586990D01*
X16788828Y-22701276D01*
X16912637Y-22701276D01*
X17084066Y-22567943D02*
X17084066Y-22701276D01*
X17036447Y-22491752D02*
X16988828Y-22634609D01*
X17112637Y-22634609D01*
X17341209Y-22701276D02*
X17341209Y-22501276D01*
X17426923Y-22701276D02*
X17426923Y-22596514D01*
X17417399Y-22577467D01*
X17398351Y-22567943D01*
X17369780Y-22567943D01*
X17350732Y-22577467D01*
X17341209Y-22586990D01*
X17550732Y-22701276D02*
X17531685Y-22691752D01*
X17522161Y-22682228D01*
X17512637Y-22663181D01*
X17512637Y-22606038D01*
X17522161Y-22586990D01*
X17531685Y-22577467D01*
X17550732Y-22567943D01*
X17579304Y-22567943D01*
X17598351Y-22577467D01*
X17607875Y-22586990D01*
X17617399Y-22606038D01*
X17617399Y-22663181D01*
X17607875Y-22682228D01*
X17598351Y-22691752D01*
X17579304Y-22701276D01*
X17550732Y-22701276D01*
X17731685Y-22701276D02*
X17712637Y-22691752D01*
X17703113Y-22672705D01*
X17703113Y-22501276D01*
X17884066Y-22691752D02*
X17865018Y-22701276D01*
X17826923Y-22701276D01*
X17807875Y-22691752D01*
X17798351Y-22672705D01*
X17798351Y-22596514D01*
X17807875Y-22577467D01*
X17826923Y-22567943D01*
X17865018Y-22567943D01*
X17884066Y-22577467D01*
X17893590Y-22596514D01*
X17893590Y-22615562D01*
X17798351Y-22634609D01*
X17969780Y-22691752D02*
X17988828Y-22701276D01*
X18026923Y-22701276D01*
X18045970Y-22691752D01*
X18055494Y-22672705D01*
X18055494Y-22663181D01*
X18045970Y-22644133D01*
X18026923Y-22634609D01*
X17998351Y-22634609D01*
X17979304Y-22625086D01*
X17969780Y-22606038D01*
X17969780Y-22596514D01*
X17979304Y-22577467D01*
X17998351Y-22567943D01*
X18026923Y-22567943D01*
X18045970Y-22577467D01*
X18122161Y-22777467D02*
X18131685Y-22767943D01*
X18150732Y-22739371D01*
X18160256Y-22720324D01*
X18169780Y-22691752D01*
X18179304Y-22644133D01*
X18179304Y-22606038D01*
X18169780Y-22558419D01*
X18160256Y-22529848D01*
X18150732Y-22510800D01*
X18131685Y-22482228D01*
X18122161Y-22472705D01*
D14*
X13122280Y-22837300D02*
X13122280Y-22912300D01*
X13084780Y-22874800D02*
X13159780Y-22874800D01*
D11*
X13455494Y-22765276D02*
X13474542Y-22765276D01*
X13493589Y-22774800D01*
X13503113Y-22784324D01*
X13512637Y-22803371D01*
X13522161Y-22841467D01*
X13522161Y-22889086D01*
X13512637Y-22927181D01*
X13503113Y-22946228D01*
X13493589Y-22955752D01*
X13474542Y-22965276D01*
X13455494Y-22965276D01*
X13436447Y-22955752D01*
X13426923Y-22946228D01*
X13417399Y-22927181D01*
X13407875Y-22889086D01*
X13407875Y-22841467D01*
X13417399Y-22803371D01*
X13426923Y-22784324D01*
X13436447Y-22774800D01*
X13455494Y-22765276D01*
X13607875Y-22946228D02*
X13617399Y-22955752D01*
X13607875Y-22965276D01*
X13598351Y-22955752D01*
X13607875Y-22946228D01*
X13607875Y-22965276D01*
X13684066Y-22765276D02*
X13817399Y-22765276D01*
X13731685Y-22965276D01*
X13988828Y-22765276D02*
X13893589Y-22765276D01*
X13884066Y-22860514D01*
X13893589Y-22850990D01*
X13912637Y-22841467D01*
X13960256Y-22841467D01*
X13979304Y-22850990D01*
X13988828Y-22860514D01*
X13998351Y-22879562D01*
X13998351Y-22927181D01*
X13988828Y-22946228D01*
X13979304Y-22955752D01*
X13960256Y-22965276D01*
X13912637Y-22965276D01*
X13893589Y-22955752D01*
X13884066Y-22946228D01*
X14122161Y-22765276D02*
X14141208Y-22765276D01*
X14160256Y-22774800D01*
X14169780Y-22784324D01*
X14179304Y-22803371D01*
X14188828Y-22841467D01*
X14188828Y-22889086D01*
X14179304Y-22927181D01*
X14169780Y-22946228D01*
X14160256Y-22955752D01*
X14141208Y-22965276D01*
X14122161Y-22965276D01*
X14103113Y-22955752D01*
X14093589Y-22946228D01*
X14084066Y-22927181D01*
X14074542Y-22889086D01*
X14074542Y-22841467D01*
X14084066Y-22803371D01*
X14093589Y-22784324D01*
X14103113Y-22774800D01*
X14122161Y-22765276D01*
X14274542Y-22965276D02*
X14274542Y-22831943D01*
X14274542Y-22850990D02*
X14284066Y-22841467D01*
X14303113Y-22831943D01*
X14331685Y-22831943D01*
X14350732Y-22841467D01*
X14360256Y-22860514D01*
X14360256Y-22965276D01*
X14360256Y-22860514D02*
X14369780Y-22841467D01*
X14388828Y-22831943D01*
X14417399Y-22831943D01*
X14436447Y-22841467D01*
X14445970Y-22860514D01*
X14445970Y-22965276D01*
X14541208Y-22965276D02*
X14541208Y-22831943D01*
X14541208Y-22850990D02*
X14550732Y-22841467D01*
X14569780Y-22831943D01*
X14598351Y-22831943D01*
X14617399Y-22841467D01*
X14626923Y-22860514D01*
X14626923Y-22965276D01*
X14626923Y-22860514D02*
X14636447Y-22841467D01*
X14655494Y-22831943D01*
X14684066Y-22831943D01*
X14703113Y-22841467D01*
X14712637Y-22860514D01*
X14712637Y-22965276D01*
X15103113Y-22755752D02*
X14931685Y-23012895D01*
X15360256Y-22765276D02*
X15379304Y-22765276D01*
X15398351Y-22774800D01*
X15407875Y-22784324D01*
X15417399Y-22803371D01*
X15426923Y-22841467D01*
X15426923Y-22889086D01*
X15417399Y-22927181D01*
X15407875Y-22946228D01*
X15398351Y-22955752D01*
X15379304Y-22965276D01*
X15360256Y-22965276D01*
X15341208Y-22955752D01*
X15331685Y-22946228D01*
X15322161Y-22927181D01*
X15312637Y-22889086D01*
X15312637Y-22841467D01*
X15322161Y-22803371D01*
X15331685Y-22784324D01*
X15341208Y-22774800D01*
X15360256Y-22765276D01*
X15512637Y-22946228D02*
X15522161Y-22955752D01*
X15512637Y-22965276D01*
X15503113Y-22955752D01*
X15512637Y-22946228D01*
X15512637Y-22965276D01*
X15645970Y-22765276D02*
X15665018Y-22765276D01*
X15684066Y-22774800D01*
X15693589Y-22784324D01*
X15703113Y-22803371D01*
X15712637Y-22841467D01*
X15712637Y-22889086D01*
X15703113Y-22927181D01*
X15693589Y-22946228D01*
X15684066Y-22955752D01*
X15665018Y-22965276D01*
X15645970Y-22965276D01*
X15626923Y-22955752D01*
X15617399Y-22946228D01*
X15607875Y-22927181D01*
X15598351Y-22889086D01*
X15598351Y-22841467D01*
X15607875Y-22803371D01*
X15617399Y-22784324D01*
X15626923Y-22774800D01*
X15645970Y-22765276D01*
X15788828Y-22784324D02*
X15798351Y-22774800D01*
X15817399Y-22765276D01*
X15865018Y-22765276D01*
X15884066Y-22774800D01*
X15893589Y-22784324D01*
X15903113Y-22803371D01*
X15903113Y-22822419D01*
X15893589Y-22850990D01*
X15779304Y-22965276D01*
X15903113Y-22965276D01*
X15998351Y-22965276D02*
X16036447Y-22965276D01*
X16055494Y-22955752D01*
X16065018Y-22946228D01*
X16084066Y-22917657D01*
X16093589Y-22879562D01*
X16093589Y-22803371D01*
X16084066Y-22784324D01*
X16074542Y-22774800D01*
X16055494Y-22765276D01*
X16017399Y-22765276D01*
X15998351Y-22774800D01*
X15988828Y-22784324D01*
X15979304Y-22803371D01*
X15979304Y-22850990D01*
X15988828Y-22870038D01*
X15998351Y-22879562D01*
X16017399Y-22889086D01*
X16055494Y-22889086D01*
X16074542Y-22879562D01*
X16084066Y-22870038D01*
X16093589Y-22850990D01*
X16274542Y-22765276D02*
X16179304Y-22765276D01*
X16169780Y-22860514D01*
X16179304Y-22850990D01*
X16198351Y-22841467D01*
X16245970Y-22841467D01*
X16265018Y-22850990D01*
X16274542Y-22860514D01*
X16284066Y-22879562D01*
X16284066Y-22927181D01*
X16274542Y-22946228D01*
X16265018Y-22955752D01*
X16245970Y-22965276D01*
X16198351Y-22965276D01*
X16179304Y-22955752D01*
X16169780Y-22946228D01*
X16360256Y-22765276D02*
X16360256Y-22803371D01*
X16436447Y-22765276D02*
X16436447Y-22803371D01*
X16731685Y-23041467D02*
X16722161Y-23031943D01*
X16703113Y-23003371D01*
X16693589Y-22984324D01*
X16684066Y-22955752D01*
X16674542Y-22908133D01*
X16674542Y-22870038D01*
X16684066Y-22822419D01*
X16693589Y-22793848D01*
X16703113Y-22774800D01*
X16722161Y-22746228D01*
X16731685Y-22736705D01*
X16903113Y-22765276D02*
X16807875Y-22765276D01*
X16798351Y-22860514D01*
X16807875Y-22850990D01*
X16826923Y-22841467D01*
X16874542Y-22841467D01*
X16893590Y-22850990D01*
X16903113Y-22860514D01*
X16912637Y-22879562D01*
X16912637Y-22927181D01*
X16903113Y-22946228D01*
X16893590Y-22955752D01*
X16874542Y-22965276D01*
X16826923Y-22965276D01*
X16807875Y-22955752D01*
X16798351Y-22946228D01*
X17150732Y-22965276D02*
X17150732Y-22765276D01*
X17236447Y-22965276D02*
X17236447Y-22860514D01*
X17226923Y-22841467D01*
X17207875Y-22831943D01*
X17179304Y-22831943D01*
X17160256Y-22841467D01*
X17150732Y-22850990D01*
X17360256Y-22965276D02*
X17341209Y-22955752D01*
X17331685Y-22946228D01*
X17322161Y-22927181D01*
X17322161Y-22870038D01*
X17331685Y-22850990D01*
X17341209Y-22841467D01*
X17360256Y-22831943D01*
X17388828Y-22831943D01*
X17407875Y-22841467D01*
X17417399Y-22850990D01*
X17426923Y-22870038D01*
X17426923Y-22927181D01*
X17417399Y-22946228D01*
X17407875Y-22955752D01*
X17388828Y-22965276D01*
X17360256Y-22965276D01*
X17541209Y-22965276D02*
X17522161Y-22955752D01*
X17512637Y-22936705D01*
X17512637Y-22765276D01*
X17693590Y-22955752D02*
X17674542Y-22965276D01*
X17636447Y-22965276D01*
X17617399Y-22955752D01*
X17607875Y-22936705D01*
X17607875Y-22860514D01*
X17617399Y-22841467D01*
X17636447Y-22831943D01*
X17674542Y-22831943D01*
X17693590Y-22841467D01*
X17703113Y-22860514D01*
X17703113Y-22879562D01*
X17607875Y-22898609D01*
X17779304Y-22955752D02*
X17798351Y-22965276D01*
X17836447Y-22965276D01*
X17855494Y-22955752D01*
X17865018Y-22936705D01*
X17865018Y-22927181D01*
X17855494Y-22908133D01*
X17836447Y-22898609D01*
X17807875Y-22898609D01*
X17788828Y-22889086D01*
X17779304Y-22870038D01*
X17779304Y-22860514D01*
X17788828Y-22841467D01*
X17807875Y-22831943D01*
X17836447Y-22831943D01*
X17855494Y-22841467D01*
X17931685Y-23041467D02*
X17941209Y-23031943D01*
X17960256Y-23003371D01*
X17969780Y-22984324D01*
X17979304Y-22955752D01*
X17988828Y-22908133D01*
X17988828Y-22870038D01*
X17979304Y-22822419D01*
X17969780Y-22793848D01*
X17960256Y-22774800D01*
X17941209Y-22746228D01*
X17931685Y-22736705D01*
D15*
X13148064Y-23167084D02*
X13148064Y-23110515D01*
X13091495Y-23110515D01*
X13091495Y-23167084D01*
X13148064Y-23167084D01*
D11*
X13455494Y-23029276D02*
X13474542Y-23029276D01*
X13493589Y-23038800D01*
X13503113Y-23048324D01*
X13512637Y-23067371D01*
X13522161Y-23105467D01*
X13522161Y-23153086D01*
X13512637Y-23191181D01*
X13503113Y-23210228D01*
X13493589Y-23219752D01*
X13474542Y-23229276D01*
X13455494Y-23229276D01*
X13436447Y-23219752D01*
X13426923Y-23210228D01*
X13417399Y-23191181D01*
X13407875Y-23153086D01*
X13407875Y-23105467D01*
X13417399Y-23067371D01*
X13426923Y-23048324D01*
X13436447Y-23038800D01*
X13455494Y-23029276D01*
X13607875Y-23210228D02*
X13617399Y-23219752D01*
X13607875Y-23229276D01*
X13598351Y-23219752D01*
X13607875Y-23210228D01*
X13607875Y-23229276D01*
X13731685Y-23114990D02*
X13712637Y-23105467D01*
X13703113Y-23095943D01*
X13693589Y-23076895D01*
X13693589Y-23067371D01*
X13703113Y-23048324D01*
X13712637Y-23038800D01*
X13731685Y-23029276D01*
X13769780Y-23029276D01*
X13788828Y-23038800D01*
X13798351Y-23048324D01*
X13807875Y-23067371D01*
X13807875Y-23076895D01*
X13798351Y-23095943D01*
X13788828Y-23105467D01*
X13769780Y-23114990D01*
X13731685Y-23114990D01*
X13712637Y-23124514D01*
X13703113Y-23134038D01*
X13693589Y-23153086D01*
X13693589Y-23191181D01*
X13703113Y-23210228D01*
X13712637Y-23219752D01*
X13731685Y-23229276D01*
X13769780Y-23229276D01*
X13788828Y-23219752D01*
X13798351Y-23210228D01*
X13807875Y-23191181D01*
X13807875Y-23153086D01*
X13798351Y-23134038D01*
X13788828Y-23124514D01*
X13769780Y-23114990D01*
X13931685Y-23029276D02*
X13950732Y-23029276D01*
X13969780Y-23038800D01*
X13979304Y-23048324D01*
X13988828Y-23067371D01*
X13998351Y-23105467D01*
X13998351Y-23153086D01*
X13988828Y-23191181D01*
X13979304Y-23210228D01*
X13969780Y-23219752D01*
X13950732Y-23229276D01*
X13931685Y-23229276D01*
X13912637Y-23219752D01*
X13903113Y-23210228D01*
X13893589Y-23191181D01*
X13884066Y-23153086D01*
X13884066Y-23105467D01*
X13893589Y-23067371D01*
X13903113Y-23048324D01*
X13912637Y-23038800D01*
X13931685Y-23029276D01*
X14122161Y-23029276D02*
X14141208Y-23029276D01*
X14160256Y-23038800D01*
X14169780Y-23048324D01*
X14179304Y-23067371D01*
X14188828Y-23105467D01*
X14188828Y-23153086D01*
X14179304Y-23191181D01*
X14169780Y-23210228D01*
X14160256Y-23219752D01*
X14141208Y-23229276D01*
X14122161Y-23229276D01*
X14103113Y-23219752D01*
X14093589Y-23210228D01*
X14084066Y-23191181D01*
X14074542Y-23153086D01*
X14074542Y-23105467D01*
X14084066Y-23067371D01*
X14093589Y-23048324D01*
X14103113Y-23038800D01*
X14122161Y-23029276D01*
X14274542Y-23229276D02*
X14274542Y-23095943D01*
X14274542Y-23114990D02*
X14284066Y-23105467D01*
X14303113Y-23095943D01*
X14331685Y-23095943D01*
X14350732Y-23105467D01*
X14360256Y-23124514D01*
X14360256Y-23229276D01*
X14360256Y-23124514D02*
X14369780Y-23105467D01*
X14388828Y-23095943D01*
X14417399Y-23095943D01*
X14436447Y-23105467D01*
X14445970Y-23124514D01*
X14445970Y-23229276D01*
X14541208Y-23229276D02*
X14541208Y-23095943D01*
X14541208Y-23114990D02*
X14550732Y-23105467D01*
X14569780Y-23095943D01*
X14598351Y-23095943D01*
X14617399Y-23105467D01*
X14626923Y-23124514D01*
X14626923Y-23229276D01*
X14626923Y-23124514D02*
X14636447Y-23105467D01*
X14655494Y-23095943D01*
X14684066Y-23095943D01*
X14703113Y-23105467D01*
X14712637Y-23124514D01*
X14712637Y-23229276D01*
X15103113Y-23019752D02*
X14931685Y-23276895D01*
X15360256Y-23029276D02*
X15379304Y-23029276D01*
X15398351Y-23038800D01*
X15407875Y-23048324D01*
X15417399Y-23067371D01*
X15426923Y-23105467D01*
X15426923Y-23153086D01*
X15417399Y-23191181D01*
X15407875Y-23210228D01*
X15398351Y-23219752D01*
X15379304Y-23229276D01*
X15360256Y-23229276D01*
X15341208Y-23219752D01*
X15331685Y-23210228D01*
X15322161Y-23191181D01*
X15312637Y-23153086D01*
X15312637Y-23105467D01*
X15322161Y-23067371D01*
X15331685Y-23048324D01*
X15341208Y-23038800D01*
X15360256Y-23029276D01*
X15512637Y-23210228D02*
X15522161Y-23219752D01*
X15512637Y-23229276D01*
X15503113Y-23219752D01*
X15512637Y-23210228D01*
X15512637Y-23229276D01*
X15645970Y-23029276D02*
X15665018Y-23029276D01*
X15684066Y-23038800D01*
X15693589Y-23048324D01*
X15703113Y-23067371D01*
X15712637Y-23105467D01*
X15712637Y-23153086D01*
X15703113Y-23191181D01*
X15693589Y-23210228D01*
X15684066Y-23219752D01*
X15665018Y-23229276D01*
X15645970Y-23229276D01*
X15626923Y-23219752D01*
X15617399Y-23210228D01*
X15607875Y-23191181D01*
X15598351Y-23153086D01*
X15598351Y-23105467D01*
X15607875Y-23067371D01*
X15617399Y-23048324D01*
X15626923Y-23038800D01*
X15645970Y-23029276D01*
X15779304Y-23029276D02*
X15903113Y-23029276D01*
X15836447Y-23105467D01*
X15865018Y-23105467D01*
X15884066Y-23114990D01*
X15893589Y-23124514D01*
X15903113Y-23143562D01*
X15903113Y-23191181D01*
X15893589Y-23210228D01*
X15884066Y-23219752D01*
X15865018Y-23229276D01*
X15807875Y-23229276D01*
X15788828Y-23219752D01*
X15779304Y-23210228D01*
X16093589Y-23229276D02*
X15979304Y-23229276D01*
X16036447Y-23229276D02*
X16036447Y-23029276D01*
X16017399Y-23057848D01*
X15998351Y-23076895D01*
X15979304Y-23086419D01*
X16274542Y-23029276D02*
X16179304Y-23029276D01*
X16169780Y-23124514D01*
X16179304Y-23114990D01*
X16198351Y-23105467D01*
X16245970Y-23105467D01*
X16265018Y-23114990D01*
X16274542Y-23124514D01*
X16284066Y-23143562D01*
X16284066Y-23191181D01*
X16274542Y-23210228D01*
X16265018Y-23219752D01*
X16245970Y-23229276D01*
X16198351Y-23229276D01*
X16179304Y-23219752D01*
X16169780Y-23210228D01*
X16360256Y-23029276D02*
X16360256Y-23067371D01*
X16436447Y-23029276D02*
X16436447Y-23067371D01*
X16731685Y-23305467D02*
X16722161Y-23295943D01*
X16703113Y-23267371D01*
X16693589Y-23248324D01*
X16684066Y-23219752D01*
X16674542Y-23172133D01*
X16674542Y-23134038D01*
X16684066Y-23086419D01*
X16693589Y-23057848D01*
X16703113Y-23038800D01*
X16722161Y-23010228D01*
X16731685Y-23000705D01*
X16798351Y-23048324D02*
X16807875Y-23038800D01*
X16826923Y-23029276D01*
X16874542Y-23029276D01*
X16893590Y-23038800D01*
X16903113Y-23048324D01*
X16912637Y-23067371D01*
X16912637Y-23086419D01*
X16903113Y-23114990D01*
X16788828Y-23229276D01*
X16912637Y-23229276D01*
X17007875Y-23229276D02*
X17045970Y-23229276D01*
X17065018Y-23219752D01*
X17074542Y-23210228D01*
X17093590Y-23181657D01*
X17103113Y-23143562D01*
X17103113Y-23067371D01*
X17093590Y-23048324D01*
X17084066Y-23038800D01*
X17065018Y-23029276D01*
X17026923Y-23029276D01*
X17007875Y-23038800D01*
X16998351Y-23048324D01*
X16988828Y-23067371D01*
X16988828Y-23114990D01*
X16998351Y-23134038D01*
X17007875Y-23143562D01*
X17026923Y-23153086D01*
X17065018Y-23153086D01*
X17084066Y-23143562D01*
X17093590Y-23134038D01*
X17103113Y-23114990D01*
X17169780Y-23029276D02*
X17293590Y-23029276D01*
X17226923Y-23105467D01*
X17255494Y-23105467D01*
X17274542Y-23114990D01*
X17284066Y-23124514D01*
X17293590Y-23143562D01*
X17293590Y-23191181D01*
X17284066Y-23210228D01*
X17274542Y-23219752D01*
X17255494Y-23229276D01*
X17198351Y-23229276D01*
X17179304Y-23219752D01*
X17169780Y-23210228D01*
X17531685Y-23229276D02*
X17531685Y-23029276D01*
X17617399Y-23229276D02*
X17617399Y-23124514D01*
X17607875Y-23105467D01*
X17588828Y-23095943D01*
X17560256Y-23095943D01*
X17541209Y-23105467D01*
X17531685Y-23114990D01*
X17741209Y-23229276D02*
X17722161Y-23219752D01*
X17712637Y-23210228D01*
X17703113Y-23191181D01*
X17703113Y-23134038D01*
X17712637Y-23114990D01*
X17722161Y-23105467D01*
X17741209Y-23095943D01*
X17769780Y-23095943D01*
X17788828Y-23105467D01*
X17798351Y-23114990D01*
X17807875Y-23134038D01*
X17807875Y-23191181D01*
X17798351Y-23210228D01*
X17788828Y-23219752D01*
X17769780Y-23229276D01*
X17741209Y-23229276D01*
X17922161Y-23229276D02*
X17903113Y-23219752D01*
X17893590Y-23200705D01*
X17893590Y-23029276D01*
X18074542Y-23219752D02*
X18055494Y-23229276D01*
X18017399Y-23229276D01*
X17998351Y-23219752D01*
X17988828Y-23200705D01*
X17988828Y-23124514D01*
X17998351Y-23105467D01*
X18017399Y-23095943D01*
X18055494Y-23095943D01*
X18074542Y-23105467D01*
X18084066Y-23124514D01*
X18084066Y-23143562D01*
X17988828Y-23162609D01*
X18160256Y-23219752D02*
X18179304Y-23229276D01*
X18217399Y-23229276D01*
X18236447Y-23219752D01*
X18245970Y-23200705D01*
X18245970Y-23191181D01*
X18236447Y-23172133D01*
X18217399Y-23162609D01*
X18188828Y-23162609D01*
X18169780Y-23153086D01*
X18160256Y-23134038D01*
X18160256Y-23124514D01*
X18169780Y-23105467D01*
X18188828Y-23095943D01*
X18217399Y-23095943D01*
X18236447Y-23105467D01*
X18312637Y-23305467D02*
X18322161Y-23295943D01*
X18341209Y-23267371D01*
X18350732Y-23248324D01*
X18360256Y-23219752D01*
X18369780Y-23172133D01*
X18369780Y-23134038D01*
X18360256Y-23086419D01*
X18350732Y-23057848D01*
X18341209Y-23038800D01*
X18322161Y-23010228D01*
X18312637Y-23000705D01*
D16*
X13114780Y-23447800D02*
X13159780Y-23402800D01*
X13114780Y-23357800D01*
X13069780Y-23402800D01*
X13114780Y-23447800D01*
D11*
X13455494Y-23293276D02*
X13474542Y-23293276D01*
X13493589Y-23302800D01*
X13503113Y-23312324D01*
X13512637Y-23331371D01*
X13522161Y-23369467D01*
X13522161Y-23417086D01*
X13512637Y-23455181D01*
X13503113Y-23474228D01*
X13493589Y-23483752D01*
X13474542Y-23493276D01*
X13455494Y-23493276D01*
X13436447Y-23483752D01*
X13426923Y-23474228D01*
X13417399Y-23455181D01*
X13407875Y-23417086D01*
X13407875Y-23369467D01*
X13417399Y-23331371D01*
X13426923Y-23312324D01*
X13436447Y-23302800D01*
X13455494Y-23293276D01*
X13607875Y-23474228D02*
X13617399Y-23483752D01*
X13607875Y-23493276D01*
X13598351Y-23483752D01*
X13607875Y-23474228D01*
X13607875Y-23493276D01*
X13712637Y-23493276D02*
X13750732Y-23493276D01*
X13769780Y-23483752D01*
X13779304Y-23474228D01*
X13798351Y-23445657D01*
X13807875Y-23407562D01*
X13807875Y-23331371D01*
X13798351Y-23312324D01*
X13788828Y-23302800D01*
X13769780Y-23293276D01*
X13731685Y-23293276D01*
X13712637Y-23302800D01*
X13703113Y-23312324D01*
X13693589Y-23331371D01*
X13693589Y-23378990D01*
X13703113Y-23398038D01*
X13712637Y-23407562D01*
X13731685Y-23417086D01*
X13769780Y-23417086D01*
X13788828Y-23407562D01*
X13798351Y-23398038D01*
X13807875Y-23378990D01*
X13931685Y-23293276D02*
X13950732Y-23293276D01*
X13969780Y-23302800D01*
X13979304Y-23312324D01*
X13988828Y-23331371D01*
X13998351Y-23369467D01*
X13998351Y-23417086D01*
X13988828Y-23455181D01*
X13979304Y-23474228D01*
X13969780Y-23483752D01*
X13950732Y-23493276D01*
X13931685Y-23493276D01*
X13912637Y-23483752D01*
X13903113Y-23474228D01*
X13893589Y-23455181D01*
X13884066Y-23417086D01*
X13884066Y-23369467D01*
X13893589Y-23331371D01*
X13903113Y-23312324D01*
X13912637Y-23302800D01*
X13931685Y-23293276D01*
X14122161Y-23293276D02*
X14141208Y-23293276D01*
X14160256Y-23302800D01*
X14169780Y-23312324D01*
X14179304Y-23331371D01*
X14188828Y-23369467D01*
X14188828Y-23417086D01*
X14179304Y-23455181D01*
X14169780Y-23474228D01*
X14160256Y-23483752D01*
X14141208Y-23493276D01*
X14122161Y-23493276D01*
X14103113Y-23483752D01*
X14093589Y-23474228D01*
X14084066Y-23455181D01*
X14074542Y-23417086D01*
X14074542Y-23369467D01*
X14084066Y-23331371D01*
X14093589Y-23312324D01*
X14103113Y-23302800D01*
X14122161Y-23293276D01*
X14274542Y-23493276D02*
X14274542Y-23359943D01*
X14274542Y-23378990D02*
X14284066Y-23369467D01*
X14303113Y-23359943D01*
X14331685Y-23359943D01*
X14350732Y-23369467D01*
X14360256Y-23388514D01*
X14360256Y-23493276D01*
X14360256Y-23388514D02*
X14369780Y-23369467D01*
X14388828Y-23359943D01*
X14417399Y-23359943D01*
X14436447Y-23369467D01*
X14445970Y-23388514D01*
X14445970Y-23493276D01*
X14541208Y-23493276D02*
X14541208Y-23359943D01*
X14541208Y-23378990D02*
X14550732Y-23369467D01*
X14569780Y-23359943D01*
X14598351Y-23359943D01*
X14617399Y-23369467D01*
X14626923Y-23388514D01*
X14626923Y-23493276D01*
X14626923Y-23388514D02*
X14636447Y-23369467D01*
X14655494Y-23359943D01*
X14684066Y-23359943D01*
X14703113Y-23369467D01*
X14712637Y-23388514D01*
X14712637Y-23493276D01*
X15103113Y-23283752D02*
X14931685Y-23540895D01*
X15360256Y-23293276D02*
X15379304Y-23293276D01*
X15398351Y-23302800D01*
X15407875Y-23312324D01*
X15417399Y-23331371D01*
X15426923Y-23369467D01*
X15426923Y-23417086D01*
X15417399Y-23455181D01*
X15407875Y-23474228D01*
X15398351Y-23483752D01*
X15379304Y-23493276D01*
X15360256Y-23493276D01*
X15341208Y-23483752D01*
X15331685Y-23474228D01*
X15322161Y-23455181D01*
X15312637Y-23417086D01*
X15312637Y-23369467D01*
X15322161Y-23331371D01*
X15331685Y-23312324D01*
X15341208Y-23302800D01*
X15360256Y-23293276D01*
X15512637Y-23474228D02*
X15522161Y-23483752D01*
X15512637Y-23493276D01*
X15503113Y-23483752D01*
X15512637Y-23474228D01*
X15512637Y-23493276D01*
X15645970Y-23293276D02*
X15665018Y-23293276D01*
X15684066Y-23302800D01*
X15693589Y-23312324D01*
X15703113Y-23331371D01*
X15712637Y-23369467D01*
X15712637Y-23417086D01*
X15703113Y-23455181D01*
X15693589Y-23474228D01*
X15684066Y-23483752D01*
X15665018Y-23493276D01*
X15645970Y-23493276D01*
X15626923Y-23483752D01*
X15617399Y-23474228D01*
X15607875Y-23455181D01*
X15598351Y-23417086D01*
X15598351Y-23369467D01*
X15607875Y-23331371D01*
X15617399Y-23312324D01*
X15626923Y-23302800D01*
X15645970Y-23293276D01*
X15779304Y-23293276D02*
X15903113Y-23293276D01*
X15836447Y-23369467D01*
X15865018Y-23369467D01*
X15884066Y-23378990D01*
X15893589Y-23388514D01*
X15903113Y-23407562D01*
X15903113Y-23455181D01*
X15893589Y-23474228D01*
X15884066Y-23483752D01*
X15865018Y-23493276D01*
X15807875Y-23493276D01*
X15788828Y-23483752D01*
X15779304Y-23474228D01*
X16084066Y-23293276D02*
X15988828Y-23293276D01*
X15979304Y-23388514D01*
X15988828Y-23378990D01*
X16007875Y-23369467D01*
X16055494Y-23369467D01*
X16074542Y-23378990D01*
X16084066Y-23388514D01*
X16093589Y-23407562D01*
X16093589Y-23455181D01*
X16084066Y-23474228D01*
X16074542Y-23483752D01*
X16055494Y-23493276D01*
X16007875Y-23493276D01*
X15988828Y-23483752D01*
X15979304Y-23474228D01*
X16265018Y-23359943D02*
X16265018Y-23493276D01*
X16217399Y-23283752D02*
X16169780Y-23426609D01*
X16293589Y-23426609D01*
X16360256Y-23293276D02*
X16360256Y-23331371D01*
X16436447Y-23293276D02*
X16436447Y-23331371D01*
X16731685Y-23569467D02*
X16722161Y-23559943D01*
X16703113Y-23531371D01*
X16693589Y-23512324D01*
X16684066Y-23483752D01*
X16674542Y-23436133D01*
X16674542Y-23398038D01*
X16684066Y-23350419D01*
X16693589Y-23321848D01*
X16703113Y-23302800D01*
X16722161Y-23274228D01*
X16731685Y-23264705D01*
X16903113Y-23293276D02*
X16807875Y-23293276D01*
X16798351Y-23388514D01*
X16807875Y-23378990D01*
X16826923Y-23369467D01*
X16874542Y-23369467D01*
X16893590Y-23378990D01*
X16903113Y-23388514D01*
X16912637Y-23407562D01*
X16912637Y-23455181D01*
X16903113Y-23474228D01*
X16893590Y-23483752D01*
X16874542Y-23493276D01*
X16826923Y-23493276D01*
X16807875Y-23483752D01*
X16798351Y-23474228D01*
X17150732Y-23493276D02*
X17150732Y-23293276D01*
X17236447Y-23493276D02*
X17236447Y-23388514D01*
X17226923Y-23369467D01*
X17207875Y-23359943D01*
X17179304Y-23359943D01*
X17160256Y-23369467D01*
X17150732Y-23378990D01*
X17360256Y-23493276D02*
X17341209Y-23483752D01*
X17331685Y-23474228D01*
X17322161Y-23455181D01*
X17322161Y-23398038D01*
X17331685Y-23378990D01*
X17341209Y-23369467D01*
X17360256Y-23359943D01*
X17388828Y-23359943D01*
X17407875Y-23369467D01*
X17417399Y-23378990D01*
X17426923Y-23398038D01*
X17426923Y-23455181D01*
X17417399Y-23474228D01*
X17407875Y-23483752D01*
X17388828Y-23493276D01*
X17360256Y-23493276D01*
X17541209Y-23493276D02*
X17522161Y-23483752D01*
X17512637Y-23464705D01*
X17512637Y-23293276D01*
X17693590Y-23483752D02*
X17674542Y-23493276D01*
X17636447Y-23493276D01*
X17617399Y-23483752D01*
X17607875Y-23464705D01*
X17607875Y-23388514D01*
X17617399Y-23369467D01*
X17636447Y-23359943D01*
X17674542Y-23359943D01*
X17693590Y-23369467D01*
X17703113Y-23388514D01*
X17703113Y-23407562D01*
X17607875Y-23426609D01*
X17779304Y-23483752D02*
X17798351Y-23493276D01*
X17836447Y-23493276D01*
X17855494Y-23483752D01*
X17865018Y-23464705D01*
X17865018Y-23455181D01*
X17855494Y-23436133D01*
X17836447Y-23426609D01*
X17807875Y-23426609D01*
X17788828Y-23417086D01*
X17779304Y-23398038D01*
X17779304Y-23388514D01*
X17788828Y-23369467D01*
X17807875Y-23359943D01*
X17836447Y-23359943D01*
X17855494Y-23369467D01*
X17931685Y-23569467D02*
X17941209Y-23559943D01*
X17960256Y-23531371D01*
X17969780Y-23512324D01*
X17979304Y-23483752D01*
X17988828Y-23436133D01*
X17988828Y-23398038D01*
X17979304Y-23350419D01*
X17969780Y-23321848D01*
X17960256Y-23302800D01*
X17941209Y-23274228D01*
X17931685Y-23264705D01*
D17*
X13059780Y-23616800D02*
X13159780Y-23716800D01*
X13159780Y-23616800D02*
X13059780Y-23716800D01*
X13159780Y-23666800D02*
G75*
G03*
X13159780Y-23666800I-50000J0D01*
G01*
D11*
X13522161Y-23757276D02*
X13407875Y-23757276D01*
X13465018Y-23757276D02*
X13465018Y-23557276D01*
X13445970Y-23585848D01*
X13426923Y-23604895D01*
X13407875Y-23614419D01*
X13607875Y-23738228D02*
X13617399Y-23747752D01*
X13607875Y-23757276D01*
X13598351Y-23747752D01*
X13607875Y-23738228D01*
X13607875Y-23757276D01*
X13741208Y-23557276D02*
X13760256Y-23557276D01*
X13779304Y-23566800D01*
X13788828Y-23576324D01*
X13798351Y-23595371D01*
X13807875Y-23633467D01*
X13807875Y-23681086D01*
X13798351Y-23719181D01*
X13788828Y-23738228D01*
X13779304Y-23747752D01*
X13760256Y-23757276D01*
X13741208Y-23757276D01*
X13722161Y-23747752D01*
X13712637Y-23738228D01*
X13703113Y-23719181D01*
X13693589Y-23681086D01*
X13693589Y-23633467D01*
X13703113Y-23595371D01*
X13712637Y-23576324D01*
X13722161Y-23566800D01*
X13741208Y-23557276D01*
X13931685Y-23557276D02*
X13950732Y-23557276D01*
X13969780Y-23566800D01*
X13979304Y-23576324D01*
X13988828Y-23595371D01*
X13998351Y-23633467D01*
X13998351Y-23681086D01*
X13988828Y-23719181D01*
X13979304Y-23738228D01*
X13969780Y-23747752D01*
X13950732Y-23757276D01*
X13931685Y-23757276D01*
X13912637Y-23747752D01*
X13903113Y-23738228D01*
X13893589Y-23719181D01*
X13884066Y-23681086D01*
X13884066Y-23633467D01*
X13893589Y-23595371D01*
X13903113Y-23576324D01*
X13912637Y-23566800D01*
X13931685Y-23557276D01*
X14122161Y-23557276D02*
X14141208Y-23557276D01*
X14160256Y-23566800D01*
X14169780Y-23576324D01*
X14179304Y-23595371D01*
X14188828Y-23633467D01*
X14188828Y-23681086D01*
X14179304Y-23719181D01*
X14169780Y-23738228D01*
X14160256Y-23747752D01*
X14141208Y-23757276D01*
X14122161Y-23757276D01*
X14103113Y-23747752D01*
X14093589Y-23738228D01*
X14084066Y-23719181D01*
X14074542Y-23681086D01*
X14074542Y-23633467D01*
X14084066Y-23595371D01*
X14093589Y-23576324D01*
X14103113Y-23566800D01*
X14122161Y-23557276D01*
X14274542Y-23757276D02*
X14274542Y-23623943D01*
X14274542Y-23642990D02*
X14284066Y-23633467D01*
X14303113Y-23623943D01*
X14331685Y-23623943D01*
X14350732Y-23633467D01*
X14360256Y-23652514D01*
X14360256Y-23757276D01*
X14360256Y-23652514D02*
X14369780Y-23633467D01*
X14388828Y-23623943D01*
X14417399Y-23623943D01*
X14436447Y-23633467D01*
X14445970Y-23652514D01*
X14445970Y-23757276D01*
X14541208Y-23757276D02*
X14541208Y-23623943D01*
X14541208Y-23642990D02*
X14550732Y-23633467D01*
X14569780Y-23623943D01*
X14598351Y-23623943D01*
X14617399Y-23633467D01*
X14626923Y-23652514D01*
X14626923Y-23757276D01*
X14626923Y-23652514D02*
X14636447Y-23633467D01*
X14655494Y-23623943D01*
X14684066Y-23623943D01*
X14703113Y-23633467D01*
X14712637Y-23652514D01*
X14712637Y-23757276D01*
X15103113Y-23547752D02*
X14931685Y-23804895D01*
X15360256Y-23557276D02*
X15379304Y-23557276D01*
X15398351Y-23566800D01*
X15407875Y-23576324D01*
X15417399Y-23595371D01*
X15426923Y-23633467D01*
X15426923Y-23681086D01*
X15417399Y-23719181D01*
X15407875Y-23738228D01*
X15398351Y-23747752D01*
X15379304Y-23757276D01*
X15360256Y-23757276D01*
X15341208Y-23747752D01*
X15331685Y-23738228D01*
X15322161Y-23719181D01*
X15312637Y-23681086D01*
X15312637Y-23633467D01*
X15322161Y-23595371D01*
X15331685Y-23576324D01*
X15341208Y-23566800D01*
X15360256Y-23557276D01*
X15512637Y-23738228D02*
X15522161Y-23747752D01*
X15512637Y-23757276D01*
X15503113Y-23747752D01*
X15512637Y-23738228D01*
X15512637Y-23757276D01*
X15645970Y-23557276D02*
X15665018Y-23557276D01*
X15684066Y-23566800D01*
X15693589Y-23576324D01*
X15703113Y-23595371D01*
X15712637Y-23633467D01*
X15712637Y-23681086D01*
X15703113Y-23719181D01*
X15693589Y-23738228D01*
X15684066Y-23747752D01*
X15665018Y-23757276D01*
X15645970Y-23757276D01*
X15626923Y-23747752D01*
X15617399Y-23738228D01*
X15607875Y-23719181D01*
X15598351Y-23681086D01*
X15598351Y-23633467D01*
X15607875Y-23595371D01*
X15617399Y-23576324D01*
X15626923Y-23566800D01*
X15645970Y-23557276D01*
X15779304Y-23557276D02*
X15903113Y-23557276D01*
X15836447Y-23633467D01*
X15865018Y-23633467D01*
X15884066Y-23642990D01*
X15893589Y-23652514D01*
X15903113Y-23671562D01*
X15903113Y-23719181D01*
X15893589Y-23738228D01*
X15884066Y-23747752D01*
X15865018Y-23757276D01*
X15807875Y-23757276D01*
X15788828Y-23747752D01*
X15779304Y-23738228D01*
X15998351Y-23757276D02*
X16036447Y-23757276D01*
X16055494Y-23747752D01*
X16065018Y-23738228D01*
X16084066Y-23709657D01*
X16093589Y-23671562D01*
X16093589Y-23595371D01*
X16084066Y-23576324D01*
X16074542Y-23566800D01*
X16055494Y-23557276D01*
X16017399Y-23557276D01*
X15998351Y-23566800D01*
X15988828Y-23576324D01*
X15979304Y-23595371D01*
X15979304Y-23642990D01*
X15988828Y-23662038D01*
X15998351Y-23671562D01*
X16017399Y-23681086D01*
X16055494Y-23681086D01*
X16074542Y-23671562D01*
X16084066Y-23662038D01*
X16093589Y-23642990D01*
X16265018Y-23623943D02*
X16265018Y-23757276D01*
X16217399Y-23547752D02*
X16169780Y-23690609D01*
X16293589Y-23690609D01*
X16360256Y-23557276D02*
X16360256Y-23595371D01*
X16436447Y-23557276D02*
X16436447Y-23595371D01*
X16731685Y-23833467D02*
X16722161Y-23823943D01*
X16703113Y-23795371D01*
X16693589Y-23776324D01*
X16684066Y-23747752D01*
X16674542Y-23700133D01*
X16674542Y-23662038D01*
X16684066Y-23614419D01*
X16693589Y-23585848D01*
X16703113Y-23566800D01*
X16722161Y-23538228D01*
X16731685Y-23528705D01*
X16893590Y-23623943D02*
X16893590Y-23757276D01*
X16845970Y-23547752D02*
X16798351Y-23690609D01*
X16922161Y-23690609D01*
X17093590Y-23557276D02*
X16998351Y-23557276D01*
X16988828Y-23652514D01*
X16998351Y-23642990D01*
X17017399Y-23633467D01*
X17065018Y-23633467D01*
X17084066Y-23642990D01*
X17093590Y-23652514D01*
X17103113Y-23671562D01*
X17103113Y-23719181D01*
X17093590Y-23738228D01*
X17084066Y-23747752D01*
X17065018Y-23757276D01*
X17017399Y-23757276D01*
X16998351Y-23747752D01*
X16988828Y-23738228D01*
X17341209Y-23757276D02*
X17341209Y-23557276D01*
X17426923Y-23757276D02*
X17426923Y-23652514D01*
X17417399Y-23633467D01*
X17398351Y-23623943D01*
X17369780Y-23623943D01*
X17350732Y-23633467D01*
X17341209Y-23642990D01*
X17550732Y-23757276D02*
X17531685Y-23747752D01*
X17522161Y-23738228D01*
X17512637Y-23719181D01*
X17512637Y-23662038D01*
X17522161Y-23642990D01*
X17531685Y-23633467D01*
X17550732Y-23623943D01*
X17579304Y-23623943D01*
X17598351Y-23633467D01*
X17607875Y-23642990D01*
X17617399Y-23662038D01*
X17617399Y-23719181D01*
X17607875Y-23738228D01*
X17598351Y-23747752D01*
X17579304Y-23757276D01*
X17550732Y-23757276D01*
X17731685Y-23757276D02*
X17712637Y-23747752D01*
X17703113Y-23728705D01*
X17703113Y-23557276D01*
X17884066Y-23747752D02*
X17865018Y-23757276D01*
X17826923Y-23757276D01*
X17807875Y-23747752D01*
X17798351Y-23728705D01*
X17798351Y-23652514D01*
X17807875Y-23633467D01*
X17826923Y-23623943D01*
X17865018Y-23623943D01*
X17884066Y-23633467D01*
X17893590Y-23652514D01*
X17893590Y-23671562D01*
X17798351Y-23690609D01*
X17969780Y-23747752D02*
X17988828Y-23757276D01*
X18026923Y-23757276D01*
X18045970Y-23747752D01*
X18055494Y-23728705D01*
X18055494Y-23719181D01*
X18045970Y-23700133D01*
X18026923Y-23690609D01*
X17998351Y-23690609D01*
X17979304Y-23681086D01*
X17969780Y-23662038D01*
X17969780Y-23652514D01*
X17979304Y-23633467D01*
X17998351Y-23623943D01*
X18026923Y-23623943D01*
X18045970Y-23633467D01*
X18293590Y-23681086D02*
X18445970Y-23681086D01*
X18369780Y-23757276D02*
X18369780Y-23604895D01*
X18674542Y-23557276D02*
X18798351Y-23557276D01*
X18731685Y-23633467D01*
X18760256Y-23633467D01*
X18779304Y-23642990D01*
X18788828Y-23652514D01*
X18798351Y-23671562D01*
X18798351Y-23719181D01*
X18788828Y-23738228D01*
X18779304Y-23747752D01*
X18760256Y-23757276D01*
X18703113Y-23757276D01*
X18684066Y-23747752D01*
X18674542Y-23738228D01*
X19026923Y-23747752D02*
X19045970Y-23757276D01*
X19084066Y-23757276D01*
X19103113Y-23747752D01*
X19112637Y-23728705D01*
X19112637Y-23719181D01*
X19103113Y-23700133D01*
X19084066Y-23690609D01*
X19055494Y-23690609D01*
X19036447Y-23681086D01*
X19026923Y-23662038D01*
X19026923Y-23652514D01*
X19036447Y-23633467D01*
X19055494Y-23623943D01*
X19084066Y-23623943D01*
X19103113Y-23633467D01*
X19226923Y-23757276D02*
X19207875Y-23747752D01*
X19198351Y-23728705D01*
X19198351Y-23557276D01*
X19331685Y-23757276D02*
X19312637Y-23747752D01*
X19303113Y-23738228D01*
X19293590Y-23719181D01*
X19293590Y-23662038D01*
X19303113Y-23642990D01*
X19312637Y-23633467D01*
X19331685Y-23623943D01*
X19360256Y-23623943D01*
X19379304Y-23633467D01*
X19388828Y-23642990D01*
X19398351Y-23662038D01*
X19398351Y-23719181D01*
X19388828Y-23738228D01*
X19379304Y-23747752D01*
X19360256Y-23757276D01*
X19331685Y-23757276D01*
X19455494Y-23623943D02*
X19531685Y-23623943D01*
X19484066Y-23557276D02*
X19484066Y-23728705D01*
X19493590Y-23747752D01*
X19512637Y-23757276D01*
X19531685Y-23757276D01*
X19588828Y-23747752D02*
X19607875Y-23757276D01*
X19645970Y-23757276D01*
X19665018Y-23747752D01*
X19674542Y-23728705D01*
X19674542Y-23719181D01*
X19665018Y-23700133D01*
X19645970Y-23690609D01*
X19617399Y-23690609D01*
X19598351Y-23681086D01*
X19588828Y-23662038D01*
X19588828Y-23652514D01*
X19598351Y-23633467D01*
X19617399Y-23623943D01*
X19645970Y-23623943D01*
X19665018Y-23633467D01*
X19741209Y-23833467D02*
X19750732Y-23823943D01*
X19769780Y-23795371D01*
X19779304Y-23776324D01*
X19788828Y-23747752D01*
X19798351Y-23700133D01*
X19798351Y-23662038D01*
X19788828Y-23614419D01*
X19779304Y-23585848D01*
X19769780Y-23566800D01*
X19750732Y-23538228D01*
X19741209Y-23528705D01*
D18*
X13050780Y-23876300D02*
X13159780Y-23985300D01*
X13159780Y-23876300D02*
X13050780Y-23985300D01*
X13105280Y-23876300D02*
X13105280Y-23985300D01*
X13050780Y-23930800D02*
X13159780Y-23930800D01*
D11*
X13522161Y-24021276D02*
X13407875Y-24021276D01*
X13465018Y-24021276D02*
X13465018Y-23821276D01*
X13445970Y-23849848D01*
X13426923Y-23868895D01*
X13407875Y-23878419D01*
X13607875Y-24002228D02*
X13617399Y-24011752D01*
X13607875Y-24021276D01*
X13598351Y-24011752D01*
X13607875Y-24002228D01*
X13607875Y-24021276D01*
X13741208Y-23821276D02*
X13760256Y-23821276D01*
X13779304Y-23830800D01*
X13788828Y-23840324D01*
X13798351Y-23859371D01*
X13807875Y-23897467D01*
X13807875Y-23945086D01*
X13798351Y-23983181D01*
X13788828Y-24002228D01*
X13779304Y-24011752D01*
X13760256Y-24021276D01*
X13741208Y-24021276D01*
X13722161Y-24011752D01*
X13712637Y-24002228D01*
X13703113Y-23983181D01*
X13693589Y-23945086D01*
X13693589Y-23897467D01*
X13703113Y-23859371D01*
X13712637Y-23840324D01*
X13722161Y-23830800D01*
X13741208Y-23821276D01*
X13903113Y-24021276D02*
X13941208Y-24021276D01*
X13960256Y-24011752D01*
X13969780Y-24002228D01*
X13988828Y-23973657D01*
X13998351Y-23935562D01*
X13998351Y-23859371D01*
X13988828Y-23840324D01*
X13979304Y-23830800D01*
X13960256Y-23821276D01*
X13922161Y-23821276D01*
X13903113Y-23830800D01*
X13893589Y-23840324D01*
X13884066Y-23859371D01*
X13884066Y-23906990D01*
X13893589Y-23926038D01*
X13903113Y-23935562D01*
X13922161Y-23945086D01*
X13960256Y-23945086D01*
X13979304Y-23935562D01*
X13988828Y-23926038D01*
X13998351Y-23906990D01*
X14122161Y-23821276D02*
X14141208Y-23821276D01*
X14160256Y-23830800D01*
X14169780Y-23840324D01*
X14179304Y-23859371D01*
X14188828Y-23897467D01*
X14188828Y-23945086D01*
X14179304Y-23983181D01*
X14169780Y-24002228D01*
X14160256Y-24011752D01*
X14141208Y-24021276D01*
X14122161Y-24021276D01*
X14103113Y-24011752D01*
X14093589Y-24002228D01*
X14084066Y-23983181D01*
X14074542Y-23945086D01*
X14074542Y-23897467D01*
X14084066Y-23859371D01*
X14093589Y-23840324D01*
X14103113Y-23830800D01*
X14122161Y-23821276D01*
X14274542Y-24021276D02*
X14274542Y-23887943D01*
X14274542Y-23906990D02*
X14284066Y-23897467D01*
X14303113Y-23887943D01*
X14331685Y-23887943D01*
X14350732Y-23897467D01*
X14360256Y-23916514D01*
X14360256Y-24021276D01*
X14360256Y-23916514D02*
X14369780Y-23897467D01*
X14388828Y-23887943D01*
X14417399Y-23887943D01*
X14436447Y-23897467D01*
X14445970Y-23916514D01*
X14445970Y-24021276D01*
X14541208Y-24021276D02*
X14541208Y-23887943D01*
X14541208Y-23906990D02*
X14550732Y-23897467D01*
X14569780Y-23887943D01*
X14598351Y-23887943D01*
X14617399Y-23897467D01*
X14626923Y-23916514D01*
X14626923Y-24021276D01*
X14626923Y-23916514D02*
X14636447Y-23897467D01*
X14655494Y-23887943D01*
X14684066Y-23887943D01*
X14703113Y-23897467D01*
X14712637Y-23916514D01*
X14712637Y-24021276D01*
X15103113Y-23811752D02*
X14931685Y-24068895D01*
X15360256Y-23821276D02*
X15379304Y-23821276D01*
X15398351Y-23830800D01*
X15407875Y-23840324D01*
X15417399Y-23859371D01*
X15426923Y-23897467D01*
X15426923Y-23945086D01*
X15417399Y-23983181D01*
X15407875Y-24002228D01*
X15398351Y-24011752D01*
X15379304Y-24021276D01*
X15360256Y-24021276D01*
X15341208Y-24011752D01*
X15331685Y-24002228D01*
X15322161Y-23983181D01*
X15312637Y-23945086D01*
X15312637Y-23897467D01*
X15322161Y-23859371D01*
X15331685Y-23840324D01*
X15341208Y-23830800D01*
X15360256Y-23821276D01*
X15512637Y-24002228D02*
X15522161Y-24011752D01*
X15512637Y-24021276D01*
X15503113Y-24011752D01*
X15512637Y-24002228D01*
X15512637Y-24021276D01*
X15645970Y-23821276D02*
X15665018Y-23821276D01*
X15684066Y-23830800D01*
X15693589Y-23840324D01*
X15703113Y-23859371D01*
X15712637Y-23897467D01*
X15712637Y-23945086D01*
X15703113Y-23983181D01*
X15693589Y-24002228D01*
X15684066Y-24011752D01*
X15665018Y-24021276D01*
X15645970Y-24021276D01*
X15626923Y-24011752D01*
X15617399Y-24002228D01*
X15607875Y-23983181D01*
X15598351Y-23945086D01*
X15598351Y-23897467D01*
X15607875Y-23859371D01*
X15617399Y-23840324D01*
X15626923Y-23830800D01*
X15645970Y-23821276D01*
X15884066Y-23887943D02*
X15884066Y-24021276D01*
X15836447Y-23811752D02*
X15788828Y-23954609D01*
X15912637Y-23954609D01*
X15979304Y-23840324D02*
X15988828Y-23830800D01*
X16007875Y-23821276D01*
X16055494Y-23821276D01*
X16074542Y-23830800D01*
X16084066Y-23840324D01*
X16093589Y-23859371D01*
X16093589Y-23878419D01*
X16084066Y-23906990D01*
X15969780Y-24021276D01*
X16093589Y-24021276D01*
X16188828Y-24021276D02*
X16226923Y-24021276D01*
X16245970Y-24011752D01*
X16255494Y-24002228D01*
X16274542Y-23973657D01*
X16284066Y-23935562D01*
X16284066Y-23859371D01*
X16274542Y-23840324D01*
X16265018Y-23830800D01*
X16245970Y-23821276D01*
X16207875Y-23821276D01*
X16188828Y-23830800D01*
X16179304Y-23840324D01*
X16169780Y-23859371D01*
X16169780Y-23906990D01*
X16179304Y-23926038D01*
X16188828Y-23935562D01*
X16207875Y-23945086D01*
X16245970Y-23945086D01*
X16265018Y-23935562D01*
X16274542Y-23926038D01*
X16284066Y-23906990D01*
X16360256Y-23821276D02*
X16360256Y-23859371D01*
X16436447Y-23821276D02*
X16436447Y-23859371D01*
X16731685Y-24097467D02*
X16722161Y-24087943D01*
X16703113Y-24059371D01*
X16693589Y-24040324D01*
X16684066Y-24011752D01*
X16674542Y-23964133D01*
X16674542Y-23926038D01*
X16684066Y-23878419D01*
X16693589Y-23849848D01*
X16703113Y-23830800D01*
X16722161Y-23802228D01*
X16731685Y-23792705D01*
X16903113Y-23821276D02*
X16807875Y-23821276D01*
X16798351Y-23916514D01*
X16807875Y-23906990D01*
X16826923Y-23897467D01*
X16874542Y-23897467D01*
X16893590Y-23906990D01*
X16903113Y-23916514D01*
X16912637Y-23935562D01*
X16912637Y-23983181D01*
X16903113Y-24002228D01*
X16893590Y-24011752D01*
X16874542Y-24021276D01*
X16826923Y-24021276D01*
X16807875Y-24011752D01*
X16798351Y-24002228D01*
X17150732Y-24021276D02*
X17150732Y-23821276D01*
X17236447Y-24021276D02*
X17236447Y-23916514D01*
X17226923Y-23897467D01*
X17207875Y-23887943D01*
X17179304Y-23887943D01*
X17160256Y-23897467D01*
X17150732Y-23906990D01*
X17360256Y-24021276D02*
X17341209Y-24011752D01*
X17331685Y-24002228D01*
X17322161Y-23983181D01*
X17322161Y-23926038D01*
X17331685Y-23906990D01*
X17341209Y-23897467D01*
X17360256Y-23887943D01*
X17388828Y-23887943D01*
X17407875Y-23897467D01*
X17417399Y-23906990D01*
X17426923Y-23926038D01*
X17426923Y-23983181D01*
X17417399Y-24002228D01*
X17407875Y-24011752D01*
X17388828Y-24021276D01*
X17360256Y-24021276D01*
X17541209Y-24021276D02*
X17522161Y-24011752D01*
X17512637Y-23992705D01*
X17512637Y-23821276D01*
X17693590Y-24011752D02*
X17674542Y-24021276D01*
X17636447Y-24021276D01*
X17617399Y-24011752D01*
X17607875Y-23992705D01*
X17607875Y-23916514D01*
X17617399Y-23897467D01*
X17636447Y-23887943D01*
X17674542Y-23887943D01*
X17693590Y-23897467D01*
X17703113Y-23916514D01*
X17703113Y-23935562D01*
X17607875Y-23954609D01*
X17779304Y-24011752D02*
X17798351Y-24021276D01*
X17836447Y-24021276D01*
X17855494Y-24011752D01*
X17865018Y-23992705D01*
X17865018Y-23983181D01*
X17855494Y-23964133D01*
X17836447Y-23954609D01*
X17807875Y-23954609D01*
X17788828Y-23945086D01*
X17779304Y-23926038D01*
X17779304Y-23916514D01*
X17788828Y-23897467D01*
X17807875Y-23887943D01*
X17836447Y-23887943D01*
X17855494Y-23897467D01*
X17931685Y-24097467D02*
X17941209Y-24087943D01*
X17960256Y-24059371D01*
X17969780Y-24040324D01*
X17979304Y-24011752D01*
X17988828Y-23964133D01*
X17988828Y-23926038D01*
X17979304Y-23878419D01*
X17969780Y-23849848D01*
X17960256Y-23830800D01*
X17941209Y-23802228D01*
X17931685Y-23792705D01*
D19*
X13049780Y-24139800D02*
X13159780Y-24249800D01*
X13159780Y-24139800D02*
X13049780Y-24249800D01*
X13143671Y-24233691D02*
X13143671Y-24155909D01*
X13065889Y-24155909D01*
X13065889Y-24233691D01*
X13143671Y-24233691D01*
D11*
X13522161Y-24285276D02*
X13407875Y-24285276D01*
X13465018Y-24285276D02*
X13465018Y-24085276D01*
X13445970Y-24113848D01*
X13426923Y-24132895D01*
X13407875Y-24142419D01*
X13607875Y-24266228D02*
X13617399Y-24275752D01*
X13607875Y-24285276D01*
X13598351Y-24275752D01*
X13607875Y-24266228D01*
X13607875Y-24285276D01*
X13807875Y-24285276D02*
X13693589Y-24285276D01*
X13750732Y-24285276D02*
X13750732Y-24085276D01*
X13731685Y-24113848D01*
X13712637Y-24132895D01*
X13693589Y-24142419D01*
X13931685Y-24085276D02*
X13950732Y-24085276D01*
X13969780Y-24094800D01*
X13979304Y-24104324D01*
X13988828Y-24123371D01*
X13998351Y-24161467D01*
X13998351Y-24209086D01*
X13988828Y-24247181D01*
X13979304Y-24266228D01*
X13969780Y-24275752D01*
X13950732Y-24285276D01*
X13931685Y-24285276D01*
X13912637Y-24275752D01*
X13903113Y-24266228D01*
X13893589Y-24247181D01*
X13884066Y-24209086D01*
X13884066Y-24161467D01*
X13893589Y-24123371D01*
X13903113Y-24104324D01*
X13912637Y-24094800D01*
X13931685Y-24085276D01*
X14122161Y-24085276D02*
X14141208Y-24085276D01*
X14160256Y-24094800D01*
X14169780Y-24104324D01*
X14179304Y-24123371D01*
X14188828Y-24161467D01*
X14188828Y-24209086D01*
X14179304Y-24247181D01*
X14169780Y-24266228D01*
X14160256Y-24275752D01*
X14141208Y-24285276D01*
X14122161Y-24285276D01*
X14103113Y-24275752D01*
X14093589Y-24266228D01*
X14084066Y-24247181D01*
X14074542Y-24209086D01*
X14074542Y-24161467D01*
X14084066Y-24123371D01*
X14093589Y-24104324D01*
X14103113Y-24094800D01*
X14122161Y-24085276D01*
X14274542Y-24285276D02*
X14274542Y-24151943D01*
X14274542Y-24170990D02*
X14284066Y-24161467D01*
X14303113Y-24151943D01*
X14331685Y-24151943D01*
X14350732Y-24161467D01*
X14360256Y-24180514D01*
X14360256Y-24285276D01*
X14360256Y-24180514D02*
X14369780Y-24161467D01*
X14388828Y-24151943D01*
X14417399Y-24151943D01*
X14436447Y-24161467D01*
X14445970Y-24180514D01*
X14445970Y-24285276D01*
X14541208Y-24285276D02*
X14541208Y-24151943D01*
X14541208Y-24170990D02*
X14550732Y-24161467D01*
X14569780Y-24151943D01*
X14598351Y-24151943D01*
X14617399Y-24161467D01*
X14626923Y-24180514D01*
X14626923Y-24285276D01*
X14626923Y-24180514D02*
X14636447Y-24161467D01*
X14655494Y-24151943D01*
X14684066Y-24151943D01*
X14703113Y-24161467D01*
X14712637Y-24180514D01*
X14712637Y-24285276D01*
X15103113Y-24075752D02*
X14931685Y-24332895D01*
X15360256Y-24085276D02*
X15379304Y-24085276D01*
X15398351Y-24094800D01*
X15407875Y-24104324D01*
X15417399Y-24123371D01*
X15426923Y-24161467D01*
X15426923Y-24209086D01*
X15417399Y-24247181D01*
X15407875Y-24266228D01*
X15398351Y-24275752D01*
X15379304Y-24285276D01*
X15360256Y-24285276D01*
X15341208Y-24275752D01*
X15331685Y-24266228D01*
X15322161Y-24247181D01*
X15312637Y-24209086D01*
X15312637Y-24161467D01*
X15322161Y-24123371D01*
X15331685Y-24104324D01*
X15341208Y-24094800D01*
X15360256Y-24085276D01*
X15512637Y-24266228D02*
X15522161Y-24275752D01*
X15512637Y-24285276D01*
X15503113Y-24275752D01*
X15512637Y-24266228D01*
X15512637Y-24285276D01*
X15645970Y-24085276D02*
X15665018Y-24085276D01*
X15684066Y-24094800D01*
X15693589Y-24104324D01*
X15703113Y-24123371D01*
X15712637Y-24161467D01*
X15712637Y-24209086D01*
X15703113Y-24247181D01*
X15693589Y-24266228D01*
X15684066Y-24275752D01*
X15665018Y-24285276D01*
X15645970Y-24285276D01*
X15626923Y-24275752D01*
X15617399Y-24266228D01*
X15607875Y-24247181D01*
X15598351Y-24209086D01*
X15598351Y-24161467D01*
X15607875Y-24123371D01*
X15617399Y-24104324D01*
X15626923Y-24094800D01*
X15645970Y-24085276D01*
X15884066Y-24151943D02*
X15884066Y-24285276D01*
X15836447Y-24075752D02*
X15788828Y-24218609D01*
X15912637Y-24218609D01*
X15969780Y-24085276D02*
X16093589Y-24085276D01*
X16026923Y-24161467D01*
X16055494Y-24161467D01*
X16074542Y-24170990D01*
X16084066Y-24180514D01*
X16093589Y-24199562D01*
X16093589Y-24247181D01*
X16084066Y-24266228D01*
X16074542Y-24275752D01*
X16055494Y-24285276D01*
X15998351Y-24285276D01*
X15979304Y-24275752D01*
X15969780Y-24266228D01*
X16160256Y-24085276D02*
X16284066Y-24085276D01*
X16217399Y-24161467D01*
X16245970Y-24161467D01*
X16265018Y-24170990D01*
X16274542Y-24180514D01*
X16284066Y-24199562D01*
X16284066Y-24247181D01*
X16274542Y-24266228D01*
X16265018Y-24275752D01*
X16245970Y-24285276D01*
X16188828Y-24285276D01*
X16169780Y-24275752D01*
X16160256Y-24266228D01*
X16360256Y-24085276D02*
X16360256Y-24123371D01*
X16436447Y-24085276D02*
X16436447Y-24123371D01*
X16731685Y-24361467D02*
X16722161Y-24351943D01*
X16703113Y-24323371D01*
X16693589Y-24304324D01*
X16684066Y-24275752D01*
X16674542Y-24228133D01*
X16674542Y-24190038D01*
X16684066Y-24142419D01*
X16693589Y-24113848D01*
X16703113Y-24094800D01*
X16722161Y-24066228D01*
X16731685Y-24056705D01*
X16903113Y-24085276D02*
X16807875Y-24085276D01*
X16798351Y-24180514D01*
X16807875Y-24170990D01*
X16826923Y-24161467D01*
X16874542Y-24161467D01*
X16893590Y-24170990D01*
X16903113Y-24180514D01*
X16912637Y-24199562D01*
X16912637Y-24247181D01*
X16903113Y-24266228D01*
X16893590Y-24275752D01*
X16874542Y-24285276D01*
X16826923Y-24285276D01*
X16807875Y-24275752D01*
X16798351Y-24266228D01*
X17150732Y-24285276D02*
X17150732Y-24085276D01*
X17236447Y-24285276D02*
X17236447Y-24180514D01*
X17226923Y-24161467D01*
X17207875Y-24151943D01*
X17179304Y-24151943D01*
X17160256Y-24161467D01*
X17150732Y-24170990D01*
X17360256Y-24285276D02*
X17341209Y-24275752D01*
X17331685Y-24266228D01*
X17322161Y-24247181D01*
X17322161Y-24190038D01*
X17331685Y-24170990D01*
X17341209Y-24161467D01*
X17360256Y-24151943D01*
X17388828Y-24151943D01*
X17407875Y-24161467D01*
X17417399Y-24170990D01*
X17426923Y-24190038D01*
X17426923Y-24247181D01*
X17417399Y-24266228D01*
X17407875Y-24275752D01*
X17388828Y-24285276D01*
X17360256Y-24285276D01*
X17541209Y-24285276D02*
X17522161Y-24275752D01*
X17512637Y-24256705D01*
X17512637Y-24085276D01*
X17693590Y-24275752D02*
X17674542Y-24285276D01*
X17636447Y-24285276D01*
X17617399Y-24275752D01*
X17607875Y-24256705D01*
X17607875Y-24180514D01*
X17617399Y-24161467D01*
X17636447Y-24151943D01*
X17674542Y-24151943D01*
X17693590Y-24161467D01*
X17703113Y-24180514D01*
X17703113Y-24199562D01*
X17607875Y-24218609D01*
X17779304Y-24275752D02*
X17798351Y-24285276D01*
X17836447Y-24285276D01*
X17855494Y-24275752D01*
X17865018Y-24256705D01*
X17865018Y-24247181D01*
X17855494Y-24228133D01*
X17836447Y-24218609D01*
X17807875Y-24218609D01*
X17788828Y-24209086D01*
X17779304Y-24190038D01*
X17779304Y-24180514D01*
X17788828Y-24161467D01*
X17807875Y-24151943D01*
X17836447Y-24151943D01*
X17855494Y-24161467D01*
X17931685Y-24361467D02*
X17941209Y-24351943D01*
X17960256Y-24323371D01*
X17969780Y-24304324D01*
X17979304Y-24275752D01*
X17988828Y-24228133D01*
X17988828Y-24190038D01*
X17979304Y-24142419D01*
X17969780Y-24113848D01*
X17960256Y-24094800D01*
X17941209Y-24066228D01*
X17931685Y-24056705D01*
D20*
X13039780Y-24398800D02*
X13159780Y-24518800D01*
X13159780Y-24398800D02*
X13039780Y-24518800D01*
X13099780Y-24518800D02*
X13159780Y-24458800D01*
X13099780Y-24398800D01*
X13039780Y-24458800D01*
X13099780Y-24518800D01*
D11*
X13522161Y-24549276D02*
X13407875Y-24549276D01*
X13465018Y-24549276D02*
X13465018Y-24349276D01*
X13445970Y-24377848D01*
X13426923Y-24396895D01*
X13407875Y-24406419D01*
X13607875Y-24530228D02*
X13617399Y-24539752D01*
X13607875Y-24549276D01*
X13598351Y-24539752D01*
X13607875Y-24530228D01*
X13607875Y-24549276D01*
X13693589Y-24368324D02*
X13703113Y-24358800D01*
X13722161Y-24349276D01*
X13769780Y-24349276D01*
X13788828Y-24358800D01*
X13798351Y-24368324D01*
X13807875Y-24387371D01*
X13807875Y-24406419D01*
X13798351Y-24434990D01*
X13684066Y-24549276D01*
X13807875Y-24549276D01*
X13931685Y-24349276D02*
X13950732Y-24349276D01*
X13969780Y-24358800D01*
X13979304Y-24368324D01*
X13988828Y-24387371D01*
X13998351Y-24425467D01*
X13998351Y-24473086D01*
X13988828Y-24511181D01*
X13979304Y-24530228D01*
X13969780Y-24539752D01*
X13950732Y-24549276D01*
X13931685Y-24549276D01*
X13912637Y-24539752D01*
X13903113Y-24530228D01*
X13893589Y-24511181D01*
X13884066Y-24473086D01*
X13884066Y-24425467D01*
X13893589Y-24387371D01*
X13903113Y-24368324D01*
X13912637Y-24358800D01*
X13931685Y-24349276D01*
X14122161Y-24349276D02*
X14141208Y-24349276D01*
X14160256Y-24358800D01*
X14169780Y-24368324D01*
X14179304Y-24387371D01*
X14188828Y-24425467D01*
X14188828Y-24473086D01*
X14179304Y-24511181D01*
X14169780Y-24530228D01*
X14160256Y-24539752D01*
X14141208Y-24549276D01*
X14122161Y-24549276D01*
X14103113Y-24539752D01*
X14093589Y-24530228D01*
X14084066Y-24511181D01*
X14074542Y-24473086D01*
X14074542Y-24425467D01*
X14084066Y-24387371D01*
X14093589Y-24368324D01*
X14103113Y-24358800D01*
X14122161Y-24349276D01*
X14274542Y-24549276D02*
X14274542Y-24415943D01*
X14274542Y-24434990D02*
X14284066Y-24425467D01*
X14303113Y-24415943D01*
X14331685Y-24415943D01*
X14350732Y-24425467D01*
X14360256Y-24444514D01*
X14360256Y-24549276D01*
X14360256Y-24444514D02*
X14369780Y-24425467D01*
X14388828Y-24415943D01*
X14417399Y-24415943D01*
X14436447Y-24425467D01*
X14445970Y-24444514D01*
X14445970Y-24549276D01*
X14541208Y-24549276D02*
X14541208Y-24415943D01*
X14541208Y-24434990D02*
X14550732Y-24425467D01*
X14569780Y-24415943D01*
X14598351Y-24415943D01*
X14617399Y-24425467D01*
X14626923Y-24444514D01*
X14626923Y-24549276D01*
X14626923Y-24444514D02*
X14636447Y-24425467D01*
X14655494Y-24415943D01*
X14684066Y-24415943D01*
X14703113Y-24425467D01*
X14712637Y-24444514D01*
X14712637Y-24549276D01*
X15103113Y-24339752D02*
X14931685Y-24596895D01*
X15360256Y-24349276D02*
X15379304Y-24349276D01*
X15398351Y-24358800D01*
X15407875Y-24368324D01*
X15417399Y-24387371D01*
X15426923Y-24425467D01*
X15426923Y-24473086D01*
X15417399Y-24511181D01*
X15407875Y-24530228D01*
X15398351Y-24539752D01*
X15379304Y-24549276D01*
X15360256Y-24549276D01*
X15341208Y-24539752D01*
X15331685Y-24530228D01*
X15322161Y-24511181D01*
X15312637Y-24473086D01*
X15312637Y-24425467D01*
X15322161Y-24387371D01*
X15331685Y-24368324D01*
X15341208Y-24358800D01*
X15360256Y-24349276D01*
X15512637Y-24530228D02*
X15522161Y-24539752D01*
X15512637Y-24549276D01*
X15503113Y-24539752D01*
X15512637Y-24530228D01*
X15512637Y-24549276D01*
X15645970Y-24349276D02*
X15665018Y-24349276D01*
X15684066Y-24358800D01*
X15693589Y-24368324D01*
X15703113Y-24387371D01*
X15712637Y-24425467D01*
X15712637Y-24473086D01*
X15703113Y-24511181D01*
X15693589Y-24530228D01*
X15684066Y-24539752D01*
X15665018Y-24549276D01*
X15645970Y-24549276D01*
X15626923Y-24539752D01*
X15617399Y-24530228D01*
X15607875Y-24511181D01*
X15598351Y-24473086D01*
X15598351Y-24425467D01*
X15607875Y-24387371D01*
X15617399Y-24368324D01*
X15626923Y-24358800D01*
X15645970Y-24349276D01*
X15884066Y-24415943D02*
X15884066Y-24549276D01*
X15836447Y-24339752D02*
X15788828Y-24482609D01*
X15912637Y-24482609D01*
X15969780Y-24349276D02*
X16103113Y-24349276D01*
X16017399Y-24549276D01*
X16169780Y-24368324D02*
X16179304Y-24358800D01*
X16198351Y-24349276D01*
X16245970Y-24349276D01*
X16265018Y-24358800D01*
X16274542Y-24368324D01*
X16284066Y-24387371D01*
X16284066Y-24406419D01*
X16274542Y-24434990D01*
X16160256Y-24549276D01*
X16284066Y-24549276D01*
X16360256Y-24349276D02*
X16360256Y-24387371D01*
X16436447Y-24349276D02*
X16436447Y-24387371D01*
X16731685Y-24625467D02*
X16722161Y-24615943D01*
X16703113Y-24587371D01*
X16693589Y-24568324D01*
X16684066Y-24539752D01*
X16674542Y-24492133D01*
X16674542Y-24454038D01*
X16684066Y-24406419D01*
X16693589Y-24377848D01*
X16703113Y-24358800D01*
X16722161Y-24330228D01*
X16731685Y-24320705D01*
X16798351Y-24368324D02*
X16807875Y-24358800D01*
X16826923Y-24349276D01*
X16874542Y-24349276D01*
X16893590Y-24358800D01*
X16903113Y-24368324D01*
X16912637Y-24387371D01*
X16912637Y-24406419D01*
X16903113Y-24434990D01*
X16788828Y-24549276D01*
X16912637Y-24549276D01*
X17150732Y-24549276D02*
X17150732Y-24349276D01*
X17236447Y-24549276D02*
X17236447Y-24444514D01*
X17226923Y-24425467D01*
X17207875Y-24415943D01*
X17179304Y-24415943D01*
X17160256Y-24425467D01*
X17150732Y-24434990D01*
X17360256Y-24549276D02*
X17341209Y-24539752D01*
X17331685Y-24530228D01*
X17322161Y-24511181D01*
X17322161Y-24454038D01*
X17331685Y-24434990D01*
X17341209Y-24425467D01*
X17360256Y-24415943D01*
X17388828Y-24415943D01*
X17407875Y-24425467D01*
X17417399Y-24434990D01*
X17426923Y-24454038D01*
X17426923Y-24511181D01*
X17417399Y-24530228D01*
X17407875Y-24539752D01*
X17388828Y-24549276D01*
X17360256Y-24549276D01*
X17541209Y-24549276D02*
X17522161Y-24539752D01*
X17512637Y-24520705D01*
X17512637Y-24349276D01*
X17693590Y-24539752D02*
X17674542Y-24549276D01*
X17636447Y-24549276D01*
X17617399Y-24539752D01*
X17607875Y-24520705D01*
X17607875Y-24444514D01*
X17617399Y-24425467D01*
X17636447Y-24415943D01*
X17674542Y-24415943D01*
X17693590Y-24425467D01*
X17703113Y-24444514D01*
X17703113Y-24463562D01*
X17607875Y-24482609D01*
X17779304Y-24539752D02*
X17798351Y-24549276D01*
X17836447Y-24549276D01*
X17855494Y-24539752D01*
X17865018Y-24520705D01*
X17865018Y-24511181D01*
X17855494Y-24492133D01*
X17836447Y-24482609D01*
X17807875Y-24482609D01*
X17788828Y-24473086D01*
X17779304Y-24454038D01*
X17779304Y-24444514D01*
X17788828Y-24425467D01*
X17807875Y-24415943D01*
X17836447Y-24415943D01*
X17855494Y-24425467D01*
X17931685Y-24625467D02*
X17941209Y-24615943D01*
X17960256Y-24587371D01*
X17969780Y-24568324D01*
X17979304Y-24539752D01*
X17988828Y-24492133D01*
X17988828Y-24454038D01*
X17979304Y-24406419D01*
X17969780Y-24377848D01*
X17960256Y-24358800D01*
X17941209Y-24330228D01*
X17931685Y-24320705D01*
D21*
X13074780Y-24637800D02*
X13074780Y-24807800D01*
X12989780Y-24722800D02*
X13159780Y-24722800D01*
X13159780Y-24722800D02*
G75*
G03*
X13159780Y-24722800I-85000J0D01*
G01*
D11*
X13522161Y-24813276D02*
X13407875Y-24813276D01*
X13465018Y-24813276D02*
X13465018Y-24613276D01*
X13445970Y-24641848D01*
X13426923Y-24660895D01*
X13407875Y-24670419D01*
X13607875Y-24794228D02*
X13617399Y-24803752D01*
X13607875Y-24813276D01*
X13598351Y-24803752D01*
X13607875Y-24794228D01*
X13607875Y-24813276D01*
X13684066Y-24613276D02*
X13817399Y-24613276D01*
X13731685Y-24813276D01*
X13931685Y-24613276D02*
X13950732Y-24613276D01*
X13969780Y-24622800D01*
X13979304Y-24632324D01*
X13988828Y-24651371D01*
X13998351Y-24689467D01*
X13998351Y-24737086D01*
X13988828Y-24775181D01*
X13979304Y-24794228D01*
X13969780Y-24803752D01*
X13950732Y-24813276D01*
X13931685Y-24813276D01*
X13912637Y-24803752D01*
X13903113Y-24794228D01*
X13893589Y-24775181D01*
X13884066Y-24737086D01*
X13884066Y-24689467D01*
X13893589Y-24651371D01*
X13903113Y-24632324D01*
X13912637Y-24622800D01*
X13931685Y-24613276D01*
X14122161Y-24613276D02*
X14141208Y-24613276D01*
X14160256Y-24622800D01*
X14169780Y-24632324D01*
X14179304Y-24651371D01*
X14188828Y-24689467D01*
X14188828Y-24737086D01*
X14179304Y-24775181D01*
X14169780Y-24794228D01*
X14160256Y-24803752D01*
X14141208Y-24813276D01*
X14122161Y-24813276D01*
X14103113Y-24803752D01*
X14093589Y-24794228D01*
X14084066Y-24775181D01*
X14074542Y-24737086D01*
X14074542Y-24689467D01*
X14084066Y-24651371D01*
X14093589Y-24632324D01*
X14103113Y-24622800D01*
X14122161Y-24613276D01*
X14274542Y-24813276D02*
X14274542Y-24679943D01*
X14274542Y-24698990D02*
X14284066Y-24689467D01*
X14303113Y-24679943D01*
X14331685Y-24679943D01*
X14350732Y-24689467D01*
X14360256Y-24708514D01*
X14360256Y-24813276D01*
X14360256Y-24708514D02*
X14369780Y-24689467D01*
X14388828Y-24679943D01*
X14417399Y-24679943D01*
X14436447Y-24689467D01*
X14445970Y-24708514D01*
X14445970Y-24813276D01*
X14541208Y-24813276D02*
X14541208Y-24679943D01*
X14541208Y-24698990D02*
X14550732Y-24689467D01*
X14569780Y-24679943D01*
X14598351Y-24679943D01*
X14617399Y-24689467D01*
X14626923Y-24708514D01*
X14626923Y-24813276D01*
X14626923Y-24708514D02*
X14636447Y-24689467D01*
X14655494Y-24679943D01*
X14684066Y-24679943D01*
X14703113Y-24689467D01*
X14712637Y-24708514D01*
X14712637Y-24813276D01*
X15103113Y-24603752D02*
X14931685Y-24860895D01*
X15360256Y-24613276D02*
X15379304Y-24613276D01*
X15398351Y-24622800D01*
X15407875Y-24632324D01*
X15417399Y-24651371D01*
X15426923Y-24689467D01*
X15426923Y-24737086D01*
X15417399Y-24775181D01*
X15407875Y-24794228D01*
X15398351Y-24803752D01*
X15379304Y-24813276D01*
X15360256Y-24813276D01*
X15341208Y-24803752D01*
X15331685Y-24794228D01*
X15322161Y-24775181D01*
X15312637Y-24737086D01*
X15312637Y-24689467D01*
X15322161Y-24651371D01*
X15331685Y-24632324D01*
X15341208Y-24622800D01*
X15360256Y-24613276D01*
X15512637Y-24794228D02*
X15522161Y-24803752D01*
X15512637Y-24813276D01*
X15503113Y-24803752D01*
X15512637Y-24794228D01*
X15512637Y-24813276D01*
X15645970Y-24613276D02*
X15665018Y-24613276D01*
X15684066Y-24622800D01*
X15693589Y-24632324D01*
X15703113Y-24651371D01*
X15712637Y-24689467D01*
X15712637Y-24737086D01*
X15703113Y-24775181D01*
X15693589Y-24794228D01*
X15684066Y-24803752D01*
X15665018Y-24813276D01*
X15645970Y-24813276D01*
X15626923Y-24803752D01*
X15617399Y-24794228D01*
X15607875Y-24775181D01*
X15598351Y-24737086D01*
X15598351Y-24689467D01*
X15607875Y-24651371D01*
X15617399Y-24632324D01*
X15626923Y-24622800D01*
X15645970Y-24613276D01*
X15884066Y-24613276D02*
X15845970Y-24613276D01*
X15826923Y-24622800D01*
X15817399Y-24632324D01*
X15798351Y-24660895D01*
X15788828Y-24698990D01*
X15788828Y-24775181D01*
X15798351Y-24794228D01*
X15807875Y-24803752D01*
X15826923Y-24813276D01*
X15865018Y-24813276D01*
X15884066Y-24803752D01*
X15893589Y-24794228D01*
X15903113Y-24775181D01*
X15903113Y-24727562D01*
X15893589Y-24708514D01*
X15884066Y-24698990D01*
X15865018Y-24689467D01*
X15826923Y-24689467D01*
X15807875Y-24698990D01*
X15798351Y-24708514D01*
X15788828Y-24727562D01*
X16074542Y-24613276D02*
X16036447Y-24613276D01*
X16017399Y-24622800D01*
X16007875Y-24632324D01*
X15988828Y-24660895D01*
X15979304Y-24698990D01*
X15979304Y-24775181D01*
X15988828Y-24794228D01*
X15998351Y-24803752D01*
X16017399Y-24813276D01*
X16055494Y-24813276D01*
X16074542Y-24803752D01*
X16084066Y-24794228D01*
X16093589Y-24775181D01*
X16093589Y-24727562D01*
X16084066Y-24708514D01*
X16074542Y-24698990D01*
X16055494Y-24689467D01*
X16017399Y-24689467D01*
X15998351Y-24698990D01*
X15988828Y-24708514D01*
X15979304Y-24727562D01*
X16188828Y-24813276D02*
X16226923Y-24813276D01*
X16245970Y-24803752D01*
X16255494Y-24794228D01*
X16274542Y-24765657D01*
X16284066Y-24727562D01*
X16284066Y-24651371D01*
X16274542Y-24632324D01*
X16265018Y-24622800D01*
X16245970Y-24613276D01*
X16207875Y-24613276D01*
X16188828Y-24622800D01*
X16179304Y-24632324D01*
X16169780Y-24651371D01*
X16169780Y-24698990D01*
X16179304Y-24718038D01*
X16188828Y-24727562D01*
X16207875Y-24737086D01*
X16245970Y-24737086D01*
X16265018Y-24727562D01*
X16274542Y-24718038D01*
X16284066Y-24698990D01*
X16360256Y-24613276D02*
X16360256Y-24651371D01*
X16436447Y-24613276D02*
X16436447Y-24651371D01*
X16731685Y-24889467D02*
X16722161Y-24879943D01*
X16703113Y-24851371D01*
X16693589Y-24832324D01*
X16684066Y-24803752D01*
X16674542Y-24756133D01*
X16674542Y-24718038D01*
X16684066Y-24670419D01*
X16693589Y-24641848D01*
X16703113Y-24622800D01*
X16722161Y-24594228D01*
X16731685Y-24584705D01*
X16903113Y-24613276D02*
X16807875Y-24613276D01*
X16798351Y-24708514D01*
X16807875Y-24698990D01*
X16826923Y-24689467D01*
X16874542Y-24689467D01*
X16893590Y-24698990D01*
X16903113Y-24708514D01*
X16912637Y-24727562D01*
X16912637Y-24775181D01*
X16903113Y-24794228D01*
X16893590Y-24803752D01*
X16874542Y-24813276D01*
X16826923Y-24813276D01*
X16807875Y-24803752D01*
X16798351Y-24794228D01*
X17150732Y-24813276D02*
X17150732Y-24613276D01*
X17236447Y-24813276D02*
X17236447Y-24708514D01*
X17226923Y-24689467D01*
X17207875Y-24679943D01*
X17179304Y-24679943D01*
X17160256Y-24689467D01*
X17150732Y-24698990D01*
X17360256Y-24813276D02*
X17341209Y-24803752D01*
X17331685Y-24794228D01*
X17322161Y-24775181D01*
X17322161Y-24718038D01*
X17331685Y-24698990D01*
X17341209Y-24689467D01*
X17360256Y-24679943D01*
X17388828Y-24679943D01*
X17407875Y-24689467D01*
X17417399Y-24698990D01*
X17426923Y-24718038D01*
X17426923Y-24775181D01*
X17417399Y-24794228D01*
X17407875Y-24803752D01*
X17388828Y-24813276D01*
X17360256Y-24813276D01*
X17541209Y-24813276D02*
X17522161Y-24803752D01*
X17512637Y-24784705D01*
X17512637Y-24613276D01*
X17693590Y-24803752D02*
X17674542Y-24813276D01*
X17636447Y-24813276D01*
X17617399Y-24803752D01*
X17607875Y-24784705D01*
X17607875Y-24708514D01*
X17617399Y-24689467D01*
X17636447Y-24679943D01*
X17674542Y-24679943D01*
X17693590Y-24689467D01*
X17703113Y-24708514D01*
X17703113Y-24727562D01*
X17607875Y-24746609D01*
X17779304Y-24803752D02*
X17798351Y-24813276D01*
X17836447Y-24813276D01*
X17855494Y-24803752D01*
X17865018Y-24784705D01*
X17865018Y-24775181D01*
X17855494Y-24756133D01*
X17836447Y-24746609D01*
X17807875Y-24746609D01*
X17788828Y-24737086D01*
X17779304Y-24718038D01*
X17779304Y-24708514D01*
X17788828Y-24689467D01*
X17807875Y-24679943D01*
X17836447Y-24679943D01*
X17855494Y-24689467D01*
X17931685Y-24889467D02*
X17941209Y-24879943D01*
X17960256Y-24851371D01*
X17969780Y-24832324D01*
X17979304Y-24803752D01*
X17988828Y-24756133D01*
X17988828Y-24718038D01*
X17979304Y-24670419D01*
X17969780Y-24641848D01*
X17960256Y-24622800D01*
X17941209Y-24594228D01*
X17931685Y-24584705D01*
X13130491Y-25083511D02*
X13130491Y-24942089D01*
X12989069Y-24942089D01*
X12989069Y-25083511D01*
X13130491Y-25083511D01*
X13159780Y-25012800D02*
G75*
G03*
X13159780Y-25012800I-100000J0D01*
G01*
X13407875Y-24922324D02*
X13417399Y-24912800D01*
X13436447Y-24903276D01*
X13484066Y-24903276D01*
X13503113Y-24912800D01*
X13512637Y-24922324D01*
X13522161Y-24941371D01*
X13522161Y-24960419D01*
X13512637Y-24988990D01*
X13398351Y-25103276D01*
X13522161Y-25103276D01*
X13607875Y-25084228D02*
X13617399Y-25093752D01*
X13607875Y-25103276D01*
X13598351Y-25093752D01*
X13607875Y-25084228D01*
X13607875Y-25103276D01*
X13788828Y-24903276D02*
X13750732Y-24903276D01*
X13731685Y-24912800D01*
X13722161Y-24922324D01*
X13703113Y-24950895D01*
X13693589Y-24988990D01*
X13693589Y-25065181D01*
X13703113Y-25084228D01*
X13712637Y-25093752D01*
X13731685Y-25103276D01*
X13769780Y-25103276D01*
X13788828Y-25093752D01*
X13798351Y-25084228D01*
X13807875Y-25065181D01*
X13807875Y-25017562D01*
X13798351Y-24998514D01*
X13788828Y-24988990D01*
X13769780Y-24979467D01*
X13731685Y-24979467D01*
X13712637Y-24988990D01*
X13703113Y-24998514D01*
X13693589Y-25017562D01*
X13931685Y-24903276D02*
X13950732Y-24903276D01*
X13969780Y-24912800D01*
X13979304Y-24922324D01*
X13988828Y-24941371D01*
X13998351Y-24979467D01*
X13998351Y-25027086D01*
X13988828Y-25065181D01*
X13979304Y-25084228D01*
X13969780Y-25093752D01*
X13950732Y-25103276D01*
X13931685Y-25103276D01*
X13912637Y-25093752D01*
X13903113Y-25084228D01*
X13893589Y-25065181D01*
X13884066Y-25027086D01*
X13884066Y-24979467D01*
X13893589Y-24941371D01*
X13903113Y-24922324D01*
X13912637Y-24912800D01*
X13931685Y-24903276D01*
X14122161Y-24903276D02*
X14141208Y-24903276D01*
X14160256Y-24912800D01*
X14169780Y-24922324D01*
X14179304Y-24941371D01*
X14188828Y-24979467D01*
X14188828Y-25027086D01*
X14179304Y-25065181D01*
X14169780Y-25084228D01*
X14160256Y-25093752D01*
X14141208Y-25103276D01*
X14122161Y-25103276D01*
X14103113Y-25093752D01*
X14093589Y-25084228D01*
X14084066Y-25065181D01*
X14074542Y-25027086D01*
X14074542Y-24979467D01*
X14084066Y-24941371D01*
X14093589Y-24922324D01*
X14103113Y-24912800D01*
X14122161Y-24903276D01*
X14274542Y-25103276D02*
X14274542Y-24969943D01*
X14274542Y-24988990D02*
X14284066Y-24979467D01*
X14303113Y-24969943D01*
X14331685Y-24969943D01*
X14350732Y-24979467D01*
X14360256Y-24998514D01*
X14360256Y-25103276D01*
X14360256Y-24998514D02*
X14369780Y-24979467D01*
X14388828Y-24969943D01*
X14417399Y-24969943D01*
X14436447Y-24979467D01*
X14445970Y-24998514D01*
X14445970Y-25103276D01*
X14541208Y-25103276D02*
X14541208Y-24969943D01*
X14541208Y-24988990D02*
X14550732Y-24979467D01*
X14569780Y-24969943D01*
X14598351Y-24969943D01*
X14617399Y-24979467D01*
X14626923Y-24998514D01*
X14626923Y-25103276D01*
X14626923Y-24998514D02*
X14636447Y-24979467D01*
X14655494Y-24969943D01*
X14684066Y-24969943D01*
X14703113Y-24979467D01*
X14712637Y-24998514D01*
X14712637Y-25103276D01*
X15103113Y-24893752D02*
X14931685Y-25150895D01*
X15360256Y-24903276D02*
X15379304Y-24903276D01*
X15398351Y-24912800D01*
X15407875Y-24922324D01*
X15417399Y-24941371D01*
X15426923Y-24979467D01*
X15426923Y-25027086D01*
X15417399Y-25065181D01*
X15407875Y-25084228D01*
X15398351Y-25093752D01*
X15379304Y-25103276D01*
X15360256Y-25103276D01*
X15341208Y-25093752D01*
X15331685Y-25084228D01*
X15322161Y-25065181D01*
X15312637Y-25027086D01*
X15312637Y-24979467D01*
X15322161Y-24941371D01*
X15331685Y-24922324D01*
X15341208Y-24912800D01*
X15360256Y-24903276D01*
X15512637Y-25084228D02*
X15522161Y-25093752D01*
X15512637Y-25103276D01*
X15503113Y-25093752D01*
X15512637Y-25084228D01*
X15512637Y-25103276D01*
X15712637Y-25103276D02*
X15598351Y-25103276D01*
X15655494Y-25103276D02*
X15655494Y-24903276D01*
X15636447Y-24931848D01*
X15617399Y-24950895D01*
X15598351Y-24960419D01*
X15836447Y-24903276D02*
X15855494Y-24903276D01*
X15874542Y-24912800D01*
X15884066Y-24922324D01*
X15893589Y-24941371D01*
X15903113Y-24979467D01*
X15903113Y-25027086D01*
X15893589Y-25065181D01*
X15884066Y-25084228D01*
X15874542Y-25093752D01*
X15855494Y-25103276D01*
X15836447Y-25103276D01*
X15817399Y-25093752D01*
X15807875Y-25084228D01*
X15798351Y-25065181D01*
X15788828Y-25027086D01*
X15788828Y-24979467D01*
X15798351Y-24941371D01*
X15807875Y-24922324D01*
X15817399Y-24912800D01*
X15836447Y-24903276D01*
X15979304Y-24922324D02*
X15988828Y-24912800D01*
X16007875Y-24903276D01*
X16055494Y-24903276D01*
X16074542Y-24912800D01*
X16084066Y-24922324D01*
X16093589Y-24941371D01*
X16093589Y-24960419D01*
X16084066Y-24988990D01*
X15969780Y-25103276D01*
X16093589Y-25103276D01*
X16265018Y-24969943D02*
X16265018Y-25103276D01*
X16217399Y-24893752D02*
X16169780Y-25036609D01*
X16293589Y-25036609D01*
X16360256Y-24903276D02*
X16360256Y-24941371D01*
X16436447Y-24903276D02*
X16436447Y-24941371D01*
X16731685Y-25179467D02*
X16722161Y-25169943D01*
X16703113Y-25141371D01*
X16693589Y-25122324D01*
X16684066Y-25093752D01*
X16674542Y-25046133D01*
X16674542Y-25008038D01*
X16684066Y-24960419D01*
X16693589Y-24931848D01*
X16703113Y-24912800D01*
X16722161Y-24884228D01*
X16731685Y-24874705D01*
X16788828Y-24903276D02*
X16912637Y-24903276D01*
X16845970Y-24979467D01*
X16874542Y-24979467D01*
X16893590Y-24988990D01*
X16903113Y-24998514D01*
X16912637Y-25017562D01*
X16912637Y-25065181D01*
X16903113Y-25084228D01*
X16893590Y-25093752D01*
X16874542Y-25103276D01*
X16817399Y-25103276D01*
X16798351Y-25093752D01*
X16788828Y-25084228D01*
X17150732Y-25103276D02*
X17150732Y-24903276D01*
X17236447Y-25103276D02*
X17236447Y-24998514D01*
X17226923Y-24979467D01*
X17207875Y-24969943D01*
X17179304Y-24969943D01*
X17160256Y-24979467D01*
X17150732Y-24988990D01*
X17360256Y-25103276D02*
X17341209Y-25093752D01*
X17331685Y-25084228D01*
X17322161Y-25065181D01*
X17322161Y-25008038D01*
X17331685Y-24988990D01*
X17341209Y-24979467D01*
X17360256Y-24969943D01*
X17388828Y-24969943D01*
X17407875Y-24979467D01*
X17417399Y-24988990D01*
X17426923Y-25008038D01*
X17426923Y-25065181D01*
X17417399Y-25084228D01*
X17407875Y-25093752D01*
X17388828Y-25103276D01*
X17360256Y-25103276D01*
X17541209Y-25103276D02*
X17522161Y-25093752D01*
X17512637Y-25074705D01*
X17512637Y-24903276D01*
X17693590Y-25093752D02*
X17674542Y-25103276D01*
X17636447Y-25103276D01*
X17617399Y-25093752D01*
X17607875Y-25074705D01*
X17607875Y-24998514D01*
X17617399Y-24979467D01*
X17636447Y-24969943D01*
X17674542Y-24969943D01*
X17693590Y-24979467D01*
X17703113Y-24998514D01*
X17703113Y-25017562D01*
X17607875Y-25036609D01*
X17779304Y-25093752D02*
X17798351Y-25103276D01*
X17836447Y-25103276D01*
X17855494Y-25093752D01*
X17865018Y-25074705D01*
X17865018Y-25065181D01*
X17855494Y-25046133D01*
X17836447Y-25036609D01*
X17807875Y-25036609D01*
X17788828Y-25027086D01*
X17779304Y-25008038D01*
X17779304Y-24998514D01*
X17788828Y-24979467D01*
X17807875Y-24969943D01*
X17836447Y-24969943D01*
X17855494Y-24979467D01*
X17931685Y-25179467D02*
X17941209Y-25169943D01*
X17960256Y-25141371D01*
X17969780Y-25122324D01*
X17979304Y-25093752D01*
X17988828Y-25046133D01*
X17988828Y-25008038D01*
X17979304Y-24960419D01*
X17969780Y-24931848D01*
X17960256Y-24912800D01*
X17941209Y-24884228D01*
X17931685Y-24874705D01*
M02*
